<svg width="45" height="45" viewBox="0 0 45 45" fill="none" xmlns="http://www.w3.org/2000/svg">
<rect width="45" height="45" rx="20" fill="url(#paint0_linear)"/>
<path d="M35.8193 14.9831L29.8808 10L28.2155 11.9752L34.1539 16.9583L35.8193 14.9831ZM17.5909 11.9752L15.9384 10L10 14.9702L11.6653 16.9454L17.5909 11.9752ZM23.5551 17.9265H21.6187V25.6723L27.7507 29.3515L28.719 27.7637L23.5551 24.7041V17.9265ZM22.9096 12.7627C16.4935 12.7627 11.291 17.9652 11.291 24.3813C11.291 30.7974 16.4806 36 22.9096 36C29.3257 36 34.5283 30.7974 34.5283 24.3813C34.5283 17.9652 29.3257 12.7627 22.9096 12.7627ZM22.9096 33.92C17.9136 33.92 13.37 29.3774 13.37 24.3813C13.37 19.3853 17.9136 14.84 22.9096 14.84C27.9057 14.84 32.45 19.3853 32.45 24.3813C32.45 29.3774 27.9057 33.92 22.9096 33.92Z" fill="#6392CA"/>
<defs>
<linearGradient id="paint0_linear" x1="41.4474" y1="41.8421" x2="4.3421" y2="5.52632" gradientUnits="userSpaceOnUse">
<stop stop-color="#86BEFF"/>
<stop offset="1" stop-color="#BCD7FE"/>
</linearGradient>
</defs>
</svg>
