<svg width="100" height="100" viewBox="0 0 100 100" fill="none" xmlns="http://www.w3.org/2000/svg">
<rect width="100" height="100" rx="40" fill="white"/>
<g clip-path="url(#clip0)">
<path d="M74.9909 72.7374L71.3759 40.4133C71.2929 39.6719 70.6661 39.1113 69.9201 39.1113H60.8886V36.5234C60.8886 30.5194 56.004 25.6348 50 25.6348C43.996 25.6348 39.1114 30.5194 39.1114 36.5234V39.1113H30.0752C29.3291 39.1113 28.7021 39.672 28.6194 40.4135L25.0091 72.7376C24.9628 73.1519 25.0952 73.5661 25.3731 73.8769C25.6511 74.1876 26.048 74.3651 26.4649 74.3651H73.5352C73.9521 74.3651 74.3492 74.1876 74.6271 73.8769C74.9051 73.5661 75.0373 73.1517 74.9909 72.7374ZM42.041 36.5234C42.041 32.1348 45.6114 28.5644 50 28.5644C54.3885 28.5644 57.9589 32.1348 57.9589 36.5234V39.1113H42.041V36.5234ZM28.1024 71.4354L31.3855 42.041H39.1114V45.2227C37.4064 45.8274 36.1817 47.4556 36.1817 49.3651C36.1817 51.7883 38.1531 53.7597 40.5762 53.7597C42.9993 53.7597 44.9707 51.7883 44.9707 49.3651C44.9707 47.4555 43.746 45.8274 42.041 45.2227V42.041H57.9589V45.2227C56.254 45.8274 55.0293 47.4556 55.0293 49.3651C55.0293 51.7883 57.0006 53.7597 59.4238 53.7597C61.8469 53.7597 63.8183 51.7883 63.8183 49.3651C63.8183 47.4555 62.5936 45.8274 60.8886 45.2227V42.041H68.61L71.8974 71.4354H28.1024ZM40.5762 47.9004C41.3839 47.9004 42.041 48.5575 42.041 49.3652C42.041 50.173 41.3839 50.8301 40.5762 50.8301C39.7685 50.8301 39.1114 50.173 39.1114 49.3652C39.1114 48.5575 39.7684 47.9004 40.5762 47.9004ZM59.4238 47.9004C60.2315 47.9004 60.8886 48.5575 60.8886 49.3652C60.8886 50.173 60.2315 50.8301 59.4238 50.8301C58.6161 50.8301 57.9589 50.173 57.9589 49.3652C57.9589 48.5575 58.616 47.9004 59.4238 47.9004Z" fill="#6392CA"/>
</g>
<defs>
<clipPath id="clip0">
<rect width="50" height="50" fill="white" transform="translate(25 25)"/>
</clipPath>
</defs>
</svg>
