<svg width="20" height="25" viewBox="0 0 20 25" fill="none" xmlns="http://www.w3.org/2000/svg">
<path d="M16.8725 16.8402L16.8727 16.8405L18.3986 19.3728H0.696386L2.2223 16.8405L2.22247 16.8402C3.0347 15.4906 3.46455 13.9457 3.46455 12.3708V9.98639C3.46455 6.64968 6.1925 3.9288 9.54748 3.9288C12.9025 3.9288 15.6304 6.64968 15.6304 9.98639V12.3708C15.6304 13.9457 16.0603 15.4906 16.8725 16.8402Z" stroke="#3A78BC" stroke-width="1.2"/>
<mask id="path-2-inside-1" fill="white">
<path d="M9.54713 0C8.49407 0 7.6377 0.853125 7.6377 1.90219V3.80438C7.6377 4.06683 7.85157 4.27989 8.11506 4.27989C8.37856 4.27989 8.59243 4.06683 8.59243 3.80433V1.90219C8.59243 1.37719 9.02013 0.951117 9.54713 0.951117C10.0741 0.951117 10.5018 1.37719 10.5018 1.90219V3.80438C10.5018 4.06683 10.7157 4.27989 10.9792 4.27989C11.2427 4.27989 11.4566 4.06683 11.4566 3.80433V1.90219C11.4566 0.853125 10.6002 0 9.54713 0Z"/>
</mask>
<path d="M10.5018 3.80438H9.30182H10.5018ZM9.54713 -1.2C7.83563 -1.2 6.4377 0.186088 6.4377 1.90219H8.8377C8.8377 1.52016 9.15251 1.2 9.54713 1.2V-1.2ZM6.4377 1.90219V3.80438H8.8377V1.90219H6.4377ZM6.4377 3.80438C6.4377 4.73394 7.1932 5.47989 8.11506 5.47989V3.07989C8.50993 3.07989 8.8377 3.39972 8.8377 3.80438H6.4377ZM8.11506 5.47989C9.037 5.47989 9.79243 4.73387 9.79243 3.80433H7.39243C7.39243 3.3998 7.72013 3.07989 8.11506 3.07989V5.47989ZM9.79243 3.80433V1.90219H7.39243V3.80433H9.79243ZM9.79243 1.90219C9.79243 2.04422 9.67857 2.15112 9.54713 2.15112V-0.248883C8.36169 -0.248883 7.39243 0.710153 7.39243 1.90219H9.79243ZM9.54713 2.15112C9.41569 2.15112 9.30182 2.04423 9.30182 1.90219H11.7018C11.7018 0.710152 10.7326 -0.248883 9.54713 -0.248883V2.15112ZM9.30182 1.90219V3.80438H11.7018V1.90219H9.30182ZM9.30182 3.80438C9.30182 4.73394 10.0573 5.47989 10.9792 5.47989V3.07989C11.3741 3.07989 11.7018 3.39973 11.7018 3.80438H9.30182ZM10.9792 5.47989C11.9011 5.47989 12.6566 4.73387 12.6566 3.80433H10.2566C10.2566 3.3998 10.5842 3.07989 10.9792 3.07989V5.47989ZM12.6566 3.80433V1.90219H10.2566V3.80433H12.6566ZM12.6566 1.90219C12.6566 0.186089 11.2586 -1.2 9.54713 -1.2V1.2C9.94174 1.2 10.2566 1.52016 10.2566 1.90219H12.6566Z" fill="#3A78BC" mask="url(#path-2-inside-1)"/>
<path d="M10.9594 20.1734C11.1876 20.0431 11.4788 20.1173 11.6134 20.3437C11.8244 20.7032 11.9361 21.115 11.9361 21.5354C11.9342 22.8469 10.864 23.9131 9.54744 23.9131C8.23088 23.9131 7.16069 22.8469 7.16064 21.5354C7.16064 21.115 7.27234 20.7032 7.48335 20.3437C7.61698 20.1173 7.90724 20.0431 8.13731 20.1734" stroke="#3A78BC" stroke-width="1.2"/>
</svg>
