<svg width="50" height="50" viewBox="0 0 50 50" fill="none" xmlns="http://www.w3.org/2000/svg">
<rect width="50" height="50" rx="20" fill="#5B72EC"/>
<path d="M16.5193 14.1567L11.1072 17.0292C11.0145 17.0778 10.927 17.1331 10.8442 17.1936L24.6836 24.4102L30.4788 21.5438L16.5193 14.1567Z" fill="white"/>
<path d="M39.9974 18.7962L33.0738 22.2207V26.0786C33.0738 26.5639 32.6804 26.9573 32.1952 26.9573C31.71 26.9573 31.3166 26.5639 31.3166 26.0786V23.0898L25.5518 25.9412V39.9038C25.5698 39.8954 25.5881 39.8877 25.606 39.8788L38.8588 33.1636C39.5629 32.8116 40.0001 32.1043 40.0001 31.3168V18.8738C40.0001 18.8478 39.9984 18.822 39.9974 18.7962Z" fill="white"/>
<path d="M38.8587 17.027L25.6113 10.3146L25.6058 10.3119C25.0159 10.0182 24.315 10.0248 23.7307 10.3295L18.395 13.1612L32.4206 20.5832L39.1905 17.2348C39.0878 17.1565 38.9774 17.0863 38.8587 17.027Z" fill="white"/>
<path d="M10.0042 18.7373C10.0018 18.7776 10 18.8179 10 18.8585V31.332C10 32.1032 10.4242 32.8038 11.1072 33.1614L23.7251 39.8582L23.7307 39.8612C23.7517 39.8721 23.7732 39.8818 23.7944 39.8919V25.9283L10.0042 18.7373Z" fill="white"/>
</svg>
