<svg width="28" height="28" fill="none" xmlns="http://www.w3.org/2000/svg"><path d="M10.9375 9.83118h2.0051v1.64062h-2.0051V9.83118zM10.9375 6.57446h2.0051v1.64063h-2.0051V6.57446zM10.9375 3.31787h2.0051V4.9585h-2.0051V3.31787zM10.9375 13.0892h2.0051v1.6407h-2.0051v-1.6407zM15.0575 9.83118h2.0051v1.64062h-2.0051V9.83118zM15.0575 6.57446h2.0051v1.64063h-2.0051V6.57446zM15.0575 3.31787h2.0051V4.9585h-2.0051V3.31787zM15.0575 13.0892h2.0051v1.6407h-2.0051v-1.6407z" fill="#A64F74"/><path d="M26.3685 22.5312V6.31313l-5.6002-3.06251V0H7.23177v9.50458H1.63149V22.5312H0V28h28v-5.4688h-1.6315zM24.7279 7.28585v.8569h-2.0824v1.64062h2.0824v1.61603h-2.0824V13.04h2.0824v1.6161h-2.0824v1.6406h2.0824v6.2345h-3.9596V5.12055l3.9596 2.1653zm-5.6002-5.64523V22.5312h-2.0652v-6.2937h-6.125v6.2937H8.87239V1.64062H19.1277zM15.4219 22.5312h-2.8438v-4.653h2.8438v4.653zM3.27212 20.9138h2.08233v-1.6406H3.27212v-1.616h2.08233v-1.6407H3.27212v-1.616h2.08233v-1.6406H3.27212v-1.6147h3.95959v11.386H3.27212v-1.6174zm23.08728 5.4456H1.64062v-2.1875H26.3594v2.1875z" fill="#A64F74"/></svg>
