<svg width="45" height="45" viewBox="0 0 45 45" fill="none" xmlns="http://www.w3.org/2000/svg">
<rect width="45" height="45" rx="20" fill="url(#paint0_linear)"/>
<path d="M34.1415 30.1784L34.0445 29.8873C33.9394 29.5719 33.9729 29.24 34.1388 28.9528C34.3046 28.6655 34.5753 28.4706 34.901 28.4039L35.2016 28.3423C36.007 28.1774 36.7045 27.6747 37.1152 26.9632C37.5588 26.195 37.6241 25.2815 37.2944 24.4571C36.9638 23.6309 36.2846 23.013 35.4305 22.7615L31.4456 21.5887C31.2271 18.7381 29.6511 16.0362 26.9904 14.5C24.3297 12.9639 21.2019 12.95 18.6239 14.1861L15.6159 11.3214C14.9711 10.7076 14.0962 10.4282 13.2154 10.5551C12.3365 10.6817 11.578 11.195 11.1345 11.9632C10.7237 12.6747 10.6372 13.5301 10.897 14.3101L10.994 14.6013C11.0991 14.9166 11.0656 15.2485 10.8997 15.5357C10.7339 15.823 10.4633 16.0179 10.1376 16.0846L9.83695 16.1462C9.03151 16.3111 8.33401 16.8138 7.92324 17.5253C7.47969 18.2935 7.41438 19.207 7.74415 20.0314C7.98779 20.6406 8.42096 21.1365 8.97407 21.4558C9.17116 21.5696 9.38361 21.661 9.60802 21.7271L13.5929 22.8998C13.8114 25.7504 15.3874 28.4523 18.048 29.9885C20.7087 31.5246 23.8366 31.5385 26.4146 30.3024L29.4227 33.1671C29.592 33.3284 29.7774 33.4666 29.9745 33.5804C30.5276 33.8997 31.1737 34.027 31.8231 33.9334C32.7019 33.8067 33.4603 33.2935 33.9039 32.5252C34.3148 31.8138 34.4013 30.9584 34.1415 30.1784ZM14.6504 17.9616C14.6218 18.0142 14.5942 18.0671 14.5667 18.12C14.5601 18.1327 14.5532 18.1452 14.5466 18.158C14.2388 18.758 14.0059 19.3787 13.8443 20.009C13.8431 20.0139 13.8417 20.0187 13.8404 20.0237C13.8272 20.0757 13.8147 20.1279 13.8025 20.1801C13.797 20.2032 13.7913 20.2262 13.7861 20.2493C13.7789 20.2807 13.7724 20.3122 13.7657 20.3436C13.756 20.3884 13.7462 20.4333 13.7372 20.4783C13.7359 20.4848 13.7347 20.4913 13.7334 20.4978C13.6935 20.6997 13.66 20.9032 13.634 21.1078L10.0967 20.0667C9.75493 19.9662 9.48319 19.719 9.3511 19.3887C9.21975 19.0601 9.24565 18.6964 9.42216 18.3907C9.58561 18.1076 9.86344 17.9075 10.1843 17.8418L10.4849 17.7802C11.2904 17.6152 11.9879 17.1126 12.3987 16.4011C12.8094 15.6897 12.8959 14.8343 12.6361 14.0543L12.5391 13.7631C12.4355 13.4524 12.4699 13.1117 12.6334 12.8286C12.8099 12.5229 13.112 12.3186 13.4622 12.2681C13.7218 12.2307 13.9801 12.2816 14.2012 12.4093C14.2801 12.4548 14.3543 12.5102 14.4221 12.5748L17.0924 15.1176C16.9282 15.2424 16.7687 15.3732 16.6137 15.5089C16.6087 15.5133 16.6036 15.5175 16.5987 15.5219C16.5643 15.5522 16.5303 15.5831 16.4963 15.6139C16.4725 15.6355 16.4484 15.6569 16.4248 15.6788C16.4075 15.6949 16.3904 15.7114 16.3731 15.7275C16.3341 15.7643 16.2951 15.8011 16.2566 15.8386C16.253 15.8421 16.2495 15.8458 16.2458 15.8493C15.7808 16.3044 15.3596 16.8165 14.9939 17.3831C14.9862 17.3951 14.9788 17.4073 14.9711 17.4194C14.939 17.4697 14.907 17.52 14.8758 17.5711C14.8366 17.6352 14.7982 17.6998 14.7606 17.7649C14.723 17.8301 14.6863 17.8956 14.6504 17.9616ZM28.6669 26.0452C28.6567 26.0617 28.6462 26.078 28.6359 26.0944C28.6059 26.1422 28.5754 26.1895 28.5442 26.2364C28.5345 26.2511 28.5248 26.2658 28.515 26.2804C28.4754 26.3391 28.4353 26.3974 28.3941 26.455C28.3937 26.4556 28.3932 26.4563 28.3928 26.4568C28.3027 26.5824 28.2086 26.7047 28.1109 26.824C28.1066 26.8292 28.1024 26.8344 28.098 26.8397C28.0504 26.8973 28.0021 26.9544 27.9528 27.0105C27.9524 27.011 27.952 27.0115 27.9516 27.0119C27.8529 27.1244 27.7506 27.2334 27.6452 27.3393C27.632 27.3526 27.6187 27.3656 27.6055 27.3788C27.5693 27.4146 27.5327 27.4498 27.4957 27.4848C27.477 27.5025 27.4584 27.5205 27.4395 27.538C27.409 27.5662 27.3779 27.594 27.347 27.6217C27.2906 27.6721 27.2337 27.7218 27.1759 27.7702C27.1694 27.7756 27.1631 27.7812 27.1565 27.7866C24.8977 29.667 21.6086 30.0457 18.9134 28.4897C16.2184 26.9337 14.902 23.8963 15.4007 21.0001C15.4023 20.9906 15.4042 20.9811 15.4059 20.9715C15.4187 20.8994 15.4327 20.8273 15.4478 20.7553C15.4566 20.7134 15.4653 20.6714 15.4749 20.6296C15.4805 20.6049 15.4866 20.5803 15.4924 20.5556C15.5044 20.5057 15.5168 20.4558 15.5298 20.406C15.5344 20.3884 15.5391 20.3708 15.5437 20.3532C15.5828 20.2087 15.6262 20.0652 15.6742 19.9233C15.6743 19.923 15.6744 19.9227 15.6745 19.9225C15.6986 19.8514 15.7239 19.7807 15.7502 19.7104C15.7525 19.7042 15.7549 19.698 15.7572 19.6919C15.8116 19.5476 15.8706 19.4048 15.9343 19.2639C15.9347 19.2633 15.935 19.2625 15.9353 19.2619C15.9644 19.1974 15.9949 19.1334 16.0261 19.0697C16.0337 19.054 16.0416 19.0384 16.0493 19.0227C16.0745 18.9723 16.1003 18.9221 16.1266 18.8721C16.1356 18.8549 16.1445 18.8377 16.1537 18.8207C16.1881 18.7567 16.2232 18.6931 16.2596 18.6302C16.2959 18.5672 16.3335 18.505 16.3716 18.4432C16.3819 18.4267 16.3923 18.4104 16.4026 18.394C16.4327 18.3462 16.4633 18.2988 16.4944 18.2518C16.5041 18.2372 16.5137 18.2226 16.5235 18.2082C16.5631 18.1494 16.6032 18.091 16.6445 18.0335C16.6449 18.0328 16.6454 18.0321 16.6458 18.0316C16.7359 17.906 16.8301 17.7836 16.9279 17.6643C16.9321 17.6592 16.9363 17.654 16.9404 17.6489C16.9882 17.591 17.0367 17.5337 17.0862 17.4773C17.0864 17.4771 17.0866 17.4769 17.0868 17.4766C17.1857 17.3641 17.2882 17.2548 17.3938 17.1487C17.4067 17.1358 17.4197 17.123 17.4326 17.1102C17.4692 17.0741 17.5062 17.0384 17.5435 17.0031C17.5619 16.9856 17.5802 16.968 17.5988 16.9508C17.6303 16.9217 17.6622 16.8931 17.6941 16.8645C17.7489 16.8156 17.8043 16.7674 17.8604 16.7202C17.8678 16.7139 17.8751 16.7076 17.8826 16.7013C20.1413 14.8215 23.43 14.4429 26.125 15.9988C28.8202 17.5549 30.1367 20.5927 29.6377 23.489C29.6363 23.4973 29.6347 23.5057 29.6332 23.514C29.6201 23.5882 29.6056 23.6623 29.5902 23.7363C29.5816 23.777 29.5732 23.8178 29.5639 23.8583C29.5582 23.8835 29.552 23.9086 29.546 23.9337C29.5341 23.9831 29.5219 24.0325 29.5091 24.0817C29.5044 24.0997 29.4996 24.1177 29.4947 24.1358C29.4557 24.2801 29.4125 24.4232 29.3644 24.5649C29.3642 24.5655 29.364 24.5661 29.3638 24.5666C29.3399 24.6374 29.3146 24.7078 29.2884 24.7778C29.2861 24.784 29.2837 24.7904 29.2813 24.7968C29.2269 24.941 29.1679 25.0837 29.1043 25.2245C29.1039 25.2252 29.1036 25.2259 29.1033 25.2266C29.0741 25.291 29.0438 25.3549 29.0126 25.4186C29.0049 25.4343 28.997 25.4501 28.9891 25.4658C28.964 25.5162 28.9382 25.5663 28.912 25.6162C28.9029 25.6334 28.8941 25.6507 28.8848 25.6677C28.8504 25.7317 28.8153 25.7953 28.779 25.8582C28.7426 25.9212 28.7051 25.9834 28.6669 26.0452ZM32.4024 30.4342L32.4994 30.7254C32.603 31.0362 32.5686 31.3767 32.4052 31.6598C32.2286 31.9656 31.9265 32.1699 31.5764 32.2203C31.2242 32.271 30.8742 32.1593 30.6165 31.9137L27.9462 29.3708C28.1104 29.2461 28.2699 29.1153 28.4249 28.9795C28.4298 28.9752 28.4349 28.9709 28.4399 28.9666C28.4743 28.9363 28.5082 28.9053 28.5423 28.8746C28.5661 28.853 28.5901 28.8316 28.6138 28.8096C28.6311 28.7935 28.6482 28.7771 28.6655 28.7609C28.7045 28.7242 28.7435 28.6873 28.782 28.6498C28.7856 28.6463 28.7891 28.6427 28.7928 28.6391C29.2578 28.184 29.6789 27.6719 30.0446 27.1053C30.0524 27.0934 30.0598 27.0811 30.0675 27.069C30.0996 27.0187 30.1316 26.9684 30.1628 26.9173C30.202 26.8532 30.2404 26.7887 30.278 26.7235C30.3156 26.6583 30.3523 26.5928 30.3882 26.5269C30.4169 26.4742 30.4445 26.4214 30.472 26.3684C30.4785 26.3558 30.4854 26.3433 30.492 26.3305C30.7998 25.7305 31.0327 25.1097 31.1943 24.4794C31.1955 24.4745 31.197 24.4697 31.1982 24.4648C31.2115 24.4127 31.2239 24.3605 31.2362 24.3083C31.2416 24.2853 31.2474 24.2623 31.2525 24.2392C31.2597 24.2077 31.2662 24.1762 31.273 24.1448C31.2827 24.1 31.2925 24.0552 31.3015 24.0102C31.3028 24.0037 31.3039 23.9972 31.3052 23.9907C31.3453 23.7885 31.3788 23.5851 31.4047 23.3805L34.9421 24.4216C35.2837 24.5221 35.5554 24.7692 35.6875 25.0996C35.8189 25.4281 35.793 25.7919 35.6165 26.0976C35.4531 26.3807 35.1753 26.5807 34.8543 26.6465L34.5537 26.7081C33.7482 26.8731 33.0508 27.3757 32.64 28.0871C32.2292 28.7986 32.1426 29.6543 32.4024 30.4342Z" fill="#6392CA"/>
<defs>
<linearGradient id="paint0_linear" x1="41.4474" y1="41.8421" x2="4.3421" y2="5.52632" gradientUnits="userSpaceOnUse">
<stop stop-color="#86BEFF"/>
<stop offset="1" stop-color="#BCD7FE"/>
</linearGradient>
</defs>
</svg>
