<svg width="16" height="16" viewBox="0 0 16 16" fill="none" xmlns="http://www.w3.org/2000/svg">
<g clip-path="url(#clip0)">
<path d="M15.531 2.81272H11.9663C12.1264 2.53669 12.2186 2.21657 12.2186 1.87517C12.2186 0.839533 11.3712 -0.0440468 10.3229 0.00173369C9.59313 0.0333582 9.01261 0.38579 8.68827 0.994031C8.68824 0.994062 8.68824 0.994124 8.68821 0.994156L7.99988 2.28517L7.31148 0.994062C6.98686 0.38529 6.40581 0.0328894 5.67526 0.00182743C4.6304 -0.0428906 3.78122 0.837189 3.78122 1.87527C3.78122 2.21667 3.87338 2.53673 4.03347 2.81275H0.468743C0.209872 2.81275 0 3.02262 0 3.2815V6.09395C0 6.35282 0.209872 6.56269 0.468743 6.56269H0.937485V15.5313C0.937485 15.7902 1.14736 16 1.40623 16H14.5935C14.8524 16 15.0623 15.7902 15.0623 15.5313V6.56269H15.531C15.7899 6.56269 15.9998 6.35282 15.9998 6.09395V3.2815C15.9998 3.02256 15.7899 2.81272 15.531 2.81272ZM10.3635 0.938313C10.8697 0.916719 11.2811 1.36456 11.2811 1.87514C11.2811 2.3921 10.8605 2.81269 10.3436 2.81269H8.78102L9.51548 1.43521C9.51551 1.43518 9.51554 1.43515 9.51554 1.43509C9.68213 1.12262 9.96744 0.9555 10.3635 0.938313ZM4.71868 1.87524C4.71868 1.36315 5.13155 0.916907 5.63538 0.938438C6.03191 0.955313 6.3175 1.1224 6.48421 1.43512L7.21873 2.81272H5.65616C5.13923 2.81272 4.71868 2.39217 4.71868 1.87524ZM14.1248 15.0625H1.87497V6.56266H14.1248V15.0625ZM15.0623 5.62518H0.937485V3.75021H15.0623V5.62518Z" fill="black"/>
</g>
<defs>
<clipPath id="clip0">
<rect width="16" height="16" fill="white"/>
</clipPath>
</defs>
</svg>
