<svg width="45" height="45" viewBox="0 0 45 45" fill="none" xmlns="http://www.w3.org/2000/svg">
<rect width="45" height="45" rx="20" fill="url(#paint0_linear)"/>
<path d="M32.046 12.954C29.4962 10.4042 26.106 9 22.5 9C18.894 9 15.5038 10.4042 12.954 12.954C10.4043 15.5038 9 18.894 9 22.5C9 26.106 10.4043 29.4962 12.954 32.046C15.5038 34.5958 18.894 36 22.5 36C26.106 36 29.4962 34.5958 32.046 32.046C34.5957 29.4962 36 26.106 36 22.5C36 18.894 34.5957 15.5038 32.046 12.954ZM22.5 34.418C15.9284 34.418 10.582 29.0716 10.582 22.5C10.582 15.9284 15.9284 10.582 22.5 10.582C29.0716 10.582 34.418 15.9284 34.418 22.5C34.418 29.0716 29.0716 34.418 22.5 34.418Z" fill="#6392CA"/>
<path d="M23.3473 21.7093H21.6527C20.6873 21.7093 19.9019 20.9239 19.9019 19.9586C19.9019 18.9932 20.6874 18.2078 21.6527 18.2078H25.0418C25.4786 18.2078 25.8328 17.8536 25.8328 17.4168C25.8328 16.9799 25.4786 16.6258 25.0418 16.6258H23.291V14.875C23.291 14.4381 22.9368 14.084 22.5 14.084C22.0631 14.084 21.709 14.4381 21.709 14.875V16.6258H21.6528C19.815 16.6258 18.3199 18.1209 18.3199 19.9586C18.3199 21.7963 19.8151 23.2914 21.6528 23.2914H23.3473C24.3127 23.2914 25.0981 24.0768 25.0981 25.0421C25.0981 26.0075 24.3127 26.7929 23.3473 26.7929H19.9582C19.5214 26.7929 19.1672 27.1471 19.1672 27.5839C19.1672 28.0208 19.5214 28.3749 19.9582 28.3749H21.709V30.1258C21.709 30.5626 22.0631 30.9168 22.5 30.9168C22.9368 30.9168 23.291 30.5626 23.291 30.1258V28.3749H23.3473C25.185 28.3749 26.68 26.8798 26.68 25.0421C26.68 23.2044 25.185 21.7093 23.3473 21.7093Z" fill="#6392CA"/>
<defs>
<linearGradient id="paint0_linear" x1="41.4474" y1="41.8421" x2="4.3421" y2="5.52632" gradientUnits="userSpaceOnUse">
<stop stop-color="#86BEFF"/>
<stop offset="1" stop-color="#BCD7FE"/>
</linearGradient>
</defs>
</svg>
