<svg width="17" height="17" viewBox="0 0 17 17" fill="none" xmlns="http://www.w3.org/2000/svg">
<path d="M17 11.5049C17 9.02697 15.3304 6.86202 12.9759 6.20963C12.8279 2.76053 9.97611 0 6.49121 0C2.91189 0 0 2.91189 0 6.49121C0 7.65773 0.310501 8.79351 0.900116 9.79064L0.0238647 12.9584L3.19178 12.0823C4.10837 12.6243 5.14233 12.9296 6.2095 12.9757C6.86176 15.3302 9.02684 17 11.5049 17C12.494 17 13.4558 16.7366 14.3009 16.2361L16.976 16.976L16.2361 14.3009C16.7366 13.4558 17 12.494 17 11.5049ZM3.34898 11.0053L1.45251 11.5299L1.97714 9.63345L1.85756 9.44642C1.29401 8.56472 0.996094 7.54282 0.996094 6.49121C0.996094 3.46117 3.46117 0.996094 6.49121 0.996094C9.52126 0.996094 11.9863 3.46117 11.9863 6.49121C11.9863 9.52126 9.52126 11.9863 6.49121 11.9863C5.43961 11.9863 4.41783 11.6884 3.536 11.1249L3.34898 11.0053ZM15.5475 15.5475L14.1403 15.1581L13.9523 15.2804C13.2238 15.7537 12.3774 16.0039 11.5049 16.0039C9.55731 16.0039 7.84592 14.7447 7.23958 12.939C10.2219 12.5951 12.5951 10.2219 12.9391 7.23945C14.7447 7.84592 16.0039 9.55731 16.0039 11.5049C16.0039 12.3774 15.7537 13.2238 15.2804 13.9523L15.1581 14.1403L15.5475 15.5475Z" fill="black"/>
<path d="M5.99316 8.99805H6.98926V9.99414H5.99316V8.99805Z" fill="black"/>
<path d="M7.4873 4.98047C7.4873 5.26334 7.37213 5.52443 7.16306 5.71574L5.99316 6.78654V8.00195H6.98926V7.22518L7.83555 6.45061C8.24722 6.07384 8.4834 5.53805 8.4834 4.98047C8.4834 3.88191 7.58977 2.98828 6.49121 2.98828C5.39265 2.98828 4.49902 3.88191 4.49902 4.98047H5.49512C5.49512 4.43119 5.94193 3.98438 6.49121 3.98438C7.04049 3.98438 7.4873 4.43119 7.4873 4.98047Z" fill="black"/>
</svg>
