<svg width="18" height="18" viewBox="0 0 18 18" fill="none" xmlns="http://www.w3.org/2000/svg">
<path d="M17.9789 1.34386C17.9399 0.628852 17.3713 0.0602701 16.6563 0.0212467C15.2135 -0.0575737 12.3903 0.0191022 9.69076 1.4154C8.31457 2.12725 6.8591 3.33413 5.69757 4.72659C5.68326 4.74375 5.66934 4.76101 5.65514 4.7782L3.01912 4.98183C2.58522 5.01537 2.19875 5.24279 1.95877 5.60575L0.160392 8.32586C-0.0216123 8.60113 -0.0505459 8.94563 0.0829424 9.24737C0.216466 9.54915 0.490825 9.75946 0.816899 9.80998L3.03775 10.1539C3.02992 10.1971 3.02204 10.2403 3.01483 10.2834C2.9409 10.7257 3.08743 11.1804 3.40686 11.4998L6.50033 14.5933C6.76516 14.8581 7.12302 15.0041 7.4897 15.0041C7.56521 15.0041 7.64115 14.9979 7.71674 14.9853C7.75991 14.9781 7.80304 14.9702 7.84622 14.9624L8.19018 17.1833C8.2407 17.5093 8.45101 17.7837 8.75272 17.9172C8.87826 17.9728 9.01112 18.0002 9.14338 18.0002C9.32911 18.0002 9.51354 17.9461 9.67427 17.8398L12.3944 16.0414C12.7574 15.8014 12.9848 15.4149 13.0182 14.981L13.2219 12.3451C13.239 12.3309 13.2563 12.3169 13.2735 12.3026C14.666 11.1411 15.8729 9.68563 16.5847 8.3094C17.9811 5.60972 18.0576 2.7865 17.9789 1.34386ZM11.8127 15.1616L9.21077 16.8819L8.87552 14.7175C9.97521 14.3941 11.063 13.8763 12.0994 13.1826L11.9668 14.8998C11.9585 15.0069 11.9023 15.1023 11.8127 15.1616ZM7.2461 13.8475L4.15259 10.754C4.07367 10.6751 4.03718 10.5641 4.05507 10.4573C4.14704 9.90736 4.28995 9.38385 4.46686 8.89068L9.10847 13.5323C8.51615 13.7445 7.98561 13.871 7.54282 13.9451C7.4358 13.9628 7.32502 13.9265 7.2461 13.8475ZM3.10037 6.03339L4.81754 5.90074C4.12377 6.93711 3.60592 8.02495 3.28258 9.12464L1.11822 8.78943L2.83856 6.18744C2.89783 6.09779 2.99328 6.04165 3.10037 6.03339ZM12.598 11.4927C11.7461 12.2033 10.9191 12.7173 10.1568 13.0892L4.91077 7.84313C5.39797 6.84806 5.99257 6.01947 6.50747 5.40219C7.58237 4.11354 8.91926 3.00186 10.1754 2.35218C12.653 1.07063 15.2633 1.00161 16.5989 1.07432C16.7756 1.08395 16.9162 1.22454 16.9258 1.40134C16.9987 2.73686 16.9295 5.34721 15.6479 7.82484C14.9983 9.08091 13.8866 10.4178 12.598 11.4927Z" fill="black"/>
<path d="M12.33 8.30542C13.0051 8.30535 13.6804 8.04836 14.1944 7.53441C14.6924 7.03642 14.9666 6.37429 14.9666 5.67004C14.9666 4.96579 14.6924 4.30366 14.1944 3.80567C13.1663 2.77759 11.4936 2.77766 10.4656 3.80567C9.96761 4.30366 9.69336 4.96579 9.69336 5.67004C9.69336 6.37429 9.96765 7.03642 10.4656 7.53441C10.9797 8.04846 11.6547 8.30549 12.33 8.30542ZM11.2113 4.5514C11.5197 4.24298 11.9248 4.08878 12.3299 4.08878C12.7351 4.08878 13.1402 4.24298 13.4486 4.5514C13.7474 4.85019 13.9119 5.24746 13.9119 5.67C13.9119 6.09255 13.7474 6.48985 13.4486 6.78864C12.8318 7.40546 11.8281 7.40542 11.2113 6.78864C10.9125 6.48985 10.7479 6.09258 10.7479 5.67004C10.7479 5.2475 10.9125 4.85019 11.2113 4.5514Z" fill="black"/>
<path d="M0.538068 14.8338C0.673033 14.8338 0.807998 14.7823 0.910936 14.6793L2.63264 12.9576C2.83859 12.7516 2.83859 12.4177 2.63264 12.2118C2.42673 12.0059 2.09282 12.0059 1.88687 12.2118L0.165201 13.9335C-0.0407441 14.1395 -0.0407441 14.4733 0.165201 14.6793C0.268139 14.7823 0.403104 14.8338 0.538068 14.8338Z" fill="black"/>
<path d="M4.21033 13.7897C4.00442 13.5837 3.67051 13.5837 3.46456 13.7897L0.154459 17.0998C-0.0514863 17.3057 -0.0514863 17.6396 0.154459 17.8456C0.257432 17.9485 0.392361 18 0.527326 18C0.662291 18 0.797256 17.9485 0.900193 17.8455L4.21029 14.5354C4.41628 14.3295 4.41628 13.9956 4.21033 13.7897Z" fill="black"/>
<path d="M5.04267 15.3675L3.32096 17.0892C3.11502 17.2952 3.11502 17.629 3.32096 17.835C3.42394 17.938 3.5589 17.9895 3.69383 17.9895C3.82876 17.9895 3.96376 17.938 4.0667 17.835L5.7884 16.1133C5.99434 15.9073 5.99434 15.5734 5.7884 15.3675C5.58249 15.1616 5.24858 15.1616 5.04267 15.3675Z" fill="black"/>
</svg>
