<svg width="87" height="87" viewBox="0 0 87 87" fill="none" xmlns="http://www.w3.org/2000/svg">
<rect width="87" height="87" rx="20" fill="url(#paint0_linear)"/>
<path d="M33.1811 40.912H28.7011V43.568H33.0531V45.68H28.7011V50H26.4931V38.8H33.1811V40.912ZM40.934 50L38.678 46.112H36.998V50H34.79V38.8H39.27C40.3047 38.8 41.1847 39.1627 41.91 39.888C42.6353 40.6133 42.998 41.488 42.998 42.512C42.998 43.2053 42.8007 43.8507 42.406 44.448C42.0113 45.0347 41.4887 45.4773 40.838 45.776L43.318 50H40.934ZM36.998 40.864V44.176H39.27C39.686 44.176 40.0433 44.016 40.342 43.696C40.6407 43.3653 40.79 42.9707 40.79 42.512C40.79 42.0533 40.6407 41.664 40.342 41.344C40.0433 41.024 39.686 40.864 39.27 40.864H36.998ZM46.8261 47.888H51.5461V50H44.6181V38.8H51.4661V40.912H46.8261V43.296H51.0661V45.376H46.8261V47.888ZM55.3105 47.888H60.0305V50H53.1025V38.8H59.9505V40.912H55.3105V43.296H59.5505V45.376H55.3105V47.888Z" fill="#A64F74"/>
<defs>
<linearGradient id="paint0_linear" x1="80.1316" y1="80.8947" x2="8.39474" y2="10.6842" gradientUnits="userSpaceOnUse">
<stop stop-color="#FF86BA"/>
<stop offset="1" stop-color="#FEBCD8"/>
</linearGradient>
</defs>
</svg>
