<svg width="28" height="28" fill="none" xmlns="http://www.w3.org/2000/svg"><path d="M23.8995 4.10047C21.2552 1.45622 17.7395 0 14 0c-3.7395 0-7.25523 1.45622-9.89953 4.10047C1.45616 6.74472 0 10.2605 0 14c0 3.7395 1.45622 7.2552 4.10047 9.8995C6.74472 26.5438 10.2605 28 14 28c3.7395 0 7.2552-1.4562 9.8995-4.1005C26.5438 21.2553 28 17.7395 28 14c0-3.7395-1.4562-7.25523-4.1005-9.89953zm-.1166 17.26373c-.8372-.5667-1.7136-1.0563-2.6223-1.4651.4013-1.565.6396-3.2641.6991-5.0241h4.3587c-.1719 2.4246-1.0524 4.6565-2.4355 6.4892zM1.78161 14.875h4.3587c.0595 1.76.29783 3.4592.69913 5.0241-.90869.4088-1.78511.8984-2.62238 1.4651-1.38304-1.8327-2.26351-4.0646-2.43545-6.4892zm2.43523-8.23889c.83727.56667 1.71369 1.05629 2.62249 1.46508-.4013 1.56488-.63957 3.26391-.69907 5.02381H1.78161c.17194-2.4245 1.05235-4.6562 2.43523-6.48889zM19.7218 4.30746c-.3206-.60112-.6671-1.14357-1.0355-1.62493 1.4803.61524 2.8149 1.51255 3.9362 2.62484-.6357.4177-1.2962.7858-1.9772 1.10386-.2672-.74725-.5758-1.45178-.9235-2.10377zm-.709 2.75647c-1.5975.5355-3.2834.81107-5.0128.81107-1.7294 0-3.4153-.27557-5.01277-.81107C10.1063 3.87822 11.9553 1.75 14 1.75c2.0447 0 3.8937 2.12822 5.0128 5.31393zM7.89157 13.125c.05775-1.55.26715-3.0308.59812-4.38134C10.2471 9.32575 12.1 9.625 14 9.625c1.9 0 3.7529-.29925 5.5103-.88134.331 1.35054.5404 2.83134.5981 4.38134H7.89157zm12.21683 1.75c-.0578 1.5501-.2671 3.031-.5981 4.3816-1.7576-.5822-3.6105-.8816-5.5103-.8816s-3.7527.2994-5.51026.8816c-.33102-1.3506-.54042-2.8315-.59817-4.3816H20.1084zM8.27821 4.30746c-.3477.65199-.65625 1.35652-.92351 2.10372-.68097-.31801-1.34148-.68616-1.97722-1.10387 1.12125-1.11234 2.45585-2.0096 3.93624-2.62483-.36843.48141-.71493 1.02386-1.03551 1.62498zM7.35476 21.5891c.2672.7471.57575 1.4516.9234 2.1034.32063.6012.66707 1.1436 1.0355 1.625-1.48022-.6153-2.81471-1.5124-3.93591-2.6246.63574-.4176 1.29615-.7857 1.97701-1.1038zm1.63258-.6528C10.5849 20.4007 12.2708 20.125 14 20.125c1.7292 0 3.4151.2757 5.0127.8113C17.8936 24.1219 16.0447 26.25 14 26.25c-2.0447 0-3.8936-2.1281-5.01266-5.3137zm10.73446 2.7562c.3476-.6518.6562-1.3563.9234-2.1034.6809.3181 1.3413.6862 1.977 1.1038-1.1212 1.1122-2.4557 2.0094-3.9359 2.6246.3684-.4814.7149-1.0238 1.0355-1.625zm2.1379-10.5675c-.0595-1.7598-.2978-3.45893-.6991-5.02381.9088-.40879 1.7853-.89841 2.6225-1.46508 1.3829 1.83263 2.2633 4.06429 2.4352 6.48889h-4.3586z" fill="#A64F74"/></svg>
