<svg width="45" height="45" viewBox="0 0 45 45" fill="none" xmlns="http://www.w3.org/2000/svg">
<rect width="45" height="45" rx="20" fill="url(#paint0_linear)"/>
<g clip-path="url(#clip0)">
<path d="M36.1797 21.2344C32.0292 21.2344 29.567 23.0692 27.5851 25.2284C26.9276 23.8387 25.5117 22.875 23.875 22.875H19.0747C17.8459 22.875 16.6803 23.1548 15.7039 23.6842C13.269 25.0043 11.0014 27.1158 9.1463 29.7903C8.92016 30.1162 8.95976 30.5573 9.2403 30.8378L14.1621 35.7597C14.3163 35.9139 14.5252 36 14.7421 36C14.756 36 14.7699 35.9996 14.7839 35.9989C15.0156 35.9871 15.2315 35.8777 15.3781 35.6978C17.9219 32.5756 20.1907 31.7979 28.8649 31.0753C29.0731 31.0579 29.2668 30.9618 29.4066 30.8065L36.7894 22.6034C37.0061 22.3626 37.0608 22.0168 36.929 21.7209C36.7972 21.4251 36.5036 21.2344 36.1797 21.2344ZM28.4045 29.4676C20.5838 30.1318 17.5144 30.8736 14.6966 33.974L10.8924 30.1697C12.5212 27.9693 14.4445 26.2331 16.4858 25.1264C17.2229 24.7269 18.1181 24.5156 19.0747 24.5156H23.875C24.9445 24.5156 25.8568 25.2013 26.1954 26.1562H18.9531C18.5001 26.1562 18.1328 26.5235 18.1328 26.9766C18.1328 27.4296 18.5001 27.7969 18.9531 27.7969H27.1592C27.3707 27.7961 27.5633 27.7153 27.7084 27.5833C27.7085 27.5831 27.7086 27.5831 27.7087 27.583C27.7087 27.5829 27.7088 27.5829 27.7088 27.5829C27.7236 27.5694 27.7379 27.5554 27.7517 27.5408C27.7517 27.5408 27.7517 27.5408 27.7518 27.5408C27.7519 27.5406 27.7521 27.5404 27.7523 27.5402C27.7661 27.5256 27.7793 27.5106 27.7921 27.4949C29.461 25.4807 31.228 23.638 34.1705 23.0609L28.4045 29.4676Z" fill="#6392CA"/>
<path d="M9.82043 22.7665C13.9709 22.7665 16.4331 20.9317 18.415 18.7725C19.0725 20.1623 20.4884 21.1259 22.1251 21.1259H26.9254C28.1542 21.1259 29.3198 20.8461 30.2962 20.3168C32.7311 18.9966 34.9987 16.8851 36.8538 14.2106C37.0799 13.8847 37.0403 13.4436 36.7598 13.1631L31.8379 8.24124C31.6738 8.07712 31.4484 7.99027 31.2162 8.00203C30.9845 8.01385 30.7685 8.12322 30.622 8.30314C28.0782 11.4254 25.8094 12.203 17.1351 12.9256C16.9269 12.943 16.7332 13.0391 16.5935 13.1944L9.21072 21.3975C8.99399 21.6383 8.9393 21.9841 9.0711 22.28C9.20284 22.5759 9.49646 22.7665 9.82043 22.7665ZM17.5957 14.5333C25.4163 13.8691 28.4857 13.1273 31.3035 10.0269L35.1077 13.8312C33.479 16.0316 31.5556 17.7678 29.5143 18.8745C28.7772 19.2741 27.882 19.4853 26.9254 19.4853H22.1251C21.0556 19.4853 20.1433 18.7996 19.8047 17.8447H27.047C27.5 17.8447 27.8673 17.4774 27.8673 17.0244C27.8673 16.5713 27.5 16.204 27.047 16.204C27.047 16.204 18.8413 16.204 18.8408 16.204C18.6294 16.2048 18.4368 16.2856 18.2917 16.4177C18.2916 16.4178 18.2915 16.4178 18.2914 16.4179C18.2913 16.418 18.2913 16.418 18.2912 16.418C18.2765 16.4315 18.2622 16.4455 18.2484 16.4601C18.2484 16.4601 18.2484 16.4601 18.2483 16.4601C18.2481 16.4603 18.248 16.4605 18.2478 16.4607C18.234 16.4753 18.2207 16.4903 18.208 16.506C16.539 18.5202 14.7721 20.3629 11.8296 20.94L17.5957 14.5333Z" fill="#6392CA"/>
</g>
<defs>
<linearGradient id="paint0_linear" x1="41.4474" y1="41.8421" x2="4.3421" y2="5.52632" gradientUnits="userSpaceOnUse">
<stop stop-color="#86BEFF"/>
<stop offset="1" stop-color="#BCD7FE"/>
</linearGradient>
<clipPath id="clip0">
<rect width="28" height="28" fill="white" transform="translate(9 8)"/>
</clipPath>
</defs>
</svg>
