<svg width="30" height="30" viewBox="0 0 30 30" fill="none" xmlns="http://www.w3.org/2000/svg">
<circle cx="15" cy="15" r="15" fill="#DFE2F2"/>
<path d="M16.152 24H13.92V11.52H16.152V24ZM15.024 9.264C14.624 9.264 14.28 9.136 13.992 8.88C13.72 8.608 13.584 8.248 13.584 7.8C13.584 7.352 13.72 7 13.992 6.744C14.28 6.472 14.624 6.336 15.024 6.336C15.424 6.336 15.76 6.472 16.032 6.744C16.32 7 16.464 7.352 16.464 7.8C16.464 8.248 16.32 8.608 16.032 8.88C15.76 9.136 15.424 9.264 15.024 9.264Z" fill="#9DA3C5"/>
</svg>
