<svg width="24" height="25" viewBox="0 0 24 25" fill="none" xmlns="http://www.w3.org/2000/svg">
<path d="M11.4201 8.45713H13.3401V19.0571H11.4201V8.45713ZM12.3801 6.41713C12.0068 6.41713 11.6934 6.29713 11.4401 6.05713C11.2001 5.81713 11.0801 5.52379 11.0801 5.17713C11.0801 4.83046 11.2001 4.53713 11.4401 4.29713C11.6934 4.04379 12.0068 3.91713 12.3801 3.91713C12.7534 3.91713 13.0601 4.03713 13.3001 4.27713C13.5534 4.50379 13.6801 4.79046 13.6801 5.13713C13.6801 5.49713 13.5534 5.80379 13.3001 6.05713C13.0601 6.29713 12.7534 6.41713 12.3801 6.41713Z" fill="#FF006D"/>
<circle cx="12" cy="12" r="11" stroke="#FF006D" stroke-width="2"/>
</svg>
