<svg width="15" height="15" viewBox="0 0 15 15" fill="none" xmlns="http://www.w3.org/2000/svg">
<path d="M7.00002 12.8599H1.74999C1.42799 12.8599 1.16667 12.5986 1.16667 12.2766V1.77658C1.16667 1.45458 1.42801 1.19326 1.74999 1.19326H7.00002C7.3226 1.19326 7.58334 0.932521 7.58334 0.609941C7.58334 0.287362 7.3226 0.0265656 7.00002 0.0265656H1.74999C0.78516 0.0265656 0 0.811752 0 1.77658V12.2766C0 13.2414 0.78516 14.0266 1.74999 14.0266H7.00002C7.3226 14.0266 7.58334 13.7658 7.58334 13.4432C7.58334 13.1207 7.3226 12.8599 7.00002 12.8599Z" fill="black"/>
<path d="M13.8732 6.61124L10.3265 3.11123C10.0978 2.88489 9.72799 2.88783 9.50165 3.11707C9.27532 3.34632 9.27765 3.71556 9.5075 3.9419L12.0421 6.44323H5.25031C4.92773 6.44323 4.66699 6.70397 4.66699 7.02655C4.66699 7.34913 4.92773 7.6099 5.25031 7.6099H12.0421L9.5075 10.1112C9.27768 10.3376 9.27592 10.7068 9.50165 10.936C9.61598 11.0515 9.76648 11.1099 9.91699 11.1099C10.0652 11.1099 10.2133 11.0539 10.3265 10.9419L13.8732 7.44186C13.984 7.3322 14.047 7.18284 14.047 7.02652C14.047 6.87025 13.9846 6.7215 13.8732 6.61124Z" fill="black"/>
</svg>
