<svg width="100" height="100" viewBox="0 0 100 100" fill="none" xmlns="http://www.w3.org/2000/svg">
<rect width="100" height="100" rx="40" fill="white"/>
<path d="M50 25C40.0151 25 31.8919 33.1232 31.8919 43.108C31.8919 55.4994 48.0969 73.6907 48.7868 74.4591C49.4349 75.1809 50.5663 75.1796 51.2132 74.4591C51.9031 73.6907 68.1081 55.4994 68.1081 43.108C68.1079 33.1232 59.9848 25 50 25ZM50 70.872C44.5462 64.3937 35.1528 51.6125 35.1528 43.1082C35.1528 34.9213 41.8132 28.2609 50 28.2609C58.1868 28.2609 64.8472 34.9213 64.8472 43.1081C64.8471 51.6128 55.4552 64.3916 50 70.872Z" fill="#6392CA"/>
<path d="M50 33.998C44.9763 33.998 40.8894 38.0851 40.8894 43.1087C40.8894 48.1323 44.9764 52.2193 50 52.2193C55.0235 52.2193 59.1104 48.1323 59.1104 43.1087C59.1104 38.0851 55.0235 33.998 50 33.998ZM50 48.9584C46.7744 48.9584 44.1504 46.3343 44.1504 43.1087C44.1504 39.8831 46.7745 37.259 50 37.259C53.2255 37.259 55.8496 39.8831 55.8496 43.1087C55.8496 46.3343 53.2255 48.9584 50 48.9584Z" fill="#6392CA"/>
</svg>
