<svg width="18" height="15" viewBox="0 0 18 15" fill="none" xmlns="http://www.w3.org/2000/svg">
<path fill-rule="evenodd" clip-rule="evenodd" d="M2 4V14H16V4H2ZM1.5 3C1.22386 3 1 3.22386 1 3.5V14.5C1 14.7761 1.22386 15 1.5 15H16.5C16.7761 15 17 14.7761 17 14.5V3.5C17 3.22386 16.7761 3 16.5 3H1.5Z" fill="black"/>
<path fill-rule="evenodd" clip-rule="evenodd" d="M1 1V3H17V1H1ZM0.5 0C0.223858 0 0 0.223858 0 0.5V3.5C0 3.77614 0.223858 4 0.5 4H17.5C17.7761 4 18 3.77614 18 3.5V0.5C18 0.223858 17.7761 0 17.5 0H0.5Z" fill="black"/>
<path fill-rule="evenodd" clip-rule="evenodd" d="M7 8V10H11V8H7ZM6.5 7C6.22386 7 6 7.22386 6 7.5V10.5C6 10.7761 6.22386 11 6.5 11H11.5C11.7761 11 12 10.7761 12 10.5V7.5C12 7.22386 11.7761 7 11.5 7H6.5Z" fill="black"/>
</svg>
