<svg width="16" height="40" viewBox="0 0 16 40" fill="none" xmlns="http://www.w3.org/2000/svg">
<rect x="0.5" y="12.5" width="15" height="15" rx="0.5" stroke="black"/>
<path d="M5.4 20.124C4.8 20.124 4.316 19.912 3.948 19.488C3.58 19.064 3.396 18.508 3.396 17.82C3.396 17.132 3.58 16.576 3.948 16.152C4.316 15.728 4.8 15.516 5.4 15.516C6 15.516 6.484 15.728 6.852 16.152C7.228 16.568 7.416 17.124 7.416 17.82C7.416 18.516 7.228 19.076 6.852 19.5C6.484 19.916 6 20.124 5.4 20.124ZM10.44 15.6H11.616L5.88 24H4.704L10.44 15.6ZM5.4 19.284C5.728 19.284 5.98 19.156 6.156 18.9C6.34 18.644 6.432 18.284 6.432 17.82C6.432 17.356 6.34 16.996 6.156 16.74C5.98 16.484 5.728 16.356 5.4 16.356C5.088 16.356 4.836 16.488 4.644 16.752C4.46 17.008 4.368 17.364 4.368 17.82C4.368 18.276 4.46 18.636 4.644 18.9C4.836 19.156 5.088 19.284 5.4 19.284ZM10.908 24.084C10.308 24.084 9.824 23.872 9.456 23.448C9.088 23.024 8.904 22.468 8.904 21.78C8.904 21.092 9.088 20.536 9.456 20.112C9.824 19.688 10.308 19.476 10.908 19.476C11.508 19.476 11.992 19.688 12.36 20.112C12.736 20.536 12.924 21.092 12.924 21.78C12.924 22.468 12.736 23.024 12.36 23.448C11.992 23.872 11.508 24.084 10.908 24.084ZM10.908 23.244C11.228 23.244 11.48 23.116 11.664 22.86C11.848 22.596 11.94 22.236 11.94 21.78C11.94 21.324 11.848 20.968 11.664 20.712C11.48 20.448 11.228 20.316 10.908 20.316C10.588 20.316 10.336 20.444 10.152 20.7C9.968 20.956 9.876 21.316 9.876 21.78C9.876 22.244 9.968 22.604 10.152 22.86C10.336 23.116 10.588 23.244 10.908 23.244Z" fill="black"/>
</svg>
