<svg width="100" height="100" viewBox="0 0 100 100" fill="none" xmlns="http://www.w3.org/2000/svg">
<rect width="100" height="100" rx="40" fill="white"/>
<g clip-path="url(#clip0)">
<path d="M75.0177 30.9436C75.0177 29.3292 74.389 27.8113 73.2477 26.6696C70.8909 24.3133 67.0564 24.3133 64.6996 26.6696L55.7595 35.6101L33.3984 27.5901C32.8609 27.3971 32.2601 27.5317 31.8561 27.9361L27.8724 31.9194C27.5581 32.2341 27.402 32.6736 27.4478 33.1161C27.494 33.5582 27.7366 33.9565 28.1089 34.1995L45.6879 45.6814L36.2419 55.1277L29.9419 54.0325C29.4689 53.9501 28.9848 54.1035 28.6453 54.443L25.5298 57.5585C25.1918 57.8965 25.0384 58.3771 25.1182 58.8482C25.1979 59.3197 25.5004 59.7229 25.9307 59.9312L35.458 64.5421L40.0684 74.0689C40.2767 74.4992 40.6803 74.8021 41.1514 74.8818C41.2334 74.8956 41.3154 74.9024 41.3975 74.9024C41.7858 74.9024 42.1623 74.7491 42.4412 74.4698L45.5566 71.3544C45.8965 71.0149 46.0495 70.5312 45.9671 70.0577L44.8475 63.617L54.2355 54.229L65.7174 71.8079C65.9608 72.1803 66.3587 72.4233 66.8012 72.469C66.8523 72.4744 66.903 72.477 66.9538 72.477C67.3432 72.477 67.7194 72.3225 67.9975 72.0444L71.9812 68.0607C72.3851 67.6568 72.5198 67.056 72.3272 66.5185L64.3071 44.1578L73.2477 35.2172C74.389 34.0759 75.0177 32.558 75.0177 30.9436ZM31.2461 32.7216L33.2824 30.6854L53.4504 37.9188L47.8214 43.5482L31.2461 32.7216ZM61.9981 46.4668L69.2315 66.6348L67.1952 68.6711L56.3691 52.0958L61.9981 46.4668ZM71.1595 33.1294L42.218 62.0709C41.8781 62.4108 41.7251 62.8945 41.8072 63.3679L42.9268 69.8086L41.8217 70.9134L37.8921 62.7934C37.7472 62.4939 37.5057 62.2525 37.2062 62.1075L29.0862 58.178L30.1914 57.0729L36.491 58.1681C36.9644 58.2505 37.4481 58.0971 37.788 57.7572L66.7878 28.7578C67.9929 27.5523 69.954 27.5523 71.1595 28.7578C71.7435 29.3414 72.0647 30.1177 72.0647 30.9436C72.0647 31.7691 71.7435 32.5454 71.1595 33.1294Z" fill="#6392CA"/>
</g>
<defs>
<clipPath id="clip0">
<rect width="50" height="50" fill="white" transform="translate(25 25)"/>
</clipPath>
</defs>
</svg>
