<svg width="45" height="45" viewBox="0 0 45 45" fill="none" xmlns="http://www.w3.org/2000/svg">
<path d="M22.7722 40.3275C32.7935 40.3275 40.9173 32.2037 40.9173 22.1824C40.9173 12.1611 32.7935 4.03723 22.7722 4.03723C12.7509 4.03723 4.62701 12.1611 4.62701 22.1824C4.62701 32.2037 12.7509 40.3275 22.7722 40.3275Z" fill="#4081FF"/>
<path d="M17.0111 32.4798L42.4597 7.03122C43.6845 5.80643 44.7732 2.72175 43.5484 1.45159C42.2782 0.226788 39.1935 1.27014 37.9687 2.5403L12.4748 27.9889L4.53628 25.5847L1.4516 28.6693L10.6149 33.75L11.2046 34.3397L16.3306 43.503L19.4153 40.4183L17.0111 32.4798Z" fill="white"/>
<path d="M16.0669 44L10.8189 34.5585L10.438 34.1774L1 28.9274L5.02067 24.9052L12.4272 27.1492L35.7893 3.77823C36.8051 2.7621 38.6673 2 40.1063 2C40.995 2 41.7145 2.25403 42.2224 2.7621C42.9842 3.52419 43.1958 4.70968 42.8149 6.14919C42.5187 7.29234 41.9261 8.43548 41.2066 9.15524L17.8445 32.5685L20.0876 39.9778L16.0669 44ZM3.7933 28.5464L11.4961 32.7802L12.2155 33.5L16.4478 41.2056L18.1831 39.4698L15.9399 32.0605L40.0639 7.92742C40.5295 7.46169 40.995 6.57258 41.2066 5.72581C41.4183 4.92137 41.3336 4.20161 41.0374 3.90524C40.7834 3.73589 40.4025 3.69355 40.1063 3.69355C39.0059 3.69355 37.6092 4.32863 37.0167 4.96371L12.8927 29.0968L5.48622 26.8528L3.7933 28.5464Z" fill="#282D33"/>
<path d="M14.6088 29.0741L7.71246 35.9705L8.99551 37.2535L15.8919 30.3571L14.6088 29.0741Z" fill="#282D33"/>
<path d="M11.3499 14.9471L5.31958 20.9774L6.60262 22.2605L12.6329 16.2302L11.3499 14.9471Z" fill="#282D33"/>
<path d="M7.07533 12.759L4.05975 15.7737L5.34262 17.0569L8.3582 14.0422L7.07533 12.759Z" fill="#282D33"/>
<path d="M28.745 32.3796L22.7147 38.4099L23.9977 39.693L30.028 33.6626L28.745 32.3796Z" fill="#282D33"/>
<path d="M30.9283 36.6374L27.9131 39.6526L29.1962 40.9356L32.2113 37.9205L30.9283 36.6374Z" fill="#282D33"/>
</svg>
