<svg width="30" height="40" viewBox="0 0 30 40" fill="none" xmlns="http://www.w3.org/2000/svg">
<path d="M15 38.8792L3.33414 21.2037L3.33273 21.2012C2.15512 19.1665 1.53191 16.8374 1.53191 14.4681C1.53191 7.0425 7.57441 1 15 1C22.4256 1 28.4681 7.0425 28.4681 14.4681C28.4681 16.8276 27.85 19.1475 26.6816 21.1772L15 38.8792Z" fill="#007AFF" stroke="black" stroke-width="2"/>
<path d="M15 22.1276C19.2238 22.1276 22.6596 18.691 22.6596 14.468C22.6596 10.2451 19.2238 6.80847 15 6.80847C10.7762 6.80847 7.34042 10.2451 7.34042 14.468C7.34042 18.691 10.7762 22.1276 15 22.1276Z" fill="white"/>
</svg>
