<svg width="45" height="45" viewBox="0 0 45 45" fill="none" xmlns="http://www.w3.org/2000/svg">
<path d="M31.275 22C31.275 27.8333 26.415 32.5263 20.475 32.5263C14.49 32.5263 9.67499 27.7895 9.67499 22C9.67499 16.1667 14.535 11.4737 20.475 11.4737C26.415 11.4737 31.275 16.1667 31.275 22Z" fill="#4081FF"/>
<path d="M20.295 23.4912L14.85 18.0965L16.11 16.8684L20.295 20.9912L26.685 14.6754L27.945 15.9035L20.295 23.4912Z" fill="#282D33"/>
<path d="M20.7 36.8684C20.655 36.8684 20.61 36.8684 20.52 36.8684C12.105 36.8684 5.26499 30.2018 5.26499 22C5.26499 13.7983 12.105 7.13158 20.52 7.13158C27.99 7.13158 34.2 12.3947 35.505 19.3246H33.12L35.595 22.2193L38.07 25.114L40.545 22.2193L43.02 19.3246H39.915C38.61 10.0702 30.42 2.8772 20.52 2.8772C9.71999 2.8772 0.899994 11.4737 0.899994 22C0.899994 32.5702 9.71999 41.1228 20.52 41.1228C20.565 41.1228 20.61 41.1228 20.7 41.1228V36.8684Z" fill="white"/>
<path d="M20.52 42C15.03 42 9.9 39.9386 6.03 36.1228C2.16 32.307 0 27.3509 0 22C0 10.9912 9.225 2 20.52 2C30.42 2 38.97 9.01754 40.725 18.4912H45L38.115 26.4737L31.185 18.4474H34.38C32.76 12.3509 27.09 8.00877 20.52 8.00877C12.6 8.05263 6.21 14.2807 6.21 22C6.21 29.7193 12.645 35.9912 20.565 35.9912C20.655 35.9912 20.655 35.9912 20.7 35.9912H21.6V42.0439L20.52 42ZM20.52 3.75439C10.215 3.75439 1.8 11.9561 1.8 22C1.8 26.8684 3.735 31.4737 7.29 34.8947C10.665 38.1842 15.075 40.0702 19.8 40.2456V37.7017C11.25 37.3509 4.41 30.421 4.41 22C4.41 13.3158 11.655 6.25438 20.565 6.25438C28.35 6.25438 35.055 11.693 36.45 19.1491L36.63 20.2017H35.1L38.16 23.7544L41.22 20.2017H39.24L39.15 19.4561C37.8 10.5088 29.835 3.75439 20.52 3.75439Z" fill="#282D33"/>
<path d="M22.815 22C22.815 23.2719 21.78 24.2807 20.475 24.2807C19.17 24.2807 18.135 23.2719 18.135 22C18.135 20.7281 19.17 19.7193 20.475 19.7193C21.735 19.7193 22.815 20.7281 22.815 22Z" fill="white"/>
<path d="M20.475 25.1579C18.675 25.1579 17.235 23.7544 17.235 22C17.235 20.2456 18.675 18.8421 20.475 18.8421C22.275 18.8421 23.715 20.2456 23.715 22C23.715 23.7544 22.23 25.1579 20.475 25.1579ZM20.475 20.5965C19.665 20.5965 19.035 21.2105 19.035 22C19.035 22.7895 19.665 23.4035 20.475 23.4035C21.285 23.4035 21.915 22.7895 21.915 22C21.915 21.2105 21.24 20.5965 20.475 20.5965Z" fill="#282D33"/>
<path d="M20.97 11.2544H19.17V13.0088H20.97V11.2544Z" fill="#282D33"/>
<path d="M21.42 30.9912H19.62V32.7456H21.42V30.9912Z" fill="#282D33"/>
</svg>
