<svg width="57" height="57" viewBox="0 0 57 57" fill="none" xmlns="http://www.w3.org/2000/svg">
<rect width="57" height="57" rx="20" fill="url(#paint0_linear)"/>
<path d="M25.9375 24.8312H27.9426V26.4718H25.9375V24.8312Z" fill="#A64F74"/>
<path d="M25.9375 21.5745H27.9426V23.2151H25.9375V21.5745Z" fill="#A64F74"/>
<path d="M25.9375 18.3179H27.9426V19.9585H25.9375V18.3179Z" fill="#A64F74"/>
<path d="M25.9375 28.0892H27.9426V29.7298H25.9375V28.0892Z" fill="#A64F74"/>
<path d="M30.0575 24.8312H32.0626V26.4718H30.0575V24.8312Z" fill="#A64F74"/>
<path d="M30.0575 21.5745H32.0626V23.2151H30.0575V21.5745Z" fill="#A64F74"/>
<path d="M30.0575 18.3179H32.0626V19.9585H30.0575V18.3179Z" fill="#A64F74"/>
<path d="M30.0575 28.0892H32.0626V29.7298H30.0575V28.0892Z" fill="#A64F74"/>
<path d="M41.3685 37.5312V21.3131L35.7683 18.2506V15H22.2318V24.5046H16.6315V37.5312H15V43H43V37.5312H41.3685ZM39.7279 22.2859V23.1427H37.6455V24.7834H39.7279V26.3994H37.6455V28.04H39.7279V29.6561H37.6455V31.2967H39.7279V37.5312H35.7683V20.1206L39.7279 22.2859ZM34.1277 16.6406V37.5312H32.0625V31.2375H25.9375V37.5312H23.8724V16.6406H34.1277ZM30.4219 37.5312H27.5781V32.8782H30.4219V37.5312ZM18.2721 35.9138H20.3545V34.2732H18.2721V32.6572H20.3545V31.0165H18.2721V29.4005H20.3545V27.7599H18.2721V26.1452H22.2317V37.5312H18.2721V35.9138ZM41.3594 41.3594H16.6406V39.1719H41.3594V41.3594Z" fill="#A64F74"/>
<defs>
<linearGradient id="paint0_linear" x1="52.5" y1="53" x2="5.5" y2="7" gradientUnits="userSpaceOnUse">
<stop stop-color="#FF86BA"/>
<stop offset="1" stop-color="#FEBCD8"/>
</linearGradient>
</defs>
</svg>
