<svg width="100" height="100" viewBox="0 0 100 100" fill="none" xmlns="http://www.w3.org/2000/svg">
<rect width="100" height="100" rx="40" fill="white"/>
<path d="M74.3331 27.1347L50.7981 20.0742C50.4689 19.9753 50.1175 19.9753 49.788 20.0742L26.2527 27.1347C25.5092 27.3577 25 28.0421 25 28.8184V54.707C25 58.0742 26.3631 61.5212 29.0515 64.9521C31.1049 67.5724 33.9455 70.2036 37.4946 72.7727C43.4568 77.0885 49.3277 79.736 49.5747 79.8465C49.8032 79.9488 50.048 80 50.2929 80C50.5377 80 50.7827 79.9489 51.0112 79.8465C51.2582 79.736 57.1289 77.0885 63.0911 72.7727C66.6401 70.2036 69.4807 67.5724 71.5341 64.9521C74.2225 61.5213 75.5856 58.0743 75.5856 54.707V28.8184C75.5857 28.0421 75.0767 27.3577 74.3331 27.1347ZM72.0701 54.707C72.0701 60.6662 66.0909 66.2539 61.0749 69.8922C56.5779 73.1539 52.0173 75.4684 50.293 76.2998C48.5688 75.4684 44.008 73.1539 39.5111 69.8922C34.495 66.2539 28.5156 60.6662 28.5156 54.707V30.1262L50.2929 23.593L72.0701 30.1262V54.707Z" fill="#6392CA"/>
<path d="M35.3435 42.5H37.6535V53H34.9685V45.32L33.1385 45.785L32.4935 43.52L35.3435 42.5ZM46.5494 51.74C45.7894 52.73 44.7244 53.225 43.3544 53.225C41.9844 53.225 40.9144 52.73 40.1444 51.74C39.3844 50.74 39.0044 49.41 39.0044 47.75C39.0044 46.09 39.3844 44.765 40.1444 43.775C40.9144 42.775 41.9844 42.275 43.3544 42.275C44.7244 42.275 45.7894 42.775 46.5494 43.775C47.3194 44.765 47.7044 46.09 47.7044 47.75C47.7044 49.41 47.3194 50.74 46.5494 51.74ZM41.6894 47.75C41.6894 49.66 42.2444 50.615 43.3544 50.615C44.4644 50.615 45.0194 49.66 45.0194 47.75C45.0194 45.84 44.4644 44.885 43.3544 44.885C42.2444 44.885 41.6894 45.84 41.6894 47.75ZM55.9976 51.74C55.2376 52.73 54.1726 53.225 52.8026 53.225C51.4326 53.225 50.3626 52.73 49.5926 51.74C48.8326 50.74 48.4526 49.41 48.4526 47.75C48.4526 46.09 48.8326 44.765 49.5926 43.775C50.3626 42.775 51.4326 42.275 52.8026 42.275C54.1726 42.275 55.2376 42.775 55.9976 43.775C56.7676 44.765 57.1526 46.09 57.1526 47.75C57.1526 49.41 56.7676 50.74 55.9976 51.74ZM51.1376 47.75C51.1376 49.66 51.6926 50.615 52.8026 50.615C53.9126 50.615 54.4676 49.66 54.4676 47.75C54.4676 45.84 53.9126 44.885 52.8026 44.885C51.6926 44.885 51.1376 45.84 51.1376 47.75ZM60.5179 47.66C59.7379 47.66 59.0829 47.4 58.5529 46.88C58.0229 46.35 57.7579 45.71 57.7579 44.96C57.7579 44.21 58.0229 43.575 58.5529 43.055C59.0829 42.535 59.7379 42.275 60.5179 42.275C61.2979 42.275 61.9479 42.535 62.4679 43.055C62.9879 43.575 63.2479 44.21 63.2479 44.96C63.2479 45.72 62.9829 46.36 62.4529 46.88C61.9329 47.4 61.2879 47.66 60.5179 47.66ZM59.3179 51.35L66.2179 43.85L67.2679 44.45L60.3529 51.935L59.3179 51.35ZM60.5029 45.755C60.7329 45.755 60.9179 45.68 61.0579 45.53C61.2079 45.37 61.2829 45.18 61.2829 44.96C61.2829 44.74 61.2079 44.555 61.0579 44.405C60.9179 44.255 60.7329 44.18 60.5029 44.18C60.2829 44.18 60.0979 44.255 59.9479 44.405C59.8079 44.555 59.7379 44.74 59.7379 44.96C59.7379 45.19 59.8079 45.38 59.9479 45.53C60.0979 45.68 60.2829 45.755 60.5029 45.755ZM66.3229 53.21C65.5329 53.21 64.8729 52.95 64.3429 52.43C63.8229 51.91 63.5629 51.275 63.5629 50.525C63.5629 49.765 63.8229 49.125 64.3429 48.605C64.8729 48.085 65.5329 47.825 66.3229 47.825C67.1029 47.825 67.7529 48.09 68.2729 48.62C68.7929 49.14 69.0529 49.775 69.0529 50.525C69.0529 51.275 68.7879 51.91 68.2579 52.43C67.7379 52.95 67.0929 53.21 66.3229 53.21ZM65.7529 51.08C65.9029 51.23 66.0879 51.305 66.3079 51.305C66.5279 51.305 66.7079 51.23 66.8479 51.08C66.9979 50.92 67.0729 50.735 67.0729 50.525C67.0729 50.295 66.9979 50.105 66.8479 49.955C66.7079 49.805 66.5279 49.73 66.3079 49.73C66.0879 49.73 65.9029 49.805 65.7529 49.955C65.6129 50.105 65.5429 50.295 65.5429 50.525C65.5429 50.745 65.6129 50.93 65.7529 51.08Z" fill="#6392CA"/>
</svg>
