<svg width="45" height="45" viewBox="0 0 45 45" fill="none" xmlns="http://www.w3.org/2000/svg">
<rect width="45" height="45" rx="20" fill="url(#paint0_linear)"/>
<g clip-path="url(#clip0)">
<path d="M32.5168 12.9728L22.7106 10.0309C22.5734 9.9897 22.427 9.9897 22.2897 10.0309L12.4833 12.9728C12.1735 13.0657 11.9613 13.3509 11.9613 13.6743V24.4612C11.9613 25.8643 12.5293 27.3005 13.6495 28.73C14.505 29.8218 15.6886 30.9182 17.1674 31.9886C19.6517 33.7869 22.0979 34.89 22.2008 34.936C22.296 34.9787 22.398 35 22.5001 35C22.6021 35 22.7041 34.9787 22.7993 34.936C22.9023 34.89 25.3484 33.7869 27.8326 31.9886C29.3114 30.9182 30.495 29.8218 31.3505 28.73C32.4707 27.3005 33.0387 25.8643 33.0387 24.4612V13.6743C33.0387 13.3509 32.8266 13.0657 32.5168 12.9728ZM31.5739 24.4612C31.5739 26.9442 29.0825 29.2725 26.9925 30.7884C25.1188 32.1475 23.2186 33.1118 22.5001 33.4583C21.7816 33.1118 19.8814 32.1475 18.0076 30.7884C15.9176 29.2725 13.4262 26.9442 13.4262 24.4612V14.2192L22.5001 11.4971L31.5739 14.2192V24.4612Z" fill="#6392CA"/>
</g>
<defs>
<linearGradient id="paint0_linear" x1="41.4474" y1="41.8421" x2="4.3421" y2="5.52632" gradientUnits="userSpaceOnUse">
<stop stop-color="#86BEFF"/>
<stop offset="1" stop-color="#BCD7FE"/>
</linearGradient>
<clipPath id="clip0">
<rect width="25" height="25" fill="white" transform="translate(10 10)"/>
</clipPath>
</defs>
</svg>
