<svg width="16" height="18" viewBox="0 0 16 18" fill="none" xmlns="http://www.w3.org/2000/svg">
<path d="M15.5761 17.4084L14.2081 4.38038C14.1794 4.10764 13.9495 3.90055 13.6752 3.90055H11.1039V3.31429C11.1039 1.48686 9.61703 0 7.78959 0C5.96202 0 4.47516 1.48686 4.47516 3.31429V3.90055H1.90381C1.62957 3.90055 1.39968 4.10764 1.37098 4.38038L0.00290862 17.4084C-0.0128842 17.5593 0.0361422 17.7099 0.137628 17.8228C0.239252 17.9356 0.383996 18 0.535744 18H15.0432C15.195 18 15.3398 17.9356 15.4413 17.8228C15.543 17.7099 15.5919 17.5593 15.5761 17.4084ZM5.5466 3.31429C5.5466 2.07765 6.55281 1.07144 7.78959 1.07144C9.02624 1.07144 10.0324 2.07765 10.0324 3.31429V3.90055H5.5466V3.31429ZM1.13065 16.9285L2.38625 4.97199H4.47516V6.15261C4.47516 6.44841 4.71507 6.68833 5.01088 6.68833C5.30668 6.68833 5.5466 6.44841 5.5466 6.15261V4.97199H10.0324V6.15261C10.0324 6.44841 10.2724 6.68833 10.5682 6.68833C10.864 6.68833 11.1039 6.44841 11.1039 6.15261V4.97199H13.1928L14.4484 16.9285H1.13065Z" fill="#5B72EC"/>
</svg>
