<svg width="48" height="48" fill="none" xmlns="http://www.w3.org/2000/svg"><path d="M24 0C10.7456 0 0 10.7451 0 24s10.7456 24 24 24 24-10.7451 24-24S37.2544 0 24 0zm12.1741 26.5957c1.1186 1.0926 2.302 2.1208 3.3062 3.3263.4449.5333.8643 1.0848 1.1834 1.705.4557.8843.0442 1.8542-.7473 1.9067l-4.9169-.001c-1.2699.1051-2.2804-.4071-3.1324-1.2752-.6801-.6919-1.3111-1.4309-1.9662-2.1464-.2676-.2936-.5495-.5701-.8853-.7876-.6703-.4361-1.2527-.3025-1.6367.3977-.3914.7125-.4807 1.5021-.5181 2.2952-.0535 1.1593-.4031 1.4623-1.5664 1.5168-2.4857.1164-4.8442-.2607-7.0362-1.5139-1.9338-1.1053-3.4305-2.6654-4.7347-4.4317-2.5397-3.4432-4.48477-7.2223-6.23241-11.11-.39333-.8755-.10558-1.344.86032-1.3621 1.60474-.031 3.20949-.027 4.81419-.0015.6531.0103 1.0853.384 1.3362 1.0003.8672 2.1336 1.9303 4.1636 3.2625 6.0462.355.5014.7174 1.0013 1.2335 1.3553.5696.3909 1.0037.2618 1.2723-.3742.1719-.4041.2461-.8362.2834-1.2693.1276-1.4835.1429-2.9664-.0781-4.444-.1375-.9246-.6575-1.5218-1.5792-1.6966-.4695-.0889-.4007-.2627-.1724-.5308.3963-.4635.7675-.7503 1.5095-.7503l5.5552-.001c.8756.1719 1.072.5647 1.1908 1.4466l.0049 6.1735c-.0103.3413.1714 1.3528.7842 1.5763.4911.162.8152-.2318 1.1088-.5427 1.3323-1.4137 2.2815-3.0823 3.1315-4.8093.3751-.7616.6987-1.5497 1.013-2.3393.2337-.5839.5971-.8712 1.2561-.8613l5.3495.0063c.1576 0 .3177.0015.4738.0285.9016.1542 1.1486.5421.8697 1.4216-.439 1.3818-1.292 2.5328-2.1258 3.6868-.8937 1.2355-1.8468 2.4277-2.7317 3.6686-.8131 1.1344-.7488 1.7054.2608 2.6905z" fill="#84B6EE"/></svg>
