<svg width="48" height="48" fill="none" xmlns="http://www.w3.org/2000/svg"><path d="M24.0339 30.8067c3.9229 0 7.103-3.0817 7.103-6.883 0-3.8014-3.1801-6.8831-7.103-6.8831s-7.103 3.0817-7.103 6.8831c0 3.8013 3.1801 6.883 7.103 6.883z" fill="#FF003D"/><path d="M35.028 24.3073c0 5.8833-4.9223 10.6519-10.9941 10.6519-6.0719 0-10.9941-4.7686-10.9941-10.6519 0-1.0542.1591-2.0727.4537-3.0346h-3.2488v14.9411c0 .7739.6325 1.4059 1.4059 1.4059h24.6305c.7739 0 1.4069-.632 1.4069-1.4059V21.2727h-3.1138c.2942.9619.4538 1.9804.4538 3.0346zM32.0812 17.2405h3.9976c.876 0 1.592-.7159 1.592-1.592V11.837c0-.8765-.716-1.5925-1.592-1.5925h-3.9976c-.8765 0-1.5925.716-1.5925 1.5925v3.8115c-.0005.8756.716 1.592 1.5925 1.592z" fill="#FF003D"/><path d="M24 0C10.7451 0 0 10.7451 0 24s10.7451 24 24 24 24-10.7451 24-24S37.2549 0 24 0zm13.1454 41.6856H10.8551c-2.49794 0-4.54022-1.8488-4.54022-4.5392V10.8546c0-2.69141 2.04228-4.53972 4.54022-4.53972h26.2903c2.4974 0 4.5402 1.84831 4.5402 4.53972v26.2918c0 2.6904-2.0432 4.5392-4.5402 4.5392z" fill="#FF003D"/></svg>
