<svg width="87" height="87" viewBox="0 0 87 87" fill="none" xmlns="http://www.w3.org/2000/svg">
<rect width="87" height="87" rx="20" fill="url(#paint0_linear)"/>
<path d="M9.3015 49.224C8.19217 49.224 7.25883 48.9787 6.5015 48.488C5.74417 47.9867 5.21083 47.3093 4.9015 46.456L6.7895 45.352C7.22683 46.4933 8.0855 47.064 9.3655 47.064C9.98417 47.064 10.4375 46.952 10.7255 46.728C11.0135 46.504 11.1575 46.2213 11.1575 45.88C11.1575 45.4853 10.9815 45.1813 10.6295 44.968C10.2775 44.744 9.64817 44.504 8.7415 44.248C8.24017 44.0987 7.8135 43.9493 7.4615 43.8C7.12017 43.6507 6.7735 43.4533 6.4215 43.208C6.08017 42.952 5.81883 42.632 5.6375 42.248C5.45617 41.864 5.3655 41.416 5.3655 40.904C5.3655 39.8907 5.72283 39.0853 6.4375 38.488C7.16283 37.88 8.03217 37.576 9.0455 37.576C9.95217 37.576 10.7468 37.8 11.4295 38.248C12.1228 38.6853 12.6615 39.2987 13.0455 40.088L11.1895 41.16C10.7415 40.2 10.0268 39.72 9.0455 39.72C8.58683 39.72 8.22417 39.8267 7.9575 40.04C7.7015 40.2427 7.5735 40.5093 7.5735 40.84C7.5735 41.192 7.7175 41.48 8.0055 41.704C8.30417 41.9173 8.8695 42.152 9.7015 42.408C10.0428 42.5147 10.2988 42.6 10.4695 42.664C10.6508 42.7173 10.8908 42.808 11.1895 42.936C11.4988 43.0533 11.7335 43.1653 11.8935 43.272C12.0642 43.3787 12.2562 43.5227 12.4695 43.704C12.6828 43.8853 12.8428 44.072 12.9495 44.264C13.0668 44.456 13.1628 44.6907 13.2375 44.968C13.3228 45.2347 13.3655 45.528 13.3655 45.848C13.3655 46.8827 12.9868 47.704 12.2295 48.312C11.4828 48.92 10.5068 49.224 9.3015 49.224ZM21.8074 37.8V39.912H18.7834V49H16.5754V39.912H13.5674V37.8H21.8074ZM29.4275 49L28.7555 46.984H24.2915L23.6195 49H21.2355L25.1555 37.8H27.8915L31.8275 49H29.4275ZM24.9955 44.92H28.0675L26.5315 40.344L24.9955 44.92ZM39.395 37.8H41.603V49H39.923L35.123 42.152V49H32.915V37.8H34.595L39.395 44.632V37.8ZM48.1286 37.8C49.6646 37.8 50.9446 38.3387 51.9686 39.416C53.0033 40.4933 53.5206 41.8213 53.5206 43.4C53.5206 44.9787 53.0033 46.3067 51.9686 47.384C50.9446 48.4613 49.6646 49 48.1286 49H43.6806V37.8H48.1286ZM48.1286 46.888C49.0993 46.888 49.8886 46.568 50.4966 45.928C51.1046 45.2773 51.4086 44.4347 51.4086 43.4C51.4086 42.3653 51.1046 41.528 50.4966 40.888C49.8886 40.2373 49.0993 39.912 48.1286 39.912H45.8886V46.888H48.1286ZM61.8806 49L61.2086 46.984H56.7446L56.0726 49H53.6886L57.6086 37.8H60.3446L64.2806 49H61.8806ZM57.4486 44.92H60.5206L58.9846 40.344L57.4486 44.92ZM71.5121 49L69.2561 45.112H67.5761V49H65.3681V37.8H69.8481C70.8828 37.8 71.7628 38.1627 72.4881 38.888C73.2135 39.6133 73.5761 40.488 73.5761 41.512C73.5761 42.2053 73.3788 42.8507 72.9841 43.448C72.5895 44.0347 72.0668 44.4773 71.4161 44.776L73.8961 49H71.5121ZM67.5761 39.864V43.176H69.8481C70.2641 43.176 70.6215 43.016 70.9201 42.696C71.2188 42.3653 71.3681 41.9707 71.3681 41.512C71.3681 41.0533 71.2188 40.664 70.9201 40.344C70.6215 40.024 70.2641 39.864 69.8481 39.864H67.5761ZM82.3699 37.8V39.912H79.3459V49H77.1379V39.912H74.1299V37.8H82.3699Z" fill="#A64F74"/>
<defs>
<linearGradient id="paint0_linear" x1="80.1316" y1="80.8947" x2="8.39474" y2="10.6842" gradientUnits="userSpaceOnUse">
<stop stop-color="#FF86BA"/>
<stop offset="1" stop-color="#FEBCD8"/>
</linearGradient>
</defs>
</svg>
