<svg width="69" height="69" viewBox="0 0 69 69" fill="none" xmlns="http://www.w3.org/2000/svg">
<rect width="69" height="69" rx="27" fill="#3A78BC"/>
<path fill-rule="evenodd" clip-rule="evenodd" d="M24.8 29.6V43.6H44.4V29.6H24.8ZM24.1 28.2C23.7134 28.2 23.4 28.5134 23.4 28.9V44.3C23.4 44.6866 23.7134 45 24.1 45H45.1C45.4866 45 45.8 44.6866 45.8 44.3V28.9C45.8 28.5134 45.4866 28.2 45.1 28.2H24.1Z" fill="white"/>
<path fill-rule="evenodd" clip-rule="evenodd" d="M23.4 25.4V28.2H45.8V25.4H23.4ZM22.7 24C22.3134 24 22 24.3134 22 24.7V28.9C22 29.2866 22.3134 29.6 22.7 29.6H46.5C46.8866 29.6 47.2 29.2866 47.2 28.9V24.7C47.2 24.3134 46.8866 24 46.5 24H22.7Z" fill="white"/>
<path fill-rule="evenodd" clip-rule="evenodd" d="M31.8 35.2V38H37.4V35.2H31.8ZM31.1 33.8C30.7134 33.8 30.4 34.1134 30.4 34.5V38.7C30.4 39.0866 30.7134 39.4 31.1 39.4H38.1C38.4866 39.4 38.8 39.0866 38.8 38.7V34.5C38.8 34.1134 38.4866 33.8 38.1 33.8H31.1Z" fill="white"/>
</svg>
