<svg width="15" height="16" viewBox="0 0 15 16" fill="none" xmlns="http://www.w3.org/2000/svg">
<path d="M7.03125 0C3.15422 0 0 3.15422 0 7.03125C0 7.46091 0 10.7846 0 10.8438C0 11.6192 0.630844 12.25 1.40625 12.25H1.95563C2.14913 12.7956 2.67016 13.1875 3.28125 13.1875C4.05666 13.1875 4.6875 12.5567 4.6875 11.7812V7.96875C4.6875 7.19334 4.05666 6.5625 3.28125 6.5625C2.67016 6.5625 2.14913 6.95444 1.95563 7.5H1.40625C1.24191 7.5 1.08422 7.52859 0.9375 7.58063V7.03125C0.9375 3.67116 3.67116 0.9375 7.03125 0.9375C10.3913 0.9375 13.125 3.67116 13.125 7.03125V7.58063C12.9783 7.52859 12.8206 7.5 12.6562 7.5H12.1069C11.9134 6.95444 11.3923 6.5625 10.7812 6.5625C10.0058 6.5625 9.375 7.19334 9.375 7.96875V11.7812C9.375 12.5567 10.0058 13.1875 10.7812 13.1875C10.9232 13.1875 11.0602 13.1662 11.1894 13.1269C11.0141 13.7038 10.4773 14.125 9.84375 14.125H8.35688C8.16338 13.5794 7.64234 13.1875 7.03125 13.1875C6.25584 13.1875 5.625 13.8183 5.625 14.5938C5.625 15.3692 6.25584 16 7.03125 16C7.64234 16 8.16338 15.6081 8.35688 15.0625H9.84375C11.1361 15.0625 12.1875 14.0111 12.1875 12.7188V12.25H12.6562C13.4317 12.25 14.0625 11.6192 14.0625 10.8438C14.0625 10.7855 14.0625 7.46056 14.0625 7.03125C14.0625 3.15422 10.9083 0 7.03125 0ZM2.8125 7.96875C2.8125 7.71028 3.02278 7.5 3.28125 7.5C3.53972 7.5 3.75 7.71028 3.75 7.96875V11.7812C3.75 12.0397 3.53972 12.25 3.28125 12.25C3.02278 12.25 2.8125 12.0397 2.8125 11.7812V7.96875ZM1.40625 8.4375H1.875V11.3125H1.40625C1.14778 11.3125 0.9375 11.1022 0.9375 10.8438V8.90625C0.9375 8.64778 1.14778 8.4375 1.40625 8.4375ZM7.03125 15.0625C6.77278 15.0625 6.5625 14.8522 6.5625 14.5938C6.5625 14.3353 6.77278 14.125 7.03125 14.125C7.28972 14.125 7.5 14.3353 7.5 14.5938C7.5 14.8522 7.28972 15.0625 7.03125 15.0625ZM11.25 11.7812C11.25 12.0397 11.0397 12.25 10.7812 12.25C10.5228 12.25 10.3125 12.0397 10.3125 11.7812V7.96875C10.3125 7.71028 10.5228 7.5 10.7812 7.5C11.0397 7.5 11.25 7.71028 11.25 7.96875V11.7812ZM13.125 10.8438C13.125 11.1022 12.9147 11.3125 12.6562 11.3125H12.1875V8.4375H12.6562C12.9147 8.4375 13.125 8.64778 13.125 8.90625V10.8438Z" fill="black"/>
</svg>
