<svg width="87" height="87" viewBox="0 0 87 87" fill="none" xmlns="http://www.w3.org/2000/svg">
<rect width="87" height="87" rx="20" fill="url(#paint0_linear)"/>
<path d="M31.139 52L25.264 34.5H29.014L33.289 47.95L37.539 34.5H41.314L35.414 52H31.139ZM43.0005 34.5H46.4505V52H43.0005V34.5ZM56.2149 34.5C57.8983 34.5 59.3149 35.0667 60.4649 36.2C61.6149 37.3333 62.1899 38.725 62.1899 40.375C62.1899 42.025 61.6149 43.4167 60.4649 44.55C59.3149 45.6833 57.8983 46.25 56.2149 46.25H53.1399V52H49.6899V34.5H56.2149ZM56.2149 43.025C56.9483 43.025 57.5566 42.775 58.0399 42.275C58.5233 41.7583 58.7649 41.125 58.7649 40.375C58.7649 39.6083 58.5233 38.975 58.0399 38.475C57.5566 37.975 56.9483 37.725 56.2149 37.725H53.1399V43.025H56.2149Z" fill="#A64F74"/>
<defs>
<linearGradient id="paint0_linear" x1="80.1316" y1="80.8947" x2="8.39474" y2="10.6842" gradientUnits="userSpaceOnUse">
<stop stop-color="#FF86BA"/>
<stop offset="1" stop-color="#FEBCD8"/>
</linearGradient>
</defs>
</svg>
