<svg width="30" height="30" viewBox="0 0 30 30" fill="none" xmlns="http://www.w3.org/2000/svg">
<g clip-path="url(#clip0)">
<path d="M3.57422 20.332C3.57422 24.1675 5.48338 27.7268 8.68131 29.853C8.82551 29.9488 8.99479 30 9.16793 30H20.8321C21.0052 30 21.1745 29.9488 21.3187 29.853C24.5166 27.7267 26.4258 24.1675 26.4258 20.332C26.4258 16.8547 24.8574 13.606 22.1825 11.4449C23.6508 9.94481 25.6816 7.30873 25.0832 4.66088C24.3288 0.635083 19.0777 0.0295166 15.0064 4.39453e-05C15.0022 -1.46484e-05 14.9979 -1.46484e-05 14.9937 4.39453e-05C10.9277 0.029458 5.67281 0.626411 4.91684 4.66106C4.31848 7.30879 6.34922 9.94487 7.81752 11.4449C5.14254 13.606 3.57422 16.8547 3.57422 20.332ZM9.76799 10.881C7.97309 9.26758 6.20725 6.88498 6.6341 5.03676C6.63715 5.02364 6.63984 5.01051 6.6423 4.99733C7.03436 2.85631 9.76846 1.79665 15 1.75786C20.2315 1.79659 22.9656 2.85625 23.3578 4.99721C23.3602 5.01045 23.3629 5.02358 23.366 5.03664C23.7928 6.88498 22.0269 9.26758 20.232 10.8811C19.805 11.2649 19.8551 11.9498 20.334 12.2673C23.0478 14.0661 24.668 17.081 24.668 20.332C24.668 23.4908 23.1374 26.4283 20.5603 28.2422H9.43969C6.86256 26.4283 5.33203 23.4908 5.33203 20.332C5.33203 17.0809 6.95221 14.0661 9.66603 12.2672C10.1446 11.95 10.1953 11.2651 9.76799 10.881Z" fill="#A64F74"/>
<path d="M12.0878 10.6538C12.3001 10.8674 12.6071 10.9574 12.901 10.8923C14.2701 10.5894 15.7298 10.5894 17.0989 10.8923C17.3897 10.9567 17.6975 10.8697 17.9121 10.6538C19.0999 9.45891 21.5707 7.53234 21.5707 5.79686C21.5707 3.6249 17.2343 3.51639 14.9997 3.51562C12.8382 3.51633 8.4292 3.64266 8.4292 5.79686C8.4292 7.53176 10.9163 9.47525 12.0878 10.6538ZM14.9997 5.2735C16.1232 5.27391 18.8794 5.38658 19.7926 5.88932C19.4734 6.92496 17.7702 8.33543 17.0024 9.08139C15.73 8.85662 14.3672 8.83939 12.9975 9.08139C12.2141 8.32025 10.5265 6.92555 10.2069 5.88955C11.1234 5.3843 13.8714 5.27391 14.9997 5.2735Z" fill="#A64F74"/>
<path d="M15 15.9375C12.5769 15.9375 10.6055 17.9089 10.6055 20.332C10.6055 22.7552 12.5769 24.7266 15 24.7266C17.4231 24.7266 19.3945 22.7552 19.3945 20.332C19.3945 17.9089 17.4231 15.9375 15 15.9375ZM15 22.9688C13.5461 22.9688 12.3633 21.7859 12.3633 20.332C12.3633 18.8781 13.5461 17.6953 15 17.6953C16.4539 17.6953 17.6367 18.8781 17.6367 20.332C17.6367 21.7859 16.4539 22.9688 15 22.9688Z" fill="#A64F74"/>
</g>
<defs>
<clipPath id="clip0">
<rect width="30" height="30" fill="white"/>
</clipPath>
</defs>
</svg>
