<svg width="45" height="45" viewBox="0 0 45 45" fill="none" xmlns="http://www.w3.org/2000/svg">
<rect width="45" height="45" rx="20" fill="url(#paint0_linear)"/>
<g clip-path="url(#clip0)">
<path d="M11.5742 28.332C11.5742 32.1675 13.4834 35.7268 16.6813 37.853C16.8255 37.9488 16.9948 38 17.1679 38H28.8321C29.0052 38 29.1745 37.9488 29.3187 37.853C32.5166 35.7267 34.4258 32.1675 34.4258 28.332C34.4258 24.8547 32.8574 21.606 30.1825 19.4449C31.6508 17.9448 33.6816 15.3087 33.0832 12.6609C32.3288 8.63508 27.0777 8.02952 23.0064 8.00004C23.0022 7.99999 22.9979 7.99999 22.9937 8.00004C18.9277 8.02946 13.6728 8.62641 12.9168 12.6611C12.3185 15.3088 14.3492 17.9449 15.8175 19.4449C13.1425 21.606 11.5742 24.8547 11.5742 28.332ZM17.768 18.881C15.9731 17.2676 14.2072 14.885 14.6341 13.0368C14.6371 13.0236 14.6398 13.0105 14.6423 12.9973C15.0344 10.8563 17.7685 9.79665 23 9.75786C28.2315 9.79659 30.9656 10.8563 31.3578 12.9972C31.3602 13.0105 31.3629 13.0236 31.366 13.0366C31.7928 14.885 30.0269 17.2676 28.232 18.8811C27.805 19.2649 27.8551 19.9498 28.334 20.2673C31.0478 22.0661 32.668 25.081 32.668 28.332C32.668 31.4908 31.1374 34.4283 28.5603 36.2422H17.4397C14.8626 34.4283 13.332 31.4908 13.332 28.332C13.332 25.0809 14.9522 22.0661 17.666 20.2672C18.1446 19.95 18.1953 19.2651 17.768 18.881Z" fill="#6392CA"/>
<path d="M20.0878 18.6538C20.3001 18.8674 20.6071 18.9574 20.901 18.8923C22.2701 18.5894 23.7298 18.5894 25.0989 18.8923C25.3897 18.9567 25.6975 18.8697 25.9121 18.6538C27.0999 17.4589 29.5707 15.5323 29.5707 13.7969C29.5707 11.6249 25.2343 11.5164 22.9997 11.5156C20.8382 11.5163 16.4292 11.6427 16.4292 13.7969C16.4292 15.5318 18.9163 17.4753 20.0878 18.6538ZM22.9997 13.2735C24.1232 13.2739 26.8794 13.3866 27.7926 13.8893C27.4734 14.925 25.7702 16.3354 25.0024 17.0814C23.73 16.8566 22.3672 16.8394 20.9975 17.0814C20.2141 16.3203 18.5265 14.9255 18.2069 13.8896C19.1234 13.3843 21.8714 13.2739 22.9997 13.2735Z" fill="#6392CA"/>
<path d="M23 23.9375C20.5769 23.9375 18.6055 25.9089 18.6055 28.332C18.6055 30.7552 20.5769 32.7266 23 32.7266C25.4231 32.7266 27.3945 30.7552 27.3945 28.332C27.3945 25.9089 25.4231 23.9375 23 23.9375ZM23 30.9688C21.5461 30.9688 20.3633 29.7859 20.3633 28.332C20.3633 26.8781 21.5461 25.6953 23 25.6953C24.4539 25.6953 25.6367 26.8781 25.6367 28.332C25.6367 29.7859 24.4539 30.9688 23 30.9688Z" fill="#6392CA"/>
</g>
<defs>
<linearGradient id="paint0_linear" x1="41.4474" y1="41.8421" x2="4.3421" y2="5.52632" gradientUnits="userSpaceOnUse">
<stop stop-color="#86BEFF"/>
<stop offset="1" stop-color="#BCD7FE"/>
</linearGradient>
<clipPath id="clip0">
<rect width="30" height="30" fill="white" transform="translate(8 8)"/>
</clipPath>
</defs>
</svg>
