<svg width="48" height="48" viewBox="0 0 48 48" fill="none" xmlns="http://www.w3.org/2000/svg">
<path d="M36.8163 16.7998H25.8564L36.0163 0.799805H23.2164L11.2164 24.7998H20.6563L11.2164 47.1999L36.8163 16.7998Z" fill="#FFDD09"/>
<path d="M26.4163 0.799805H23.2164L11.2164 24.7998H14.4163L26.4163 0.799805Z" fill="white"/>
<path d="M32.8164 16.8003L13.6164 39.6003L10.4164 47.2003L36.0164 16.8003H32.8164Z" fill="#FD9808"/>
<path d="M11.2164 48C11.0564 48 10.8964 48 10.8164 47.92C10.4964 47.68 10.3364 47.28 10.4964 46.96L19.4564 25.6H11.2164C10.9764 25.6 10.6564 25.44 10.4964 25.2C10.3364 24.96 10.3364 24.64 10.4964 24.4L22.4964 0.400031C22.6564 0.160031 22.8964 0 23.2164 0H36.0164C36.3363 0 36.5763 0.160031 36.7364 0.400031C36.8964 0.640031 36.8964 0.96 36.7364 1.2L27.3764 16H36.8163C37.1363 16 37.3763 16.1601 37.5363 16.48C37.6964 16.8 37.6163 17.1201 37.4564 17.3601L11.8563 47.76C11.6964 47.92 11.4564 48 11.2164 48ZM12.4964 24H20.6564C20.8964 24 21.1364 24.16 21.2964 24.32C21.4564 24.56 21.4564 24.8 21.3764 25.04L14.0163 42.6399L35.1363 17.6H25.8563C25.5363 17.6 25.2963 17.4399 25.1363 17.1999C24.9763 16.9599 24.9763 16.64 25.1363 16.4L34.5764 1.60003H23.6964L12.4964 24Z" fill="black"/>
</svg>
