<svg width="40" height="40" viewBox="0 0 40 40" fill="none" xmlns="http://www.w3.org/2000/svg">
<g clip-path="url(#clip0)">
<path d="M27.2837 11.2816C26.9724 11.2816 26.6615 11.1584 26.4311 10.9139C23.8871 8.21615 22.4589 6.81905 21.2229 6.17511C20.0715 5.57545 18.9191 5.5486 16.6279 5.5486C15.9809 5.5486 15.456 5.02399 15.456 4.37673C15.456 3.72973 15.9809 3.20483 16.6279 3.20483C19.1611 3.20483 20.6736 3.24634 22.3057 4.09656C23.8499 4.9007 25.3522 6.35365 28.1361 9.30591C28.5804 9.77683 28.5584 10.5184 28.0876 10.9624C27.8611 11.1761 27.5721 11.2816 27.2837 11.2816Z" fill="#DBAD5C"/>
<path d="M11.1075 5.58009H9.48427C8.837 5.58009 8.31239 5.05548 8.31239 4.40821C8.31239 3.76091 8.837 3.23633 9.48427 3.23633H11.1075C11.7548 3.23633 12.2794 3.76091 12.2794 4.40821C12.2794 5.05548 11.7548 5.58009 11.1075 5.58009Z" fill="#DBAD5C"/>
<path d="M17.6743 4.47015C17.6743 2.54328 16.1063 0.975586 14.1791 0.975586C12.269 0.975586 10.7004 2.51581 10.6729 4.41918L10.6653 9.86813C10.6653 10.5151 11.1899 11.04 11.8372 11.04H16.5024C17.1497 11.04 17.6743 10.5151 17.6743 9.86813C17.6743 9.86813 17.6743 4.50588 17.6743 4.47015Z" fill="#EDC472"/>
<path d="M10.6729 4.41937L10.6653 9.86832C10.6653 10.5156 11.1899 11.0402 11.8372 11.0402H14.1697V0.976074C12.2638 0.980956 10.7004 2.51904 10.6729 4.41937Z" fill="#FCF2B6"/>
<path d="M14.1696 13.4934C6.35652 13.4934 0 19.8481 0 27.6594C0 32.0322 1.97388 36.0926 5.41567 38.7994C5.62226 38.9615 5.8774 39.0497 6.14014 39.0497H22.1991C22.4619 39.0497 22.717 38.9615 22.9236 38.7994C26.3654 36.0926 28.3396 32.0322 28.3396 27.6594C28.3396 19.8481 21.983 13.4934 14.1696 13.4934Z" fill="#8F4CD6"/>
<path d="M0 27.6594C0 32.0322 1.97388 36.0926 5.41568 38.7994C5.62227 38.9615 5.87741 39.0497 6.14015 39.0497H14.1697V13.4934C6.35653 13.4934 0 19.8481 0 27.6594Z" fill="#C78FF5"/>
<path d="M27.8016 23.7882C26.113 17.8528 20.6409 13.4934 14.1697 13.4934C7.56748 13.4934 2.00594 18.0311 0.440079 24.1505C8.33683 26.0676 19.3522 22.6429 27.8016 23.7882Z" fill="#80DBFF"/>
<path d="M0.440369 24.1504C4.45894 25.1261 9.28501 24.7184 14.17 24.2334V13.4934C7.56747 13.4934 2.00592 18.0311 0.440369 24.1504Z" fill="#B5EFFF"/>
<path d="M37.9815 12.7774C36.5322 11.192 34.4491 9.7552 32.4098 8.93398C29.8985 7.92264 27.8263 7.99558 26.5748 9.13906C25.3232 10.2829 25.0648 12.3398 25.8472 14.931C26.4826 17.0355 27.7274 19.2382 29.1767 20.8236C30.6519 22.4368 32.2224 23.2465 33.8015 23.2465C35.1569 23.2465 36.5191 22.6492 37.8304 21.4508C39.1297 20.2636 39.8526 18.9721 39.9798 17.612C40.1288 16.0171 39.4567 14.3902 37.9815 12.7774Z" fill="#8F4CD6"/>
<path d="M18.7659 9.10132H9.5734C8.92643 9.10132 8.40152 9.62593 8.40152 10.2732V14.564C8.40152 15.2113 8.92643 15.7359 9.5734 15.7359H18.7659C19.4132 15.7359 19.9378 15.2113 19.9378 14.564V10.2732C19.9378 9.62593 19.4132 9.10132 18.7659 9.10132Z" fill="#DBAD5C"/>
<path d="M9.5734 9.10132C8.92643 9.10132 8.40152 9.62593 8.40152 10.2732V14.564C8.40152 15.2113 8.92643 15.7359 9.5734 15.7359H14.1697V9.10132H9.5734Z" fill="#EDC472"/>
<path d="M39.9798 17.6123C40.1288 16.0171 39.4567 14.3902 37.9815 12.7774C36.5322 11.192 34.4491 9.7552 32.4098 8.93398C29.8985 7.92264 27.8263 7.99558 26.5748 9.13906L37.8304 21.4508C39.1297 20.2636 39.8526 18.9721 39.9798 17.6123Z" fill="#C78FF5"/>
</g>
<defs>
<clipPath id="clip0">
<rect width="40" height="40" fill="white"/>
</clipPath>
</defs>
</svg>
