<svg width="60" height="18" viewBox="0 0 60 18" fill="none" xmlns="http://www.w3.org/2000/svg">
<g clip-path="url(#clip0)">
<path d="M18.681 17.3757L19.1445 15.4448H16.008L18.0139 17.3757H18.681ZM19.4228 14.2948L19.8863 12.3612H12.807L14.8129 14.2948H19.4228ZM20.163 11.2109L20.6285 9.27946H9.60645L11.6119 11.2109H20.163ZM20.9045 8.13003L21.3701 6.1965H6.40551L8.41367 8.13003H20.9045ZM21.6469 5.04647L22.1125 3.11473H3.20516L5.21268 5.04647H21.6469ZM22.3885 1.9653L22.8541 0.0317383H0.00419617L2.01174 1.9653" fill="#EF7E20"/>
<path d="M54.438 17.3757L57.0812 14.8767L58.4387 9.27946V9.26531L56.3061 6.5892L53.6377 6.5935L54.1221 4.57969L54.4567 4.32071H55.1546L55.4185 4.61881L55.313 5.04647H59.457L59.9662 2.90104L58.1833 0.0317383H53.4817L51.225 1.9653H58.2848L58.9817 3.11473H50.3497L49.8841 5.04647H52.9166L52.638 6.1965H49.6079L49.1423 8.13003H56.452L57.3558 9.27946H49.1232L50.624 11.2109H56.8804L56.6039 12.3612H53.6023L53.4111 13.1511L53.0765 13.4101H52.3786L52.1142 13.1141L52.2575 12.5338L52.3034 12.3612H48.1235L47.66 14.2948H56.1361L54.8785 15.4448H47.5856L48.9322 17.3757H54.438ZM35.2228 17.3757L37.4425 8.13003H42.094L41.5974 9.27946H37.6027L37.5277 11.2109H40.7659L40.2695 12.3612H37.4841L37.4097 14.2948H39.4378L38.9436 15.4448H37.366L37.291 17.3757H39.2113L43.1937 8.13003H46.2906L46.0122 9.27946H42.9815L42.5159 11.2109H45.5487L45.27 12.3612H42.2397L41.7742 14.2948H44.8066L44.5282 15.4448H41.4975L41.032 17.3757H45.1599L48.8677 1.9653L49.3333 0.0317383H43.9232L43.0023 1.9653H47.7743L47.4983 3.11473H42.4535L41.5332 5.04647H47.0328L46.7561 6.1965H40.9862L40.2775 7.6835V0.0317383H35.5202L35.0546 1.9653H39.1826V3.11473H34.7779L34.3124 5.04647H39.1826V6.19425L34.0362 6.1965L33.5706 8.13003H36.3476L36.0709 9.27946H33.294L32.8284 11.2109H35.6074L35.3329 12.3612H32.5522L32.0889 14.2948H34.8694L34.5934 15.4448H31.81L31.3465 17.3757H35.2228ZM29.5258 17.3757L29.9893 15.4448L30.266 14.2948H30.268L30.7315 12.3612H26.9633L27.2337 11.2109H30.6899L30.8437 10.5739L31.4961 7.86036L31.8973 6.1965H28.4101L28.6803 5.04647H32.4922L32.9577 3.11473H32.9556L33.2318 1.9653H33.2339L33.6995 0.0317383H25.4937L25.0281 1.9653H32.1388L31.8622 3.11473H24.7521L24.2865 5.04647H27.5848L27.3146 6.1965H24.0099L23.5443 8.13003H30.3368L30.06 9.27946H23.2681L22.8025 11.2109H26.1403L25.8699 12.3612H22.5259L22.0603 14.2948H29.1725L28.8965 15.4448H21.7842L21.3186 17.3757" fill="#00549E"/>
</g>
<defs>
<clipPath id="clip0">
<rect width="60" height="17.3913" fill="white"/>
</clipPath>
</defs>
</svg>
