<svg width="13" height="13" viewBox="0 0 13 13" fill="none" xmlns="http://www.w3.org/2000/svg">
<path d="M6.50046 13.0002C10.09 13.0002 13 10.0903 13 6.50071C13 2.91114 10.09 0.0012207 6.50046 0.0012207C2.9109 0.0012207 0.000976562 2.91114 0.000976562 6.50071C0.000976562 10.0903 2.9109 13.0002 6.50046 13.0002Z" fill="white"/>
<path d="M12.6283 4.33264H8.62354C8.7975 5.7211 8.79852 7.25098 8.62691 8.64117H12.6368C12.8709 7.9705 12.9996 7.25026 12.9996 6.49984C12.9997 5.73957 12.868 5.0105 12.6283 4.33264Z" fill="#2B479D"/>
<path d="M8.62344 4.33262H12.6281C12.6275 4.33056 12.6269 4.32883 12.626 4.32697C11.7942 1.98143 9.65442 0.255745 7.0835 0.0266724C8.0785 0.572034 8.36912 2.29989 8.62344 4.33262Z" fill="#EFECEC"/>
<path d="M7.0835 12.9726C9.65903 12.7431 11.8018 11.0115 12.6304 8.65964C12.6326 8.65339 12.6344 8.64721 12.6367 8.64117H8.62671C8.37434 10.6849 8.08247 12.4249 7.0835 12.9726Z" fill="#E63026"/>
<path d="M0 6.49978C0 7.25031 0.128903 7.97044 0.362778 8.64111H8.96125C9.13305 7.25081 9.13181 5.72104 8.95807 4.33258H0.371423C0.131675 5.01047 0 5.73954 0 6.49978Z" fill="#3757A6"/>
<path d="M0.37364 4.32697C0.373037 4.32881 0.372405 4.33056 0.371582 4.33262H8.95825C8.70374 2.29987 8.07852 0.572037 7.08366 0.0266753C6.89122 0.00963274 6.69664 3.12799e-10 6.49982 3.12799e-10C3.67232 -2.74434e-05 1.26784 1.8058 0.37364 4.32697Z" fill="#EFEFEF"/>
<path d="M8.96127 8.64111H0.362793C0.364961 8.64718 0.366992 8.65333 0.36905 8.65958C1.25968 11.1872 3.66762 12.9994 6.49965 12.9994C6.6965 12.9994 6.89108 12.9898 7.08349 12.9725C8.08257 12.4249 8.70889 10.6849 8.96127 8.64111Z" fill="#E73B36"/>
</svg>
