<svg width="87" height="50" viewBox="0 0 87 50" fill="none" xmlns="http://www.w3.org/2000/svg">
<path d="M60.5 34C60.5 34 57.45 33.8714 56.5 32.5C54.847 30.1138 56.3641 28.2159 59 27C61.5075 25.8433 64.8803 25.6268 67.5 26.5C75 29 86 38.5 86 38.5" stroke="black"/>
<path d="M61.1022 14.1632L8.8781 0L0 36.2017L50.8036 49.1116L67.7243 36.348L61.1022 14.1632ZM56.9243 36.3689C56.1715 36.373 55.4344 36.1535 54.8064 35.7383C54.1784 35.3231 53.6879 34.7308 53.3969 34.0364C53.106 33.3421 53.0277 32.577 53.172 31.8381C53.3163 31.0993 53.6768 30.4199 54.2077 29.8861C54.7385 29.3523 55.4159 28.9881 56.154 28.8397C56.892 28.6913 57.6576 28.7653 58.3535 29.0525C59.0494 29.3396 59.6444 29.8269 60.0631 30.4526C60.4818 31.0782 60.7053 31.8141 60.7053 32.567C60.7056 33.5554 60.3187 34.5047 59.6276 35.2114C58.9365 35.9182 57.9961 36.3261 57.0078 36.348L56.9243 36.3689Z" fill="#FF006D"/>
<path d="M34.3009 13.7454C35.2289 14.1548 36.0884 14.7044 36.8495 15.3748C37.4957 15.9342 38.0522 16.5894 38.4997 17.3176C38.8874 17.9607 39.1562 18.6683 39.2936 19.4065C39.405 20.0002 39.405 20.6094 39.2936 21.203C39.2771 21.3246 39.2327 21.4406 39.1638 21.5421C39.0949 21.6436 39.0035 21.7277 38.8967 21.7879C38.6672 21.8709 38.4159 21.8709 38.1864 21.7879L35.9303 21.203C35.626 21.1577 35.3461 21.0104 35.1365 20.7853C34.9761 20.5796 34.8557 20.3458 34.7814 20.0959C34.563 19.4175 34.1747 18.8062 33.6534 18.3203C32.8641 17.6333 31.9044 17.1715 30.875 16.9833C30.337 16.8367 29.7824 16.7594 29.2248 16.7535C28.73 16.729 28.2349 16.7927 27.7625 16.9416C27.351 17.0537 26.9717 17.2613 26.6553 17.5473C26.3585 17.8226 26.148 18.1783 26.0495 18.571C25.8997 18.9897 25.8997 19.4474 26.0495 19.8661C26.26 20.3114 26.5843 20.6933 26.9896 20.9733C27.5895 21.3984 28.2176 21.7823 28.8696 22.1222L31.7524 23.5636C32.8155 24.0754 33.8295 24.6838 34.7814 25.381C35.5155 25.9068 36.1519 26.5573 36.6615 27.3028C37.0799 27.9286 37.3447 28.6443 37.4344 29.3918C37.4989 30.2205 37.4212 31.0542 37.2046 31.8568C37.1175 32.7087 36.839 33.5299 36.3899 34.2591C35.8667 34.9192 35.2213 35.4724 34.4889 35.8885C33.6709 36.3356 32.7795 36.6327 31.8568 36.7658C30.7904 36.9246 29.7063 36.9246 28.6398 36.7658L28.0967 38.9801C28.033 39.2111 27.8815 39.408 27.6747 39.5289C27.4679 39.6499 27.2221 39.6854 26.9896 39.6277L24.3575 38.9801C24.1265 38.9164 23.9296 38.765 23.8086 38.5582C23.6877 38.3514 23.6522 38.1055 23.7099 37.873L24.253 35.6587C23.3526 35.2743 22.4978 34.7909 21.7045 34.2173C20.981 33.6885 20.3403 33.0548 19.8035 32.3372C19.3008 31.6846 18.9316 30.9392 18.7172 30.1438C18.5182 29.3483 18.5182 28.5161 18.7172 27.7206C18.7336 27.6017 18.7782 27.4885 18.8472 27.3904C18.9163 27.2923 19.0078 27.2121 19.1141 27.1566C19.3367 27.0751 19.5809 27.0751 19.8035 27.1566L22.0805 27.7206C22.3782 27.7849 22.6527 27.9294 22.8743 28.1384C23.0502 28.3391 23.166 28.5852 23.2085 28.8487C23.3024 29.1843 23.4211 29.5125 23.5637 29.8305C23.7157 30.1946 23.9436 30.5222 24.2321 30.7914C24.6032 31.1455 25.0258 31.4413 25.4855 31.6687C26.1468 32.0029 26.8491 32.2487 27.5745 32.3999C28.2056 32.5601 28.8481 32.6718 29.4963 32.7341C30.0648 32.8102 30.6408 32.8102 31.2093 32.7341C31.6841 32.6334 32.1324 32.4341 32.5253 32.1492C32.8944 31.8673 33.159 31.4703 33.2773 31.0212C33.3948 30.5843 33.3347 30.1187 33.1102 29.726C32.7976 29.27 32.3918 28.8855 31.9195 28.598C31.3625 28.2498 30.6661 27.8529 29.8305 27.4073C28.9741 26.9895 27.9714 26.4881 26.8642 25.8823C25.9488 25.407 25.0752 24.8549 24.253 24.232C23.5944 23.7281 23.0289 23.1131 22.5818 22.4146C22.1789 21.7847 21.9285 21.0694 21.8507 20.3257C21.6465 19.4133 21.6181 18.4703 21.7671 17.5473C21.9584 16.741 22.3218 15.9857 22.8325 15.3331C23.3389 14.6919 23.9628 14.1531 24.6708 13.7454C25.4147 13.2917 26.2364 12.9801 27.094 12.8263C28.0221 12.6431 28.9708 12.5869 29.9141 12.6592L30.4781 10.4449C30.5054 10.33 30.5568 10.2221 30.6288 10.1285C30.7008 10.0349 30.7918 9.95759 30.8959 9.90173C30.9939 9.83867 31.104 9.7968 31.2191 9.77882C31.3342 9.76083 31.4518 9.76711 31.5644 9.79727L34.1965 10.4449C34.4314 10.5061 34.6335 10.6558 34.7605 10.8627C34.823 10.9648 34.8644 11.0784 34.8823 11.1968C34.9003 11.3152 34.8944 11.436 34.865 11.552L34.3009 13.7454Z" fill="white"/>
<path d="M60 34H65" stroke="black"/>
</svg>
