<svg width="1229" height="678" viewBox="0 0 1229 678" fill="none" xmlns="http://www.w3.org/2000/svg">
<path d="M475.49 424.245C475.49 424.245 460.785 413.989 454.035 415.848C447.284 417.707 438.629 427.201 438.629 427.201C438.629 427.201 455.757 422.264 460.922 423.3C465.747 423.982 470.617 424.298 475.49 424.245Z" fill="#E0E0E0"/>
<path d="M480.443 427.947C478.294 432.793 474.606 436.831 472.534 441.662C470.175 447.305 470.137 453.651 472.427 459.323C476.232 455.074 478.821 449.878 479.924 444.283C481.001 439.108 481.578 433.842 481.646 428.557L480.443 427.947Z" fill="#E0E0E0"/>
<path d="M478.187 426.713C478.858 424.732 462.218 425.601 456.854 432.016C451.49 438.432 446.187 445.411 450.758 461.609C450.758 461.609 460.8 444.054 460.8 444.313C460.8 444.573 476.846 430.584 478.187 426.713Z" fill="#E0E0E0"/>
<path d="M478.309 426.485C476.785 427.079 491.887 431.681 498.866 432.245C502.69 432.681 506.562 432.07 510.066 430.477C510.066 430.477 499.932 418.088 478.309 426.485Z" fill="#E0E0E0"/>
<path d="M554.699 490.196C554.699 490.196 561.982 487.148 564.04 489.281C566.097 491.415 574.493 502.478 582.463 503.163C582.463 503.163 575.179 487.681 568.581 485.182C564.238 483.536 554.699 490.196 554.699 490.196Z" fill="#E0E0E0"/>
<path d="M556.573 489.358C556.573 489.358 556.283 483.887 553.525 481.007C550.767 478.127 540.878 476.177 540.878 476.177C542.875 479.326 545.318 482.17 548.131 484.619C550.747 486.528 553.581 488.118 556.573 489.358Z" fill="#E0E0E0"/>
<path d="M556.573 489.038C556.573 489.038 551.499 489.038 547.918 495.301C545.532 499.602 543.767 504.219 542.676 509.015C542.98 508.482 552.245 504.443 554.683 499.293C556.149 496.082 556.798 492.56 556.573 489.038Z" fill="#E0E0E0"/>
<path d="M557.716 489.038C557.716 489.038 558.63 501.106 560.672 503.163C562.714 505.221 565.685 512.718 565.685 512.718C565.685 512.718 570.257 501.792 567.727 496.565C565.198 491.339 557.716 489.038 557.716 489.038Z" fill="#E0E0E0"/>
<path d="M513.494 512.352C512.915 513.221 501.304 522.272 499.49 526.661C497.677 531.05 499.201 537.754 499.49 539.796C499.78 541.838 509.99 537.16 511.681 529.282C512.814 523.708 513.421 518.04 513.494 512.352Z" fill="#E0E0E0"/>
<path d="M515.78 505.571C515.78 507.019 515.948 521.327 519.712 526.326C522.875 530.144 526.452 533.599 530.378 536.627C530.378 536.627 532.847 518.539 527.635 512.946C524.363 509.535 520.287 506.999 515.78 505.571Z" fill="#E0E0E0"/>
<path d="M514.058 508.024C513.205 507.826 502.645 506.821 497.616 512.84C494.438 516.749 491.804 521.07 489.784 525.686C489.784 525.686 505.753 517.762 508.679 514.257C511.605 510.752 514.058 508.024 514.058 508.024Z" fill="#E0E0E0"/>
<path d="M521.327 501.472C522.652 500.564 524.213 500.059 525.819 500.019C527.425 499.978 529.009 500.404 530.378 501.244C535.117 504.2 543.011 515.689 543.011 515.689C543.011 515.689 533.35 515.095 528.321 510.219C525.511 507.721 523.145 504.763 521.327 501.472Z" fill="#E0E0E0"/>
<path d="M514.454 503.255C514.454 503.255 508.359 498.043 503.65 496.885C498.942 495.727 485.258 499.141 485.258 499.141C489.931 502.298 495.549 503.75 501.167 503.255C510.66 502.432 514.454 503.255 514.454 503.255Z" fill="#E0E0E0"/>
<path d="M494.127 556.238C494.127 556.238 489.738 564.711 494.127 569.389C498.515 574.067 500.862 583.408 500.862 583.408C500.862 583.408 508.481 576.094 504.641 567.926C502.399 563.056 498.733 558.981 494.127 556.238Z" fill="#E0E0E0"/>
<path d="M487.178 556.452C486.005 557.046 478.416 567.256 477.837 574.555C477.258 581.854 476.664 594.364 477.837 593.542C479.01 592.719 487.467 584.78 489.799 577.191C492.13 569.602 487.178 556.452 487.178 556.452Z" fill="#E0E0E0"/>
<path d="M484.237 555.659C483.079 555.949 472.046 553.907 465.844 561.755C461.525 567.751 457.901 574.218 455.04 581.031C455.04 581.031 471.101 572.818 474.85 568.307C478.599 563.797 484.237 555.659 484.237 555.659Z" fill="#E0E0E0"/>
<path d="M546.912 541.64C546.912 541.64 543.575 551.575 546.912 560.337C548.82 565.419 551.208 570.307 554.043 574.936C554.043 574.936 558.981 557.412 555.781 552.734C552.581 548.055 546.912 541.64 546.912 541.64Z" fill="#E0E0E0"/>
<path d="M548.74 540.589C549.914 541.686 563.613 561.343 572.924 563.096C582.234 564.848 574.371 562.349 574.371 562.349C574.371 562.349 571.445 549.107 567.27 543.621C563.095 538.135 548.74 540.589 548.74 540.589Z" fill="#E0E0E0"/>
<path d="M546.607 540.238C546.607 540.238 556.71 533.229 560.657 531.446C564.603 529.663 577.678 532.01 577.678 532.01C577.678 532.01 561.845 540.269 558.036 539.476C554.226 538.684 546.653 541.975 546.653 541.975" fill="#E0E0E0"/>
<path d="M581.777 444.648C581.777 444.648 573.03 453.929 574.158 461.182C574.997 466.015 576.251 470.767 577.906 475.384L581.747 462.63L581.777 444.648Z" fill="#E0E0E0"/>
<path d="M582.966 442.79C582.966 442.79 580.939 457.007 584.992 462.797C589.046 468.588 594.562 479.559 595.141 478.752C595.72 477.944 604.131 470.34 598.051 459.613C594.238 453.024 589.101 447.296 582.966 442.79Z" fill="#E0E0E0"/>
<path d="M580.025 445.304C580.025 445.304 566.036 441.25 564.024 447.925C562.013 454.599 560.322 460.39 560.322 460.39C563.283 457.296 566.597 454.56 570.196 452.237C573.607 450.124 576.889 447.809 580.025 445.304Z" fill="#E0E0E0"/>
<path d="M517.289 449.068L518.432 448.077C521.738 445.258 531.384 437.502 536.26 438.69C541.083 440.055 545.799 441.771 550.371 443.826C550.371 443.826 529.235 454.797 517.289 449.068Z" fill="#E0E0E0"/>
<path d="M520.123 449.159C520.123 448.108 513.769 446.416 508.146 452.207C502.523 457.997 501.669 461.578 501.669 461.578C501.669 461.578 519.727 459.171 520.123 449.159Z" fill="#E0E0E0"/>
<path d="M519.178 450.333C519.178 450.333 512.748 457.723 517.654 464.976C522.561 472.23 526.797 479.194 526.797 479.194C528.312 474.503 528.312 469.454 526.797 464.763C525.036 459.581 522.464 454.71 519.178 450.333Z" fill="#E0E0E0"/>
<path d="M543.163 468.74C542.874 466.973 545.205 452.496 526.051 453.929H524.298C524.298 453.929 533.441 468.71 535.559 473.357C536.817 476.522 538.856 479.317 541.487 481.479C543.742 483.506 543.453 470.508 543.163 468.74Z" fill="#E0E0E0"/>
<path d="M546.866 541C546.986 538.737 546.642 536.474 545.856 534.349C545.07 532.224 543.858 530.282 542.295 528.642C542.005 528.322 541.578 528.002 541.198 528.185C541.077 528.262 540.973 528.362 540.892 528.48C540.811 528.597 540.754 528.73 540.725 528.87C540.032 531.56 540.414 534.413 541.792 536.825C543.184 539.2 544.931 541.348 546.973 543.194" fill="#E0E0E0"/>
<path d="M492.892 554.394C489.419 548.082 483.961 543.09 477.364 540.192C476.97 539.973 476.517 539.882 476.069 539.933C475.741 540.036 475.452 540.237 475.242 540.51C475.032 540.783 474.911 541.113 474.896 541.457C474.874 542.897 475.422 544.288 476.42 545.328C480.642 550.842 486.813 554.533 493.669 555.644" fill="#E0E0E0"/>
<path d="M569.632 533.015C569.632 533.015 568.657 533.015 566.889 533.289C564.414 533.616 561.988 534.245 559.666 535.164C556.224 536.535 552.98 538.359 550.02 540.588C546.431 543.372 543.031 546.391 539.841 549.625C532.877 556.406 526.736 562.684 522.485 567.408C520.367 569.77 518.675 571.705 517.517 573.061L516.161 574.585C515.856 574.936 515.689 575.118 515.658 575.103C515.766 574.885 515.899 574.681 516.054 574.494C516.344 574.128 516.755 573.564 517.304 572.878C518.401 571.476 520.032 569.48 522.119 567.073C526.294 562.257 532.39 555.888 539.354 549.122C542.557 545.854 545.995 542.823 549.639 540.055C552.663 537.818 555.981 536.008 559.499 534.676C561.871 533.792 564.352 533.234 566.874 533.015C567.554 532.976 568.236 532.976 568.916 533.015C569.154 532.989 569.394 532.989 569.632 533.015Z" fill="#E0E0E0"/>
<path d="M515.292 570.913C515.186 570.989 514.043 569.008 511.559 566.341C508.329 562.877 504.364 560.181 499.954 558.451C495.545 556.721 490.805 556.002 486.081 556.345C482.454 556.589 480.275 557.259 480.244 557.137C480.727 556.896 481.239 556.722 481.768 556.619C483.172 556.247 484.604 555.992 486.05 555.857C490.864 555.371 495.724 556.038 500.228 557.803C504.733 559.568 508.753 562.38 511.955 566.006C512.928 567.092 513.805 568.259 514.576 569.496C514.872 569.937 515.113 570.413 515.292 570.913Z" fill="#E0E0E0"/>
<path d="M519.056 448.961C519.07 449.103 519.07 449.246 519.056 449.388C519.056 449.692 519.056 450.104 518.95 450.607C518.843 451.719 518.691 453.289 518.492 455.285C518.081 459.338 517.487 465.22 516.832 472.489C515.552 487.011 514.028 507.141 514.058 529.404C514.089 551.667 515.689 571.797 516.816 586.334C517.411 593.572 517.883 599.454 518.218 603.568C518.371 605.565 518.492 607.134 518.584 608.246C518.584 608.749 518.584 609.161 518.66 609.465C518.68 609.607 518.68 609.751 518.66 609.892C518.622 609.758 518.596 609.62 518.584 609.481C518.584 609.161 518.584 608.765 518.447 608.262C518.325 607.149 518.157 605.58 517.959 603.584C517.548 599.53 516.969 593.648 516.329 586.38C515.079 571.842 513.433 551.713 513.281 529.404C513.129 507.095 514.805 486.965 516.329 472.443C517.045 465.174 517.715 459.308 518.203 455.254C518.457 453.223 518.655 451.668 518.797 450.591L518.98 449.372C518.983 449.232 519.009 449.093 519.056 448.961Z" fill="#E0E0E0"/>
<path d="M562.729 488.154C562.062 488.332 561.377 488.439 560.687 488.474C559.377 488.611 557.472 488.87 555.141 489.236C542.959 491.194 531.227 495.323 520.504 501.426C518.447 502.584 516.816 503.575 515.689 504.291C515.132 504.692 514.534 505.035 513.906 505.312C514.418 504.85 514.969 504.432 515.552 504.062C516.618 503.285 518.233 502.234 520.26 501.015C530.926 494.658 542.763 490.512 555.064 488.824C557.426 488.519 559.331 488.337 560.657 488.276C561.343 488.175 562.036 488.134 562.729 488.154Z" fill="#E0E0E0"/>
<path d="M515.445 481.693C515.367 481.438 515.306 481.178 515.262 480.916C515.155 480.321 515.033 479.575 514.866 478.66C514.699 477.47 514.465 476.289 514.165 475.125C513.814 473.769 513.555 472.184 512.961 470.554C512.687 469.715 512.412 468.832 512.123 467.917C511.833 467.003 511.422 466.089 511.056 465.114C510.34 463.163 509.334 461.182 508.329 459.018C505.963 454.539 503.172 450.299 499.993 446.355C494.082 439.271 487.203 433.054 479.559 427.886C478.142 426.835 476.755 426.043 475.582 425.25C474.408 424.458 473.357 423.864 472.534 423.361L470.568 422.142C470.335 422.017 470.116 421.869 469.913 421.7C470.17 421.774 470.416 421.881 470.644 422.02L472.656 423.102C473.54 423.559 474.606 424.138 475.795 424.9C476.983 425.662 478.401 426.424 479.864 427.445C487.627 432.538 494.591 438.757 500.527 445.898C503.736 449.88 506.539 454.173 508.892 458.713C509.899 460.696 510.799 462.731 511.59 464.809C511.94 465.799 512.367 466.714 512.626 467.658C512.885 468.603 513.174 469.472 513.433 470.325C513.884 471.864 514.255 473.426 514.546 475.003C514.825 476.177 515.023 477.368 515.14 478.569C515.247 479.498 515.338 480.245 515.399 480.839C515.46 481.12 515.475 481.408 515.445 481.693Z" fill="#E0E0E0"/>
<path d="M583.971 443.978C583.742 444.119 583.496 444.232 583.24 444.313L581.091 445.121C579.217 445.791 576.52 446.812 573.228 448.169C564.636 451.611 556.256 455.56 548.131 459.993C540.029 464.473 532.203 469.434 524.694 474.851C521.799 476.923 519.498 478.645 517.929 479.864L516.1 481.251C515.892 481.42 515.667 481.568 515.43 481.693C515.43 481.693 515.612 481.479 516.009 481.129L517.761 479.605C519.285 478.325 521.54 476.557 524.405 474.394C539.309 463.278 555.678 454.273 573.045 447.635C576.367 446.37 579.141 445.41 580.985 444.816L583.179 444.13C583.437 444.053 583.703 444.002 583.971 443.978Z" fill="#E0E0E0"/>
<path d="M543.529 675.219H488.519L482.774 608.018H549.975L543.529 675.219Z" fill="#E0E0E0"/>
<path d="M554.44 608.018H478.523V618.35H554.44V608.018Z" fill="#E0E0E0"/>
<path d="M553.952 618.38C553.952 618.563 536.961 618.731 516.039 618.731C495.117 618.731 478.111 618.563 478.111 618.38C478.111 618.197 495.087 618.03 516.039 618.03C536.992 618.03 553.952 618.182 553.952 618.38Z" fill="#EBEBEB"/>
<path d="M785.315 676.225L832.034 676.592L832.497 617.622L785.778 617.255L785.315 676.225Z" fill="#EBEBEB"/>
<path d="M814.206 619.386L813.368 676.483L805.993 676.422L807.578 619.325L814.206 619.386Z" fill="#FAFAFA"/>
<path d="M758.937 618.959L785.741 619.157L832.462 619.523L785.68 625.679L785.284 676.27L758.495 676.057L758.937 618.959Z" fill="#E0E0E0"/>
<path d="M773.52 619.066L772.453 676.163L764.514 676.102L765.809 619.005L773.52 619.066Z" fill="#FAFAFA"/>
<path d="M794.732 601.694C794.732 602.044 793.97 602.425 792.537 602.776C789.037 603.543 785.445 603.805 781.871 603.553C781.078 603.553 780.24 603.401 779.387 603.264C778.464 603.14 777.552 602.947 776.659 602.685C776.075 602.51 775.513 602.27 774.983 601.968C774.264 601.559 773.653 600.984 773.2 600.292C772.719 599.523 772.456 598.639 772.438 597.732C772.43 597.065 772.507 596.399 772.667 595.751C773.079 593.725 773.676 591.741 774.45 589.823C774.908 588.749 775.48 587.728 776.156 586.776C776.512 586.294 776.899 585.836 777.314 585.404C777.772 584.93 778.283 584.511 778.838 584.155C779.486 583.743 780.204 583.453 780.956 583.301C781.754 583.118 782.582 583.118 783.379 583.301C784.568 583.637 785.663 584.242 786.579 585.069C789.066 587.173 791.134 589.727 792.674 592.597C793.715 594.491 794.411 596.555 794.732 598.692C794.914 600.216 794.732 601.084 794.396 601.176C793.634 601.344 792.537 598.342 789.566 594.563C787.838 592.381 785.818 590.448 783.562 588.818C783.171 588.481 782.707 588.241 782.206 588.117C782.121 588.093 782.032 588.093 781.947 588.117C781.806 588.171 781.673 588.242 781.551 588.33C781.337 588.484 781.138 588.657 780.956 588.848C780.722 589.11 780.503 589.384 780.301 589.671C779.853 590.315 779.475 591.004 779.173 591.728C778.517 593.359 777.977 595.034 777.558 596.742C777.49 596.981 777.444 597.226 777.421 597.473H777.284C777.116 597.473 777.071 597.564 777.177 597.473L777.36 597.336C777.399 597.384 777.445 597.425 777.497 597.458C777.706 597.6 777.931 597.718 778.168 597.808C778.847 598.051 779.539 598.26 780.24 598.433C780.972 598.631 781.764 598.784 782.389 598.921C783.791 599.21 785.132 599.408 786.366 599.576C788.85 599.911 790.937 600.124 792.354 600.399C793.772 600.673 794.732 601.328 794.732 601.694Z" fill="#E0E0E0"/>
<path d="M793.772 602.121C793.65 601.374 797.139 600.277 802.595 598.677C805.71 597.778 808.764 596.679 811.738 595.386C812.447 595.101 813.118 594.727 813.734 594.273C813.947 594.105 814.039 593.938 814.008 593.953C813.978 593.968 814.008 594.166 814.008 594.06C813.925 593.78 813.813 593.509 813.673 593.252C813.46 592.78 813.231 592.323 813.002 591.85C812.583 590.978 812.11 590.134 811.585 589.321C811.117 588.589 810.559 587.918 809.924 587.324C809.624 587.058 809.308 586.809 808.979 586.578C808.713 586.394 808.427 586.24 808.126 586.121C807.697 585.923 807.214 585.875 806.755 585.984C806.141 586.186 805.575 586.513 805.094 586.944C802.675 588.97 800.529 591.3 798.709 593.877C795.585 598.342 794.762 601.816 793.985 601.709C793.635 601.709 793.375 600.704 793.497 598.997C793.742 596.571 794.429 594.211 795.524 592.033C797.12 588.774 799.288 585.827 801.924 583.332C802.867 582.408 803.994 581.691 805.231 581.229C806.721 580.749 808.329 580.776 809.802 581.305C810.485 581.549 811.139 581.866 811.753 582.25C813.406 583.344 814.812 584.772 815.882 586.441C816.542 587.446 817.123 588.5 817.62 589.595L818.305 591.119C818.628 591.801 818.859 592.524 818.991 593.267C819.158 594.313 818.976 595.384 818.473 596.315C818.045 597.073 817.451 597.724 816.736 598.22C815.751 598.875 814.679 599.388 813.551 599.744C810.239 600.938 806.805 601.761 803.311 602.197C797.49 603.005 793.894 602.791 793.772 602.121Z" fill="#EBEBEB"/>
<path d="M750.446 618.863L819.123 619.403L819.276 599.883L750.599 599.344L750.446 618.863Z" fill="#E0E0E0"/>
<path d="M775.698 619.052L837.776 619.54L837.93 600.02L775.851 599.532L775.698 619.052Z" fill="#EBEBEB"/>
<path d="M818.869 599.896L818.427 619.508L811.189 619.355L811.692 599.85L818.869 599.896Z" fill="#FAFAFA"/>
<path d="M767.425 599.591L766.724 619.035L758.769 618.974L759.196 599.439L767.425 599.591Z" fill="#FAFAFA"/>
<path d="M837.037 676.391L863.505 676.599L863.768 643.182L837.3 642.974L837.037 676.391Z" fill="#EBEBEB"/>
<path d="M853.384 644.194L852.911 676.544L848.736 676.514L849.635 644.163L853.384 644.194Z" fill="#FAFAFA"/>
<path d="M822.069 643.95L837.262 644.056L863.73 644.27L837.231 647.759L837.003 676.422L821.825 676.301L822.069 643.95Z" fill="#E0E0E0"/>
<path d="M830.328 644.011L829.734 676.362L825.223 676.331L825.955 643.98L830.328 644.011Z" fill="#FAFAFA"/>
<path d="M842.351 634.167C842.351 634.654 840.614 635.249 837.582 635.508C835.72 635.657 833.847 635.503 832.035 635.051C831.159 634.817 830.397 634.276 829.886 633.527C829.572 633.041 829.403 632.475 829.399 631.896C829.388 631.486 829.434 631.075 829.536 630.677C829.77 629.51 830.112 628.368 830.557 627.264C830.829 626.641 831.167 626.049 831.563 625.496C832.008 624.887 832.567 624.37 833.208 623.972C833.624 623.705 834.089 623.523 834.576 623.44C835.063 623.356 835.562 623.371 836.043 623.485C836.765 623.697 837.431 624.066 837.993 624.567C839.435 625.791 840.621 627.287 841.483 628.971C842.915 631.866 842.702 633.908 842.245 633.984C841.787 634.06 840.995 632.46 839.288 630.388C838.295 629.2 837.153 628.145 835.89 627.249C835.705 627.093 835.486 626.983 835.25 626.929C835.21 626.946 835.173 626.972 835.144 627.005C834.905 627.193 834.699 627.42 834.534 627.675C834.294 628.02 834.09 628.387 833.924 628.773C833.569 629.676 833.274 630.603 833.041 631.546L832.964 631.881H832.721H832.523C832.416 631.881 832.401 631.881 832.523 631.881C832.619 631.817 832.706 631.74 832.782 631.653H832.858C832.95 631.723 833.053 631.78 833.163 631.82C834.652 632.309 836.182 632.666 837.734 632.887C840.492 633.313 842.351 633.634 842.351 634.167Z" fill="#E0E0E0"/>
<path d="M841.803 634.411C841.711 633.847 843.677 633.085 846.725 632.094C848.462 631.537 850.167 630.881 851.829 630.129C852.191 629.986 852.53 629.791 852.835 629.55C852.927 629.55 852.927 629.428 852.835 629.55C852.769 629.671 852.738 629.808 852.744 629.946C852.561 629.58 852.378 629.214 852.21 628.833C851.977 628.362 851.717 627.904 851.433 627.462C851.193 627.087 850.906 626.744 850.58 626.441C850.336 626.197 850.053 625.996 849.742 625.847C849.608 625.769 849.452 625.742 849.3 625.771C849.009 625.846 848.742 625.992 848.523 626.197C847.173 627.297 845.96 628.556 844.911 629.946C843.098 632.353 842.488 634.258 841.864 634.182C841.239 634.106 840.934 631.835 842.412 628.513C843.3 626.601 844.535 624.87 846.054 623.409C846.633 622.83 847.329 622.383 848.096 622.098C849.055 621.778 850.093 621.778 851.052 622.098C851.472 622.256 851.875 622.455 852.256 622.692C852.598 622.907 852.919 623.151 853.216 623.424C853.801 623.948 854.313 624.548 854.74 625.207C855.129 625.799 855.47 626.42 855.761 627.066L856.157 627.919C856.351 628.353 856.494 628.808 856.584 629.275C856.694 629.993 856.566 630.726 856.218 631.363C855.944 631.857 855.558 632.28 855.09 632.597C854.5 633.008 853.853 633.331 853.17 633.557C851.258 634.224 849.273 634.659 847.258 634.853C843.951 635.188 841.894 634.929 841.803 634.411Z" fill="#E0E0E0"/>
<path d="M817.285 643.884L856.202 644.19L856.289 633.127L817.372 632.822L817.285 643.884Z" fill="#E0E0E0"/>
<path d="M831.595 643.985L866.764 644.261L866.851 633.198L831.682 632.922L831.595 643.985Z" fill="#EBEBEB"/>
<path d="M856.02 633.146L855.776 644.254L851.677 644.178L851.967 633.115L856.02 633.146Z" fill="#FAFAFA"/>
<path d="M826.884 632.978L826.488 643.995L821.978 643.95L822.221 632.887L826.884 632.978Z" fill="#FAFAFA"/>
<path d="M465.661 32.8193H263.937V366.72H465.661V32.8193Z" fill="#E0E0E0"/>
<path d="M458.957 32.8193H257.233V366.72H458.957V32.8193Z" fill="#EBEBEB"/>
<path d="M450.362 39.6006H265.827V359.954H450.362V39.6006Z" fill="#FAFAFA"/>
<path d="M414.43 81.2163H300.951V318.324H414.43V81.2163Z" fill="#EBEBEB"/>
<path d="M300.951 234.422C300.692 212.281 320.608 190.657 342.536 187.564C352.99 186.04 364.114 188.158 373.881 184.151C391.329 177.004 396.876 153.827 414.43 146.954L415.223 318.324H300.936L300.951 234.422Z" fill="#E0E0E0"/>
<path d="M914.215 676.62C914.215 676.849 763.95 677.032 578.623 677.032C393.295 677.032 243 676.849 243 676.62C243 676.392 393.234 676.224 578.623 676.224C764.011 676.224 914.215 676.407 914.215 676.62Z" fill="#263238"/>
<path d="M851.951 567.042L537.616 566.905C532.95 566.897 528.477 565.038 525.18 561.735C521.883 558.432 520.031 553.956 520.031 549.29L520.275 82.8923C520.273 80.5784 520.728 78.2869 521.612 76.1488C522.497 74.0107 523.794 72.068 525.43 70.4318C527.066 68.7957 529.009 67.4982 531.147 66.6137C533.285 65.7291 535.577 65.2749 537.891 65.2769L852.21 65.4445C856.878 65.4445 861.355 67.2988 864.655 70.5995C867.956 73.9001 869.81 78.3768 869.81 83.0447L869.551 549.442C869.551 554.11 867.697 558.587 864.396 561.887C861.096 565.188 856.619 567.042 851.951 567.042Z" fill="#263238"/>
<path d="M858.351 100.02H530.866V518.92H858.351V100.02Z" fill="white"/>
<path d="M708.544 541.762C708.541 544.414 707.752 547.006 706.276 549.209C704.8 551.413 702.703 553.129 700.252 554.141C697.8 555.153 695.104 555.416 692.503 554.896C689.903 554.375 687.515 553.095 685.642 551.218C683.768 549.34 682.494 546.95 681.979 544.348C681.465 541.746 681.734 539.05 682.751 536.601C683.769 534.152 685.49 532.059 687.697 530.588C689.904 529.117 692.497 528.334 695.15 528.337C696.911 528.337 698.655 528.684 700.282 529.359C701.91 530.034 703.388 531.024 704.632 532.271C705.876 533.518 706.862 534.998 707.533 536.627C708.205 538.255 708.548 540 708.544 541.762Z" fill="#455A64"/>
<path d="M638.271 465.208C635.727 465.208 633.623 464.368 631.959 462.688C630.311 461.008 629.487 458.944 629.487 456.496C629.487 454.048 630.311 451.984 631.959 450.304C633.623 448.624 635.727 447.784 638.271 447.784C639.807 447.784 641.215 448.152 642.495 448.888C643.791 449.624 644.799 450.616 645.519 451.864L643.575 452.992C643.095 452.064 642.375 451.328 641.415 450.784C640.471 450.224 639.423 449.944 638.271 449.944C636.335 449.944 634.751 450.568 633.519 451.816C632.303 453.064 631.695 454.624 631.695 456.496C631.695 458.352 632.303 459.904 633.519 461.152C634.751 462.4 636.335 463.024 638.271 463.024C639.423 463.024 640.471 462.752 641.415 462.208C642.375 461.648 643.095 460.912 643.575 460L645.519 461.104C644.815 462.352 643.815 463.352 642.519 464.104C641.223 464.84 639.807 465.208 638.271 465.208ZM658.293 452.896V464.896H656.205V454.888H649.989V464.896H647.901V452.896H658.293ZM671.408 452.896H673.496V464.896H671.408V462.832C670.368 464.416 668.856 465.208 666.872 465.208C665.192 465.208 663.76 464.6 662.576 463.384C661.392 462.152 660.8 460.656 660.8 458.896C660.8 457.136 661.392 455.648 662.576 454.432C663.76 453.2 665.192 452.584 666.872 452.584C668.856 452.584 670.368 453.376 671.408 454.96V452.896ZM667.136 463.192C668.352 463.192 669.368 462.784 670.184 461.968C671 461.136 671.408 460.112 671.408 458.896C671.408 457.68 671 456.664 670.184 455.848C669.368 455.016 668.352 454.6 667.136 454.6C665.936 454.6 664.928 455.016 664.112 455.848C663.296 456.664 662.888 457.68 662.888 458.896C662.888 460.112 663.296 461.136 664.112 461.968C664.928 462.784 665.936 463.192 667.136 463.192ZM682.299 465.208C680.491 465.208 678.987 464.608 677.787 463.408C676.587 462.192 675.987 460.688 675.987 458.896C675.987 457.104 676.587 455.608 677.787 454.408C678.987 453.192 680.491 452.584 682.299 452.584C683.483 452.584 684.547 452.872 685.491 453.448C686.435 454.008 687.139 454.768 687.603 455.728L685.851 456.736C685.547 456.096 685.075 455.584 684.435 455.2C683.811 454.816 683.099 454.624 682.299 454.624C681.099 454.624 680.091 455.032 679.275 455.848C678.475 456.664 678.075 457.68 678.075 458.896C678.075 460.096 678.475 461.104 679.275 461.92C680.091 462.736 681.099 463.144 682.299 463.144C683.099 463.144 683.819 462.96 684.459 462.592C685.099 462.208 685.587 461.696 685.923 461.056L687.699 462.088C687.187 463.032 686.451 463.792 685.491 464.368C684.531 464.928 683.467 465.208 682.299 465.208ZM698.496 452.896H700.176V464.896H698.112V456.472L691.464 464.896H689.784V452.896H691.848V461.32L698.496 452.896ZM708.803 465.208C707.027 465.208 705.563 464.624 704.411 463.456C703.259 462.288 702.683 460.784 702.683 458.944C702.683 456.896 702.979 455.32 703.571 454.216C704.179 453.112 705.411 452.112 707.267 451.216C707.603 451.056 708.059 450.848 708.635 450.592C709.227 450.336 709.659 450.144 709.931 450.016C710.203 449.872 710.507 449.688 710.843 449.464C711.179 449.224 711.427 448.968 711.587 448.696C711.763 448.408 711.891 448.08 711.971 447.712L713.651 448.672C713.603 448.928 713.539 449.168 713.459 449.392C713.379 449.6 713.259 449.808 713.099 450.016C712.955 450.208 712.827 450.376 712.715 450.52C712.603 450.664 712.411 450.824 712.139 451C711.883 451.16 711.691 451.28 711.563 451.36C711.451 451.44 711.219 451.56 710.867 451.72C710.531 451.88 710.299 451.992 710.171 452.056C710.059 452.104 709.795 452.216 709.379 452.392C708.963 452.552 708.707 452.656 708.611 452.704C707.523 453.168 706.723 453.64 706.211 454.12C705.715 454.6 705.355 455.208 705.131 455.944C705.643 455.304 706.283 454.832 707.051 454.528C707.819 454.224 708.587 454.072 709.355 454.072C710.859 454.072 712.131 454.584 713.171 455.608C714.227 456.632 714.755 457.952 714.755 459.568C714.755 461.2 714.195 462.552 713.075 463.624C711.955 464.68 710.531 465.208 708.803 465.208ZM705.995 462.136C706.747 462.84 707.683 463.192 708.803 463.192C709.923 463.192 710.843 462.848 711.563 462.16C712.299 461.472 712.667 460.608 712.667 459.568C712.667 458.496 712.315 457.624 711.611 456.952C710.923 456.264 710.011 455.92 708.875 455.92C707.851 455.92 706.923 456.248 706.091 456.904C705.275 457.544 704.867 458.392 704.867 459.448C704.867 460.536 705.243 461.432 705.995 462.136ZM727.1 463.384C725.868 464.6 724.372 465.208 722.612 465.208C720.852 465.208 719.356 464.6 718.124 463.384C716.908 462.168 716.3 460.672 716.3 458.896C716.3 457.12 716.908 455.624 718.124 454.408C719.356 453.192 720.852 452.584 722.612 452.584C724.372 452.584 725.868 453.192 727.1 454.408C728.332 455.624 728.948 457.12 728.948 458.896C728.948 460.672 728.332 462.168 727.1 463.384ZM722.612 463.168C723.812 463.168 724.82 462.76 725.636 461.944C726.452 461.128 726.86 460.112 726.86 458.896C726.86 457.68 726.452 456.664 725.636 455.848C724.82 455.032 723.812 454.624 722.612 454.624C721.428 454.624 720.428 455.032 719.612 455.848C718.796 456.664 718.388 457.68 718.388 458.896C718.388 460.112 718.796 461.128 719.612 461.944C720.428 462.76 721.428 463.168 722.612 463.168ZM743.889 458.752C745.217 459.296 745.881 460.248 745.881 461.608C745.881 462.616 745.481 463.472 744.681 464.176C743.881 464.864 742.745 465.208 741.273 465.208C738.873 465.208 737.265 464.248 736.449 462.328L738.201 461.296C738.665 462.608 739.697 463.264 741.297 463.264C742.097 463.264 742.713 463.096 743.145 462.76C743.593 462.408 743.817 461.96 743.817 461.416C743.817 460.936 743.633 460.544 743.265 460.24C742.913 459.936 742.433 459.784 741.825 459.784H740.073V457.888H741.369C741.977 457.888 742.449 457.744 742.785 457.456C743.121 457.152 743.289 456.744 743.289 456.232C743.289 455.72 743.089 455.304 742.689 454.984C742.305 454.664 741.769 454.504 741.081 454.504C739.737 454.504 738.825 455.072 738.345 456.208L736.641 455.224C737.489 453.464 738.969 452.584 741.081 452.584C742.393 452.584 743.425 452.92 744.177 453.592C744.945 454.264 745.329 455.088 745.329 456.064C745.329 457.28 744.849 458.176 743.889 458.752ZM758.08 452.896H760.168V464.896H758.08V462.832C757.04 464.416 755.528 465.208 753.544 465.208C751.864 465.208 750.432 464.6 749.248 463.384C748.064 462.152 747.472 460.656 747.472 458.896C747.472 457.136 748.064 455.648 749.248 454.432C750.432 453.2 751.864 452.584 753.544 452.584C755.528 452.584 757.04 453.376 758.08 454.96V452.896ZM753.808 463.192C755.024 463.192 756.04 462.784 756.856 461.968C757.672 461.136 758.08 460.112 758.08 458.896C758.08 457.68 757.672 456.664 756.856 455.848C756.04 455.016 755.024 454.6 753.808 454.6C752.608 454.6 751.6 455.016 750.784 455.848C749.968 456.664 749.56 457.68 749.56 458.896C749.56 460.112 749.968 461.136 750.784 461.968C751.6 462.784 752.608 463.192 753.808 463.192ZM659.336 478.896V490.896H657.248V480.888H651.032V490.896H648.944V478.896H659.336ZM672.643 489.384C671.411 490.6 669.915 491.208 668.155 491.208C666.395 491.208 664.899 490.6 663.667 489.384C662.451 488.168 661.843 486.672 661.843 484.896C661.843 483.12 662.451 481.624 663.667 480.408C664.899 479.192 666.395 478.584 668.155 478.584C669.915 478.584 671.411 479.192 672.643 480.408C673.875 481.624 674.491 483.12 674.491 484.896C674.491 486.672 673.875 488.168 672.643 489.384ZM668.155 489.168C669.355 489.168 670.363 488.76 671.179 487.944C671.995 487.128 672.403 486.112 672.403 484.896C672.403 483.68 671.995 482.664 671.179 481.848C670.363 481.032 669.355 480.624 668.155 480.624C666.971 480.624 665.971 481.032 665.155 481.848C664.339 482.664 663.931 483.68 663.931 484.896C663.931 486.112 664.339 487.128 665.155 487.944C665.971 488.76 666.971 489.168 668.155 489.168ZM687.104 490.896H684.512L679.04 485.208V490.896H676.952V478.896H679.04V484.2L684.224 478.896H686.912L681.176 484.704L687.104 490.896ZM697.07 478.896H699.302L694.406 491.64C693.894 493 693.174 494.032 692.246 494.736C691.318 495.456 690.262 495.776 689.078 495.696V493.752C690.55 493.864 691.63 493.064 692.318 491.352L692.51 490.92L687.302 478.896H689.51L693.614 488.304L697.07 478.896ZM711.438 478.896V490.896H709.35V480.888H703.134V490.896H701.046V478.896H711.438ZM724.768 490.896H722.176L716.704 485.208V490.896H714.616V478.896H716.704V484.2L721.888 478.896H724.576L718.84 484.704L724.768 490.896ZM734.735 478.896H736.967L732.071 491.64C731.559 493 730.839 494.032 729.911 494.736C728.983 495.456 727.927 495.776 726.743 495.696V493.752C728.215 493.864 729.295 493.064 729.983 491.352L730.175 490.92L724.967 478.896H727.175L731.279 488.304L734.735 478.896ZM739.238 485.976L738.782 478.896V474.096H741.302V478.896L740.846 485.976H739.238ZM740.03 491.16C739.598 491.16 739.23 491.008 738.926 490.704C738.622 490.4 738.47 490.032 738.47 489.6C738.47 489.168 738.622 488.8 738.926 488.496C739.23 488.192 739.598 488.04 740.03 488.04C740.478 488.04 740.846 488.192 741.134 488.496C741.438 488.8 741.59 489.168 741.59 489.6C741.59 490.032 741.438 490.4 741.134 490.704C740.846 491.008 740.478 491.16 740.03 491.16Z" fill="#455A64"/>
<path d="M746.152 79.7988H644.604C643.578 79.7988 642.745 80.6312 642.745 81.6579V83.4865C642.745 84.5132 643.578 85.3456 644.604 85.3456H746.152C747.179 85.3456 748.011 84.5132 748.011 83.4865V81.6579C748.011 80.6312 747.179 79.7988 746.152 79.7988Z" fill="#455A64"/>
<path d="M844.408 460.969C843.891 460.969 843.378 460.867 842.9 460.668C842.422 460.47 841.988 460.179 841.623 459.812C841.258 459.445 840.968 459.01 840.772 458.531C840.575 458.052 840.475 457.54 840.477 457.022L840.629 159.632C840.629 159.115 840.731 158.602 840.93 158.124C841.128 157.646 841.419 157.212 841.786 156.847C842.153 156.482 842.588 156.192 843.067 155.996C843.545 155.799 844.058 155.699 844.576 155.701C845.617 155.705 846.615 156.12 847.351 156.857C848.088 157.593 848.503 158.591 848.507 159.632L848.325 457.022C848.327 457.538 848.227 458.05 848.031 458.528C847.835 459.005 847.547 459.44 847.184 459.807C846.82 460.173 846.388 460.464 845.912 460.664C845.435 460.863 844.925 460.967 844.408 460.969Z" fill="#E0E0E0"/>
<path d="M763.204 134.291C763.204 134.519 732.819 134.672 695.348 134.657C657.877 134.641 627.492 134.443 627.492 134.23C627.492 134.017 657.877 133.849 695.348 133.864C732.819 133.879 763.204 134.139 763.204 134.291Z" fill="#263238"/>
<path d="M562.683 141.849H563.125H564.344L568.809 141.727L568.672 141.88C568.672 140.874 568.672 139.792 568.672 138.619C568.672 138.024 568.672 137.461 568.672 136.744C568.744 136.379 568.931 136.046 569.205 135.794C569.479 135.542 569.826 135.384 570.196 135.342C570.927 135.342 571.552 135.342 572.344 135.342C572.767 135.401 573.154 135.611 573.435 135.933C573.715 136.255 573.869 136.668 573.868 137.095C573.868 138.619 573.868 140.143 573.868 141.834L573.64 141.605H579.293L579.049 141.849C579.049 139.579 579.049 137.278 579.049 134.809C579.049 134.215 579.049 133.605 579.049 133.011C579.025 132.747 578.941 132.492 578.804 132.265C578.667 132.038 578.48 131.845 578.257 131.701L575.788 129.262L573.411 126.916C573.03 126.519 572.634 126.139 572.253 125.773C571.872 125.407 571.552 124.996 571.095 124.904C570.879 124.85 570.654 124.844 570.436 124.886C570.217 124.928 570.01 125.018 569.83 125.148C569.495 125.422 569.114 125.834 568.779 126.169L566.645 128.043C565.365 129.369 564.024 130.588 563.064 131.716C562.79 132.381 562.695 133.106 562.79 133.819C562.79 134.52 562.79 135.175 562.79 135.815C562.79 137.019 562.79 138.085 562.79 139.015C562.79 139.944 562.79 140.539 562.79 141.072C562.811 141.32 562.811 141.57 562.79 141.819C562.77 141.591 562.77 141.361 562.79 141.133C562.79 140.584 562.79 139.914 562.79 139.122V135.876C562.79 135.236 562.79 134.565 562.79 133.849V132.737C562.79 132.319 562.9 131.909 563.11 131.548C564.162 130.253 565.411 129.125 566.691 127.754L568.703 125.697C569.049 125.317 569.415 124.956 569.8 124.615C570.034 124.438 570.304 124.315 570.592 124.257C570.879 124.199 571.176 124.207 571.461 124.279C572.002 124.474 572.478 124.817 572.832 125.27L573.99 126.398L576.383 128.744L578.851 131.182C579.12 131.37 579.345 131.615 579.508 131.899C579.671 132.184 579.77 132.501 579.796 132.828C579.796 133.438 579.796 134.032 579.796 134.641C579.796 137.049 579.796 139.411 579.796 141.682V141.925H579.552H573.899H573.67V141.758C573.67 140.112 573.67 138.542 573.67 137.019C573.681 136.698 573.574 136.384 573.369 136.137C573.164 135.889 572.875 135.726 572.558 135.678C571.918 135.678 571.141 135.678 570.516 135.678C570.226 135.705 569.952 135.824 569.735 136.019C569.518 136.214 569.37 136.474 569.312 136.76C569.312 137.323 569.312 137.994 569.312 138.558V141.956H569.175H564.603H563.43L562.683 141.849Z" fill="#263238"/>
<path d="M821.856 126.702C821.812 126.656 821.752 126.628 821.688 126.626H808.355H803.296L803.204 125.864L802.991 124.34C802.984 124.288 802.959 124.239 802.92 124.203C802.881 124.167 802.83 124.145 802.777 124.142H799.075C798.785 124.142 798.587 124.142 798.587 124.386C798.587 124.63 798.785 124.63 799.075 124.63H802.457L804.347 139.228C804.349 139.256 804.356 139.283 804.369 139.309C804.381 139.334 804.399 139.356 804.42 139.375C804.441 139.393 804.466 139.407 804.493 139.416C804.519 139.425 804.548 139.428 804.576 139.426H815.456H819.539C819.89 139.426 820.058 139.426 820.058 139.197C820.058 138.969 819.89 138.954 819.539 138.938L804.941 138.74L804.606 136.165L819.936 136.363C819.989 136.364 820.041 136.347 820.083 136.313C820.125 136.28 820.154 136.233 820.164 136.18L821.292 130.085L821.901 126.794C821.894 126.76 821.878 126.728 821.856 126.702ZM803.372 127.037L821.17 127.281L819.646 135.815H808.72H804.591L803.372 127.037Z" fill="#263238"/>
<path d="M808.705 142.885C808.614 142.486 808.395 142.127 808.08 141.864C807.842 141.673 807.559 141.545 807.257 141.494C806.956 141.444 806.646 141.471 806.358 141.575C806.003 141.702 805.696 141.935 805.479 142.244C805.262 142.552 805.145 142.92 805.145 143.297C805.145 143.674 805.262 144.042 805.479 144.35C805.696 144.658 806.003 144.892 806.358 145.019C806.554 145.09 806.76 145.126 806.968 145.125C807.371 145.127 807.763 144.992 808.08 144.744C808.41 144.499 808.637 144.141 808.72 143.739C808.744 143.597 808.744 143.453 808.72 143.312C808.731 143.17 808.726 143.027 808.705 142.885ZM806.541 144.409C806.311 144.323 806.113 144.169 805.974 143.968C805.834 143.766 805.759 143.527 805.759 143.282C805.759 143.036 805.834 142.797 805.974 142.595C806.113 142.394 806.311 142.24 806.541 142.154C806.678 142.132 806.816 142.132 806.953 142.154C807.216 142.157 807.472 142.242 807.684 142.398C807.908 142.566 808.074 142.8 808.157 143.068C808.166 143.154 808.166 143.241 808.157 143.327V143.282C808.173 143.367 808.173 143.455 808.157 143.541C808.074 143.808 807.908 144.043 807.684 144.211C807.52 144.35 807.322 144.442 807.111 144.48C806.9 144.517 806.682 144.498 806.48 144.424L806.541 144.409Z" fill="#263238"/>
<path d="M818.397 142.961C818.323 142.563 818.106 142.205 817.787 141.956C817.552 141.759 817.269 141.627 816.967 141.573C816.665 141.52 816.354 141.547 816.065 141.651C815.71 141.778 815.403 142.011 815.186 142.32C814.969 142.628 814.852 142.996 814.852 143.373C814.852 143.75 814.969 144.118 815.186 144.426C815.403 144.734 815.71 144.968 816.065 145.095C816.26 145.166 816.467 145.202 816.675 145.201C817.078 145.203 817.469 145.069 817.787 144.821C818.116 144.575 818.344 144.217 818.427 143.815C818.45 143.673 818.45 143.529 818.427 143.388C818.441 143.245 818.431 143.101 818.397 142.961ZM816.248 144.485C816.021 144.393 815.827 144.235 815.691 144.031C815.555 143.827 815.484 143.587 815.486 143.342C815.488 143.098 815.565 142.86 815.707 142.661C815.848 142.462 816.048 142.311 816.278 142.23C816.415 142.208 816.554 142.208 816.69 142.23C816.953 142.233 817.209 142.318 817.421 142.474C817.571 142.581 817.695 142.72 817.784 142.881C817.874 143.041 817.927 143.22 817.939 143.403C817.956 143.489 817.956 143.577 817.939 143.662C817.861 143.932 817.695 144.168 817.467 144.333C817.305 144.453 817.116 144.531 816.917 144.561C816.717 144.59 816.514 144.569 816.324 144.501L816.248 144.485Z" fill="#263238"/>
<path d="M733.078 196.006L728.628 259.092C728.285 264.055 726.071 268.703 722.433 272.097C718.796 275.491 714.006 277.379 709.032 277.378C706.342 277.38 703.681 276.829 701.213 275.76C698.745 274.691 696.523 273.127 694.684 271.164C692.845 269.201 691.429 266.881 690.524 264.349C689.618 261.816 689.243 259.125 689.42 256.441C689.816 250.437 690.167 245.53 690.167 245.53C690.167 245.53 674.928 243.153 674.715 227.9C674.608 219.092 676.132 199.099 677.443 183.709C677.87 178.718 680.156 174.07 683.847 170.683C687.538 167.297 692.365 165.42 697.374 165.423H706.609C710.372 165.645 714.052 166.619 717.433 168.286C720.814 169.954 723.827 172.281 726.294 175.132C728.761 177.982 730.632 181.298 731.797 184.883C732.962 188.468 733.397 192.25 733.078 196.006Z" fill="#FFBE9D"/>
<path d="M690.167 245.454C697.194 245.424 704.066 243.389 709.976 239.587C709.976 239.587 705.085 250.681 689.847 249.309L690.167 245.454Z" fill="#EB996E"/>
<path d="M680.292 198.277C680.567 198.551 682.228 197.332 684.559 197.347C686.89 197.362 688.628 198.52 688.887 198.231C689.146 197.941 688.734 197.591 687.988 197.042C686.969 196.345 685.763 195.973 684.529 195.976C683.309 195.974 682.119 196.358 681.13 197.073C680.414 197.637 680.17 198.139 680.292 198.277Z" fill="#263238"/>
<path d="M701.199 204.783C701.195 205.351 701.412 205.898 701.805 206.308C702.198 206.717 702.735 206.958 703.302 206.978C703.578 206.996 703.856 206.96 704.118 206.871C704.38 206.782 704.622 206.643 704.83 206.46C705.039 206.277 705.209 206.055 705.331 205.807C705.453 205.558 705.525 205.288 705.542 205.012C705.55 204.443 705.334 203.894 704.941 203.483C704.547 203.073 704.008 202.833 703.439 202.818C703.162 202.795 702.883 202.828 702.619 202.915C702.355 203.002 702.111 203.142 701.902 203.325C701.693 203.509 701.523 203.732 701.402 203.983C701.282 204.233 701.213 204.505 701.199 204.783Z" fill="#263238"/>
<path d="M680.262 204.783C680.258 205.351 680.475 205.898 680.868 206.308C681.26 206.717 681.797 206.958 682.365 206.978C682.642 206.998 682.921 206.964 683.185 206.876C683.449 206.788 683.693 206.649 683.903 206.466C684.113 206.283 684.284 206.06 684.407 205.811C684.53 205.561 684.603 205.29 684.62 205.012C684.624 204.444 684.407 203.897 684.014 203.488C683.622 203.078 683.084 202.837 682.517 202.818C682.239 202.795 681.959 202.828 681.695 202.915C681.43 203.002 681.185 203.141 680.975 203.324C680.764 203.508 680.593 203.731 680.471 203.982C680.348 204.232 680.277 204.505 680.262 204.783Z" fill="#263238"/>
<path d="M702.936 198.581C703.211 198.871 704.872 197.652 707.203 197.652C709.535 197.652 711.272 198.84 711.531 198.551C711.79 198.261 711.378 197.911 710.616 197.362C709.607 196.658 708.403 196.285 707.173 196.296C705.953 196.294 704.763 196.678 703.774 197.393C703.058 197.941 702.814 198.459 702.936 198.581Z" fill="#263238"/>
<path d="M694.601 216.821C693.365 216.434 692.085 216.204 690.791 216.136C690.197 216.136 689.633 215.953 689.527 215.541C689.477 214.926 689.615 214.309 689.923 213.774L691.706 209.202C694.159 202.711 695.942 197.377 695.668 197.271C695.393 197.164 693.199 202.36 690.746 208.852C690.151 210.452 689.588 211.976 689.054 213.423C688.675 214.143 688.561 214.974 688.734 215.77C688.822 215.982 688.957 216.172 689.128 216.325C689.3 216.478 689.504 216.591 689.725 216.654C690.059 216.739 690.401 216.785 690.746 216.791C692.024 216.964 693.32 216.974 694.601 216.821Z" fill="#263238"/>
<path d="M701.504 218.452C701.123 218.452 701.123 220.966 698.944 222.78C696.765 224.593 694.052 224.303 694.037 224.654C694.022 225.004 694.632 225.157 695.774 225.187C697.267 225.207 698.718 224.7 699.873 223.755C700.978 222.846 701.693 221.548 701.87 220.128C702.037 219.061 701.672 218.437 701.504 218.452Z" fill="#263238"/>
<path d="M703.089 190.093C703.317 190.718 705.664 190.429 708.407 190.749C711.15 191.069 713.39 191.831 713.756 191.267C713.908 190.993 713.527 190.383 712.628 189.743C711.436 188.973 710.078 188.497 708.666 188.356C707.26 188.183 705.833 188.35 704.506 188.844C703.561 189.286 702.982 189.789 703.089 190.093Z" fill="#263238"/>
<path d="M679.942 191.191C680.353 191.724 681.969 191.191 683.904 191.191C685.839 191.191 687.5 191.556 687.866 190.993C688.033 190.718 687.774 190.185 687.058 189.682C686.094 189.079 684.972 188.777 683.836 188.812C682.699 188.847 681.598 189.219 680.673 189.88C679.988 190.383 679.759 190.932 679.942 191.191Z" fill="#263238"/>
<path d="M727.942 207.465C728.201 207.343 738.426 204.417 738.091 214.795C737.756 225.172 727.348 222.734 727.348 222.414C727.348 222.094 727.942 207.465 727.942 207.465Z" fill="#FFBE9D"/>
<path d="M730.655 218.589C730.655 218.589 730.838 218.711 731.127 218.863C731.552 219.065 732.039 219.092 732.483 218.939C733.173 218.538 733.742 217.958 734.131 217.261C734.52 216.564 734.714 215.775 734.693 214.977C734.75 214.084 734.609 213.189 734.281 212.356C734.202 212.013 734.04 211.695 733.809 211.429C733.578 211.163 733.285 210.959 732.956 210.833C732.746 210.773 732.523 210.787 732.323 210.873C732.123 210.96 731.959 211.112 731.859 211.305C731.721 211.595 731.782 211.793 731.721 211.808C731.66 211.823 731.508 211.64 731.599 211.198C731.669 210.945 731.819 210.72 732.026 210.558C732.329 210.364 732.691 210.283 733.047 210.33C733.471 210.432 733.862 210.639 734.184 210.932C734.506 211.225 734.749 211.594 734.891 212.006C735.3 212.924 735.483 213.928 735.424 214.932C735.287 217.035 734.16 218.97 732.636 219.351C732.353 219.426 732.056 219.436 731.769 219.38C731.481 219.325 731.21 219.205 730.975 219.031C730.67 218.833 730.624 218.604 730.655 218.589Z" fill="#EB996E"/>
<path d="M733.733 207.099C732.742 207.033 731.752 207.238 730.869 207.692C729.986 208.145 729.243 208.831 728.72 209.675C728.034 211.198 727.897 212.859 727.196 214.337C726.93 215.114 726.412 215.778 725.724 216.226C725.036 216.673 724.219 216.878 723.401 216.806C722.862 216.635 722.376 216.326 721.994 215.909C721.612 215.492 721.345 214.981 721.222 214.429C721.009 213.317 721.009 212.174 721.222 211.061C721.847 206.185 722.868 201.354 723.066 196.448C723.471 191.527 722.41 186.596 720.018 182.276C717.443 178.101 712.704 175.023 707.828 175.419C704.582 175.678 701.611 177.369 698.395 177.811C696.477 178.066 694.527 177.88 692.692 177.267C690.856 176.655 689.185 175.632 687.805 174.276C687.454 173.941 685.824 172.859 685.824 172.859C685.875 171.7 686.255 170.579 686.921 169.628C693.321 163.731 704.826 162.009 713.268 164.204C717.56 165.255 721.571 167.23 725.021 169.991C728.471 172.752 731.278 176.232 733.245 180.189C736.872 188.097 735.805 199.099 733.794 207.099" fill="#263238"/>
<path d="M675.767 180.95C676.565 182.487 677.748 183.789 679.202 184.729C680.655 185.67 682.328 186.216 684.056 186.314C687.515 186.453 690.969 185.936 694.235 184.79C699.374 183.511 704.626 182.735 709.915 182.474C710.434 182.474 711.043 182.474 711.317 182.048C711.592 181.621 711.104 180.768 710.571 180.356C705.999 176.79 695.028 174.596 689.237 174.367C686.348 174.173 683.456 174.722 680.839 175.962C678.222 177.203 675.967 179.093 674.288 181.453" fill="#263238"/>
<path d="M677.26 181.377C680.388 178.472 684.38 176.669 688.628 176.242C701.824 175.114 723.462 179.168 734.815 201.888C736.082 197.973 736.88 193.922 737.192 189.819C737.192 186.772 735.333 168.242 716.331 162.39C716.331 162.39 687.683 151.465 677.26 181.377Z" fill="#FF80B6"/>
<g opacity="0.4">
<path opacity="0.4" d="M677.26 181.377C680.592 177.866 685.162 175.794 689.999 175.602C701.793 175.069 724.118 180.478 734.815 201.888C736.082 197.973 736.88 193.922 737.192 189.819C737.192 186.772 735.333 168.242 716.331 162.39C716.331 162.39 687.683 151.465 677.26 181.377Z" fill="black"/>
</g>
<path d="M733.047 198.627C727.348 188.996 718.799 182.459 709.656 176.714C700.513 170.969 685.275 165.27 674.761 162.497C671.66 161.473 668.376 161.125 665.13 161.476C663.51 161.682 661.98 162.34 660.716 163.375C659.452 164.41 658.505 165.78 657.983 167.328C656.978 171.289 664.003 177.385 667.294 179.777C670.521 181.934 673.863 183.913 677.306 185.705C677.306 185.705 677.214 178.345 688.963 176.851C704.917 174.84 733.52 199.038 733.047 198.627Z" fill="#FF80B6"/>
<path d="M711.729 169.994C704.996 166.21 697.351 164.354 689.633 164.631C690.727 164.288 691.87 164.128 693.016 164.158C698.577 163.981 704.081 165.319 708.94 168.029C709.97 168.528 710.912 169.192 711.729 169.994Z" fill="white"/>
<path d="M790.495 418.606C790.495 418.819 751.485 419.002 703.363 419.002C655.241 419.002 616.231 418.819 616.231 418.606C616.231 418.393 655.241 418.21 703.363 418.21C751.485 418.21 790.495 418.393 790.495 418.606Z" fill="#263238"/>
<path d="M628.894 293.927L606.463 304.061L571.659 275.687L560.992 292.449C560.992 292.449 580.802 315.383 588.162 323.185C595.522 330.987 600.352 335.131 606.189 334.385C612.025 333.638 645.031 318.065 645.031 318.065C645.031 318.065 637.229 294.902 628.894 293.927Z" fill="#FFBE9D"/>
<path d="M533.456 261.378C533.456 261.378 537.83 264.669 540.695 264.426C543.559 264.182 554.409 264.167 555.186 264.227C555.963 264.288 566.554 270.033 566.554 270.033L574.295 277.47L562.104 294.354C562.104 294.354 560.108 292.053 558.737 292.22C557.365 292.388 540.679 290.971 538.165 290.117C535.651 289.264 532.435 288.761 531.597 287.222C530.759 285.683 530.576 284.571 532.877 282.651C532.877 282.651 529.83 280.258 532.024 277.302C532.024 277.302 528.55 274.757 529.799 272.41C529.799 272.41 527.834 271.603 527.514 270.353C527.367 269.048 527.413 267.729 527.651 266.437L532.634 264.913C532.634 264.913 531.171 263.115 533.456 261.378Z" fill="#FFBE9D"/>
<path d="M531.506 265.188C531.506 265.188 531.735 265.096 532.146 264.974C532.749 264.775 533.373 264.647 534.005 264.593C535 264.639 535.952 265.008 536.717 265.645C537.217 266.044 537.584 266.585 537.769 267.198C537.954 267.81 537.949 268.464 537.754 269.073C537.643 269.397 537.465 269.694 537.232 269.943C536.998 270.193 536.713 270.39 536.397 270.521C535.873 270.739 535.326 270.897 534.767 270.993L532.085 271.542C531.27 271.785 530.421 271.893 529.571 271.862C530.32 271.458 531.127 271.17 531.963 271.009L534.599 270.277C535.605 270.033 536.702 269.805 537.007 268.753C537.146 268.288 537.147 267.793 537.009 267.327C536.871 266.862 536.6 266.446 536.23 266.132C535.6 265.576 534.821 265.216 533.99 265.096C533.393 265.089 532.797 265.13 532.207 265.218C531.75 265.325 531.506 265.264 531.506 265.188Z" fill="#EB996E"/>
<path d="M537.754 269.592C537.754 269.592 538.15 269.409 538.912 269.256C539.996 269.037 541.097 268.914 542.203 268.891C543.895 268.813 545.572 269.243 547.018 270.125C547.919 270.697 548.568 271.591 548.832 272.624C548.962 273.199 548.912 273.8 548.689 274.345C548.465 274.891 548.079 275.354 547.582 275.672C546.588 276.107 545.513 276.325 544.428 276.312L541.563 276.54L536.733 276.876C535.245 277.044 533.746 277.079 532.253 276.982C533.707 276.622 535.191 276.397 536.687 276.312L541.502 275.809L544.367 275.535C545.333 275.532 546.29 275.346 547.186 274.986C547.546 274.762 547.83 274.433 547.999 274.044C548.167 273.655 548.214 273.223 548.131 272.807C547.904 271.956 547.358 271.225 546.607 270.765C545.285 269.929 543.752 269.485 542.188 269.485C539.476 269.409 537.769 269.759 537.754 269.592Z" fill="#EB996E"/>
<path d="M548.131 275.687C548.131 275.687 548.436 275.687 548.756 276.159C548.969 276.473 549.106 276.831 549.156 277.207C549.206 277.583 549.168 277.965 549.045 278.323C548.844 278.842 548.528 279.308 548.122 279.688C547.716 280.068 547.229 280.352 546.698 280.518C545.471 280.873 544.197 281.042 542.919 281.02C537.662 281.264 533.502 282.285 533.441 282.057C536.448 280.878 539.644 280.258 542.874 280.228C544.079 280.25 545.283 280.117 546.455 279.832C546.9 279.707 547.314 279.491 547.671 279.197C548.028 278.903 548.319 278.538 548.527 278.125C548.648 277.841 548.71 277.535 548.71 277.226C548.71 276.917 548.648 276.611 548.527 276.327C548.222 275.855 548.009 275.748 548.131 275.687Z" fill="#EB996E"/>
<path d="M565.335 278.628C564.678 279.076 563.927 279.367 563.141 279.481C561.271 279.901 559.342 279.988 557.441 279.74C555.544 279.482 553.707 278.888 552.017 277.988C550.737 277.287 550.066 276.662 550.127 276.586C554.807 279.042 560.204 279.765 565.365 278.628H565.335Z" fill="#EB996E"/>
<path d="M547.963 270.841C548.07 270.643 549.152 271.024 550.493 270.841C551.834 270.658 552.809 270.094 552.946 270.277C553.083 270.46 552.184 271.466 550.584 271.633C548.984 271.801 547.841 271.009 547.963 270.841Z" fill="#EB996E"/>
<path d="M546.775 287.497C546.854 286.676 547.099 285.881 547.494 285.158C547.89 284.435 548.428 283.8 549.076 283.291C550.201 282.073 551.762 281.35 553.419 281.279C552.098 282.058 550.83 282.923 549.624 283.87C548.59 285.01 547.638 286.222 546.775 287.497Z" fill="#EB996E"/>
<path d="M510.63 331.322H576.809L589.091 428.115H497.692L510.63 331.322Z" fill="#FF80B6"/>
<path d="M576.809 331.322H584.474L607.057 428.115H589.091L576.809 331.322Z" fill="#FF80B6"/>
<path opacity="0.3" d="M576.809 331.322H584.474L607.057 428.115H589.091L576.809 331.322Z" fill="black"/>
<path d="M539.841 280.99C539.841 280.99 540.039 280.883 540.375 280.99C540.862 281.129 541.277 281.451 541.533 281.889C541.737 282.213 541.863 282.58 541.9 282.961C541.937 283.342 541.884 283.726 541.746 284.083C541.413 284.94 540.771 285.641 539.948 286.049C538.896 286.522 537.748 286.746 536.596 286.704L536.885 286.506C536.016 288.167 534.98 288.914 534.904 288.807C534.828 288.7 535.59 287.817 536.276 286.217L536.352 286.049H536.565C537.617 286.017 538.653 285.779 539.613 285.348C540.289 285.043 540.831 284.501 541.137 283.824C541.258 283.564 541.321 283.281 541.321 282.994C541.321 282.707 541.258 282.423 541.137 282.163C540.603 281.188 539.811 281.112 539.841 280.99Z" fill="#EB996E"/>
<path d="M527.437 335.543C527.423 334.884 527.474 334.226 527.59 333.577C527.727 332.328 527.986 330.529 528.352 328.274C529.068 323.809 530.287 317.607 531.704 310.933C533.121 304.259 534.432 298.087 535.3 293.653C535.696 291.55 536.047 289.798 536.306 288.396C536.39 287.741 536.544 287.098 536.763 286.476C536.778 287.134 536.727 287.793 536.611 288.441C536.474 289.706 536.215 291.489 535.849 293.744C535.133 298.209 533.914 304.411 532.481 311.101C531.049 317.79 529.769 323.946 528.9 328.381C528.504 330.468 528.154 332.236 527.894 333.623C527.816 334.278 527.662 334.922 527.437 335.543Z" fill="#FF80B6"/>
<path d="M562.379 336.518C562.076 335.797 561.832 335.053 561.647 334.293C561.205 332.769 560.626 330.636 559.941 328.198C558.523 323.002 556.634 315.809 554.577 307.855C552.519 299.9 550.721 292.617 549.441 287.436C548.862 284.921 548.359 282.864 547.918 281.234C547.705 280.481 547.562 279.711 547.491 278.933C547.793 279.654 548.038 280.398 548.222 281.157C548.664 282.681 549.243 284.815 549.929 287.253C551.346 292.449 553.236 299.641 555.293 307.611C557.35 315.581 559.148 322.773 560.413 328L561.937 334.217C562.154 334.969 562.302 335.739 562.379 336.518Z" fill="#FF80B6"/>
<path d="M607.057 428.115C605.914 427.498 604.845 426.752 603.872 425.89C601.968 424.443 599.301 422.385 596.528 420.085L595.095 418.911L595.674 418.82C593.891 421.502 592.291 423.864 591.103 425.525C590.536 426.464 589.861 427.333 589.091 428.115C589.499 427.105 590.01 426.14 590.615 425.235C591.667 423.498 593.19 421.09 594.958 418.393L595.187 418.027L595.537 418.302L596.969 419.46C599.804 421.776 602.349 423.894 604.162 425.464C605.212 426.249 606.182 427.138 607.057 428.115Z" fill="#263238"/>
<path d="M580.832 331.322C581.046 331.322 584.474 350.796 588.451 374.903C592.428 399.01 595.537 418.576 595.309 418.607C595.08 418.637 591.667 399.132 587.689 375.025C583.712 350.918 580.619 331.352 580.832 331.322Z" fill="#263238"/>
<path d="M580.68 358.796C580.203 359.335 579.695 359.844 579.156 360.32C577.607 361.651 575.916 362.806 574.112 363.764C571.253 365.295 568.166 366.355 564.969 366.903C560.724 367.668 556.357 367.412 552.23 366.156C549.811 365.396 547.614 364.057 545.83 362.255C543.857 360.293 542.624 357.709 542.34 354.941C542.224 353.446 542.463 351.945 543.038 350.56C543.612 349.175 544.506 347.945 545.647 346.971C546.848 345.937 548.348 345.312 549.929 345.189C551.548 345.076 553.167 345.414 554.607 346.164C556.06 346.894 557.334 347.934 558.341 349.211C559.36 350.574 560.091 352.129 560.489 353.783C561.266 357.106 561.266 360.563 560.489 363.886C559.031 370.921 555.395 377.319 550.097 382.172C547.414 384.634 544.319 386.604 540.954 387.993C537.702 389.387 534.167 389.993 530.637 389.76C527.203 389.491 523.923 388.219 521.205 386.103C518.557 384.087 516.763 381.15 516.176 377.875C515.593 374.752 516.225 371.525 517.944 368.854C518.731 367.57 519.843 366.518 521.168 365.804C522.492 365.089 523.982 364.738 525.487 364.785C526.212 364.855 526.915 365.069 527.556 365.414C528.197 365.76 528.763 366.23 529.22 366.796C530.064 367.819 530.644 369.033 530.912 370.332C531.344 372.847 531.042 375.434 530.043 377.783C528.321 381.774 525.34 385.092 521.555 387.231C518.706 388.816 515.618 389.927 512.412 390.522C510.399 390.908 508.363 391.163 506.317 391.284C505.631 391.284 505.098 391.36 504.793 391.36H504.26H504.793L506.317 391.208C508.339 391.018 510.349 390.713 512.336 390.294C515.468 389.654 518.478 388.517 521.251 386.926C524.92 384.807 527.798 381.549 529.449 377.646C530.388 375.398 530.663 372.929 530.241 370.53C530.017 369.29 529.494 368.123 528.717 367.132C528.311 366.633 527.809 366.22 527.241 365.916C526.674 365.613 526.051 365.425 525.411 365.364C524.028 365.333 522.662 365.669 521.452 366.339C520.242 367.008 519.232 367.986 518.523 369.174C516.909 371.694 516.32 374.736 516.877 377.677C517.44 380.772 519.149 383.541 521.662 385.433C524.267 387.445 527.402 388.652 530.683 388.907C537.403 389.425 544.245 386.271 549.472 381.501C554.637 376.783 558.192 370.563 559.636 363.718C560.389 360.511 560.389 357.173 559.636 353.966C559.265 352.436 558.592 350.995 557.655 349.73C556.719 348.512 555.528 347.513 554.165 346.804C552.847 346.12 551.366 345.809 549.883 345.905C548.456 345.993 547.092 346.526 545.982 347.429C544.93 348.331 544.105 349.47 543.575 350.751C543.046 352.033 542.826 353.421 542.935 354.804C543.193 357.428 544.351 359.883 546.211 361.753C547.903 363.495 549.996 364.797 552.306 365.547C556.347 366.808 560.629 367.096 564.802 366.385C567.96 365.871 571.018 364.868 573.868 363.414C575.673 362.494 577.379 361.391 578.958 360.122C579.506 359.711 579.887 359.345 580.177 359.116C580.326 358.983 580.496 358.875 580.68 358.796Z" fill="white"/>
<path d="M674.349 264.273H662.418C658.578 265.63 627.598 291.977 627.598 291.977L645.107 319.497L667.812 306.224L674.349 264.273Z" fill="#455A64"/>
<path d="M662.418 264.274L688.78 254.262C688.78 254.262 692.635 262.354 704.369 260.616C716.102 258.879 729.954 250.62 729.954 250.62C729.954 250.62 750.16 262.155 756.133 266.971C762.107 271.786 751.318 372.602 751.318 372.602L748.621 402.82C748.621 402.82 750.739 404.344 750.739 409.555C750.739 414.767 750.937 418.21 750.937 418.21H646.494C646.494 418.21 643.949 406.096 645.869 401.281C647.283 397.931 648.992 394.713 650.974 391.665L652.604 345.097L653.183 303.527L662.418 264.274Z" fill="#455A64"/>
<path d="M756.133 266.971C756.133 266.971 764.56 269.348 767.059 281.843C769.558 294.339 769.086 342.065 769.086 342.065L722.03 331.87C722.03 331.87 728.399 311.847 728.399 310.537C728.399 309.226 741.352 276.906 741.809 276.22C742.266 275.535 756.133 266.971 756.133 266.971Z" fill="#455A64"/>
<path d="M652.391 283.9C652.604 283.9 652.909 292.236 653.062 302.537C653.214 312.838 653.153 321.173 652.94 321.173C652.726 321.173 652.422 312.838 652.269 302.552C652.117 292.266 652.163 283.9 652.391 283.9Z" fill="#263238"/>
<path d="M734.312 288.38C734.323 288.935 734.262 289.488 734.129 290.026C733.977 291.093 733.702 292.617 733.337 294.491C732.59 298.24 731.447 303.405 729.954 309.043C728.46 314.682 726.906 319.71 725.733 323.383C725.123 325.196 724.62 326.659 724.209 327.665C724.056 328.201 723.831 328.714 723.538 329.188C723.605 328.638 723.733 328.096 723.919 327.573C724.255 326.369 724.666 324.922 725.169 323.215C726.236 319.558 727.683 314.483 729.161 308.845C730.639 303.207 731.874 298.087 732.758 294.369L733.809 289.965C733.897 289.415 734.067 288.881 734.312 288.38Z" fill="#263238"/>
<path d="M729.893 287.359C730.116 290.562 730.08 293.778 729.786 296.975C729.74 300.178 729.439 303.373 728.887 306.529C728.646 303.332 728.682 300.12 728.994 296.929C729.033 293.72 729.334 290.52 729.893 287.359Z" fill="#263238"/>
<path d="M718.159 303.131C711.434 303.659 704.678 303.659 697.953 303.131C701.305 302.73 704.684 302.598 708.056 302.735C711.429 302.598 714.808 302.73 718.159 303.131Z" fill="white"/>
<path d="M664.231 371.642L716.3 365.379L724.514 332.404L753.634 338.712C753.634 338.712 742.114 384.427 730.243 388.907C718.373 393.387 659.629 385.86 659.629 385.86L664.231 371.642Z" fill="#FFBE9D"/>
<path d="M662.113 371.261C659.294 370.07 656.391 369.087 653.427 368.32C651.02 367.97 648.17 368.503 647.454 369.661L633.465 377.814C633.465 377.814 623.088 376.823 622.097 379.155C622.097 379.155 615.469 377.265 614.402 378.606C614.402 378.606 611.08 379.688 611.629 381.212C612.177 382.736 624.155 386.941 624.155 386.941L640.566 388.618C640.566 388.618 646.829 385.219 649.42 384.945C651.921 384.935 654.418 385.134 656.886 385.539C656.673 385.539 666.486 386.652 666.486 386.652C666.486 386.652 668.483 384.503 669.29 378.591C670.098 372.678 669.29 371.444 669.29 371.444L662.113 371.261Z" fill="#FFBE9D"/>
<path d="M655.149 378.773C655.149 378.773 654.707 378.773 654.128 378.377C653.549 377.981 653.046 376.99 652.132 376.366C651.57 376.078 650.961 375.892 650.334 375.817C649.503 375.724 648.722 375.378 648.094 374.827C647.408 374.174 646.976 373.299 646.875 372.358C646.806 371.85 646.849 371.332 647.002 370.843C647.155 370.353 647.413 369.903 647.759 369.524C648.442 368.87 649.278 368.397 650.191 368.147C651.103 367.896 652.064 367.877 652.985 368.091C654.441 368.431 655.79 369.121 656.917 370.103C657.665 370.739 658.363 371.432 659.004 372.175C659.446 372.693 659.66 372.998 659.629 373.044C659.599 373.09 658.486 372.008 656.582 370.545C655.482 369.695 654.207 369.101 652.848 368.808C652.041 368.63 651.202 368.653 650.406 368.873C649.609 369.093 648.878 369.505 648.277 370.072C647.788 370.685 647.545 371.458 647.593 372.24C647.64 373.023 647.976 373.759 648.536 374.309C649.526 375.345 651.248 375.055 652.391 375.832C653.534 376.61 653.778 377.646 654.281 378.088C654.783 378.53 655.18 378.712 655.149 378.773Z" fill="#EB996E"/>
<path d="M646.463 376.061C646.463 376.183 645.671 376.138 644.559 376.64C643.125 377.48 641.62 378.194 640.063 378.774C638.382 378.97 636.679 378.835 635.05 378.378C634.374 378.32 633.703 378.224 633.038 378.088C633.683 377.78 634.41 377.689 635.111 377.829C636.686 378.099 638.29 378.155 639.88 377.997C641.618 377.555 643.096 376.473 644.452 376.122C645.808 375.772 646.494 375.97 646.463 376.061Z" fill="#EB996E"/>
<path d="M646.814 382.614C646.532 382.871 646.207 383.078 645.854 383.223C644.938 383.7 643.972 384.073 642.974 384.336C639.663 385.136 636.236 385.332 632.856 384.915C630.905 384.671 629.046 384.366 627.355 384.122C625.817 383.993 624.305 383.654 622.859 383.117C622.28 382.847 621.807 382.391 621.518 381.821C621.313 381.39 621.244 380.906 621.32 380.435C621.488 379.627 621.991 379.444 621.991 379.49C621.991 379.536 621.671 379.795 621.625 380.465C621.617 380.939 621.761 381.403 622.035 381.789C622.309 382.176 622.699 382.465 623.149 382.614C624.568 383.034 626.03 383.295 627.507 383.391L632.977 384.122C636.276 384.528 639.618 384.415 642.882 383.787C645.336 383.238 646.753 382.522 646.814 382.614Z" fill="#EB996E"/>
<path d="M724.895 378.697C723.905 376.459 722.775 374.286 721.512 372.19C720.033 370.239 718.435 368.382 716.727 366.628C718.973 367.807 720.854 369.578 722.167 371.748C723.701 373.768 724.645 376.173 724.895 378.697Z" fill="#EB996E"/>
<path d="M336.639 558.646L334.643 660.376L359.283 663.013L376.213 559.438L362.91 542.707L336.639 558.646Z" fill="#FFBE9D"/>
<path d="M362.3 657.984V659.645C362.3 659.645 390.339 671.287 390.567 676.62L334.658 675.691V657.07C338.953 659.123 343.626 660.264 348.383 660.421C353.141 660.578 357.879 659.749 362.3 657.984Z" fill="#FF80B6"/>
<path d="M334.643 675.691L334.902 671.226L388.403 673.756C388.403 673.756 390.872 674.883 390.552 676.62L334.643 675.691Z" fill="#263238"/>
<path d="M326.46 247.847C326.048 243.153 323.245 238.414 318.841 236.997L313.675 239.953C310.992 241.293 308.884 243.559 307.741 246.332C306.599 249.105 306.498 252.198 307.458 255.039C304.169 257.1 301.829 260.378 300.947 264.157C300.065 267.936 300.713 271.911 302.749 275.215C299.397 276.738 297.964 280.853 298.025 284.54C298.086 288.228 299.275 291.809 299.549 295.482C299.808 298.316 299.549 301.196 300.067 304C300.239 305.419 300.756 306.774 301.575 307.946C302.393 309.118 303.487 310.07 304.761 310.72C306.19 311.174 307.721 311.197 309.164 310.785C310.606 310.373 311.894 309.545 312.867 308.404C314.755 306.06 315.934 303.226 316.266 300.236C317.652 291.718 315.839 282.834 317.987 274.468C319.413 269.987 321.212 265.634 323.367 261.454C325.271 257.157 326.856 252.525 326.46 247.847Z" fill="#263238"/>
<path d="M323.976 247.237C321.039 247.215 318.162 246.407 315.644 244.895C313.126 243.384 311.06 241.225 309.659 238.644C308.259 236.062 307.576 233.153 307.682 230.218C307.788 227.283 308.679 224.43 310.262 221.957C310.679 221.17 311.335 220.535 312.136 220.143C313.858 219.458 315.671 220.86 316.997 222.17L326.643 231.557" fill="#263238"/>
<path d="M324.25 235.199C317.012 231.77 311.313 223.648 309.21 215.922C307.107 208.196 309.53 192.547 311.603 184.821C314.147 175.404 318.064 187.518 321.264 188.508C322.197 188.866 323.031 189.443 323.694 190.191C324.358 190.939 324.831 191.836 325.073 192.806C325.548 194.754 325.697 196.767 325.515 198.764C325.088 210.954 324.667 223.099 324.25 235.199Z" fill="#263238"/>
<path d="M342.765 158.428C354.864 151.921 364.586 155.761 369.31 159.449C374.034 163.137 376.929 168.775 378.62 174.52C380.312 180.265 381.104 186.238 382.506 192.074C383.376 195.428 384.002 198.84 384.381 202.284C385.066 207.267 384.838 216.181 382.293 220.57C380.121 224.757 376.988 228.371 373.15 231.115C371.626 232.075 369.965 233.08 368.304 232.547C367.14 232.031 366.177 231.148 365.561 230.033C352.407 211.247 342.092 190.627 334.948 168.836" fill="#263238"/>
<path d="M329.279 172.417L350.247 163.96L355.748 164.569C368.091 164.569 376.67 178.132 376.807 188.143C376.944 199.252 376.685 212.829 374.963 221.027C371.489 237.515 358.643 238.993 358.643 238.993C358.643 238.993 358.795 243.488 358.917 249.02C358.976 251.376 358.556 253.719 357.682 255.908C356.809 258.097 355.502 260.087 353.838 261.756C352.174 263.425 350.189 264.74 348.003 265.621C345.817 266.501 343.475 266.929 341.119 266.879C336.562 266.792 332.22 264.923 329.025 261.673C325.829 258.423 324.033 254.05 324.022 249.492L323.747 178.071C323.795 176.607 324.389 175.214 325.413 174.168C326.438 173.121 327.817 172.496 329.279 172.417Z" fill="#FFBE9D"/>
<path d="M371.458 199.145C371.435 199.7 371.195 200.224 370.791 200.605C370.387 200.987 369.85 201.195 369.295 201.187C369.023 201.195 368.752 201.149 368.498 201.051C368.244 200.953 368.013 200.805 367.817 200.616C367.621 200.427 367.465 200.201 367.357 199.951C367.25 199.701 367.194 199.432 367.192 199.16C367.215 198.604 367.454 198.078 367.858 197.694C368.262 197.311 368.799 197.099 369.356 197.103C369.628 197.097 369.899 197.145 370.153 197.245C370.407 197.345 370.639 197.494 370.834 197.684C371.03 197.874 371.186 198.101 371.293 198.352C371.4 198.603 371.457 198.872 371.458 199.145Z" fill="#263238"/>
<path d="M372.418 193.811C372.144 194.07 370.59 192.806 368.304 192.699C366.018 192.592 364.266 193.644 364.022 193.354C363.778 193.065 364.205 192.729 364.967 192.242C365.99 191.598 367.189 191.289 368.396 191.358C369.592 191.42 370.738 191.857 371.672 192.608C372.342 193.187 372.556 193.689 372.418 193.811Z" fill="#263238"/>
<path d="M358.415 211.762C359.645 211.45 360.909 211.286 362.178 211.274C362.757 211.274 363.321 211.168 363.443 210.771C363.517 210.165 363.411 209.551 363.138 209.004C362.666 207.571 362.163 206.048 361.615 204.432C359.527 197.956 358.049 192.653 358.308 192.577C358.567 192.501 360.472 197.667 362.559 204.143C363.062 205.667 363.535 207.19 363.992 208.714C364.328 209.434 364.398 210.249 364.19 211.015C364.093 211.218 363.953 211.397 363.779 211.539C363.605 211.682 363.402 211.784 363.184 211.838C362.853 211.906 362.515 211.931 362.178 211.914C360.923 212.03 359.657 211.979 358.415 211.762Z" fill="#263238"/>
<path d="M358.643 238.993C350.812 238.715 343.212 236.273 336.685 231.938C336.685 231.938 342.033 243.747 358.75 243.031L358.643 238.993Z" fill="#EB996E"/>
<path d="M356.952 216.73C356.562 216.106 356.014 215.597 355.363 215.255C354.713 214.912 353.983 214.748 353.249 214.779C352.733 214.767 352.221 214.877 351.755 215.099C351.289 215.322 350.882 215.65 350.567 216.059C350.246 216.511 350.06 217.044 350.03 217.597C350.001 218.15 350.129 218.7 350.399 219.183C350.744 219.669 351.223 220.044 351.778 220.261C352.334 220.477 352.94 220.527 353.523 220.402C354.652 220.095 355.695 219.532 356.571 218.756C356.843 218.57 357.076 218.332 357.256 218.055C357.329 217.591 357.22 217.116 356.952 216.73Z" fill="#EB996E"/>
<path d="M351.557 213.012C351.923 213.012 351.816 215.496 353.858 217.37C355.9 219.244 358.552 219.107 358.567 219.458C358.582 219.808 357.942 219.915 356.83 219.884C355.367 219.832 353.969 219.266 352.883 218.284C351.846 217.344 351.213 216.039 351.115 214.643C351.115 213.591 351.42 212.997 351.557 213.012Z" fill="#263238"/>
<path d="M372.099 187.473C371.672 187.975 370.118 187.366 368.213 187.244C366.308 187.122 364.693 187.412 364.342 186.848C364.19 186.573 364.479 186.071 365.196 185.613C366.169 185.068 367.283 184.824 368.396 184.914C369.509 185.003 370.569 185.422 371.443 186.116C372.099 186.604 372.281 187.153 372.099 187.473Z" fill="#263238"/>
<path d="M346.117 199.008C346.101 199.564 346.304 200.105 346.683 200.513C347.063 200.921 347.587 201.163 348.144 201.187C348.415 201.212 348.688 201.182 348.947 201.1C349.206 201.019 349.446 200.886 349.654 200.71C349.861 200.534 350.031 200.318 350.154 200.076C350.276 199.833 350.35 199.568 350.369 199.297C350.381 198.741 350.177 198.203 349.798 197.796C349.42 197.389 348.897 197.146 348.342 197.118C348.071 197.091 347.797 197.119 347.537 197.2C347.277 197.281 347.036 197.413 346.828 197.59C346.62 197.766 346.45 197.983 346.328 198.226C346.206 198.47 346.134 198.736 346.117 199.008Z" fill="#263238"/>
<path d="M341.82 193.568C342.079 193.857 343.71 192.684 346.011 192.715C348.312 192.745 349.973 193.918 350.216 193.644C350.46 193.37 350.079 193.019 349.363 192.471C348.378 191.762 347.194 191.383 345.98 191.389C344.788 191.37 343.62 191.727 342.643 192.41C341.927 192.913 341.683 193.416 341.82 193.568Z" fill="#263238"/>
<path d="M342.811 186.269C343.207 186.787 344.807 186.269 346.712 186.269C348.616 186.269 350.216 186.665 350.597 186.116C350.765 185.857 350.506 185.339 349.82 184.836C348.889 184.214 347.786 183.899 346.666 183.937C345.546 183.947 344.457 184.298 343.542 184.943C342.872 185.476 342.643 185.949 342.811 186.269Z" fill="#263238"/>
<path d="M347.839 162.192C342.521 160.044 334.399 160.775 329.843 164.234C325.34 167.866 322.334 173.031 321.401 178.741C320.349 184.379 321.751 192.714 323.229 198.246C331.824 187.168 340.677 174.398 348.967 163.091L347.839 162.192Z" fill="#263238"/>
<path d="M351.893 157.163C381.028 153.049 378.331 197.103 378.331 197.103C375.42 180.874 352.837 163.899 352.837 163.899L348.266 163.121L351.893 157.163Z" fill="#263238"/>
<path d="M325.561 206.155C325.561 204.921 324.342 201.934 323.123 201.675C319.877 201.004 313.98 200.974 313.523 209.294C312.867 220.616 324.372 218.924 324.418 218.604C324.464 218.284 325.363 210.437 325.561 206.155Z" fill="#FFBE9D"/>
<path d="M322.711 214.078C322.711 214.078 322.498 214.216 322.163 214.353C321.674 214.553 321.127 214.553 320.639 214.353C319.924 213.842 319.36 213.147 319.006 212.343C318.652 211.539 318.521 210.654 318.627 209.781C318.655 208.81 318.9 207.857 319.344 206.993C319.466 206.65 319.669 206.342 319.933 206.093C320.198 205.844 320.518 205.662 320.867 205.56C321.097 205.512 321.337 205.546 321.543 205.658C321.75 205.77 321.91 205.951 321.995 206.17C322.132 206.49 321.995 206.718 322.102 206.734C322.208 206.749 322.361 206.566 322.3 206.094C322.246 205.807 322.101 205.546 321.888 205.347C321.59 205.099 321.209 204.973 320.822 204.996C320.35 205.062 319.903 205.248 319.524 205.536C319.145 205.824 318.847 206.205 318.658 206.642C318.126 207.573 317.828 208.619 317.789 209.69C317.789 211.976 318.78 214.17 320.395 214.734C320.692 214.843 321.01 214.883 321.325 214.848C321.64 214.814 321.942 214.707 322.208 214.536C322.605 214.353 322.742 214.109 322.711 214.078Z" fill="#EB996E"/>
<path d="M312.243 179.061C315.387 171.322 320.828 164.733 327.831 160.181C331.418 157.502 335.601 155.735 340.022 155.03C342.232 154.689 344.492 154.882 346.613 155.592C348.734 156.303 350.654 157.51 352.213 159.114L353.02 159.937C348.022 171.046 344.487 180.448 338.041 190.779C335.664 194.573 334.643 207.541 334.079 211.945C332.129 227.107 323.824 233.599 323.824 233.599C305.843 233.614 309.347 186.832 312.243 179.061Z" fill="#263238"/>
<path d="M321.081 231.816C320.289 231.765 319.521 231.525 318.841 231.115C317.117 230.273 315.566 229.115 314.269 227.702C312.949 226.311 311.914 224.675 311.222 222.886C310.875 222.175 310.703 221.392 310.719 220.601C311.777 222.958 313.14 225.166 314.772 227.168C316.655 228.996 318.777 230.56 321.081 231.816Z" fill="#455A64"/>
<path d="M318.871 246.567C317.18 246.455 315.558 245.852 314.204 244.832C312.85 243.811 311.824 242.417 311.252 240.822C312.342 242.007 313.491 243.136 314.696 244.205C316.04 245.073 317.435 245.862 318.871 246.567Z" fill="#455A64"/>
<path d="M311.298 260.479C311.13 260.616 310.094 259.473 308.982 257.934C307.869 256.395 307.138 255.039 307.321 254.887C307.504 254.734 308.524 255.892 309.637 257.431C310.749 258.97 311.481 260.357 311.298 260.479Z" fill="#455A64"/>
<path d="M305.462 277.637C305.294 277.774 304.502 277.134 303.679 276.189C302.856 275.245 302.323 274.376 302.49 274.224C302.658 274.071 303.45 274.727 304.273 275.671C305.096 276.616 305.629 277.485 305.462 277.637Z" fill="#455A64"/>
<path d="M308.89 204.707C309.575 204.239 310.293 203.821 311.039 203.458C311.74 203.077 312.563 202.619 313.553 201.934C314.544 201.248 315.656 200.73 316.814 199.907C319.601 198.083 322.268 196.083 324.799 193.918C331.01 188.611 336.338 182.352 340.586 175.373C342.319 172.528 343.872 169.576 345.233 166.535C345.858 165.255 346.285 164.051 346.757 163C347.23 161.948 347.519 161.034 347.778 160.272C348.014 159.477 348.315 158.702 348.677 157.956C348.538 158.778 348.334 159.589 348.068 160.379C347.816 161.318 347.516 162.244 347.169 163.152C346.788 164.219 346.392 165.453 345.797 166.764C344.485 169.863 342.957 172.868 341.226 175.754C339.094 179.276 336.695 182.628 334.049 185.781C331.357 188.904 328.428 191.813 325.287 194.482C322.709 196.634 319.985 198.605 317.134 200.379C315.946 201.172 314.787 201.766 313.797 202.33C312.806 202.894 311.923 203.32 311.191 203.656C310.454 204.068 309.685 204.42 308.89 204.707Z" fill="#455A64"/>
<path d="M336.944 191.13C336.944 191.13 336.685 191.556 336.121 192.212C335.557 192.867 334.597 193.736 333.53 194.863C327.567 200.5 320.426 204.741 312.624 207.282C311.452 207.672 310.262 208.003 309.058 208.273C308.622 208.403 308.171 208.475 307.717 208.486C309.26 207.83 310.837 207.255 312.441 206.764C316.22 205.354 319.87 203.62 323.351 201.583C326.821 199.521 330.105 197.161 333.165 194.528C335.496 192.41 336.852 191.038 336.944 191.13Z" fill="#455A64"/>
<path d="M379.23 205.606C379.334 204.769 379.492 203.939 379.702 203.122C380.138 200.881 380.387 198.608 380.449 196.326C380.747 188.769 378.869 181.286 375.039 174.765C371.208 168.244 365.587 162.96 358.841 159.541C356.815 158.484 354.705 157.597 352.533 156.889C351.72 156.668 350.921 156.399 350.14 156.082C350.14 156.082 350.369 156.082 350.795 156.173C351.222 156.264 351.832 156.356 352.624 156.584C354.852 157.191 357.016 158.013 359.085 159.038C366.02 162.389 371.805 167.722 375.708 174.363C379.612 181.003 381.458 188.651 381.013 196.341C380.9 198.649 380.563 200.94 380.007 203.183C379.824 203.975 379.596 204.585 379.474 204.996C379.422 205.21 379.339 205.415 379.23 205.606Z" fill="#455A64"/>
<path d="M514.271 308.617C513.891 309.113 513.645 309.699 513.557 310.318C513.469 310.938 513.542 311.569 513.769 312.152C514.285 313.118 515.068 313.917 516.024 314.453C517.562 312.885 518.829 311.072 519.772 309.089" fill="#EB996E"/>
<path d="M507.658 306.682C507.166 307.07 506.782 307.578 506.542 308.157C506.302 308.735 506.214 309.366 506.287 309.988C506.543 311.055 507.104 312.024 507.902 312.777C509.779 311.64 511.457 310.204 512.87 308.525" fill="#EB996E"/>
<path d="M357.378 256.441C357.378 256.441 407.497 295.878 416.533 297.173C425.57 298.468 467.84 293.333 485.197 292.799L487.65 307.352C487.65 307.352 439.756 323.611 422.339 324.251C404.922 324.891 394.91 320.198 394.91 320.198L362.346 286.841L357.378 256.441Z" fill="#FFBE9D"/>
<path d="M484.13 292.952C484.13 292.952 506.515 289.752 510.035 291.504C513.555 293.256 523.506 301.683 523.506 301.683C523.506 301.683 526.843 311.055 524.74 311.497C522.637 311.939 520.473 308.449 520.473 308.449L517.563 303.283L505.052 300.236L484.313 302.079L484.13 292.952Z" fill="#FFBE9D"/>
<path d="M487.65 307.352C487.97 307.748 495.97 311.603 500.039 311.497C504.108 311.39 508.755 308.205 512.23 308.693C515.704 309.18 522.988 309.744 523.872 308.479C524.371 307.965 524.65 307.276 524.65 306.559C524.65 305.843 524.371 305.154 523.872 304.639C522.683 303.512 516.816 302.399 512.58 301.256C510.312 300.738 508.175 299.757 506.302 298.376L481.662 301.089L480.26 308.708L487.65 307.352Z" fill="#FFBE9D"/>
<path d="M498.302 298.117C498.727 298.029 499.163 297.998 499.597 298.026C500.771 298.06 501.939 298.203 503.087 298.453C506.82 299.398 510.493 300.563 514.089 301.942C516.072 302.606 518.112 303.086 520.184 303.375C521.176 303.453 522.123 303.819 522.912 304.426C523.235 304.74 523.484 305.121 523.642 305.542C523.8 305.964 523.863 306.415 523.826 306.864C523.79 307.229 523.682 307.583 523.506 307.905C523.331 308.227 523.092 308.511 522.805 308.738C522.362 309.07 521.833 309.266 521.281 309.302C520.397 309.302 519.986 309.028 520.001 308.997C520.417 309.036 520.835 309.036 521.251 308.997C521.777 308.907 522.257 308.644 522.616 308.249C522.975 307.854 523.192 307.351 523.232 306.818C523.252 306.464 523.191 306.109 523.054 305.782C522.917 305.454 522.706 305.163 522.439 304.929C521.734 304.434 520.906 304.144 520.047 304.091C517.926 303.841 515.837 303.372 513.814 302.689C509.517 301.256 505.784 299.641 502.934 299.001C500.085 298.361 498.302 298.27 498.302 298.117Z" fill="#EB996E"/>
<path d="M514.439 302.765C513.079 302.518 511.819 301.883 510.812 300.936C509.029 299.534 508.024 297.889 508.191 297.889C508.359 297.889 509.609 299.032 511.239 300.357C512.87 301.683 514.607 302.552 514.439 302.765Z" fill="#EB996E"/>
<path d="M314.193 555.309L268.768 575.53L274.238 599.789C274.238 599.789 331.351 582.753 350.033 578.974C368.716 575.195 398.994 570.38 407.543 552.246L314.193 555.309Z" fill="#FFBE9D"/>
<path d="M278.597 600.231L277.073 600.658C277.073 600.658 273.416 630.433 268.387 632.079L254.459 578.593L272.196 573.64C271.371 578.274 271.514 583.029 272.615 587.605C273.717 592.181 275.753 596.48 278.597 600.231Z" fill="#FF80B6"/>
<path d="M254.398 578.593L258.726 577.648L270.49 629.26C270.49 629.26 270.078 631.911 268.326 632.079L254.398 578.593Z" fill="#263238"/>
<path d="M407.375 552.947C407.266 553.39 407.108 553.819 406.903 554.227C406.317 555.397 405.584 556.487 404.724 557.473C401.428 560.966 397.651 563.973 393.508 566.402C390.653 568.094 387.643 569.507 384.518 570.623C380.927 571.847 377.269 572.864 373.561 573.671C365.82 575.621 357.317 577.846 348.403 580.208L302.688 592.262L288.852 595.858L285.073 596.772C284.634 596.897 284.185 596.984 283.732 597.031C284.153 596.858 284.586 596.715 285.027 596.604L288.776 595.568L302.582 591.789C314.254 588.62 330.361 584.17 348.205 579.507C357.119 577.145 365.622 574.936 373.394 573.016C377.079 572.202 380.717 571.185 384.289 569.968C391.902 567.322 398.808 562.969 404.48 557.244C405.657 555.967 406.633 554.518 407.375 552.947Z" fill="#EB996E"/>
<path d="M335.222 358.141L336.258 367.086C336.258 367.086 320.517 396.816 320.517 412.8C320.517 428.785 313.264 555.751 313.264 555.751C313.264 555.751 398.598 560.612 407.604 552.276L416.625 543.956L447.101 535.636L399.482 361.92V352.609L335.222 358.141Z" fill="#263238"/>
<path d="M393.6 401.174C393.649 401.29 393.68 401.414 393.691 401.54L393.859 402.576C393.996 403.551 394.179 404.892 394.423 406.583C394.925 410.134 395.626 415.163 396.495 421.334C398.263 433.784 400.914 450.942 404.343 469.822C407.771 488.702 411.307 505.708 414.019 517.99C415.375 524.086 416.472 529.023 417.265 532.528L418.133 536.49C418.209 536.901 418.286 537.236 418.331 537.511C418.351 537.632 418.351 537.755 418.331 537.876C418.278 537.77 418.237 537.657 418.209 537.541L417.935 536.52C417.676 535.56 417.341 534.25 416.914 532.604C416.046 529.19 414.842 524.253 413.425 518.112C410.575 505.922 406.948 488.855 403.505 469.959C400.061 451.064 397.531 433.875 395.885 421.41C395.063 415.178 394.453 410.119 394.072 406.614C393.889 404.922 393.752 403.566 393.645 402.591C393.645 402.164 393.645 401.829 393.554 401.54C393.55 401.416 393.566 401.293 393.6 401.174Z" fill="#455A64"/>
<path d="M332.311 417.083C332.465 417.406 332.587 417.742 332.677 418.088C332.89 418.84 333.18 419.815 333.546 421.014C334.308 423.65 335.374 427.292 336.685 431.772C339.382 440.839 343.283 453.304 348.037 466.927C352.792 480.55 357.546 492.74 361.096 501.502C362.864 505.815 364.312 509.335 365.348 511.88L366.491 514.699C366.629 515.026 366.746 515.362 366.841 515.705C366.636 515.411 366.467 515.094 366.338 514.76L365.058 512.002C363.961 509.594 362.422 506.089 360.578 501.716C356.891 493 352.075 480.839 347.291 467.201C342.506 453.563 338.711 441.037 336.151 431.925C334.871 427.353 333.881 423.665 333.241 421.09C332.936 419.871 332.708 418.896 332.525 418.134C332.424 417.79 332.353 417.438 332.311 417.083Z" fill="#455A64"/>
<path d="M402.438 366.05C401.595 366.228 400.739 366.33 399.878 366.355C398.232 366.522 395.84 366.69 392.868 366.873C386.956 367.223 378.758 367.543 369.721 367.589C360.685 367.635 352.472 367.36 346.544 367.055C343.588 366.903 341.195 366.751 339.534 366.614C338.674 366.589 337.817 366.487 336.974 366.309C337.832 366.253 338.692 366.253 339.55 366.309L346.574 366.507C352.487 366.674 360.67 366.842 369.706 366.812C378.742 366.781 386.925 366.537 392.853 366.324L399.863 366.065C400.719 365.99 401.58 365.985 402.438 366.05Z" fill="#455A64"/>
<path d="M358.75 250.041C358.338 249.081 389.013 273.538 392.868 285.454C396.724 297.371 397.44 331.748 397.44 331.748L399.588 353.813L338.285 358.141L336.639 353.813L332.068 341.516L325.805 322.94C325.805 322.94 310.704 299.489 307.702 289.416C303.983 276.875 310.155 264.029 310.155 264.029L324.007 248.425L358.75 250.041Z" fill="#FF80B6"/>
<path d="M324.022 249.492C324.022 249.492 320.624 243.199 322.711 240.441C324.388 238.262 353.874 241.004 359.893 242.269C363.428 243.031 359.893 250.909 359.893 250.909L324.022 249.492Z" fill="#FF80B6"/>
<g opacity="0.3">
<path opacity="0.3" d="M341.683 279.207C344.258 285.866 340.616 306.514 340.068 311.42C339.367 316.321 338.235 321.15 336.685 325.851C336.014 328.06 335.374 330.59 336.685 332.525C338.696 335.573 343.877 334.75 346.392 337.493C341.68 339.679 336.39 340.288 331.306 339.23C330.404 339.124 329.563 338.722 328.913 338.087C328.517 337.51 328.266 336.847 328.182 336.152C326.529 328.942 326.286 321.481 327.466 314.178C328.791 306.94 335.71 289.569 341.531 284.997" fill="black"/>
</g>
<path d="M342.765 288.334C342.242 290.859 341.238 293.26 339.809 295.405C338.602 297.683 336.949 299.693 334.948 301.317C334.78 301.165 336.99 298.575 339.138 294.994C341.287 291.413 342.536 288.243 342.765 288.334Z" fill="#263238"/>
<path d="M359.893 250.147C359.45 250.354 358.976 250.487 358.491 250.544C357.576 250.742 356.251 250.97 354.59 251.199C345.955 252.342 337.185 251.919 328.7 249.949C327.069 249.568 325.774 249.203 324.89 248.913C324.414 248.806 323.956 248.626 323.534 248.38C323.534 248.258 325.561 248.776 328.822 249.401C333.058 250.208 337.345 250.717 341.652 250.925C345.966 251.125 350.289 251.028 354.59 250.635C357.835 250.345 359.862 250.025 359.893 250.147Z" fill="#263238"/>
<path d="M381.47 309.379C381.333 309.379 381.866 307.687 382.278 304.96C383.356 297.81 382.06 290.503 378.59 284.159C377.264 281.737 376.198 280.38 376.304 280.289C376.411 280.197 376.655 280.578 377.158 281.173C377.871 282.023 378.513 282.93 379.078 283.885C382.9 290.24 384.241 297.783 382.841 305.066C382.631 306.154 382.336 307.224 381.958 308.266C381.858 308.662 381.693 309.038 381.47 309.379Z" fill="#263238"/>
<g opacity="0.3">
<path opacity="0.3" d="M340.891 251.199C335.765 250.847 330.673 250.124 325.652 249.035C332.811 252.93 340.981 254.572 349.089 253.744C352.045 253.363 355.184 252.54 357.104 250.3C352.609 252.052 345.706 251.626 340.891 251.199Z" fill="black"/>
</g>
<g opacity="0.3">
<path opacity="0.3" d="M375.451 316.388C378.189 313.495 380.25 310.029 381.486 306.243C382.721 302.456 383.101 298.442 382.598 294.491C383.328 297.08 383.712 299.755 383.741 302.445C384.066 305.541 383.307 308.654 381.592 311.253C379.718 313.828 378.636 315.382 375.497 316.388" fill="black"/>
</g>
<path d="M332.753 265.812C331.203 264.49 329.403 263.492 327.46 262.878C325.517 262.263 323.471 262.045 321.442 262.235C319.413 262.425 317.443 263.021 315.648 263.986C313.853 264.951 312.271 266.266 310.993 267.854C310.78 268.128 310.566 268.433 310.368 268.723C307.184 273.492 298.406 347.779 301.911 356.678C305.416 365.577 310.49 364.952 310.49 364.952C310.49 364.952 333.47 364.693 350.003 360.868C366.537 357.044 384.96 350.796 384.96 350.796L381.912 332.8C381.912 332.8 341.439 338.163 330.315 336.899L334.567 300.723C334.567 300.723 344.243 288.944 341.47 278.14C340.129 273.005 336.319 268.799 332.753 265.812Z" fill="#FFBE9D"/>
<path d="M394.666 321.752L403.809 315.657L410.347 310.141C410.553 311.141 410.55 312.174 410.338 313.173C410.125 314.172 409.708 315.117 409.112 315.946C407.086 318.994 403.672 323.566 403.672 323.566L394.666 321.752Z" fill="#FFBE9D"/>
<path d="M408.213 318.064C408.137 318.064 408.731 317.363 409.371 316.053C410.218 314.234 410.422 312.182 409.95 310.232L410.499 310.384L403.992 315.946L403.505 316.266L397.775 320.091C396.233 321.159 394.635 322.146 392.99 323.047C391.53 323.956 390.001 324.751 388.419 325.424C389.778 324.357 391.22 323.4 392.731 322.56C394.118 321.752 395.672 320.67 397.409 319.512L403.093 315.657L403.581 315.321L410.148 309.851L410.59 309.5L410.697 310.019C411.171 312.124 410.857 314.331 409.813 316.221C409.523 316.731 409.175 317.206 408.777 317.638C408.411 317.942 408.244 318.095 408.213 318.064Z" fill="#EB996E"/>
<path d="M391.375 337.081C391.68 336.472 415.573 309.851 421.47 303.283C421.844 302.864 422.346 302.582 422.898 302.48C423.45 302.378 424.02 302.462 424.518 302.719C424.869 302.894 425.175 303.147 425.412 303.459C425.649 303.771 425.811 304.134 425.884 304.519C425.958 304.904 425.942 305.301 425.837 305.678C425.732 306.056 425.542 306.405 425.28 306.696L394.682 340.723L391.375 337.081Z" fill="#263238"/>
<path d="M416.808 325.455C417.798 324.129 416.335 321.523 414.979 320.807C413.623 320.091 408.213 323.078 408.213 323.078L406.263 323.261C406.263 323.261 395.764 321.127 395.413 321.31C392.681 322.488 390.119 324.025 387.794 325.882C386.735 326.848 385.822 327.961 385.081 329.188C384.289 330.423 382.323 332.434 377.752 333.531L382.201 351.619C382.201 351.619 391.969 349.318 392.701 349.303C393.432 349.288 401.615 348.647 402.697 348.465C405.981 347.641 409.082 346.209 411.84 344.244C415.345 341.638 413.714 339.428 413.714 339.428C417.326 336.975 414.507 334.537 414.507 334.537L415.528 332.8C417.051 330.042 414.004 328.518 414.004 328.518C415.017 327.572 415.955 326.548 416.808 325.455Z" fill="#FFBE9D"/>
<path d="M409.554 331.062C409.554 330.864 410.636 330.346 411.931 329.538C413.227 328.731 414.217 328.015 414.369 328.106C414.522 328.197 413.714 329.31 412.312 330.163C410.91 331.017 409.615 331.26 409.554 331.062Z" fill="#EB996E"/>
<path d="M412.617 335.985C412.495 335.817 412.861 335.299 413.455 334.826C414.049 334.354 414.628 334.08 414.75 334.232C414.872 334.385 414.507 334.903 413.912 335.39C413.318 335.878 412.754 336.137 412.617 335.985Z" fill="#EB996E"/>
<path d="M411.55 339.992C411.55 339.779 412.129 339.566 412.846 339.291C413.562 339.017 414.156 338.789 414.278 338.941C414.4 339.093 413.928 339.657 413.105 339.977C412.282 340.297 411.55 340.19 411.55 339.992Z" fill="#EB996E"/>
<path d="M408.213 323.093C406.419 323.606 404.563 323.867 402.697 323.87C400.853 324.109 398.994 324.211 397.135 324.175C397.135 323.931 399.543 323.291 402.636 323.077C404.486 322.812 406.365 322.817 408.213 323.093Z" fill="#EB996E"/>
<path d="M330.833 336.563C329.702 338.461 328.34 340.211 326.78 341.775C325.424 343.525 323.858 345.101 322.117 346.468C323.272 344.583 324.637 342.835 326.186 341.257C327.548 339.518 329.108 337.943 330.833 336.563Z" fill="#EB996E"/>
<path d="M341.104 287.435C341.104 287.435 341.211 286.628 341.348 285.18C341.565 283.146 341.467 281.09 341.058 279.085C340.256 275.816 338.729 272.77 336.59 270.171C334.451 267.573 331.754 265.49 328.7 264.075C325.36 262.5 321.547 262.255 318.033 263.389C315.123 264.218 312.634 266.118 311.069 268.708C310.053 270.489 309.318 272.416 308.89 274.422C308.757 275.168 308.578 275.906 308.357 276.631C308.357 276.631 308.357 276.433 308.357 276.037C308.357 275.641 308.448 275.092 308.585 274.361C308.857 272.296 309.475 270.292 310.414 268.433C311.128 267.144 312.079 266.001 313.218 265.066C314.535 264.013 316.032 263.207 317.637 262.688C321.341 261.448 325.382 261.688 328.913 263.359C332.089 264.788 334.889 266.937 337.092 269.634C339.295 272.332 340.841 275.504 341.607 278.902C341.975 280.968 341.975 283.083 341.607 285.15C341.522 285.716 341.4 286.276 341.241 286.826C341.232 287.036 341.186 287.242 341.104 287.435Z" fill="#263238"/>
<path d="M454.126 215.419H391.649C390.444 215.443 389.295 215.932 388.443 216.784C387.59 217.636 387.101 218.785 387.078 219.991V280.547C387.081 281.766 387.562 282.934 388.416 283.803C389.271 284.672 390.431 285.171 391.649 285.195H414.659L423.634 297.919L431.436 285.195H454.126C454.739 285.205 455.348 285.092 455.917 284.862C456.485 284.632 457.002 284.29 457.435 283.857C457.869 283.423 458.211 282.907 458.441 282.338C458.671 281.77 458.784 281.161 458.774 280.547V220.067C458.784 219.454 458.671 218.845 458.441 218.276C458.211 217.708 457.869 217.191 457.435 216.757C457.002 216.324 456.485 215.982 455.917 215.752C455.348 215.522 454.739 215.409 454.126 215.419Z" fill="#FAFAFA"/>
<path d="M454.126 215.419C454.756 215.37 455.389 215.475 455.97 215.724C456.681 216.028 457.312 216.492 457.814 217.08C458.495 217.911 458.877 218.947 458.896 220.021C458.896 224.76 458.896 231.633 459.002 240.257C459.109 248.882 459.002 259.366 459.094 271.206C459.094 274.254 459.094 277.302 459.094 280.349C459.132 281.198 458.954 282.042 458.579 282.804C458.203 283.566 457.641 284.221 456.945 284.707C456.224 285.208 455.382 285.508 454.507 285.576C453.638 285.576 452.861 285.576 452.038 285.576H431.436L431.756 285.393L423.97 298.132L423.665 298.635L423.33 298.163L414.324 285.424L414.659 285.591H398.522C396.007 285.591 393.6 285.591 391.04 285.591C390.375 285.511 389.733 285.298 389.152 284.966C388.571 284.633 388.063 284.188 387.657 283.656C386.871 282.6 386.498 281.295 386.605 279.984C386.605 275.128 386.605 270.343 386.605 265.629C386.605 256.227 386.605 247.16 386.605 238.505C386.605 234.193 386.605 229.972 386.605 225.872C386.605 223.831 386.605 221.804 386.605 219.777C386.653 218.724 387.035 217.714 387.695 216.892C388.355 216.07 389.26 215.479 390.278 215.206C391.243 215.031 392.225 214.975 393.204 215.038H401.478H411.733L442.697 215.16H451.124H453.303C453.552 215.146 453.801 215.146 454.05 215.16C454.05 215.16 453.806 215.16 453.303 215.16H451.124H442.697L411.733 215.297H393.28C392.357 215.251 391.432 215.308 390.522 215.465C389.64 215.701 388.857 216.213 388.287 216.926C387.717 217.638 387.389 218.515 387.352 219.427V225.522C387.352 229.621 387.352 233.842 387.352 238.155C387.352 246.81 387.352 255.877 387.352 265.279V279.633C387.246 280.772 387.56 281.91 388.236 282.833C388.581 283.277 389.01 283.648 389.499 283.925C389.988 284.202 390.527 284.38 391.085 284.448C393.447 284.525 396.007 284.448 398.476 284.448H414.811L414.933 284.616L423.909 297.355H423.269L431.071 284.631L431.177 284.448H431.391L452.13 284.997C452.937 284.997 453.791 284.997 454.553 284.997C455.301 284.929 456.019 284.673 456.64 284.25C457.25 283.83 457.743 283.261 458.071 282.597C458.399 281.933 458.552 281.196 458.515 280.456C458.515 277.317 458.515 274.269 458.515 271.313C458.515 259.473 458.515 249.035 458.606 240.364C458.698 231.694 458.606 224.882 458.713 220.128C458.71 219.241 458.449 218.374 457.962 217.632C457.475 216.891 456.783 216.307 455.97 215.952C455.387 215.678 454.765 215.498 454.126 215.419Z" fill="#263238"/>
<path d="M433.356 259.595H432.93H431.695H427.124H411.886H411.764V259.473C411.642 258.665 411.52 257.812 411.398 256.943C410.377 249.553 409.463 242.954 408.868 238.657L408.96 238.749H404.906H403.825H403.444H403.825H404.891H408.945H409.021C409.646 243.061 410.545 249.659 411.657 257.035C411.779 257.888 411.901 258.756 412.008 259.564L411.87 259.427H427.109H431.68H432.914C433.067 259.468 433.215 259.524 433.356 259.595Z" fill="#263238"/>
<path d="M411.733 260.037C411.675 260.03 411.62 260.004 411.579 259.962C411.537 259.921 411.511 259.867 411.505 259.808L408.64 239.16H403.809C403.383 239.16 403.185 239.16 403.169 238.871C403.154 238.581 403.383 238.566 403.809 238.551H404.891H409.036C409.104 238.55 409.169 238.575 409.22 238.62C409.271 238.665 409.303 238.727 409.31 238.795L412.267 259.336L432.93 259.427C433.433 259.427 433.615 259.427 433.631 259.717C433.631 259.991 433.433 260.006 432.93 260.021H431.711H427.139H411.764L411.733 260.037Z" fill="#263238"/>
<path d="M411.276 255.176H411.703H412.922H417.493L433.311 255.1L433.173 255.221C433.646 252.555 434.149 249.675 434.697 246.688C434.972 245.164 435.231 243.64 435.49 242.208L435.627 242.376H416.975H411.444H416.975L435.627 242.299H435.794V242.467C435.551 243.991 435.276 245.408 435.017 246.947C434.484 249.995 433.981 252.814 433.493 255.481V255.587H433.372H417.554H412.983H411.337L411.276 255.176Z" fill="#263238"/>
<path d="M411.291 255.465C411.215 255.465 411.141 255.435 411.087 255.38C411.032 255.326 411.002 255.252 411.002 255.176C411.002 254.917 411.276 254.901 411.368 254.886H412.891H417.463L432.945 254.81L435.078 242.619L409.524 242.528C409.387 242.528 409.112 242.528 409.112 242.238C409.112 241.949 409.387 241.964 409.508 241.949H411.398H420.815H435.749C435.79 241.948 435.831 241.958 435.868 241.976C435.906 241.995 435.938 242.022 435.962 242.055C435.976 242.089 435.984 242.125 435.984 242.162C435.984 242.199 435.976 242.235 435.962 242.269L433.631 255.557C433.62 255.621 433.586 255.68 433.536 255.722C433.485 255.763 433.422 255.786 433.356 255.785L411.261 255.694L411.291 255.465Z" fill="#263238"/>
<path d="M417.28 265.431C417.229 265.266 417.189 265.098 417.158 264.928C417.016 264.484 416.739 264.095 416.366 263.816C416.062 263.595 415.704 263.461 415.33 263.43C414.956 263.399 414.581 263.472 414.245 263.64C413.91 263.809 413.627 264.067 413.429 264.385C413.23 264.704 413.123 265.071 413.12 265.446C413.121 265.823 413.226 266.191 413.425 266.511C413.623 266.831 413.907 267.089 414.244 267.257C414.581 267.425 414.958 267.495 415.332 267.461C415.707 267.426 416.065 267.288 416.366 267.062C416.741 266.784 417.018 266.394 417.158 265.949C417.249 265.629 417.249 265.431 417.28 265.431C417.313 265.612 417.313 265.798 417.28 265.98C417.175 266.474 416.9 266.916 416.503 267.229C416.113 267.553 415.628 267.742 415.122 267.766C414.616 267.79 414.115 267.648 413.697 267.362C413.278 267.076 412.964 266.662 412.802 266.181C412.64 265.701 412.64 265.181 412.8 264.7C412.96 264.219 413.273 263.803 413.691 263.516C414.108 263.229 414.608 263.085 415.115 263.108C415.621 263.13 416.107 263.317 416.497 263.64C416.888 263.963 417.163 264.405 417.28 264.898C417.314 265.074 417.314 265.255 417.28 265.431Z" fill="#263238"/>
<path d="M414.75 267.961C414.584 267.94 414.42 267.899 414.263 267.839C413.767 267.663 413.337 267.34 413.032 266.912C412.727 266.484 412.56 265.972 412.556 265.446C412.562 264.919 412.728 264.406 413.033 263.976C413.338 263.545 413.767 263.219 414.263 263.039C414.663 262.898 415.092 262.86 415.51 262.929C415.928 262.999 416.322 263.172 416.655 263.435C417.101 263.794 417.412 264.294 417.539 264.852C417.571 265.044 417.571 265.239 417.539 265.431C417.571 265.628 417.571 265.829 417.539 266.025C417.41 266.643 417.049 267.188 416.53 267.548C416.011 267.908 415.375 268.056 414.75 267.961ZM415.406 263.709C415.112 263.671 414.813 263.707 414.537 263.816C414.204 263.938 413.917 264.161 413.715 264.453C413.513 264.744 413.406 265.091 413.409 265.446C413.409 265.801 413.516 266.147 413.718 266.438C413.919 266.73 414.205 266.952 414.537 267.077C414.812 267.175 415.106 267.206 415.396 267.166C415.685 267.126 415.96 267.017 416.198 266.848C416.524 266.603 416.764 266.262 416.884 265.873C416.884 265.71 416.914 265.589 416.975 265.507V265.37L416.884 265.004C416.77 264.616 416.528 264.278 416.198 264.044C415.972 263.85 415.699 263.719 415.406 263.663V263.709Z" fill="#263238"/>
<path d="M431.086 265.416C431.086 265.416 431.086 265.233 430.949 264.913C430.824 264.465 430.55 264.072 430.172 263.801C429.871 263.574 429.513 263.436 429.138 263.402C428.763 263.367 428.386 263.438 428.049 263.605C427.713 263.773 427.429 264.031 427.23 264.351C427.032 264.671 426.926 265.04 426.926 265.416C426.929 265.791 427.036 266.158 427.235 266.477C427.433 266.796 427.716 267.053 428.051 267.222C428.386 267.39 428.762 267.463 429.136 267.432C429.51 267.401 429.868 267.268 430.172 267.046C430.546 266.769 430.824 266.379 430.964 265.934C431.055 265.614 431.055 265.416 431.086 265.416C431.117 265.592 431.117 265.773 431.086 265.949C430.987 266.446 430.711 266.89 430.309 267.199C430.014 267.436 429.663 267.595 429.289 267.659C428.916 267.723 428.533 267.69 428.175 267.565C427.861 267.459 427.574 267.286 427.334 267.058C427.094 266.83 426.906 266.552 426.785 266.243C426.664 265.935 426.611 265.604 426.632 265.273C426.652 264.943 426.744 264.62 426.902 264.329C427.06 264.038 427.28 263.785 427.546 263.588C427.813 263.39 428.119 263.254 428.443 263.188C428.768 263.121 429.103 263.127 429.425 263.204C429.748 263.281 430.049 263.427 430.309 263.633C430.703 263.949 430.977 264.39 431.086 264.883C431.12 265.059 431.12 265.24 431.086 265.416Z" fill="#263238"/>
<path d="M428.556 267.945C428.391 267.917 428.228 267.877 428.069 267.824C427.572 267.648 427.142 267.324 426.838 266.894C426.533 266.464 426.37 265.95 426.37 265.424C426.37 264.897 426.533 264.383 426.838 263.953C427.142 263.524 427.572 263.199 428.069 263.024C428.468 262.88 428.898 262.84 429.316 262.91C429.735 262.979 430.129 263.155 430.461 263.42C430.908 263.769 431.215 264.266 431.33 264.822C431.369 265.018 431.369 265.22 431.33 265.416C431.361 265.613 431.361 265.813 431.33 266.01C431.194 266.625 430.831 267.165 430.314 267.524C429.797 267.883 429.164 268.033 428.541 267.945H428.556ZM429.272 263.664C428.98 263.627 428.683 263.659 428.404 263.755C428.169 263.843 427.956 263.981 427.779 264.158C427.602 264.336 427.466 264.549 427.378 264.784C427.291 265.019 427.255 265.27 427.273 265.52C427.291 265.77 427.362 266.014 427.482 266.234C427.602 266.454 427.768 266.646 427.968 266.796C428.169 266.947 428.399 267.053 428.644 267.107C428.889 267.16 429.142 267.161 429.387 267.109C429.632 267.056 429.864 266.952 430.065 266.803C430.397 266.564 430.638 266.22 430.751 265.827C430.788 265.707 430.819 265.585 430.842 265.462V265.34C430.842 265.264 430.842 265.126 430.751 264.974C430.638 264.581 430.397 264.237 430.065 263.999C429.83 263.828 429.559 263.713 429.272 263.664Z" fill="#263238"/>
<path d="M443.49 244.357C443.49 245.779 443.068 247.17 442.278 248.352C441.487 249.535 440.364 250.457 439.05 251.001C437.735 251.546 436.289 251.688 434.894 251.411C433.499 251.133 432.217 250.448 431.211 249.442C430.206 248.436 429.521 247.155 429.243 245.76C428.966 244.364 429.108 242.918 429.652 241.604C430.197 240.29 431.119 239.167 432.301 238.376C433.484 237.586 434.875 237.164 436.297 237.164C438.204 237.168 440.031 237.927 441.379 239.275C442.727 240.623 443.486 242.45 443.49 244.357Z" fill="#FF80B6"/>
<path d="M432.183 244.509L433.25 243.427L435.337 245.271L439.406 241.354L440.412 242.421L435.185 247.343L432.183 244.509Z" fill="white"/>
<path d="M987 673.394V500H1228.18V673.394L1100.35 674.463L987 673.394Z" fill="#FF80B6"/>
<g opacity="0.4">
<path opacity="0.4" d="M1228.2 500H987V673.394H1228.2V500Z" fill="black"/>
</g>
<path d="M1100.35 674.463L987 673.394V500H1099.99L1100.35 674.463Z" fill="#FF80B6"/>
<path d="M1048.11 500H1033.08V530.086H1048.11V500Z" fill="#263238"/>
<path d="M1024.98 635.118H995.04V665.054H1024.98V635.118Z" fill="#FAFAFA"/>
<path d="M1025.04 665.119H994.976V635.183H1025.04V665.119ZM995.104 665.119H1024.93V635.183H995.104V665.119Z" fill="#263238"/>
<path d="M170.209 549H0V671.363H170.209V549Z" fill="#FF80B6"/>
<path d="M45.6535 549C45.8894 549 45.6535 574.838 45.6535 574.838H33.0536V549H45.6535Z" fill="#263238"/>
<g opacity="0.4">
<path opacity="0.4" d="M85.1043 671.363H170.209L170.209 549H85.1043L85.1043 671.363Z" fill="black"/>
</g>
<path d="M27.975 647.412H5.18982V663.536H27.975V647.412Z" fill="#FAFAFA"/>
<path d="M28.0026 663.564H5.14813V647.37H28.0026V663.564ZM5.2175 663.564H27.9333V647.439H5.2175V663.564Z" fill="#263238"/>
<path d="M43.5721 647.412H32.1795V663.536H43.5721V647.412Z" fill="#FAFAFA"/>
<path d="M43.5998 663.564H32.1379V647.37H43.5998V663.564ZM32.2211 663.564H43.5304V647.439H32.2211V663.564Z" fill="#263238"/>
<path d="M1111.3 238.893H1025V261.729H1111.3V238.893Z" fill="#E0E0E0"/>
<path d="M1173.35 192H1087.05V214.837H1173.35V192Z" fill="#EBEBEB"/>
</svg>
