<svg width="50" height="50" viewBox="0 0 50 50" fill="none" xmlns="http://www.w3.org/2000/svg">
<path d="M1.46484 8.88672C2.27383 8.88672 2.92969 8.23086 2.92969 7.42188V2.92969H7.42188C8.23086 2.92969 8.88672 2.27383 8.88672 1.46484C8.88672 0.655859 8.23086 0 7.42188 0H1.46484C0.655859 0 0 0.655859 0 1.46484V7.42188C0 8.23086 0.655859 8.88672 1.46484 8.88672Z" fill="#6392CA"/>
<path d="M1.46484 50H7.42188C8.23086 50 8.88672 49.3441 8.88672 48.5352C8.88672 47.7262 8.23086 47.0703 7.42188 47.0703H2.92969V42.5781C2.92969 41.7691 2.27383 41.1133 1.46484 41.1133C0.655859 41.1133 0 41.7691 0 42.5781V48.5352C0 49.3441 0.655859 50 1.46484 50Z" fill="#6392CA"/>
<path d="M48.5352 8.88672C49.3442 8.88672 50 8.23086 50 7.42188V1.46484C50 0.655859 49.3442 0 48.5352 0H42.5781C41.7692 0 41.1133 0.655859 41.1133 1.46484C41.1133 2.27383 41.7692 2.92969 42.5781 2.92969H47.0703V7.42188C47.0703 8.23086 47.7262 8.88672 48.5352 8.88672Z" fill="#6392CA"/>
<path d="M48.5352 41.1133C47.7262 41.1133 47.0703 41.7691 47.0703 42.5781V47.0703H42.5781C41.7692 47.0703 41.1133 47.7262 41.1133 48.5352C41.1133 49.3441 41.7692 50 42.5781 50H48.5352C49.3442 50 50 49.3441 50 48.5352V42.5781C50 41.7691 49.3442 41.1133 48.5352 41.1133Z" fill="#6392CA"/>
<path d="M25 35.2539C30.654 35.2539 35.2539 30.654 35.2539 25C35.2539 19.346 30.654 14.7461 25 14.7461C19.346 14.7461 14.7461 19.346 14.7461 25C14.7461 30.654 19.346 35.2539 25 35.2539ZM25 17.6758C29.0386 17.6758 32.3242 20.9614 32.3242 25C32.3242 29.0386 29.0386 32.3242 25 32.3242C20.9614 32.3242 17.6758 29.0386 17.6758 25C17.6758 20.9614 20.9614 17.6758 25 17.6758Z" fill="#6392CA"/>
<path d="M25 29.3945C27.4231 29.3945 29.3945 27.4231 29.3945 25C29.3945 22.5769 27.4231 20.6055 25 20.6055C22.5769 20.6055 20.6055 22.5769 20.6055 25C20.6055 27.4231 22.5769 29.3945 25 29.3945ZM25 23.5352C25.8077 23.5352 26.4648 24.1923 26.4648 25C26.4648 25.8077 25.8077 26.4648 25 26.4648C24.1923 26.4648 23.5352 25.8077 23.5352 25C23.5352 24.1923 24.1923 23.5352 25 23.5352Z" fill="#6392CA"/>
<path d="M7.42414 33.4356C12.3648 37.6771 18.4668 41.1133 25 41.1133C31.5335 41.1133 37.6357 37.6768 42.5759 33.4356C46.9232 29.7036 49.61 26.0135 49.7223 25.8582C50.0927 25.3459 50.0927 24.6539 49.7223 24.1417C49.6101 23.9864 46.9232 20.2963 42.5759 16.5643C37.6353 12.3229 31.5332 8.88672 25 8.88672C18.4665 8.88672 12.3644 12.3232 7.42414 16.5644C3.07687 20.2964 0.390051 23.9865 0.277747 24.1418C-0.0926636 24.6541 -0.0926636 25.3461 0.277747 25.8583C0.390051 26.0135 3.07697 29.7037 7.42414 33.4356ZM25 11.8164C31.2181 11.8164 36.9254 15.5843 40.6185 18.7452C43.5103 21.2203 45.6584 23.7258 46.6823 24.9995C45.6724 26.2541 43.5673 28.7063 40.7228 31.1588C36.6496 34.6707 31.0606 38.1836 25 38.1836C18.782 38.1836 13.0746 34.4157 9.38156 31.2548C6.48957 28.7795 4.34132 26.2739 3.31779 25.0005C4.32765 23.7459 6.43283 21.2938 9.27736 18.8412C13.3504 15.3293 18.9395 11.8164 25 11.8164Z" fill="#6392CA"/>
</svg>
