<svg width="162" height="150" viewBox="0 0 162 150" fill="none" xmlns="http://www.w3.org/2000/svg">
<path d="M124.421 15.9803L64.4807 15.3735L63.9554 67.2661L123.895 67.8729L124.421 15.9803Z" fill="#E874A6"/>
<path d="M99.9017 15.732L49.6101 15.2229L49.0848 67.1156L99.3764 67.6247L99.9017 15.732Z" fill="#E874A6"/>
<path d="M69.4246 15.4233C69.5931 15.5497 65.2112 21.2659 59.5933 28.19C53.9754 35.114 49.3406 40.6055 49.1721 40.4791C49.0035 40.3527 53.3855 34.6365 59.0034 27.7265C64.6213 20.8165 69.2701 15.2969 69.4246 15.4233Z" fill="#FAFAFA"/>
<path d="M83.7783 15.62C83.9468 15.7323 76.2784 26.0973 66.6578 38.7517C57.0371 51.406 49.1159 61.5603 48.9474 61.448C48.7788 61.3356 56.4613 50.9706 66.0679 38.3022C75.6745 25.6339 83.6238 15.4936 83.7783 15.62Z" fill="#FAFAFA"/>
<path d="M98.5674 15.7885C98.7219 15.9149 90.1406 27.558 79.2559 41.7994C68.3712 56.0407 59.5933 67.4872 59.3686 67.3608C59.1438 67.2344 67.7954 55.5913 78.6801 41.35C89.5647 27.1086 98.3989 15.6059 98.5674 15.7885Z" fill="#FAFAFA"/>
<path d="M112.823 15.8728C112.977 15.9851 104.508 27.6142 93.9046 41.8415C83.3008 56.0688 74.579 67.4872 74.4105 67.3748C74.2419 67.2625 82.7109 55.6194 93.3287 41.4061C103.947 27.1928 112.654 15.7885 112.823 15.8728Z" fill="#FAFAFA"/>
<path d="M124.031 20.9851C124.199 21.1115 116.376 31.6591 106.573 44.5662C96.7697 57.4733 88.694 67.8243 88.5395 67.754C88.385 67.6838 96.1939 57.08 105.997 44.1729C115.8 31.2658 123.876 20.8587 124.031 20.9851Z" fill="#FAFAFA"/>
<path d="M123.834 41.6309C123.988 41.7573 119.41 47.7404 113.595 55.0015C107.781 62.2626 102.935 68.049 102.781 67.9226C102.626 67.7962 107.205 61.8132 113.019 54.5521C118.834 47.2909 123.679 41.5045 123.834 41.6309Z" fill="#FAFAFA"/>
<path opacity="0.3" d="M124.433 15.9804L99.8979 15.7321L99.3725 67.6247L123.907 67.8731L124.433 15.9804Z" fill="black"/>
<path d="M73.3588 15.4776L69.4265 15.4377L68.9011 67.3304L72.8335 67.3702L73.3588 15.4776Z" fill="#263238"/>
<path d="M112.804 15.8627L109.631 15.8306L109.105 67.7232L112.279 67.7553L112.804 15.8627Z" fill="#263238"/>
<path d="M124.169 40.8803L49.3567 40.1229L49.3356 42.2155L124.148 42.9728L124.169 40.8803Z" fill="#263238"/>
<path d="M83.8064 16.0834C83.7283 15.8326 83.6812 15.5732 83.6659 15.311C83.5927 14.5643 83.5646 13.8139 83.5817 13.0638C83.6744 10.2824 84.3743 7.55482 85.6322 5.07235C86.0372 4.24544 86.5068 3.45179 87.0367 2.69878C87.5635 1.80032 88.301 1.04353 89.1855 0.493749C89.4699 0.353259 89.7881 0.295878 90.1037 0.328176C90.4192 0.360475 90.7192 0.481147 90.9692 0.676337C91.4223 1.10041 91.7067 1.67414 91.7698 2.29152C91.861 3.45412 91.7226 4.62328 91.3624 5.73245C90.7101 8.10501 89.5611 10.3119 87.9917 12.2071C87.1614 13.2102 86.2189 14.1149 85.1828 14.9037C84.8973 15.1525 84.5607 15.3357 84.1966 15.44C83.8326 15.5444 83.45 15.5674 83.0761 15.5076C82.3974 15.2835 81.778 14.909 81.2643 14.4121L75.3374 9.41217C73.4695 7.82511 71.447 6.16783 70.6746 3.79427C70.4708 3.20858 70.3989 2.58517 70.4639 1.96847C70.4767 1.64831 70.5644 1.3356 70.7199 1.05544C70.8754 0.775285 71.0944 0.53547 71.3593 0.355222C71.6242 0.174973 71.9276 0.0593118 72.2453 0.0175187C72.563 -0.0242743 72.886 0.0089571 73.1886 0.114556C73.722 0.258403 74.2292 0.485961 74.6914 0.788719C76.2721 1.92426 77.6897 3.27104 78.9048 4.79148C80.623 6.9722 81.91 9.46036 82.6969 12.1228C82.9052 12.8434 83.074 13.5748 83.2025 14.3138C83.2367 14.5702 83.2367 14.8299 83.2025 15.0863C83.2025 15.0863 82.9637 14.0329 82.3598 12.2071C81.4718 9.65341 80.1406 7.27625 78.4273 5.18473C77.251 3.73985 75.8858 2.45964 74.3683 1.37857C73.5818 0.872964 72.4863 0.451639 71.742 0.957249C70.9976 1.46286 70.9695 2.65664 71.3206 3.65382C72.0088 5.74648 73.9189 7.34759 75.8009 8.93465L81.7137 13.8924C82.1459 14.3216 82.6691 14.648 83.2446 14.8475C83.5148 14.8842 83.7898 14.8605 84.0497 14.7779C84.3096 14.6953 84.5479 14.556 84.7474 14.37C85.7413 13.6237 86.6419 12.7608 87.4299 11.7998C88.9482 9.99099 90.0637 7.87957 90.7024 5.60605C91.0474 4.59002 91.1951 3.51746 91.1378 2.44599C91.1074 1.9834 90.9073 1.54831 90.5759 1.2241C90.4195 1.09399 90.2283 1.01264 90.0261 0.990167C89.8239 0.967697 89.6195 1.0051 89.4383 1.09771C88.6485 1.59987 87.9852 2.27756 87.5001 3.07802C86.9819 3.80922 86.5127 4.57396 86.0957 5.36727C84.8385 7.77863 84.0881 10.4218 83.8907 13.134C83.7362 15.002 83.9328 16.0834 83.8064 16.0834Z" fill="#263238"/>
<path d="M119.979 67.4916L24.7557 66.5393L23.9314 148.968L119.155 149.92L119.979 67.4916Z" fill="#E874A6"/>
<path d="M80.0845 149.522L0.21212 148.989L1.04077 66.2794L80.9272 67.0939L80.0845 149.522Z" fill="#E874A6"/>
<path d="M32.5291 66.6024C32.6835 66.7288 25.605 75.7455 16.7147 86.7285C7.82436 97.7115 0.493018 106.532 0.338526 106.391C0.184034 106.251 7.26257 97.248 16.1529 86.251C25.0432 75.254 32.3746 66.476 32.5291 66.6024Z" fill="#FAFAFA"/>
<path d="M55.3237 66.8973C55.4922 67.0237 43.2311 83.4139 27.9505 103.512C12.6698 123.61 0.155938 139.818 0.00144571 139.705C-0.153046 139.593 12.094 123.189 27.3746 103.077C42.6553 82.9645 55.1692 66.7709 55.3237 66.8973Z" fill="#FAFAFA"/>
<path d="M78.8065 67.0659C78.961 67.1923 65.155 85.633 47.9783 108.245C30.8016 130.857 16.7147 149.115 16.5602 148.975C16.4057 148.834 30.1976 130.422 47.4586 107.796C64.7196 85.1695 78.652 66.9535 78.8065 67.0659Z" fill="#FAFAFA"/>
<path d="M101.447 67.3046C101.615 67.417 88.09 85.8296 71.2504 108.428C54.4108 131.026 40.6048 149.214 40.3941 149.115C40.1834 149.017 53.7507 130.59 70.6043 107.992C87.458 85.3942 101.292 67.1782 101.447 67.3046Z" fill="#FAFAFA"/>
<path d="M119.269 75.4225C119.438 75.5489 106.938 92.2762 91.3624 112.753C75.7868 133.231 63.0342 149.761 62.8657 149.635C62.6971 149.508 75.197 132.781 90.7726 112.304C106.348 91.8268 119.115 75.3101 119.269 75.4225Z" fill="#FAFAFA"/>
<path d="M118.96 108.217C119.115 108.343 111.755 117.795 102.528 129.284C93.3006 140.773 85.6743 150.07 85.5198 149.944C85.3654 149.817 92.7108 140.365 101.952 128.877C111.194 117.388 118.792 108.091 118.96 108.217Z" fill="#FAFAFA"/>
<path opacity="0.3" d="M119.896 67.4886L80.9234 67.0941L80.089 149.518L119.061 149.913L119.896 67.4886Z" fill="black"/>
<path d="M38.77 66.6673L32.5344 66.6041L31.7 149.028L37.9356 149.092L38.77 66.6673Z" fill="#263238"/>
<path d="M101.456 67.3019L96.4001 67.2507L95.5657 149.675L100.622 149.726L101.456 67.3019Z" fill="#263238"/>
<path d="M119.485 107.036L0.644836 105.833L0.611142 109.162L119.452 110.365L119.485 107.036Z" fill="#263238"/>
<path d="M51.1664 65.3664L51.5035 64.917C51.7282 64.608 52.0512 64.1586 52.4445 63.5125C53.2451 62.2906 54.172 60.3384 55.4782 57.8946C56.1927 56.5101 57.0799 55.2217 58.1186 54.0604C59.351 52.6229 61.0255 51.635 62.8797 51.2514C63.9284 51.0676 65.0054 51.1302 66.0258 51.434C67.1501 51.7371 68.1396 52.4099 68.8347 53.3441C69.5249 54.3597 69.8012 55.6006 69.6072 56.8132C69.4179 58.0614 68.9046 59.2382 68.1184 60.2261C66.2795 62.1362 64.0118 63.5806 61.5034 64.4395C58.9481 65.7497 56.1716 66.5736 53.3153 66.8692C51.774 66.9542 50.2343 66.6752 48.821 66.0546C47.349 65.3732 46.1406 64.2288 45.38 62.7962C44.6719 61.3186 44.3024 59.7017 44.2985 58.0632C44.3193 54.7183 44.8789 51.3987 45.9558 48.2318C46.509 46.5056 47.6925 45.0512 49.2704 44.1589C50.1497 43.7585 51.1341 43.6502 52.0793 43.8499C52.9994 44.0566 53.8507 44.4968 54.5512 45.128C55.9168 46.4386 56.7093 48.2357 56.7562 50.1279C56.8273 52.0022 56.5263 53.8721 55.8706 55.6294C55.2149 57.3868 54.2175 58.9968 52.9361 60.3665C51.6524 61.8424 50.0596 63.0178 48.2707 63.8091C46.4818 64.6004 44.5407 64.9882 42.5851 64.9451C40.6517 64.8195 38.7738 64.2467 37.0995 63.2719C35.4251 62.297 34 60.9466 32.9364 59.3272C31.8557 57.7543 31.1935 55.932 31.0122 54.0323C30.7885 52.1318 31.2518 50.2139 32.3184 48.6251C32.8963 47.79 33.7788 47.2151 34.7762 47.024C35.2629 46.9375 35.762 46.9488 36.2443 47.0574C36.7266 47.1659 37.1824 47.3694 37.5852 47.656C39.0082 48.793 40.0916 50.2991 40.7171 52.0099C41.3837 53.6065 41.9009 55.2615 42.2621 56.9536C42.6648 58.65 42.5623 60.4271 41.9671 62.0659C41.6342 62.8613 41.1347 63.5761 40.5025 64.1624C39.8702 64.7486 39.1197 65.1927 38.3015 65.4647C36.7405 65.9526 35.0942 66.1057 33.4701 65.9142C31.9238 65.749 30.3928 65.4626 28.8915 65.0574C27.487 64.6922 25.9702 64.3271 24.5517 63.9058C23.1598 63.5136 21.7906 63.0448 20.4506 62.5013C19.134 61.9927 17.888 61.3177 16.7428 60.4929C15.6184 59.6931 14.6874 58.6517 14.0181 57.4452C13.688 56.8564 13.4816 56.2064 13.4115 55.535C13.3415 54.8636 13.4093 54.185 13.6108 53.5407C14.0566 52.3514 14.9068 51.357 16.0124 50.7318C17.0456 50.1154 18.2225 49.7813 19.4253 49.7627C21.5905 49.8342 23.6944 50.4999 25.5067 51.6868C28.4431 53.4461 30.9749 55.8055 32.9364 58.6109C34.1838 60.3621 35.1856 62.276 35.9138 64.299C36.1769 65.0024 36.3836 65.7256 36.5318 66.4619C36.4565 66.2877 36.3909 66.1096 36.3352 65.9282C36.2228 65.563 36.0402 65.0434 35.7734 64.3552C33.7492 59.202 30.0682 54.8687 25.3101 52.0379C23.526 50.8738 21.4562 50.2228 19.327 50.156C18.1873 50.1445 17.0703 50.4741 16.1193 51.1022C15.1683 51.7304 14.4268 52.6285 13.99 53.6812C13.8145 54.2602 13.7588 54.869 13.8264 55.4703C13.894 56.0715 14.0835 56.6527 14.3833 57.1783C15.0221 58.2973 15.9055 59.2576 16.9675 59.9873C19.3145 61.5051 21.896 62.625 24.6078 63.3018C26.0123 63.7091 27.4168 64.0603 28.9196 64.4254C30.3949 64.8103 31.8973 65.0826 33.4139 65.24C34.9434 65.4249 36.4948 65.2812 37.9644 64.8187C38.6934 64.5765 39.3618 64.1803 39.924 63.6568C40.4863 63.1333 40.9292 62.4949 41.2227 61.785C41.7653 60.2654 41.8531 58.6207 41.4756 57.0519C41.1234 55.4279 40.6251 53.8391 39.9868 52.3048C39.4072 50.7229 38.4069 49.3292 37.0936 48.274C36.7686 48.0412 36.4001 47.8762 36.01 47.789C35.6198 47.7017 35.2162 47.6939 34.8229 47.7659C34.4297 47.838 34.0551 47.9886 33.7213 48.2086C33.3875 48.4286 33.1015 48.7135 32.8802 49.0464C31.9265 50.5022 31.5186 52.2485 31.7285 53.9761C31.9084 55.7499 32.5314 57.4499 33.5403 58.9199C34.5354 60.4519 35.8731 61.7315 37.4477 62.6578C39.0223 63.584 40.7907 64.1315 42.6132 64.2569C44.4431 64.2794 46.2562 63.9042 47.9269 63.1573C49.5977 62.4104 51.0863 61.3097 52.29 59.9311C53.504 58.6316 54.4501 57.1057 55.0742 55.4405C55.6983 53.7753 55.9883 52.0034 55.9276 50.2262C55.9142 49.3833 55.7349 48.5514 55.3999 47.7778C55.0649 47.0043 54.5809 46.3043 53.9754 45.7178C53.3985 45.1503 52.6666 44.7662 51.8719 44.6137C51.0771 44.4613 50.2551 44.5473 49.5091 44.8611C48.0903 45.6674 47.031 46.9827 46.5457 48.5408C45.9794 50.0876 45.5701 51.6874 45.3238 53.316C44.8042 56.4901 44.5233 59.8328 45.8996 62.5574C46.5842 63.8651 47.6798 64.9114 49.0176 65.535C50.3418 66.1212 51.7845 66.3905 53.231 66.3215C56.0154 66.0327 58.7236 65.2378 61.2225 63.976C63.6613 63.1518 65.867 61.7551 67.655 59.903C68.427 59.0669 68.9148 58.008 69.0485 56.8778C69.1822 55.7477 68.955 54.6041 68.3993 53.611C67.7553 52.8191 66.9077 52.2176 65.9476 51.8712C64.9875 51.5248 63.9512 51.4465 62.95 51.6447C61.1739 52.012 59.5663 52.9489 58.3714 54.3132C57.3464 55.4527 56.4558 56.7063 55.7169 58.0491C54.3125 60.4929 53.4136 62.4451 52.5709 63.667C52.1644 64.2817 51.6936 64.8514 51.1664 65.3664Z" fill="#263238"/>
<path d="M148.075 68.7232C147.731 68.494 147.427 68.2092 147.176 67.8805C146.431 67.0406 145.759 66.1385 145.168 65.1839C144.263 63.7836 143.51 62.2912 142.921 60.7317C142.585 59.8138 142.309 58.8756 142.092 57.9228C141.942 57.3888 141.885 56.8329 141.923 56.2795C141.942 55.9651 142.028 55.6585 142.176 55.3807C142.262 55.2189 142.382 55.0775 142.527 54.966C142.673 54.8545 142.84 54.7756 143.019 54.7346C143.196 54.6931 143.38 54.6892 143.559 54.723C143.738 54.7569 143.908 54.8278 144.058 54.9312C144.314 55.101 144.538 55.3151 144.718 55.5633C145.024 56.011 145.296 56.4804 145.533 56.9677C145.989 57.8419 146.392 58.7424 146.741 59.6643C147.327 61.2269 147.751 62.846 148.005 64.4957C148.176 65.6062 148.256 66.7289 148.244 67.8524C148.272 68.2639 148.229 68.6772 148.117 69.0743C147.991 69.0743 148.033 67.3327 147.499 64.594C147.174 62.9911 146.704 61.421 146.095 59.9031C145.739 59.016 145.336 58.1486 144.887 57.3048C144.66 56.8638 144.407 56.437 144.129 56.0267C143.848 55.6335 143.482 55.3666 143.173 55.4509C142.864 55.5352 142.668 55.9003 142.626 56.3638C142.598 56.8373 142.65 57.3122 142.78 57.7683C143.34 60.3046 144.288 62.7395 145.589 64.9873C146.994 67.3468 148.173 68.6389 148.075 68.7232Z" fill="#E0E0E0"/>
<path d="M148.946 68.709C148.772 68.3026 148.663 67.8713 148.623 67.431C148.417 66.2534 148.322 65.059 148.342 63.8636C148.373 62.086 148.613 60.3182 149.058 58.5969C149.319 57.5771 149.652 56.5773 150.055 55.6053C150.249 55.0459 150.544 54.5269 150.926 54.0744C151.148 53.8255 151.415 53.6206 151.713 53.4705C151.89 53.3837 152.084 53.3386 152.281 53.3386C152.479 53.3386 152.673 53.3837 152.85 53.4705C153.017 53.5643 153.163 53.6912 153.279 53.8433C153.395 53.9955 153.478 54.1697 153.524 54.3553C153.608 54.6618 153.646 54.9789 153.637 55.2963C153.637 55.8581 153.637 56.4199 153.553 56.9677C153.459 58.0197 153.281 59.0624 153.019 60.0856C152.585 61.8133 151.924 63.4757 151.053 65.0293C150.468 66.0734 149.781 67.0567 149.002 67.9647C148.44 68.5967 148.089 68.9057 148.047 68.8776C148.005 68.8495 149.241 67.4731 150.589 64.7765C151.379 63.2353 151.978 61.6034 152.373 59.9171C152.598 58.9227 152.753 57.9136 152.836 56.8974C152.836 56.3778 152.836 55.83 152.906 55.2963C152.977 54.7626 152.822 54.257 152.513 54.1166C152.204 53.9761 151.797 54.1868 151.474 54.552C151.145 54.9381 150.888 55.3806 150.716 55.8581C150.323 56.8021 149.985 57.7681 149.704 58.7513C149.244 60.421 148.962 62.1346 148.862 63.8636C148.707 66.8552 149.086 68.6809 148.946 68.709Z" fill="#E0E0E0"/>
<path d="M161.965 68.7512H137.766V149.452H161.965V68.7512Z" fill="#E874A6"/>
<path opacity="0.3" d="M161.965 68.7512H154.465V149.452H161.965V68.7512Z" fill="black"/>
<path d="M145.968 150C145.772 150 145.603 131.938 145.603 109.649C145.603 87.3605 145.772 69.299 145.968 69.299C146.165 69.299 146.334 87.3605 146.334 109.649C146.334 131.938 146.179 150 145.968 150Z" fill="#FAFAFA"/>
<path d="M160.954 106.293C157.042 106.654 153.112 106.776 149.185 106.658C145.258 106.776 141.327 106.654 137.415 106.293C141.327 105.923 145.258 105.801 149.185 105.928C153.112 105.801 157.043 105.923 160.954 106.293Z" fill="#FAFAFA"/>
</svg>
