<svg width="152" height="41" viewBox="0 0 152 41" fill="none" xmlns="http://www.w3.org/2000/svg">
<path d="M62.5674 19.4959C62.5674 21.1629 61.2239 22.2039 59.0805 22.2039H57.4578V24.2648H55.6011V16.7808H59.0805C61.2239 16.7808 62.5674 17.8147 62.5674 19.4959ZM60.6805 19.4959C60.6805 18.6729 60.1069 18.1946 58.9748 18.1946H57.4578V20.7901H58.9748C60.1069 20.7901 60.6805 20.3118 60.6805 19.4959Z" fill="black"/>
<path d="M63.6313 20.5235C63.6313 18.3008 65.488 16.6548 68.024 16.6548C70.5599 16.6548 72.4166 18.2867 72.4166 20.5235C72.4166 22.7603 70.5524 24.3921 68.024 24.3921C65.4956 24.3921 63.6313 22.7462 63.6313 20.5235ZM70.5373 20.5235C70.5373 19.1026 69.458 18.132 68.024 18.132C66.59 18.132 65.5107 19.1026 65.5107 20.5235C65.5107 21.9443 66.59 22.915 68.024 22.915C69.458 22.915 70.5373 21.9443 70.5373 20.5235Z" fill="black"/>
<path d="M73.4507 20.5235C73.4507 18.2656 75.3074 16.6548 77.8131 16.6548C79.2019 16.6548 80.3566 17.1261 81.1189 17.9772L79.9264 19.0042C79.383 18.4274 78.7037 18.132 77.9037 18.132C76.4017 18.132 75.3376 19.1097 75.3376 20.5235C75.3376 21.9373 76.4017 22.915 77.9037 22.915C78.7037 22.915 79.383 22.6196 79.9264 22.0288L81.1189 23.0557C80.3566 23.9209 79.2019 24.3921 77.798 24.3921C75.3074 24.3921 73.4507 22.7814 73.4507 20.5235Z" fill="black"/>
<path d="M89.8666 16.7816V24.2657H88.0099V21.1989H84.3645V24.2657H82.5078V16.7816H84.3645V19.7359H88.0099V16.7816H89.8666Z" fill="black"/>
<path d="M97.7611 18.8776C97.0818 18.5052 96.3303 18.2614 95.5497 18.1601V24.2655H93.693V18.1601C92.9082 18.2635 92.1522 18.5071 91.4665 18.8776L90.8325 17.5833C91.942 16.9643 93.2628 16.6548 94.6063 16.6548C95.9497 16.6548 97.2931 16.9643 98.3951 17.5833L97.7611 18.8776Z" fill="black"/>
<path d="M98.75 20.5235C98.75 18.3008 100.607 16.6548 103.143 16.6548C105.679 16.6548 107.535 18.2867 107.535 20.5235C107.535 22.7603 105.664 24.3921 103.143 24.3921C100.622 24.3921 98.75 22.7462 98.75 20.5235ZM105.656 20.5235C105.656 19.1026 104.577 18.132 103.143 18.132C101.709 18.132 100.629 19.1026 100.629 20.5235C100.629 21.9443 101.709 22.915 103.143 22.915C104.577 22.915 105.656 21.9443 105.656 20.5235Z" fill="black"/>
<path d="M116.185 16.7816V21.9234C116.185 24.2024 114.728 25.4193 112.389 25.4193C110.992 25.4193 109.853 25.0324 109.075 24.4134L109.8 23.1332C110.519 23.6748 111.419 23.9658 112.343 23.9562C113.672 23.9562 114.328 23.3443 114.328 22.0078V21.5506C113.792 22.1696 113.007 22.472 112.056 22.472C110.034 22.472 108.894 21.3677 108.894 19.3349V16.7816H110.751V19.2294C110.751 20.4181 111.392 21.002 112.456 21.002C113.521 21.002 114.328 20.4392 114.328 19.1098V16.7816H116.185Z" fill="black"/>
<path d="M117.521 23.3019C117.521 22.6829 118.011 22.275 118.63 22.275C119.249 22.275 119.739 22.6829 119.739 23.3019C119.739 23.5761 119.623 23.8391 119.414 24.0331C119.206 24.227 118.924 24.3359 118.63 24.3359C118.336 24.3359 118.054 24.227 117.845 24.0331C117.637 23.8391 117.521 23.5761 117.521 23.3019Z" fill="black"/>
<path d="M120.487 20.5235C120.487 18.2656 122.343 16.6548 124.849 16.6548C126.238 16.6548 127.393 17.1261 128.155 17.9772L126.955 19.0042C126.419 18.4274 125.74 18.132 124.94 18.132C123.438 18.132 122.374 19.1097 122.374 20.5235C122.374 21.9373 123.438 22.915 124.94 22.915C125.74 22.915 126.419 22.6196 126.955 22.0288L128.155 23.0557C127.393 23.9209 126.238 24.3921 124.834 24.3921C122.343 24.3921 120.487 22.7814 120.487 20.5235Z" fill="black"/>
<path d="M128.865 20.5235C128.865 18.3008 130.721 16.6548 133.257 16.6548C135.793 16.6548 137.65 18.2867 137.65 20.5235C137.65 22.7603 135.778 24.3921 133.257 24.3921C130.737 24.3921 128.865 22.7462 128.865 20.5235ZM135.771 20.5235C135.771 19.1026 134.691 18.132 133.257 18.132C131.823 18.132 130.744 19.1026 130.744 20.5235C130.744 21.9443 131.823 22.915 133.257 22.915C134.691 22.915 135.771 21.9443 135.771 20.5235Z" fill="black"/>
<path d="M151.356 19.6654V24.2655H149.499V19.7216C149.499 18.6314 148.813 18.132 147.892 18.132C146.971 18.132 146.163 18.6454 146.163 19.8271V24.2655H144.307V19.7216C144.307 18.6314 143.688 18.132 142.767 18.132C141.846 18.132 141.046 18.6454 141.046 19.8271V24.2655H139.189V16.7815H140.986V17.7029C141.469 17.0417 142.299 16.6548 143.363 16.6548C144.427 16.6548 145.31 17.0487 145.763 17.7521C146.314 17.0417 147.25 16.6548 148.352 16.6548C150.224 16.6548 151.356 17.6888 151.356 19.6654Z" fill="black"/>
<path fill-rule="evenodd" clip-rule="evenodd" d="M5.18531 10.934L23.2052 1.08736L21.1957 0L2.98145 9.72582L5.18531 10.934ZM27.6133 3.4433L9.59351 13.2899L7.38965 12.0818L25.6039 2.35594L27.6133 3.4433ZM14.1306 15.5855L32.1505 5.73884L30.1411 4.65148L11.9268 14.3773L14.1306 15.5855ZM18.3435 17.9414L36.3634 8.09477L34.354 7.00741L16.1396 16.7332L18.3435 17.9414ZM18.2143 21.566C18.2241 21.9888 18.2354 22.4117 18.2467 22.8346C18.2581 23.2574 18.2694 23.6803 18.2792 24.1031L0 14.3169V11.7797L18.2143 21.566ZM18.2467 28.1505C18.2354 27.7276 18.2241 27.3048 18.2143 26.8819L0 17.0957V19.6329L18.2792 29.4191C18.2694 28.9962 18.2581 28.5734 18.2467 28.1505ZM18.2143 32.4395C18.2241 32.8624 18.2354 33.2853 18.2468 33.7081C18.2581 34.131 18.2694 34.5538 18.2792 34.9767L0 25.1905V22.6533L18.2143 32.4395ZM18.2467 38.9033C18.2354 38.4804 18.2241 38.0576 18.2143 37.6347L0 27.8485V30.3857L18.2792 40.1719C18.2694 39.749 18.2581 39.3262 18.2467 38.9033ZM38.743 30.6213L36.4289 31.9563L36.2539 12.3113L38.6069 11.0307L38.743 30.6213ZM31.509 34.6445L33.8231 33.3094L33.6805 13.7128L31.334 14.9995L31.509 34.6445ZM28.6766 36.1185L26.3625 37.4535L26.1875 17.8086L28.534 16.5218L28.6766 36.1185ZM23.8653 38.7412L23.867 38.7402L23.7244 19.1496L21.3779 20.4303L21.5465 40.0752C22.3237 39.6346 23.0945 39.1879 23.8653 38.7412Z" fill="#3A78BC"/>
</svg>
