<svg width="620" height="312" viewBox="0 0 620 312" fill="none" xmlns="http://www.w3.org/2000/svg">
<path d="M331.134 196.368C320.288 186.322 301.063 187.495 291.519 198.803C287.763 203.26 285.209 209.096 280.043 211.798C272.155 215.949 262.533 210.713 253.62 211.473C243.169 212.36 234.591 222.968 235.873 233.37C236.455 238.063 238.683 243.062 236.475 247.242C233.665 252.576 225.531 252.793 222.11 257.752C219.024 262.238 221.429 268.854 225.915 271.949C230.401 275.045 236.179 275.43 241.621 275.183C247.063 274.937 252.585 274.197 257.889 275.38C263.736 276.701 268.734 280.31 274.344 282.518C287.723 287.882 303.39 284.895 315.753 277.53C328.117 270.165 337.739 258.906 346.1 247.163" fill="#FF80B6"/>
<g opacity="0.8">
<path opacity="0.8" d="M331.134 196.368C320.288 186.322 301.063 187.495 291.519 198.803C287.763 203.26 285.209 209.096 280.043 211.798C272.155 215.949 262.533 210.713 253.62 211.473C243.169 212.36 234.591 222.968 235.873 233.37C236.455 238.063 238.683 243.062 236.475 247.242C233.665 252.576 225.531 252.793 222.11 257.752C219.024 262.238 221.429 268.854 225.915 271.949C230.401 275.045 236.179 275.43 241.621 275.183C247.063 274.937 252.585 274.197 257.889 275.38C263.736 276.701 268.734 280.31 274.344 282.518C287.723 287.882 303.39 284.895 315.753 277.53C328.117 270.165 337.739 258.906 346.1 247.163" fill="white"/>
</g>
<path d="M328.501 210.054C319.628 201.397 303.271 202.61 295.818 212.479C291.272 218.503 288.66 227.712 281.177 228.717C276.109 229.407 271.317 225.592 266.2 225.986C259.397 226.499 255.286 234.791 257.031 241.377C258.776 247.963 264.574 252.705 270.657 255.801C291.726 266.498 319.805 260.839 335.097 242.816" fill="#FF80B6"/>
<path d="M529.354 232.089L517.947 215.92L532.785 205.4L543.177 226.509L530.034 231.951" fill="#FFBE9D"/>
<path d="M542.556 223.62L550.63 238.182C550.63 238.182 568.141 234.869 569.895 237.413L542.23 254.075L528.723 231.901L542.556 223.62Z" fill="#FF80B6"/>
<g opacity="0.6">
<path opacity="0.6" d="M541.343 242.135C541.125 242.377 541.005 242.692 541.005 243.017C541.005 243.343 541.125 243.657 541.343 243.9C541.58 244.12 541.892 244.243 542.216 244.243C542.539 244.243 542.851 244.12 543.088 243.9C543.32 243.643 543.448 243.309 543.448 242.963C543.448 242.617 543.32 242.284 543.088 242.027C542.82 241.819 542.481 241.722 542.144 241.757C541.806 241.792 541.494 241.956 541.274 242.214" fill="white"/>
</g>
<g opacity="0.6">
<path opacity="0.6" d="M542.23 254.075L540.959 251.788L567.963 236.673C567.963 236.673 569.521 236.466 569.935 237.413L542.23 254.075Z" fill="white"/>
</g>
<path d="M550.995 237.768C551.064 237.906 550.433 238.379 550.009 239.207C549.585 240.035 549.585 240.824 549.438 240.854C549.29 240.883 549.004 239.966 549.516 238.971C550.029 237.975 550.946 237.63 550.995 237.768Z" fill="#263238"/>
<path d="M554.614 237.225C554.722 237.334 554.278 237.915 554.16 238.763C554.042 239.611 554.278 240.301 554.16 240.37C554.042 240.439 553.48 239.739 553.638 238.684C553.795 237.629 554.535 237.117 554.614 237.225Z" fill="#263238"/>
<path d="M558.36 239.711C558.252 239.809 557.66 239.247 557.562 238.301C557.463 237.354 557.917 236.674 558.035 236.753C558.153 236.832 558.035 237.463 558.104 238.242C558.173 239.02 558.478 239.612 558.36 239.711Z" fill="#263238"/>
<path d="M548.787 234.653C548.787 234.811 548.067 234.998 547.337 235.511C546.608 236.023 546.154 236.625 546.016 236.546C545.878 236.467 546.154 235.649 547.002 235.057C547.85 234.465 548.787 234.515 548.787 234.653Z" fill="#263238"/>
<path d="M547.101 231.744C547.101 231.803 546.647 232.207 545.711 232.572C544.829 232.917 543.887 233.082 542.94 233.055C542.734 233.068 542.527 233.044 542.329 232.986C542.182 232.946 542.052 232.856 541.963 232.732C541.873 232.609 541.828 232.458 541.836 232.306C541.846 232.17 541.888 232.039 541.958 231.922C542.028 231.806 542.125 231.707 542.24 231.635C542.414 231.527 542.603 231.447 542.802 231.398C543.124 231.295 543.454 231.219 543.788 231.172C544.383 231.102 544.985 231.125 545.573 231.241C546.559 231.448 547.101 231.822 547.071 231.882C547.042 231.941 546.47 231.724 545.514 231.625C544.962 231.57 544.405 231.586 543.857 231.675C543.522 231.724 543.192 231.803 542.871 231.911C542.526 232.01 542.28 232.158 542.28 232.335C542.28 232.513 542.28 232.424 542.408 232.473C542.558 232.492 542.711 232.492 542.861 232.473C543.197 232.473 543.532 232.473 543.847 232.473C544.407 232.423 544.961 232.324 545.504 232.177C546.026 231.999 546.56 231.855 547.101 231.744Z" fill="#263238"/>
<path d="M547.042 232.049C547.042 232.099 546.45 231.773 545.868 230.926C545.535 230.43 545.291 229.879 545.149 229.299C545.059 228.954 545.006 228.6 544.991 228.244C544.957 228.016 544.981 227.783 545.062 227.567C545.143 227.352 545.278 227.16 545.454 227.011C545.575 226.933 545.715 226.891 545.859 226.891C546.002 226.891 546.143 226.933 546.263 227.011C546.436 227.127 546.59 227.27 546.716 227.435C546.949 227.714 547.138 228.027 547.278 228.362C547.512 228.93 547.603 229.546 547.545 230.156C547.436 231.142 546.973 231.695 546.933 231.655C547.033 231.179 547.109 230.699 547.16 230.216C547.161 229.674 547.043 229.139 546.815 228.648C546.683 228.362 546.51 228.096 546.302 227.859C546.085 227.593 545.829 227.425 545.74 227.524C545.653 227.624 545.589 227.743 545.554 227.871C545.518 227.998 545.511 228.133 545.533 228.263C545.531 228.595 545.567 228.926 545.642 229.249C545.752 229.79 545.942 230.312 546.204 230.797C546.657 231.566 547.101 231.98 547.042 232.049Z" fill="#263238"/>
<path d="M487.107 174.62L522.541 230.305L541.915 217.133L509.281 150.041" fill="#263238"/>
<path d="M489.976 162.403C490.124 162.462 489.059 164.73 488.556 167.717C488.054 170.705 488.261 173.189 488.103 173.209C487.38 169.486 488.047 165.628 489.976 162.364V162.403Z" fill="#455A64"/>
<path d="M486.338 162.562C486.486 162.562 486.338 165.007 486.742 167.964C487.147 170.922 487.886 173.229 487.728 173.279C486.194 169.928 485.706 166.193 486.328 162.562H486.338Z" fill="#455A64"/>
<path d="M348.929 174.452L324.626 166.949C295.305 204.286 297.267 245.31 344.463 269.594L370.679 240.233L348.929 174.452Z" fill="#37474F"/>
<path d="M351.306 168.497C335.748 177.577 328.008 196.694 329.901 215.427C331.981 235.954 345.548 255.968 370.413 261.499L537.557 228.086C544.455 226.706 550.992 223.908 556.753 219.87C562.513 215.831 567.372 210.64 571.021 204.626C574.67 198.611 577.03 191.904 577.952 184.929C578.873 177.955 578.335 170.865 576.373 164.109C572.73 151.563 564.391 140.904 553.091 134.347C541.792 127.79 528.4 125.84 515.699 128.902L351.306 168.497Z" fill="white"/>
<path d="M351.306 168.497L352.853 168.102L357.418 166.978L374.997 162.689L439.694 147.013L484.376 136.168L509.281 130.154L515.738 128.606L519.061 127.975C519.613 127.866 520.165 127.748 520.727 127.659L522.423 127.512C523.557 127.423 524.691 127.285 525.824 127.226H529.275C530.429 127.231 531.582 127.31 532.726 127.462L534.461 127.64L535.329 127.738L536.187 127.906L539.627 128.606C540.771 128.872 541.885 129.257 543.019 129.592C543.581 129.769 544.153 129.927 544.715 130.124L546.361 130.785L548.008 131.465C548.571 131.668 549.118 131.912 549.644 132.195L552.829 133.851C553.884 134.433 554.87 135.133 555.895 135.823C556.398 136.158 556.881 136.464 557.404 136.809L558.833 137.933L560.273 139.067L560.992 139.629L561.653 140.26C569.12 146.965 574.457 155.713 577.004 165.42C579.639 175.492 579.115 186.131 575.505 195.895C571.774 205.933 564.996 214.551 556.122 220.544C552.378 223.075 548.308 225.088 544.025 226.528C539.765 228.017 535.339 228.668 531.03 229.575L505.396 234.692L456.455 244.531L370.502 261.676H370.413C366.031 260.644 361.776 259.133 357.724 257.171C350.238 253.41 343.825 247.817 339.08 240.913C336.943 237.756 335.126 234.394 333.657 230.876C333.302 230.028 333.026 229.151 332.671 228.303C332.342 227.469 332.062 226.616 331.833 225.749C331.587 224.892 331.35 224.044 331.114 223.196L330.581 220.662C330.386 219.833 330.238 218.994 330.138 218.148C330.029 217.32 329.911 216.491 329.802 215.673C329.694 214.855 329.684 214.036 329.625 213.228C329.566 212.42 329.517 211.621 329.526 210.832C329.402 205.04 330.221 199.266 331.952 193.736C333.319 189.306 335.311 185.093 337.867 181.225C339.74 178.379 341.966 175.781 344.493 173.495C345.005 173.042 345.479 172.578 345.942 172.204L347.303 171.168L348.446 170.291L349.432 169.65L351.256 168.506L349.462 169.699L348.476 170.35L347.332 171.237L346.031 172.273C345.567 172.657 345.104 173.111 344.591 173.574C342.089 175.867 339.886 178.468 338.035 181.314C335.495 185.174 333.52 189.377 332.169 193.795C330.466 199.306 329.664 205.056 329.793 210.822C329.793 211.611 329.793 212.41 329.891 213.208C329.99 214.007 329.99 214.825 330.088 215.644C330.187 216.462 330.305 217.28 330.424 218.108C330.524 218.948 330.673 219.78 330.867 220.603C331.045 221.431 331.222 222.279 331.4 223.127C331.577 223.975 331.883 224.803 332.119 225.661C332.353 226.523 332.632 227.372 332.957 228.204C333.273 229.042 333.549 229.91 333.943 230.748C335.408 234.242 337.218 237.581 339.346 240.716C341.677 243.995 344.354 247.013 347.332 249.717C350.556 252.487 354.09 254.876 357.862 256.836C361.885 258.781 366.11 260.276 370.462 261.292H370.383L456.307 244.019L505.288 234.218L530.922 229.092C535.24 228.175 539.657 227.534 543.847 226.055C548.087 224.636 552.114 222.646 555.816 220.139C564.609 214.2 571.322 205.657 575.012 195.708C578.589 186.042 579.109 175.51 576.501 165.539C573.985 155.925 568.706 147.26 561.318 140.614L560.657 139.993L559.977 139.51L558.557 138.396L557.137 137.282C556.664 136.917 556.152 136.621 555.639 136.296C554.653 135.665 553.667 134.965 552.612 134.393L549.457 132.747C548.931 132.475 548.392 132.232 547.84 132.017L546.204 131.357L544.567 130.686C544.015 130.499 543.453 130.341 542.891 130.174C541.767 129.848 540.663 129.454 539.529 129.188L536.127 128.497L535.279 128.32L534.412 128.231L532.696 128.054C531.562 127.898 530.42 127.816 529.275 127.807H525.864C524.73 127.866 523.606 128.004 522.492 128.093L520.806 128.241C520.254 128.32 519.702 128.438 519.15 128.547L515.867 129.168L509.379 130.637L484.484 136.621L439.792 147.398L375.066 162.877L357.458 167.116L352.873 168.201L351.306 168.497Z" fill="#263238"/>
<path d="M370.413 261.479L348.367 311.604C348.367 311.604 452.383 301.577 447.946 245.98L370.413 261.479Z" fill="#3A78BC"/>
<path d="M430.022 149.527C430.022 149.527 380.006 101 316.453 121.438L351.325 168.496L430.022 149.527Z" fill="#3A78BC"/>
<path d="M521.329 128.192C542.792 143.967 555.915 205.647 545.573 225.237C606.404 207.441 619.162 155.236 619.162 155.236C575.19 114.281 521.329 128.192 521.329 128.192Z" fill="#3A78BC"/>
<path d="M339.129 238.557C339.228 238.645 335.886 242.648 331.656 247.489C327.426 252.33 323.907 256.175 323.769 256.076C323.631 255.978 327.002 251.985 331.242 247.144C335.481 242.303 339.031 238.458 339.129 238.557Z" fill="#455A64"/>
<path d="M619.133 155.216C619.133 155.216 619.014 155.443 618.758 155.876L617.604 157.789L615.721 160.905C615.347 161.516 614.942 162.176 614.518 162.876L613 165.046C611.926 166.574 610.752 168.289 609.421 170.123L604.778 175.881C603.9 176.867 602.954 177.853 601.997 178.927C601.041 180.002 600.094 181.087 599.039 182.112C596.851 184.182 594.603 186.44 591.98 188.52C586.397 193.218 580.29 197.254 573.78 200.549C570.158 202.395 566.416 203.996 562.58 205.34C560.608 206.06 558.577 206.681 556.576 207.411C554.488 208.075 552.365 208.622 550.216 209.047C532.982 212.863 513.983 216.767 494.018 220.879C454.118 229.121 417.984 236.476 391.817 241.761L360.82 248.021L352.39 249.687L350.191 250.101C349.698 250.2 349.442 250.23 349.442 250.23L350.182 250.052L352.37 249.579L360.78 247.824L391.738 241.435L493.92 220.405C513.855 216.264 532.864 212.37 550.118 208.574C552.242 208.155 554.341 207.622 556.408 206.977C558.449 206.228 560.47 205.626 562.432 204.907C566.253 203.574 569.981 201.99 573.593 200.164C580.083 196.895 586.18 192.896 591.763 188.244C594.376 186.174 596.634 183.936 598.813 181.875C599.917 180.889 600.854 179.736 601.83 178.72C602.806 177.705 603.742 176.689 604.62 175.694L609.283 169.975C610.624 168.151 611.807 166.446 612.902 164.937L614.43 162.778L615.652 160.806L617.575 157.72C618.097 156.902 618.492 156.271 618.768 155.827C619.044 155.383 619.133 155.216 619.133 155.216Z" fill="#263238"/>
<path d="M460.852 243.467C460.852 243.467 460.783 243.408 460.674 243.27L460.191 242.658L458.387 240.292L457.086 238.567C456.632 237.926 456.179 237.196 455.666 236.427C454.68 234.889 453.438 233.174 452.324 231.143L450.5 227.988C449.869 226.893 449.317 225.69 448.695 224.478C447.404 222.072 446.29 219.381 445.057 216.59C439.978 204.248 437.057 191.125 436.421 177.794C436.342 174.728 436.204 171.819 436.352 169.088C436.411 167.728 436.352 166.407 436.499 165.145C436.647 163.883 436.716 162.67 436.815 161.516C436.963 159.2 437.347 157.129 437.594 155.305C437.742 154.398 437.84 153.55 437.988 152.771C438.136 151.992 438.294 151.302 438.432 150.661C438.698 149.419 438.905 148.453 439.063 147.704C439.132 147.398 439.191 147.151 439.24 146.944C439.29 146.737 439.309 146.688 439.319 146.698C439.326 146.787 439.326 146.876 439.319 146.964C439.319 147.161 439.24 147.418 439.191 147.723L438.659 150.681C438.54 151.322 438.402 152.022 438.254 152.791C438.107 153.56 438.038 154.418 437.909 155.335C437.692 157.159 437.338 159.219 437.209 161.526C437.121 162.68 437.022 163.893 436.933 165.145C436.845 166.397 436.854 167.718 436.815 169.088C436.687 171.81 436.815 174.708 436.923 177.765C437.59 191.037 440.486 204.102 445.491 216.413C446.704 219.213 447.798 221.904 449.07 224.3C449.691 225.513 450.233 226.706 450.845 227.81L452.639 230.965C453.724 233.006 454.926 234.731 455.903 236.279C456.405 237.058 456.888 237.788 457.293 238.438C457.697 239.089 458.17 239.651 458.545 240.184C459.284 241.169 459.856 242.027 460.28 242.609L460.714 243.25C460.768 243.316 460.814 243.389 460.852 243.467Z" fill="#263238"/>
<path d="M413.902 191.765L309.068 213.455C309.068 213.455 308.605 223.699 311.178 223.778C313.328 223.847 391.265 209.787 416.544 205.213C417.516 205.037 418.437 204.653 419.246 204.087C420.054 203.52 420.73 202.785 421.227 201.932C421.724 201.079 422.03 200.129 422.123 199.146C422.217 198.164 422.096 197.172 421.77 196.241C421.218 194.672 420.118 193.355 418.672 192.533C417.227 191.71 415.533 191.438 413.902 191.765Z" fill="#3A78BC"/>
<path d="M519.237 182.085C519.255 169.223 508.053 158.781 494.217 158.762C480.381 158.743 469.15 169.153 469.132 182.015C469.114 194.876 480.316 205.318 494.152 205.337C507.988 205.357 519.219 194.946 519.237 182.085Z" fill="#FAFAFA"/>
<path d="M519.248 182.093C519.238 181.961 519.238 181.829 519.248 181.698C519.248 181.412 519.189 181.038 519.16 180.555C519.16 180.298 519.16 180.022 519.1 179.707C519.041 179.391 518.992 179.066 518.923 178.721C518.854 178.376 518.795 177.971 518.726 177.557C518.657 177.143 518.489 176.709 518.361 176.246C518.072 175.236 517.713 174.248 517.286 173.288C515.456 169.336 512.583 165.958 508.975 163.518C505.892 161.416 502.385 160.016 498.702 159.416C497.697 159.246 496.683 159.14 495.665 159.101C495.142 159.101 494.62 159.032 494.097 159.042L492.51 159.12H491.711L490.903 159.229L489.286 159.466L487.679 159.85L486.861 160.037L486.072 160.313C481.558 161.748 477.554 164.452 474.537 168.102C471.262 172.008 469.467 176.942 469.467 182.038C469.467 187.135 471.262 192.069 474.537 195.974C477.542 199.631 481.536 202.345 486.042 203.793L486.841 204.069L487.659 204.266L489.266 204.651L490.883 204.887L491.682 205.006H492.49L494.078 205.084C494.6 205.084 495.123 205.084 495.635 205.035C496.653 204.997 497.668 204.891 498.672 204.72C502.333 204.128 505.817 202.734 508.876 200.638C513.463 197.682 516.817 193.158 518.312 187.91C518.43 187.446 518.578 187.022 518.667 186.608C518.755 186.194 518.815 185.8 518.874 185.435C518.933 185.07 519.002 184.745 519.051 184.449C519.1 184.153 519.051 183.857 519.11 183.611C519.15 183.125 519.179 182.74 519.199 182.457C519.207 182.328 519.223 182.2 519.248 182.073C519.259 182.204 519.259 182.336 519.248 182.467V183.611C519.248 183.867 519.248 184.153 519.248 184.469C519.248 184.784 519.15 185.119 519.091 185.455C519.031 185.79 518.972 186.214 518.913 186.638C518.854 187.062 518.686 187.486 518.568 187.959C518.291 188.992 517.938 190.004 517.513 190.986C516.989 192.15 516.372 193.271 515.669 194.338C513.942 196.935 511.729 199.175 509.152 200.934C506.031 203.084 502.472 204.515 498.731 205.124C497.711 205.298 496.68 205.407 495.645 205.449C495.123 205.449 494.59 205.518 494.058 205.508L492.451 205.439H491.633L490.814 205.321L489.168 205.084L487.531 204.7L486.703 204.503L485.894 204.227C481.29 202.761 477.206 199.999 474.132 196.27C470.777 192.28 468.937 187.233 468.937 182.019C468.937 176.805 470.777 171.758 474.132 167.767C477.237 164.056 481.344 161.318 485.963 159.88L486.772 159.613L487.6 159.416L489.247 159.032L490.893 158.795L491.702 158.687H492.52L494.137 158.618C494.669 158.618 495.202 158.667 495.724 158.687C496.759 158.727 497.79 158.839 498.81 159.022C502.514 159.629 506.039 161.047 509.133 163.173C511.707 164.936 513.914 167.183 515.63 169.788C516.952 171.737 517.929 173.898 518.519 176.177C518.637 176.64 518.765 177.074 518.854 177.498C518.943 177.922 518.982 178.316 519.031 178.681C519.081 179.046 519.14 179.381 519.189 179.667C519.238 179.953 519.189 180.259 519.189 180.515C519.189 181.008 519.189 181.383 519.189 181.669C519.221 181.808 519.241 181.95 519.248 182.093Z" fill="#263238"/>
<path d="M197.826 266.231C194.928 267.513 191.625 267.355 188.48 267.01C185.335 266.665 182.15 266.133 179.044 266.744C174.233 267.73 169.994 271.319 165.094 271.063C158.3 270.708 154.248 263.392 148.244 260.217C140.948 256.274 131.158 258.738 125.282 251.482C123.536 249.322 122.471 246.693 122.22 243.927C121.969 241.161 122.544 238.383 123.872 235.944C128.141 228.244 138 226.962 145.69 229.732C152.306 232.109 157.719 236.93 162.875 241.702C164.63 243.328 166.385 244.965 168.199 246.533C171.098 249.03 174.475 250.911 178.124 252.062C181.774 253.213 185.619 253.609 189.426 253.227C193.11 252.846 196.799 253.906 199.719 256.185C200.504 256.809 201.121 257.619 201.514 258.541C201.925 259.428 202.105 260.405 202.036 261.381C201.8 263.796 200.173 265.196 197.826 266.231Z" fill="#FF80B6"/>
<path d="M82.8787 256.424C80.4106 258.413 77.1795 259.115 74.0522 259.596C70.925 260.076 67.7111 260.386 64.8695 261.781C60.4773 263.978 57.3111 268.542 52.5117 269.563C45.8583 270.978 40.0507 264.96 33.4294 263.448C25.3614 261.527 16.5427 266.442 8.98869 260.953C6.74361 259.319 5.03379 257.055 4.07553 254.448C3.11727 251.841 2.95361 249.009 3.60526 246.31C5.73593 237.767 14.9275 233.977 23.0728 234.663C30.0779 235.246 36.554 238.502 42.7698 241.776C44.886 242.893 47.0047 244.02 49.1627 245.065C52.6094 246.727 56.3582 247.67 60.1809 247.837C64.0037 248.004 67.8205 247.392 71.3991 246.037C74.8593 244.716 78.6966 244.785 82.107 246.23C83.0266 246.63 83.832 247.252 84.4501 248.042C85.077 248.792 85.5034 249.689 85.6897 250.649C86.0864 253.044 84.8773 254.817 82.8787 256.424Z" fill="#FF80B6"/>
<path d="M12.637 170.336C15.7399 169.69 18.9363 170.536 21.9392 171.533C24.9422 172.529 27.9444 173.717 31.1092 173.77C36.0203 173.815 40.9178 171.194 45.6553 172.472C52.2231 174.242 54.6521 182.245 59.8577 186.607C66.1651 191.992 76.2545 191.634 80.4794 199.961C81.7334 202.439 82.2243 205.233 81.89 207.99C81.5558 210.747 80.4113 213.343 78.6015 215.45C72.8135 222.084 62.9046 221.271 55.9657 216.95C49.995 213.241 45.7129 207.392 41.6711 201.645C40.296 199.687 38.9231 197.719 37.4778 195.806C35.1664 192.757 32.2587 190.209 28.9317 188.319C25.6047 186.429 21.928 185.236 18.1251 184.812C14.4428 184.412 11.0582 182.602 8.68052 179.762C8.04379 178.988 7.61046 178.067 7.41981 177.082C7.20361 176.129 7.23256 175.136 7.50395 174.196C8.24155 171.884 10.1256 170.856 12.637 170.336Z" fill="#FF80B6"/>
<g opacity="0.8">
<path opacity="0.8" d="M197.826 266.231C194.928 267.513 191.625 267.355 188.48 267.01C185.335 266.665 182.15 266.133 179.044 266.744C174.233 267.73 169.994 271.319 165.094 271.063C158.3 270.708 154.248 263.392 148.244 260.217C140.948 256.274 131.158 258.738 125.282 251.482C123.536 249.322 122.471 246.693 122.22 243.927C121.969 241.161 122.544 238.383 123.872 235.944C128.141 228.244 138 226.962 145.69 229.732C152.306 232.109 157.719 236.93 162.875 241.702C164.63 243.328 166.385 244.965 168.199 246.533C171.098 249.03 174.475 250.911 178.124 252.062C181.774 253.213 185.619 253.609 189.426 253.227C193.11 252.846 196.799 253.906 199.719 256.185C200.504 256.809 201.121 257.619 201.514 258.541C201.925 259.428 202.105 260.405 202.036 261.381C201.8 263.796 200.173 265.196 197.826 266.231Z" fill="white"/>
</g>
<g opacity="0.8">
<path opacity="0.8" d="M82.8787 256.424C80.4106 258.413 77.1795 259.115 74.0522 259.596C70.925 260.076 67.7111 260.386 64.8695 261.781C60.4773 263.978 57.3111 268.542 52.5117 269.563C45.8583 270.978 40.0507 264.96 33.4294 263.448C25.3614 261.527 16.5427 266.442 8.98869 260.953C6.74361 259.319 5.03379 257.055 4.07553 254.448C3.11727 251.841 2.95361 249.009 3.60526 246.31C5.73593 237.767 14.9275 233.977 23.0728 234.663C30.0779 235.246 36.554 238.502 42.7698 241.776C44.886 242.893 47.0047 244.02 49.1627 245.065C52.6094 246.727 56.3582 247.67 60.1809 247.837C64.0037 248.004 67.8205 247.392 71.3991 246.037C74.8593 244.716 78.6966 244.785 82.107 246.23C83.0266 246.63 83.832 247.252 84.4501 248.042C85.077 248.792 85.5034 249.689 85.6897 250.649C86.0864 253.044 84.8773 254.817 82.8787 256.424Z" fill="white"/>
</g>
<g opacity="0.8">
<path opacity="0.8" d="M12.637 170.336C15.7399 169.69 18.9363 170.536 21.9392 171.533C24.9422 172.529 27.9444 173.717 31.1092 173.77C36.0203 173.815 40.9178 171.194 45.6553 172.472C52.2231 174.242 54.6521 182.245 59.8577 186.607C66.1651 191.992 76.2545 191.634 80.4794 199.961C81.7334 202.439 82.2243 205.233 81.89 207.99C81.5558 210.747 80.4113 213.343 78.6015 215.45C72.8135 222.084 62.9046 221.271 55.9657 216.95C49.995 213.241 45.7129 207.392 41.6711 201.645C40.296 199.687 38.9231 197.719 37.4778 195.806C35.1664 192.757 32.2587 190.209 28.9317 188.319C25.6047 186.429 21.928 185.236 18.1251 184.812C14.4428 184.412 11.0582 182.602 8.68052 179.762C8.04379 178.988 7.61046 178.067 7.41981 177.082C7.20361 176.129 7.23256 175.136 7.50395 174.196C8.24155 171.884 10.1256 170.856 12.637 170.336Z" fill="white"/>
</g>
<path d="M409.298 122.149C401.243 121.754 397.269 127.828 392.764 129.05C388.258 130.273 383.338 130.49 379.01 128.735C373.39 126.447 369.555 121.271 364.635 117.732C354.776 110.623 340.135 111.047 330.69 118.718C330.473 124.091 335.067 128.34 339.514 131.357C343.96 134.374 356.275 138.712 357.882 143.859C359.065 147.704 350.763 150.938 352.853 154.379C354.944 157.819 361.855 157.474 365.67 156.814C389.747 152.673 381.297 160.038 388.751 159.358C388.751 159.358 404.358 155.414 416.594 153.383" fill="#455A64"/>
<path d="M490.449 263.905L482.631 245.734L499.323 238.507L505.13 261.302L491.159 263.905" fill="#FFBE9D"/>
<path d="M505.12 258.344L510.05 274.267C510.05 274.267 527.865 274.642 529.058 277.501L498.495 288.08L489.868 263.589L505.12 258.344Z" fill="#FF80B6"/>
<g opacity="0.6">
<path opacity="0.6" d="M500.112 276.209C499.849 276.401 499.666 276.684 499.599 277.002C499.532 277.321 499.584 277.653 499.747 277.935C499.926 278.204 500.202 278.394 500.518 278.466C500.833 278.537 501.164 278.485 501.443 278.319C501.721 278.117 501.915 277.818 501.986 277.481C502.057 277.144 502 276.793 501.827 276.495C501.611 276.232 501.301 276.063 500.962 276.024C500.623 275.985 500.283 276.08 500.013 276.288" fill="white"/>
</g>
<g opacity="0.6">
<path opacity="0.6" d="M498.495 288.08L497.726 285.575L527.303 276.367C527.303 276.367 528.871 276.485 529.049 277.501L498.495 288.08Z" fill="white"/>
</g>
<path d="M510.454 273.941C510.454 274.089 509.774 274.414 509.212 275.144C508.65 275.874 508.462 276.643 508.305 276.633C508.147 276.623 508.078 275.647 508.778 274.809C509.478 273.971 510.434 273.793 510.454 273.941Z" fill="#263238"/>
<path d="M514.112 274.149C514.191 274.287 513.639 274.76 513.353 275.568C513.067 276.377 513.146 277.087 512.998 277.136C512.85 277.185 512.455 276.367 512.83 275.371C513.205 274.375 514.062 274.011 514.112 274.149Z" fill="#263238"/>
<path d="M517.257 277.352C517.129 277.431 516.665 276.761 516.764 275.804C516.862 274.848 517.454 274.296 517.553 274.395C517.651 274.493 517.385 275.085 517.316 275.864C517.247 276.643 517.405 277.283 517.257 277.352Z" fill="#263238"/>
<path d="M508.936 270.432C508.936 270.59 508.167 270.619 507.338 270.974C506.51 271.329 505.958 271.812 505.83 271.713C505.702 271.615 506.155 270.866 507.131 270.461C508.107 270.057 508.965 270.294 508.936 270.432Z" fill="#263238"/>
<path d="M507.89 267.237C507.437 267.551 506.904 267.732 506.352 267.759C505.769 267.85 505.177 267.873 504.588 267.828C504.239 267.795 503.893 267.739 503.552 267.661C503.345 267.629 503.145 267.563 502.961 267.463C502.826 267.391 502.72 267.277 502.657 267.138C502.595 266.998 502.58 266.843 502.616 266.694C502.657 266.564 502.727 266.445 502.821 266.346C502.915 266.247 503.03 266.17 503.158 266.122C503.349 266.058 503.548 266.019 503.75 266.004C504.104 265.975 504.46 265.975 504.814 266.004C505.412 266.057 505.998 266.203 506.55 266.438C507.536 266.852 507.92 267.325 507.881 267.375C507.841 267.424 507.319 267.098 506.412 266.803C505.885 266.632 505.338 266.533 504.785 266.507C504.457 266.482 504.127 266.482 503.799 266.507C503.444 266.507 503.168 266.625 503.138 266.793C503.109 266.96 503.138 266.882 503.237 266.96C503.371 267.025 503.514 267.072 503.661 267.099C503.985 267.183 504.314 267.245 504.647 267.286C505.203 267.354 505.764 267.371 506.323 267.335C506.843 267.268 507.366 267.235 507.89 267.237Z" fill="#263238"/>
<path d="M507.772 267.523C507.772 267.523 507.24 267.129 506.855 266.182C506.628 265.627 506.502 265.036 506.481 264.437C506.47 264.081 506.493 263.724 506.55 263.372C506.559 263.142 506.63 262.918 506.755 262.724C506.88 262.53 507.054 262.373 507.259 262.268C507.395 262.222 507.54 262.217 507.678 262.252C507.816 262.287 507.941 262.361 508.038 262.465C508.181 262.618 508.3 262.791 508.393 262.978C508.56 263.287 508.68 263.619 508.748 263.964C508.87 264.564 508.836 265.185 508.65 265.768C508.324 266.754 507.762 267.158 507.733 267.119C507.938 266.645 508.119 266.161 508.275 265.669C508.388 265.143 508.388 264.599 508.275 264.072C508.204 263.766 508.091 263.471 507.94 263.195C507.782 262.889 507.565 262.672 507.457 262.741C507.351 262.823 507.264 262.928 507.203 263.047C507.141 263.166 507.107 263.297 507.102 263.431C507.039 263.756 507.006 264.086 507.003 264.417C507.007 264.968 507.086 265.515 507.24 266.044C507.486 266.971 507.841 267.474 507.772 267.523Z" fill="#263238"/>
<path d="M410.619 122.749C410.619 122.749 396.155 151.39 405.877 158.104C415.598 164.819 461 198.932 461 198.932L484.159 260.779L505.85 251.905L487.778 179.519L442.149 138.524L410.619 122.749Z" fill="#263238"/>
<path d="M466.314 187.583C466.442 187.682 464.943 189.674 463.829 192.513C462.715 195.353 462.41 197.808 462.252 197.788C462.32 194.006 463.764 190.378 466.314 187.583Z" fill="#455A64"/>
<path d="M462.735 186.993C462.883 186.993 462.232 189.379 462.015 192.356C461.798 195.334 462.015 197.749 461.887 197.769C461.411 195.993 461.28 194.142 461.503 192.317C461.56 190.478 461.979 188.669 462.735 186.993Z" fill="#455A64"/>
<path d="M486.348 259.853C486.289 259.757 486.242 259.654 486.21 259.547C486.111 259.32 485.993 259.015 485.835 258.62C485.5 257.782 485.037 256.589 484.435 255.051C483.242 251.936 481.477 247.4 479.427 241.741C477.376 236.082 474.862 229.289 472.269 221.618C471.618 219.706 470.977 217.724 470.346 215.703C469.715 213.682 469.134 211.582 468.286 209.511C466.629 205.4 464.648 201.239 462.479 197.02L462.548 197.089C460.112 195.028 457.539 192.869 454.897 190.7C452.836 189.004 450.795 187.338 448.735 185.77L442.622 181.136C438.619 178.09 434.735 175.162 430.978 172.49C427.222 169.818 423.515 167.471 420.133 165.135C416.942 163.027 413.949 160.635 411.191 157.987C409.986 156.819 408.92 155.515 408.016 154.102C407.226 152.824 406.64 151.43 406.281 149.971C405.745 147.632 405.715 145.205 406.192 142.853C406.484 141.375 406.906 139.927 407.454 138.525C407.632 138.041 407.799 137.686 407.898 137.44C407.945 137.313 408.005 137.191 408.075 137.075C408.075 137.075 408.075 137.213 407.947 137.46C407.819 137.706 407.71 138.071 407.553 138.554C407.05 139.967 406.661 141.418 406.389 142.892C405.956 145.215 406.017 147.604 406.567 149.902C406.928 151.328 407.51 152.689 408.292 153.935C409.199 155.313 410.257 156.587 411.447 157.73C414.211 160.342 417.2 162.704 420.38 164.79C423.771 167.097 427.508 169.423 431.274 172.105C435.04 174.787 438.935 177.686 442.947 180.732L449.06 185.366C451.14 186.943 453.181 188.61 455.242 190.296C457.884 192.474 460.458 194.634 462.893 196.704V196.753C465.062 200.993 467.043 205.163 468.7 209.304C469.49 211.335 470.174 213.405 470.751 215.506C471.372 217.537 472.013 219.509 472.644 221.421C475.207 229.092 477.652 235.885 479.693 241.564L484.563 254.923C485.125 256.471 485.549 257.684 485.875 258.532L486.2 259.517C486.265 259.622 486.315 259.734 486.348 259.853Z" fill="#455A64"/>
<path d="M428.454 131.918L456.415 135.882L470.751 139.53L451.121 146.569L428.454 131.918Z" fill="#263238"/>
<path d="M394.223 129.897C394.063 130.148 393.867 130.374 393.641 130.568C393.078 131.145 392.479 131.685 391.847 132.185C387.67 135.528 382.638 137.629 377.324 138.248C376.526 138.346 375.722 138.392 374.918 138.386C374.621 138.417 374.321 138.397 374.031 138.327C374.031 138.238 375.283 138.199 377.275 137.883C379.865 137.485 382.398 136.773 384.817 135.764C387.234 134.747 389.521 133.447 391.63 131.889C393.247 130.696 394.164 129.838 394.223 129.897Z" fill="#263238"/>
<path d="M414.296 88.9617L408.903 129.503C408.903 129.503 426.828 128.33 439.467 132.53C452.107 136.73 459.876 136.612 459.876 136.612L457.233 111.392L466.669 90.6871L470.82 114.892L490.203 134.847L502.833 131.988L489.74 110.061L480.649 65.3783C479.882 61.6537 477.865 58.3034 474.931 55.8838L474.566 55.5881L455.538 44.9795L449.149 45.1077C443.75 45.2254 438.369 45.7794 433.059 46.764C429.744 47.3806 426.703 49.01 424.353 51.4275C422.238 53.8022 420.714 56.6434 419.906 59.7191L414.296 88.9617Z" fill="#FF80B6"/>
<path d="M474.744 72.0039C474.628 72.4551 474.47 72.8942 474.27 73.3152L472.831 76.7857C471.589 79.7434 469.873 83.7364 467.901 88.1731L462.853 99.5211C462.222 100.892 461.69 102.035 461.286 102.942C461.108 103.367 460.901 103.779 460.665 104.175C460.753 103.721 460.899 103.28 461.098 102.863C461.424 102.025 461.907 100.842 462.518 99.3732C463.741 96.4155 465.476 92.4126 467.448 87.9661C469.42 83.5195 471.204 79.5265 472.525 76.6378L474.122 73.2265C474.287 72.7985 474.495 72.3888 474.744 72.0039Z" fill="#263238"/>
<path d="M420.961 64.9444C424.668 75.2769 431.807 98.8702 435.277 107.97C436.343 110.731 438.126 113.158 440.443 115L478.894 142.202L487.768 130.656L458.949 102.853L443.411 56.8204C441.222 50.6781 432.142 47.3456 426.502 50.6287C422.223 53.1626 419.295 60.212 420.961 64.9444Z" fill="#FF80B6"/>
<path d="M444.16 58.7329C444.16 58.7329 444.269 58.9991 444.456 59.5216L445.284 61.8682C445.994 63.9485 447.039 66.9555 448.35 70.7908L459.196 102.784L459.136 102.695L488.004 130.469L488.162 130.627L488.024 130.804L481.635 139.116C480.777 140.22 479.93 141.334 479.141 142.359L478.993 142.556L478.786 142.409L449.267 121.142L442.652 116.38L441.064 115.236C440.524 114.868 440.01 114.463 439.526 114.024C438.588 113.147 437.766 112.153 437.081 111.066C436.426 110.027 435.887 108.92 435.474 107.763L434.202 104.49C433.394 102.35 432.625 100.29 431.915 98.308C429.085 90.4206 426.985 83.9726 425.585 79.5162C424.895 77.2979 424.363 75.5725 423.988 74.3796C423.82 73.8077 423.682 73.3936 423.594 73.0387C423.546 72.8864 423.507 72.7317 423.475 72.5753C423.475 72.5753 423.534 72.7232 423.643 73.0289C423.751 73.3345 423.889 73.788 424.087 74.35C424.471 75.5331 425.073 77.2486 425.773 79.4571C427.242 83.8938 429.371 90.3023 432.25 98.1897C432.97 100.162 433.749 102.212 434.567 104.352C434.991 105.417 435.415 106.511 435.849 107.615C436.259 108.744 436.792 109.825 437.436 110.839C438.109 111.882 438.911 112.836 439.822 113.679C440.292 114.107 440.792 114.499 441.321 114.852L442.918 115.996L449.553 120.777L479.131 142.004H478.786L481.28 138.761L487.669 130.459V130.794L458.86 103.031V102.981C454.424 89.7009 450.746 78.6684 448.163 70.9288L445.205 61.9667L444.446 59.6104C444.229 59.009 444.16 58.7329 444.16 58.7329Z" fill="#263238"/>
<path d="M440.483 53.1131C440.423 53.1723 439.783 52.5018 438.511 51.723C436.887 50.7022 435.028 50.1178 433.112 50.0262C431.197 49.9347 429.29 50.3391 427.577 51.2004C426.256 51.8511 425.556 52.4624 425.496 52.3934C426.015 51.7527 426.668 51.2343 427.409 50.8751C429.152 49.8903 431.138 49.4187 433.137 49.5146C435.136 49.6106 437.068 50.2702 438.708 51.4173C439.415 51.8482 440.02 52.4267 440.483 53.1131Z" fill="#263238"/>
<path d="M490.587 110.662C490.587 110.82 488.763 110.662 486.644 111.155C484.524 111.648 482.996 112.654 482.907 112.516C483.898 111.545 485.159 110.896 486.525 110.652C487.849 110.241 489.266 110.244 490.587 110.662Z" fill="#263238"/>
<path d="M426.019 80.4825C425.895 80.5296 425.766 80.5627 425.635 80.5811C425.283 80.6581 424.928 80.714 424.57 80.7487C423.382 80.8723 422.182 80.7956 421.02 80.522C419.512 80.1216 418.111 79.3909 416.919 78.3825C416.813 78.3017 416.717 78.2091 416.633 78.1064C417.972 79.0951 419.474 79.8425 421.07 80.3149C422.7 80.6383 424.371 80.6949 426.019 80.4825Z" fill="#FAFAFA"/>
<path d="M429.016 89.277C428.429 88.884 427.821 88.5252 427.192 88.2024C425.642 87.4802 423.97 87.0555 422.263 86.9503C420.557 86.8447 418.845 86.881 417.146 87.0587L415.598 87.2066C415.407 87.2199 415.216 87.2199 415.026 87.2066C415.209 87.1512 415.397 87.1149 415.588 87.0981C415.953 87.039 416.475 86.97 417.136 86.8911C418.838 86.6655 420.559 86.606 422.273 86.7136C423.987 86.8279 425.663 87.2803 427.202 88.0446C427.666 88.2811 428.108 88.5583 428.523 88.8728C428.705 88.9846 428.871 89.1206 429.016 89.277Z" fill="#FAFAFA"/>
<g opacity="0.4">
<path opacity="0.4" d="M424.047 74.3398C424.047 74.3398 425.033 89.7598 426.187 96.888C427.34 104.016 429.588 111.273 434.695 116.37C439.802 121.467 447.138 123.774 454.266 125.243C451.959 123.508 449.711 121.723 447.493 119.88C444.643 117.514 440.463 115.197 438.166 112.278C433.749 106.668 432.792 99.5796 430.515 92.8161C428.425 86.5653 426.147 80.6202 424.047 74.3793" fill="black"/>
</g>
<path d="M450.825 80.3546C450.578 80.53 450.305 80.6663 450.017 80.7588C449.226 81.0386 448.39 81.1657 447.552 81.1335C445.432 81.1335 442.622 80.1476 439.428 80.4335C436.71 80.644 434.08 81.4882 431.747 82.8983C431.044 83.3276 430.369 83.8019 429.726 84.318L429.213 84.7519C429.095 84.8505 429.026 84.8997 429.026 84.8899C429.807 84.0674 430.696 83.3544 431.668 82.7701C434.009 81.3098 436.667 80.4371 439.418 80.2264C442.652 79.9208 445.481 80.9757 447.552 80.9856C448.375 81.032 449.199 80.9318 449.987 80.6898C450.539 80.5518 450.815 80.3546 450.825 80.3546Z" fill="#FAFAFA"/>
<path d="M447.966 72.9113C447.904 72.9603 447.838 73.0032 447.769 73.0395L447.207 73.3648C446.714 73.6507 445.984 74.0254 445.067 74.4592C440.254 76.7125 435.029 77.9541 429.716 78.1071C428.73 78.1071 427.873 78.1071 427.311 78.1071H426.66C426.585 78.1143 426.509 78.1143 426.433 78.1071H426.66H427.311C427.873 78.1071 428.701 78.1071 429.706 78.0578C432.341 77.9421 434.958 77.579 437.525 76.9733C440.092 76.3554 442.596 75.5039 445.008 74.4296C445.925 74.0155 446.664 73.6508 447.167 73.4437L447.749 73.1479C447.887 72.931 447.956 72.9014 447.966 72.9113Z" fill="#FAFAFA"/>
<path d="M469.804 80.9953L469.538 80.9362C469.283 80.8653 469.033 80.7797 468.789 80.6799C467.901 80.2889 467.088 79.7487 466.383 79.0827C464.51 77.4855 462.784 74.4882 459.876 72.1812C456.639 69.5973 452.734 67.9868 448.617 67.5374L447.838 67.4586C447.75 67.4754 447.659 67.4754 447.571 67.4586C448.9 67.4546 450.225 67.6136 451.515 67.9318C454.628 68.659 457.539 70.0739 460.034 72.0727C461.386 73.1917 462.612 74.4546 463.691 75.8389C464.553 76.9708 465.495 78.0384 466.511 79.0334C467.2 79.6987 467.993 80.2481 468.858 80.6601C469.439 80.8968 469.814 80.9658 469.804 80.9953Z" fill="#FAFAFA"/>
<path d="M468.651 85.6986C468.37 85.6368 468.093 85.5577 467.822 85.462C467.107 85.1603 466.442 84.7514 465.851 84.2493C464.976 83.4956 464.167 82.6676 463.435 81.7747C462.54 80.7019 461.55 79.712 460.477 78.8169C459.379 77.9471 458.069 77.3856 456.681 77.1901C455.551 77.0316 454.406 77.0085 453.27 77.1211C452.284 77.2098 451.505 77.3281 450.963 77.3971L450.332 77.4859C450.26 77.4968 450.187 77.4968 450.115 77.4859C450.18 77.4544 450.25 77.4344 450.322 77.4267L450.943 77.2985C451.486 77.2 452.274 77.0619 453.25 76.9633C454.399 76.8156 455.562 76.8156 456.711 76.9633C458.153 77.1417 459.518 77.7149 460.655 78.6197C461.737 79.5329 462.728 80.55 463.612 81.6564C464.34 82.5411 465.13 83.3714 465.979 84.1409C466.572 84.6483 467.237 85.0667 467.951 85.3832C468.365 85.5902 468.651 85.6789 468.651 85.6986Z" fill="#FAFAFA"/>
<path d="M483.755 82.5243C483.042 82.3309 482.303 82.2576 481.566 82.3074C480.768 82.3771 479.982 82.5528 479.23 82.83C478.382 83.1257 477.475 83.5596 476.518 83.9934C475.621 84.4164 474.683 84.7468 473.718 84.9793C472.92 85.1642 472.096 85.2076 471.283 85.1075C470.734 85.0323 470.203 84.8586 469.715 84.5948C469.558 84.5116 469.409 84.4125 469.272 84.299C469.903 84.6805 470.609 84.9225 471.342 85.0089C472.135 85.09 472.935 85.0333 473.708 84.8413C474.659 84.6049 475.584 84.2746 476.469 83.8553C477.455 83.4215 478.342 82.9976 479.21 82.7018C479.979 82.4314 480.782 82.2656 481.596 82.2088C482.146 82.1755 482.698 82.2288 483.232 82.3666C483.412 82.3998 483.587 82.4527 483.755 82.5243Z" fill="#FAFAFA"/>
<path d="M485.313 87.887C484.525 87.2935 483.577 86.95 482.592 86.901C481.531 86.8656 480.476 87.0573 479.496 87.463C478.305 87.9936 477.178 88.6549 476.134 89.4349C475.08 90.2214 473.962 90.9173 472.791 91.5152C471.82 91.9911 470.765 92.2756 469.686 92.3532C468.959 92.3958 468.23 92.2884 467.546 92.0377C467.295 91.9429 467.057 91.817 466.836 91.6631C467.717 92.0956 468.698 92.2829 469.676 92.2053C470.732 92.1097 471.762 91.8188 472.713 91.3476C473.864 90.7385 474.969 90.0431 476.015 89.2673C477.075 88.4842 478.219 87.8228 479.427 87.2954C480.433 86.8882 481.517 86.7065 482.601 86.763C483.333 86.8048 484.044 87.0139 484.682 87.3743C484.915 87.5153 485.127 87.6878 485.313 87.887Z" fill="#FAFAFA"/>
<g opacity="0.4">
<path opacity="0.4" d="M468.917 103.761C470.889 95.6864 471.322 86.9412 471.608 78.6299C470.908 81.5384 469.124 84.0525 468.02 86.8427C467.487 88.1638 466.649 90.5695 466.649 90.5695L468.877 103.564" fill="black"/>
</g>
<path d="M455.903 8.77588C455.793 9.52016 455.48 10.2197 454.998 10.7974C454.516 11.375 453.884 11.8082 453.171 12.0492C452.363 12.3154 451.476 12.3154 450.677 12.621C450.266 12.7371 449.908 12.99 449.66 13.3378C449.413 13.6857 449.291 14.1076 449.317 14.5337C449.455 15.1647 450.036 15.5689 450.509 15.9929C450.983 16.4168 451.417 17.0872 451.14 17.6591C450.864 18.2309 449.928 18.3492 449.455 18.8718C449.238 19.1738 449.131 19.5403 449.151 19.9112C449.171 20.2821 449.316 20.6352 449.563 20.9126C450.072 21.4546 450.661 21.9166 451.308 22.2831C451.959 22.6566 452.44 23.268 452.649 23.9887" fill="#263238"/>
<path d="M485.145 21.5835C487.314 16.9989 485.737 11.2904 482.355 7.50445C478.973 3.71849 474.122 1.58889 469.252 0.179012C468.552 -0.0181736 467.684 -0.166066 467.191 0.376194C467.007 0.638611 466.919 0.956689 466.942 1.27653C466.966 1.59637 467.099 1.8983 467.32 2.13115C467.776 2.58898 468.338 2.92756 468.956 3.11708C466.989 2.08981 464.823 1.50117 462.607 1.39171C461.831 1.33236 461.054 1.49658 460.369 1.86495C460.035 2.06085 459.771 2.35635 459.613 2.70999C459.456 3.06362 459.413 3.45766 459.491 3.8368C459.55 4.02276 459.652 4.19194 459.789 4.33001C459.927 4.46808 460.096 4.57098 460.281 4.62999C460.467 4.689 460.664 4.70238 460.856 4.66899C461.048 4.63561 461.229 4.55645 461.384 4.43822C459.274 4.20911 457.149 4.70644 455.36 5.84809C454.098 6.65655 452.945 8.05657 453.25 9.52561C453.572 10.3449 453.941 11.1448 454.355 11.9214C454.877 13.4496 454.118 15.0862 453.536 16.5848C452.571 18.9153 452.231 21.4574 452.55 23.9596C452.715 25.2093 453.154 26.4072 453.836 27.4674C454.517 28.5276 455.425 29.4239 456.494 30.092" fill="#263238"/>
<path d="M454.907 60.2416C453.606 59.8929 452.387 59.2872 451.324 58.4603C450.26 57.6334 449.373 56.602 448.714 55.4268C448.055 54.2517 447.638 52.9566 447.488 51.6178C447.337 50.2791 447.456 48.9237 447.838 47.6316L456.889 16.989C457.387 15.1188 458.256 13.3675 459.443 11.8388C460.63 10.3102 462.112 9.03517 463.8 8.08926C465.489 7.14335 467.35 6.54576 469.274 6.33183C471.198 6.11791 473.145 6.29201 475 6.84383L475.71 7.10016C479.153 8.34587 482.002 10.8415 483.69 14.0911C485.378 17.3407 485.781 21.1064 484.82 24.6398C482.956 31.4526 480.807 38.9653 479.476 42.5048C476.725 49.8302 468.956 48.3119 468.956 48.3119L467.044 53.8035C466.208 56.2116 464.492 58.2142 462.241 59.4086C459.989 60.6029 457.369 60.9006 454.907 60.2416Z" fill="#FFBE9D"/>
<path d="M469.005 48.2136C465.586 47.0491 462.59 44.8939 460.398 42.022C460.398 42.022 460.753 48.1347 468.286 50.1263L469.005 48.2136Z" fill="#EB996E"/>
<path d="M467.615 11.3393C467.014 10.0182 466.255 7.13929 465.229 6.10407C464.204 5.06885 462.538 5.41392 461.138 5.80829C460.417 6.01724 459.756 6.39431 459.209 6.90851C458.662 7.42271 458.245 8.05934 457.993 8.76607C456.021 14.0605 455.824 19.069 454.384 24.2747C454.253 24.6138 454.222 24.9834 454.295 25.3395C454.572 26.217 455.538 26.5325 456.455 26.6705C458.712 26.9959 459.866 25.3494 460.931 23.3676C461.289 22.1675 461.553 20.9412 461.72 19.7C461.846 17.9588 462.427 16.2814 463.407 14.8363C464.387 13.3913 465.729 12.2294 467.3 11.4675L467.615 11.3393Z" fill="#263238"/>
<path d="M458.16 21.1991C458.062 21.1005 453.645 17.8765 451.988 22.9639C450.332 28.0513 455.784 28.6725 455.843 28.5246C455.903 28.3767 458.16 21.1991 458.16 21.1991Z" fill="#FFBE9D"/>
<path d="M454.917 26.1282C454.917 26.1282 454.808 26.1282 454.631 26.1874C454.389 26.2029 454.151 26.1292 453.96 25.9803C453.7 25.6645 453.53 25.2852 453.466 24.8813C453.402 24.4775 453.446 24.0639 453.595 23.6831C453.725 23.2416 453.95 22.8342 454.256 22.4902C454.356 22.3479 454.489 22.2317 454.644 22.1511C454.798 22.0705 454.969 22.0279 455.143 22.0268C455.253 22.0364 455.356 22.0824 455.436 22.1575C455.517 22.2325 455.57 22.3322 455.587 22.4409C455.587 22.6085 455.587 22.6972 455.587 22.7169C455.587 22.7366 455.725 22.6676 455.755 22.4409C455.765 22.3053 455.731 22.17 455.656 22.0564C455.603 21.9812 455.536 21.9173 455.458 21.8683C455.38 21.8192 455.293 21.786 455.203 21.7704C454.98 21.7454 454.754 21.7776 454.547 21.8638C454.34 21.9501 454.159 22.0876 454.019 22.2634C453.663 22.6339 453.4 23.0831 453.25 23.5747C453.079 24.0207 453.044 24.5071 453.147 24.9734C453.25 25.4397 453.489 25.8653 453.832 26.1972C453.955 26.2811 454.095 26.3362 454.241 26.3583C454.388 26.3805 454.538 26.3693 454.68 26.3254C454.867 26.217 454.926 26.1282 454.917 26.1282Z" fill="#EB996E"/>
<path d="M465.653 12.4342C468.158 10.7187 470.741 11.5666 472.466 12.5722C474.191 13.5778 475.651 14.9976 477.396 15.9145C479.141 16.8314 481.477 17.1469 483.055 15.9145C483.611 15.417 484.059 14.8099 484.369 14.1312C484.68 13.4526 484.847 12.717 484.859 11.9708C484.971 10.5506 484.801 9.12227 484.357 7.76841C483.914 6.41456 483.207 5.16206 482.276 4.08337C481.793 3.52139 481.044 2.97913 480.363 3.27491C479.525 3.64956 479.663 4.87211 479.93 5.74958C479.93 5.74958 471.372 2.58476 466.127 4.40872C460.881 6.23269 465.653 12.4342 465.653 12.4342Z" fill="#263238"/>
<path d="M468.868 0.0805664C468.868 0.0805664 468.966 0.455219 469.232 1.06649C469.634 1.91657 470.185 2.68787 470.859 3.34398C471.859 4.31893 473.012 5.12475 474.27 5.72992C475.013 6.07892 475.794 6.34031 476.597 6.50881C477.435 6.69613 478.332 6.8243 479.239 7.07079C480.149 7.29371 480.996 7.72204 481.714 8.32292C482.373 8.89581 482.884 9.6197 483.203 10.4328C483.495 11.1714 483.6 11.9707 483.509 12.7596C483.419 13.4395 483.169 14.0883 482.779 14.6526C482.223 15.4748 481.407 16.0861 480.462 16.3878C480.205 16.4603 479.94 16.5001 479.673 16.5061C479.496 16.5061 479.397 16.5061 479.397 16.5061C479.397 16.5061 479.782 16.5061 480.383 16.2399C481.253 15.8996 481.991 15.292 482.493 14.5047C482.834 13.9679 483.049 13.3614 483.124 12.73C483.193 12.0074 483.081 11.2791 482.799 10.6103C482.5 9.85121 482.023 9.17498 481.409 8.63841C480.743 8.09622 479.965 7.70893 479.131 7.5046C478.263 7.26797 477.366 7.12994 476.508 6.93276C475.675 6.75352 474.867 6.47204 474.103 6.09472C472.811 5.45766 471.64 4.60021 470.642 3.56089C469.963 2.86354 469.433 2.03489 469.084 1.12565C468.991 0.877914 468.928 0.619652 468.897 0.356625C468.87 0.267298 468.86 0.173628 468.868 0.0805664Z" fill="#455A64"/>
<path d="M463.218 1.61816C463.218 1.61816 463.346 1.99282 463.632 2.60409C464.06 3.48954 464.656 4.2832 465.387 4.94074C466.485 5.9065 467.771 6.63489 469.163 7.0802C470.885 7.61894 472.645 8.0276 474.428 8.30275C476.248 8.56458 478.023 9.07548 479.703 9.82108C480.462 10.1867 481.071 10.8031 481.428 11.5662C481.69 12.2494 481.732 12.9976 481.547 13.7056C481.255 14.707 480.606 15.5665 479.723 16.1212C479.493 16.2733 479.248 16.4021 478.993 16.5057C478.906 16.5497 478.813 16.5797 478.717 16.5944C478.717 16.5944 479.062 16.3972 479.624 15.9733C480.417 15.4066 480.985 14.5797 481.231 13.6366C481.389 13.0046 481.344 12.3389 481.103 11.7338C480.769 11.0574 480.212 10.5174 479.525 10.2056C477.874 9.50201 476.137 9.01807 474.359 8.76614C472.556 8.48529 470.778 8.0566 469.045 7.48443C467.61 7.0092 466.295 6.22887 465.19 5.19708C464.453 4.49264 463.875 3.63884 463.494 2.69283C463.394 2.43779 463.318 2.17366 463.267 1.90408C463.231 1.81327 463.214 1.71587 463.218 1.61816Z" fill="#455A64"/>
<path d="M479.91 28.1794C479.81 28.4782 479.598 28.7262 479.318 28.87C479.037 29.0138 478.712 29.0419 478.411 28.9484C478.261 28.9108 478.12 28.8432 477.996 28.7498C477.872 28.6564 477.769 28.539 477.691 28.4046C477.614 28.2703 477.565 28.1217 477.546 27.9678C477.527 27.8139 477.54 27.6578 477.583 27.5089C477.685 27.209 477.899 26.9603 478.18 26.815C478.461 26.6697 478.788 26.6393 479.092 26.7301C479.241 26.7699 479.382 26.8393 479.504 26.9341C479.627 27.029 479.73 27.1474 479.806 27.2824C479.882 27.4175 479.931 27.5664 479.948 27.7204C479.966 27.8744 479.953 28.0305 479.91 28.1794Z" fill="#263238"/>
<path d="M482.089 27.5285C481.892 27.6271 481.251 26.6905 480.009 26.2665C478.766 25.8426 477.662 26.1383 477.583 25.9412C477.504 25.744 477.77 25.6355 478.273 25.4876C478.93 25.3045 479.627 25.3273 480.271 25.553C480.914 25.7787 481.473 26.1963 481.872 26.7496C482.158 27.1736 482.187 27.4891 482.089 27.5285Z" fill="#263238"/>
<path d="M467.724 24.6697C467.622 24.9693 467.408 25.2174 467.126 25.3611C466.844 25.5048 466.517 25.5326 466.215 25.4388C466.066 25.4 465.926 25.3317 465.803 25.2378C465.68 25.1439 465.578 25.0264 465.502 24.8921C465.425 24.7579 465.377 24.6097 465.359 24.4563C465.341 24.303 465.354 24.1475 465.397 23.9993C465.497 23.7001 465.709 23.4515 465.988 23.3061C466.268 23.1607 466.594 23.13 466.896 23.2204C467.046 23.2592 467.188 23.3278 467.312 23.4222C467.435 23.5166 467.539 23.6348 467.616 23.77C467.693 23.9051 467.743 24.0544 467.761 24.2089C467.78 24.3635 467.767 24.5202 467.724 24.6697Z" fill="#263238"/>
<path d="M469.893 23.5458C469.696 23.6542 469.055 22.7077 467.822 22.2838C466.59 21.8599 465.466 22.1556 465.387 21.9584C465.308 21.7613 465.584 21.6528 466.077 21.5049C466.726 21.3265 467.414 21.3506 468.049 21.5739C468.691 21.7935 469.247 22.2112 469.636 22.7669C469.952 23.1711 469.982 23.5063 469.893 23.5458Z" fill="#263238"/>
<path d="M471.244 34.2531C471.965 34.2758 472.68 34.3885 473.373 34.5883C473.698 34.6672 474.014 34.7066 474.142 34.5094C474.278 34.1996 474.319 33.8566 474.26 33.5235C474.26 32.6559 474.192 31.7488 474.162 30.8023C474.001 28.4704 474.031 26.1293 474.251 23.8022C474.589 26.1165 474.748 28.4537 474.724 30.7925C474.724 31.7784 474.724 32.646 474.724 33.5136C474.793 33.9621 474.698 34.4205 474.458 34.8052C474.375 34.9003 474.271 34.9753 474.155 35.0249C474.039 35.0744 473.913 35.097 473.787 35.0911C473.593 35.0883 473.401 35.0585 473.215 35.0024C472.53 34.8342 471.868 34.5826 471.244 34.2531Z" fill="#263238"/>
<path d="M467.3 33.8484C467.497 33.8484 467.034 35.2386 467.852 36.5893C468.67 37.94 470.149 38.2851 470.09 38.4823C470.031 38.6795 469.686 38.6302 469.104 38.4823C468.316 38.2215 467.646 37.6908 467.211 36.9837C466.789 36.3078 466.651 35.4931 466.827 34.716C466.915 34.085 467.172 33.809 467.3 33.8484Z" fill="#263238"/>
<path d="M471.894 18.8231C471.648 19.1189 470.475 18.5372 468.936 18.202C467.398 17.8668 466.127 17.8668 466.038 17.502C466.038 17.3245 466.314 17.078 466.896 16.9203C467.661 16.734 468.459 16.726 469.229 16.897C469.998 17.0679 470.718 17.4132 471.332 17.9062C471.825 18.3302 472.003 18.6851 471.894 18.8231Z" fill="#263238"/>
<path d="M482.887 23.8019C482.572 24.0089 481.823 23.4272 480.807 23.0526C479.792 22.6779 478.835 22.5892 478.756 22.2244C478.756 22.0568 478.953 21.8202 479.417 21.6821C480.036 21.544 480.682 21.5909 481.274 21.8171C481.867 22.0432 482.38 22.4386 482.749 22.954C483.006 23.3681 483.075 23.7033 482.887 23.8019Z" fill="#263238"/>
<path d="M459.649 133.191C460.75 133.592 461.672 134.371 462.25 135.39C462.828 136.409 463.025 137.601 462.804 138.752L456.139 141.384L454.621 134.975L459.649 133.191Z" fill="#455A64"/>
<path d="M403.708 133.171C403.708 133.171 417.047 131.791 425.398 134.739C433.749 137.687 444.2 139.885 448.804 138.85C451.269 138.249 453.472 136.865 455.084 134.906C455.084 134.906 441.794 133.309 435.533 131.288C431.323 129.927 423.002 120.492 407.602 122.77L403.708 133.171Z" fill="#455A64"/>
<path d="M457.155 138.002C456.68 136.784 455.947 135.684 455.005 134.778L455.124 134.936C453.727 134.997 452.339 135.198 450.983 135.537C449.623 135.887 448.401 136.644 447.483 137.706C447.167 138.043 446.991 138.487 446.99 138.948C447.055 139.248 447.181 139.53 447.361 139.778C447.541 140.026 447.77 140.233 448.035 140.388C449.254 141.487 450.678 142.335 452.225 142.882C453.003 143.142 453.839 143.172 454.634 142.967C455.428 142.763 456.146 142.332 456.701 141.729C457.072 141.19 457.307 140.57 457.385 139.921C457.464 139.272 457.385 138.614 457.155 138.002Z" fill="#455A64"/>
<path d="M447.473 137.538C447.552 137.255 447.697 136.994 447.897 136.779C448.43 136.192 449.111 135.76 449.869 135.527C450.992 135.153 452.188 135.051 453.359 135.231C454.081 135.339 454.772 135.601 455.384 135.999C455.996 136.397 456.516 136.922 456.908 137.538C457.313 138.187 457.509 138.944 457.47 139.707C457.416 140.421 457.159 141.105 456.731 141.679C456.342 142.193 455.81 142.58 455.202 142.793C454.676 142.971 454.119 143.038 453.566 142.99C452.776 142.915 452.002 142.722 451.269 142.418C451.012 142.32 450.815 142.231 450.677 142.162C450.606 142.136 450.54 142.1 450.48 142.054L450.697 142.123L451.298 142.339C452.03 142.613 452.797 142.783 453.576 142.842C454.136 142.895 454.7 142.806 455.217 142.583C455.733 142.361 456.186 142.013 456.534 141.57C456.963 141.009 457.208 140.329 457.236 139.624C457.264 138.918 457.074 138.22 456.691 137.627C456.313 137.035 455.813 136.532 455.225 136.149C454.637 135.767 453.974 135.514 453.28 135.408C452.139 135.221 450.97 135.305 449.869 135.655C449.123 135.869 448.445 136.27 447.897 136.818C447.731 137.043 447.589 137.284 447.473 137.538Z" fill="#263238"/>
<path d="M450.293 137.755C450.045 137.508 449.782 137.278 449.504 137.065C449.189 136.872 448.859 136.704 448.518 136.562C448.872 136.631 449.209 136.773 449.506 136.978C449.803 137.184 450.054 137.448 450.243 137.755H450.293Z" fill="#FAFAFA"/>
<path d="M452.452 137.854C452.452 137.854 452.146 137.548 451.732 137.203C451.318 136.858 450.953 136.632 450.963 136.612C451.274 136.725 451.559 136.9 451.801 137.125C452.062 137.324 452.283 137.572 452.452 137.854Z" fill="#FAFAFA"/>
<path d="M453.329 142.468C453.329 142.468 453.28 142.241 453.171 141.886C453.026 141.434 452.821 141.002 452.56 140.605C452.283 140.211 451.951 139.859 451.574 139.56C451.288 139.323 451.091 139.205 451.101 139.195C451.285 139.279 451.46 139.381 451.624 139.5C452.007 139.797 452.34 140.153 452.609 140.555C452.878 140.957 453.078 141.4 453.201 141.867C453.266 142.062 453.309 142.264 453.329 142.468Z" fill="#FAFAFA"/>
<path d="M455.518 140.743C455.507 140.552 455.507 140.362 455.518 140.171C455.528 139.712 455.495 139.253 455.419 138.801C455.337 138.351 455.208 137.912 455.035 137.489C454.907 137.164 454.808 136.967 454.818 136.957C454.828 136.947 454.818 136.957 454.907 137.085C454.979 137.206 455.045 137.331 455.104 137.46C455.295 137.885 455.434 138.332 455.518 138.791C455.601 139.246 455.624 139.71 455.587 140.171C455.597 140.312 455.597 140.454 455.587 140.595C455.568 140.646 455.545 140.696 455.518 140.743Z" fill="#FAFAFA"/>
<path d="M455.528 136.631C453.376 137.362 451.485 138.706 450.086 140.496C450.225 140.19 450.411 139.907 450.638 139.658C451.673 138.388 453.037 137.426 454.581 136.878C454.883 136.75 455.202 136.667 455.528 136.631Z" fill="#263238"/>
<path d="M452.225 135.566C451.485 136.124 450.865 136.825 450.401 137.627C449.99 138.456 449.746 139.357 449.681 140.279C449.628 140.006 449.628 139.724 449.681 139.451C449.736 138.777 449.93 138.122 450.253 137.528C450.578 136.933 451.017 136.407 451.545 135.98C451.742 135.799 451.973 135.658 452.225 135.566Z" fill="#263238"/>
<path d="M455.883 142.468C455.883 142.468 455.824 142.143 455.626 141.67C455.36 141.059 454.959 140.516 454.453 140.082C453.25 139.096 452.038 138.554 452.087 138.475C452.358 138.554 452.619 138.664 452.866 138.8C453.487 139.099 454.067 139.477 454.591 139.924C455.12 140.381 455.524 140.964 455.764 141.62C455.876 141.888 455.917 142.18 455.883 142.468Z" fill="#263238"/>
<path d="M427.863 135.418C427.418 135.381 426.979 135.298 426.551 135.171C425.713 134.984 424.511 134.718 423.012 134.432C419.107 133.686 415.153 133.224 411.181 133.052C409.011 132.901 406.831 133.077 404.713 133.574C403.003 134.033 401.401 134.827 400 135.911C398.724 136.944 397.596 138.149 396.648 139.49C396.807 139.069 397.026 138.674 397.299 138.317C397.991 137.306 398.824 136.399 399.774 135.625C401.189 134.464 402.831 133.611 404.595 133.121C406.753 132.584 408.982 132.388 411.201 132.539C415.204 132.707 419.186 133.221 423.101 134.077C424.599 134.412 425.802 134.738 426.62 134.984C427.049 135.082 427.466 135.228 427.863 135.418Z" fill="#263238"/>
<path d="M329.852 122.05C330.06 121.85 330.288 121.672 330.532 121.517C331.208 121.048 331.932 120.651 332.691 120.334C335.519 119.143 338.657 118.901 341.634 119.644C343.693 120.147 345.603 121.134 347.204 122.523C348.99 124.138 350.564 125.973 351.887 127.985C353.349 130.171 354.922 132.28 356.6 134.305C358.42 136.453 360.397 138.464 362.516 140.319C366.873 144.115 371.586 147.22 376.318 148.739C378.561 149.497 380.912 149.886 383.279 149.892C385.332 149.975 387.367 149.472 389.145 148.443C390.571 147.517 391.814 146.338 392.813 144.963C393.73 143.77 394.45 142.675 395.041 141.788L396.392 139.737C396.54 139.492 396.704 139.259 396.885 139.037C396.771 139.303 396.633 139.557 396.471 139.796L395.209 141.896C394.647 142.803 393.947 143.868 393.04 145.13C392.046 146.558 390.792 147.786 389.343 148.748C387.512 149.838 385.409 150.385 383.279 150.326C380.864 150.338 378.462 149.955 376.171 149.192C371.31 147.634 366.538 144.539 362.141 140.713C359.997 138.84 358 136.807 356.166 134.63C354.482 132.59 352.909 130.46 351.453 128.251C350.154 126.268 348.618 124.45 346.879 122.838C345.335 121.479 343.49 120.505 341.496 119.999C338.589 119.244 335.518 119.427 332.721 120.521C331.723 120.949 330.763 121.46 329.852 122.05Z" fill="#263238"/>
<path d="M354.411 113.304H353.721C353.267 113.304 352.627 113.363 351.828 113.452C347.669 113.934 343.699 115.464 340.293 117.898C339.652 118.362 339.139 118.766 338.794 119.052L338.262 119.496C338.878 118.897 339.537 118.343 340.234 117.839C343.626 115.357 347.617 113.819 351.798 113.383C352.667 113.298 353.539 113.272 354.411 113.304Z" fill="#FAFAFA"/>
<path d="M370.235 122.888L369.516 122.986C369.042 123.045 368.372 123.154 367.544 123.322C365.398 123.761 363.316 124.463 361.342 125.412C359.365 126.362 357.51 127.551 355.821 128.951C355.18 129.484 354.677 129.937 354.342 130.272L353.81 130.775C354.425 130.105 355.084 129.476 355.782 128.892C357.463 127.475 359.315 126.273 361.293 125.313C363.278 124.366 365.375 123.674 367.534 123.252C368.426 123.074 369.328 122.952 370.235 122.888Z" fill="#FAFAFA"/>
<path d="M369.752 145.337C369.693 145.087 369.647 144.833 369.614 144.578C369.525 143.885 369.501 143.185 369.545 142.488C369.706 140.177 370.38 137.93 371.517 135.912C372.677 133.916 374.048 132.052 375.609 130.351C376.782 129.02 377.58 128.241 377.58 128.241L377.078 128.823L375.697 130.391C374.168 132.106 372.817 133.973 371.665 135.961C370.521 137.964 369.825 140.19 369.624 142.488C369.56 143.183 369.56 143.883 369.624 144.578C369.624 144.824 369.683 145.012 369.693 145.14L369.752 145.337Z" fill="#FAFAFA"/>
<path d="M387.104 135.4C386.995 135.154 386.906 134.9 386.838 134.64C386.52 133.381 386.496 132.065 386.769 130.795C386.823 130.535 386.903 130.281 387.006 130.036C387.006 130.036 386.937 130.332 386.838 130.815C386.602 132.075 386.628 133.371 386.917 134.621C387.026 135.104 387.114 135.39 387.104 135.4Z" fill="#FAFAFA"/>
<path d="M390.141 147.398C389.585 147.046 389.057 146.651 388.564 146.215C386.124 144.127 384.4 141.327 383.634 138.209C383.47 137.562 383.361 136.903 383.309 136.237C383.309 136.237 383.309 136.425 383.407 136.76C383.506 137.095 383.555 137.578 383.703 138.16C384.502 141.244 386.201 144.021 388.583 146.136C388.939 146.457 389.311 146.76 389.698 147.043C389.993 147.29 390.141 147.398 390.141 147.398Z" fill="#FAFAFA"/>
<path d="M403.441 133.772C403.441 133.772 402.938 133.546 402.16 133.092C401.155 132.503 400.193 131.844 399.281 131.12C398.366 130.395 397.503 129.608 396.698 128.764C396.086 128.113 395.712 127.669 395.712 127.669L395.988 127.945L396.717 128.715C397.532 129.54 398.394 130.317 399.3 131.041C400.216 131.751 401.171 132.41 402.16 133.013L403.077 133.555L403.441 133.772Z" fill="#FAFAFA"/>
<path d="M412.896 132.461C412.896 132.461 412.896 132.323 412.896 132.077C412.896 131.83 412.896 131.367 412.847 131.012C412.847 130.115 412.709 128.882 412.532 127.532C412.354 126.181 412.108 124.958 411.91 124.091L411.674 123.055C411.615 122.809 411.595 122.671 411.595 122.671C411.595 122.671 411.595 122.799 411.713 123.046C411.832 123.292 411.881 123.637 411.989 124.031C412.196 124.899 412.443 126.122 412.63 127.482C412.786 128.64 412.881 129.805 412.916 130.972C412.916 131.416 412.916 131.781 412.916 132.037C412.916 132.294 412.896 132.461 412.896 132.461Z" fill="#FAFAFA"/>
<path d="M425.171 125.707C425.186 125.815 425.186 125.924 425.171 126.032C425.171 126.338 425.112 126.624 425.092 126.9C425.004 127.639 424.856 128.655 424.629 129.759C424.402 130.863 424.136 131.859 423.919 132.569C423.83 132.835 423.742 133.111 423.653 133.407C423.564 133.703 423.535 133.703 423.535 133.703C423.55 133.595 423.576 133.49 423.613 133.387C423.692 133.101 423.771 132.816 423.85 132.549C424.047 131.84 424.304 130.844 424.53 129.739C424.757 128.635 424.915 127.63 425.023 126.89C425.023 126.614 425.092 126.328 425.132 126.023L425.171 125.707Z" fill="#FAFAFA"/>
<path d="M433.532 133.86C433.591 133.319 433.687 132.782 433.818 132.253C433.906 131.715 434.035 131.185 434.202 130.666C434.136 131.206 434.04 131.743 433.916 132.273C433.822 132.81 433.694 133.34 433.532 133.86Z" fill="#FAFAFA"/>
<path d="M447.355 138.445C447.355 138.445 447.354 138.199 447.433 137.785C447.512 137.371 447.512 136.799 447.522 136.168C447.522 135.734 447.522 135.261 447.522 134.551V134.058C447.512 133.999 447.512 133.939 447.522 133.88C447.559 134.102 447.578 134.326 447.581 134.551C447.581 134.965 447.581 135.537 447.581 136.178C447.572 136.719 447.529 137.259 447.453 137.795C447.441 138.014 447.408 138.232 447.355 138.445Z" fill="#FAFAFA"/>
<path d="M450.007 141.66C448.942 137.371 444.535 134.611 440.147 133.92C435.76 133.23 431.333 134.128 426.946 134.689C422.558 135.251 417.875 135.39 413.941 133.349C412.693 135.663 412.065 138.262 412.118 140.891H414.425C414.908 144.223 417.954 146.807 421.237 147.487C424.521 148.167 426.69 148.226 429.766 146.885C432.999 145.466 437.19 143.326 440.364 142.212C443.539 141.098 447.049 140.546 450.224 141.591" fill="#455A64"/>
<path d="M416.239 134.374C416.129 134.691 415.998 135.001 415.844 135.3C415.531 136.029 415.264 136.776 415.046 137.538C414.822 138.313 414.661 139.104 414.563 139.905C414.549 140.235 414.513 140.565 414.454 140.891C414.408 140.564 414.408 140.232 414.454 139.905C414.505 139.089 414.648 138.283 414.878 137.499C415.097 136.713 415.391 135.951 415.756 135.221C415.877 134.918 416.04 134.633 416.239 134.374Z" fill="#263238"/>
<path d="M414.612 139.017C414.205 139.023 413.799 138.986 413.399 138.908C412.988 138.895 412.578 138.842 412.177 138.751C412.585 138.657 413.01 138.657 413.419 138.751C413.831 138.751 414.238 138.842 414.612 139.017Z" fill="#263238"/>
<path d="M415.105 136.355C415.105 136.355 414.651 136.079 414.05 135.862C413.449 135.645 412.926 135.636 412.926 135.576C413.326 135.505 413.737 135.539 414.119 135.676C414.501 135.812 414.841 136.047 415.105 136.355Z" fill="#263238"/>
<path d="M419.689 134.946H420.379C420.823 134.946 421.484 134.946 422.351 134.946C424.768 134.92 427.177 134.672 429.549 134.206C433.117 133.462 436.79 133.362 440.394 133.911C442.539 134.254 444.58 135.072 446.369 136.306C448.301 137.672 449.739 139.626 450.47 141.877L450.529 142.094L450.322 141.995C449.395 141.544 448.392 141.27 447.364 141.187C444.863 141.131 442.375 141.577 440.049 142.498C437.842 143.255 435.68 144.133 433.571 145.13C432.585 145.604 431.599 146.116 430.613 146.491C429.68 146.926 428.71 147.279 427.715 147.546C425.905 147.972 424.031 148.046 422.194 147.763C420.676 147.548 419.225 146.999 417.944 146.156C416.988 145.502 416.178 144.656 415.568 143.671C415.188 143.057 414.893 142.393 414.691 141.699C414.563 141.216 414.523 140.96 414.523 140.96C414.756 141.908 415.132 142.816 415.637 143.652C416.251 144.617 417.06 145.443 418.013 146.077C419.282 146.907 420.721 147.442 422.223 147.645C424.04 147.912 425.89 147.828 427.675 147.398C428.663 147.137 429.623 146.784 430.544 146.343C431.53 145.919 432.516 145.456 433.502 144.983C435.616 143.974 437.785 143.085 439.999 142.321C442.353 141.397 444.866 140.948 447.394 140.999C448.455 141.085 449.491 141.366 450.45 141.828L450.312 141.946C449.595 139.739 448.184 137.823 446.29 136.484C444.518 135.263 442.498 134.452 440.374 134.108C436.801 133.561 433.16 133.648 429.618 134.364C427.24 134.824 424.823 135.049 422.401 135.035C420.626 135.015 419.689 134.946 419.689 134.946Z" fill="#263238"/>
<path d="M419.532 146.944C419.464 146.797 419.408 146.646 419.364 146.49C419.229 146.076 419.117 145.655 419.029 145.228C418.444 142.384 418.652 139.434 419.63 136.7C419.776 136.29 419.944 135.889 420.133 135.497C420.194 135.347 420.274 135.204 420.37 135.073C420.37 135.073 420.103 135.714 419.768 136.749C419.323 138.107 419.045 139.514 418.94 140.94C418.848 142.364 418.928 143.794 419.177 145.199C419.364 146.283 419.571 146.934 419.532 146.944Z" fill="#FAFAFA"/>
<path d="M428.07 141.137C428.146 141.408 428.199 141.685 428.227 141.965C428.306 142.478 428.454 143.178 428.651 143.937C429.056 145.465 429.45 146.697 429.391 146.717C429.249 146.473 429.14 146.211 429.066 145.938C428.888 145.445 428.651 144.765 428.454 143.966C428.277 143.32 428.152 142.661 428.08 141.994C428.029 141.711 428.026 141.421 428.07 141.137Z" fill="#FAFAFA"/>
<path d="M426.877 137.795C426.942 138.329 426.979 138.865 426.985 139.402C427.054 140.28 427.202 140.98 427.143 141C426.76 139.977 426.668 138.868 426.877 137.795Z" fill="#FAFAFA"/>
<path d="M428.967 134.354C429.026 134.354 428.76 135.015 428.612 135.833C428.464 136.651 428.474 137.341 428.415 137.341C428.286 136.833 428.286 136.301 428.415 135.793C428.474 135.275 428.664 134.779 428.967 134.354Z" fill="#FAFAFA"/>
<path d="M435.75 136.267C435.453 135.934 435.243 135.533 435.138 135.1C435.033 134.666 435.037 134.214 435.149 133.782C435.218 133.782 435.149 134.374 435.336 135.054C435.523 135.734 435.829 136.237 435.75 136.267Z" fill="#FAFAFA"/>
<path d="M441.074 141.807C440.857 141.571 440.668 141.309 440.512 141.028C440.097 140.373 439.737 139.683 439.438 138.968C439.132 138.255 438.882 137.52 438.688 136.769C438.594 136.448 438.538 136.117 438.521 135.783C438.648 136.076 438.75 136.38 438.826 136.69C439.004 137.252 439.27 138.021 439.625 138.849C439.98 139.678 440.345 140.397 440.611 140.92C440.796 141.199 440.951 141.496 441.074 141.807Z" fill="#FAFAFA"/>
<path d="M442.553 134.65C442.553 134.699 442.415 134.867 442.247 135.093C442.08 135.32 441.981 135.527 441.922 135.507C441.863 135.488 441.922 135.231 442.08 134.965C442.238 134.699 442.524 134.581 442.553 134.65Z" fill="#FAFAFA"/>
<path d="M450.352 141.995C450.252 141.918 450.156 141.836 450.066 141.748C448.788 140.618 447.181 139.927 445.481 139.776C443.519 139.563 441.535 139.778 439.664 140.407C437.383 141.202 435.148 142.124 432.97 143.168C430.796 144.207 428.463 144.873 426.068 145.14C424.082 145.319 422.079 145.146 420.153 144.627C418.862 144.289 417.617 143.796 416.446 143.158C416.032 142.931 415.726 142.734 415.519 142.596L415.203 142.389L415.529 142.586C415.736 142.714 416.051 142.902 416.465 143.119C419.397 144.682 422.718 145.367 426.029 145.09C428.423 144.82 430.755 144.154 432.93 143.119C435.11 142.069 437.348 141.147 439.635 140.358C441.518 139.727 443.517 139.515 445.491 139.737C446.822 139.909 448.098 140.374 449.228 141.097C449.636 141.351 450.014 141.653 450.352 141.995Z" fill="#FAFAFA"/>
<path d="M433.906 137.351C433.906 137.351 433.66 137.469 433.206 137.657C432.753 137.844 432.102 138.1 431.235 138.386C429.072 139.134 426.799 139.511 424.511 139.5C422.228 139.435 419.965 139.054 417.787 138.367C416.111 137.883 415.085 137.519 415.085 137.519L415.825 137.726L417.796 138.298C419.972 138.962 422.227 139.333 424.501 139.402C426.78 139.41 429.045 139.043 431.205 138.317C432.033 138.041 432.694 137.805 433.177 137.617L433.906 137.351Z" fill="#FAFAFA"/>
<path d="M443.914 136.306L443.667 136.148C443.443 135.995 443.209 135.857 442.967 135.734C442.083 135.263 441.132 134.93 440.147 134.748C438.697 134.486 437.216 134.429 435.75 134.58C434.084 134.738 432.28 135.113 430.377 135.468C427.13 136.117 423.796 136.21 420.518 135.744C417.994 135.389 416.475 135.004 416.475 135.004L417.56 135.202C418.25 135.33 419.265 135.507 420.518 135.665C423.797 136.121 427.13 136.021 430.377 135.369C432.28 135.014 434.094 134.64 435.77 134.482C437.252 134.317 438.751 134.373 440.216 134.649C441.203 134.824 442.156 135.157 443.036 135.635C443.346 135.835 443.64 136.059 443.914 136.306Z" fill="#FAFAFA"/>
<path d="M450.125 141.482C449.34 140.394 448.43 139.401 447.414 138.524C446.291 137.609 445.002 136.919 443.618 136.493C441.923 135.976 440.13 135.861 438.383 136.158C436.632 136.507 434.961 137.176 433.453 138.13C432.033 138.958 430.752 139.767 429.598 140.309C428.701 140.774 427.741 141.106 426.749 141.295C426.482 141.343 426.211 141.37 425.94 141.374C425.753 141.374 425.654 141.374 425.654 141.374C426.972 141.108 428.246 140.66 429.44 140.043C430.544 139.471 431.787 138.643 433.216 137.785C434.753 136.775 436.471 136.072 438.274 135.715C439.928 135.424 441.625 135.504 443.244 135.951C444.862 136.398 446.361 137.2 447.631 138.298C448.386 138.962 449.049 139.725 449.602 140.565C449.82 140.844 449.996 141.153 450.125 141.482Z" fill="#263238"/>
<path d="M436.43 136.454C434.528 137.275 432.488 137.73 430.416 137.795C428.357 138.03 426.273 137.869 424.274 137.322C424.274 137.174 427.025 137.529 430.377 137.322C433.729 137.115 436.391 136.306 436.43 136.454Z" fill="#263238"/>
<path d="M431.55 133.427L430.446 132.954C429.706 132.649 428.632 132.205 427.222 131.692C423.247 130.194 419.062 129.326 414.819 129.119C411.895 129.019 408.974 129.399 406.172 130.243C402.936 131.196 399.981 132.925 397.565 135.281C395.002 137.736 392.852 140.842 389.905 143.375C388.412 144.681 386.637 145.623 384.719 146.126C382.719 146.556 380.64 146.433 378.704 145.771C376.776 145.118 374.985 144.116 373.42 142.813C371.911 141.542 370.551 140.103 369.368 138.525C367.001 135.458 365.118 132.225 362.959 129.395C360.966 126.688 358.677 124.211 356.137 122.01C353.917 120.093 351.408 118.539 348.703 117.406C344.776 115.729 340.431 115.295 336.25 116.164C335.125 116.417 334.028 116.783 332.977 117.258L331.893 117.8L332.967 117.239C334.017 116.755 335.114 116.382 336.241 116.124C340.431 115.243 344.79 115.667 348.732 117.337C351.447 118.467 353.964 120.025 356.186 121.951C358.761 124.145 361.076 126.626 363.087 129.346C365.246 132.165 367.13 135.409 369.496 138.466C370.675 140.035 372.028 141.467 373.528 142.735C375.084 144.039 376.87 145.042 378.793 145.692C380.697 146.342 382.741 146.465 384.709 146.047C386.609 145.547 388.368 144.612 389.845 143.316C392.803 140.802 394.933 137.696 397.516 135.232C399.939 132.868 402.904 131.135 406.153 130.184C408.97 129.336 411.908 128.959 414.848 129.07C419.084 129.269 423.263 130.131 427.232 131.623C430.051 132.698 431.55 133.427 431.55 133.427Z" fill="#FAFAFA"/>
<path d="M383.171 136.306C382.651 136.351 382.128 136.332 381.613 136.247C380.195 136.007 378.847 135.455 377.669 134.63C375.959 133.386 374.48 131.851 373.302 130.095C371.885 127.947 370.358 125.874 368.727 123.883C365.656 120.346 361.959 117.405 357.822 115.207C356.567 114.547 355.277 113.954 353.958 113.432L352.538 112.89C352.538 112.89 353.07 113.058 354.017 113.403C355.341 113.914 356.634 114.5 357.892 115.158C362.051 117.339 365.766 120.278 368.845 123.824C370.478 125.816 372.005 127.893 373.42 130.045C374.588 131.797 376.053 133.332 377.748 134.581C378.906 135.401 380.228 135.959 381.623 136.217C382.001 136.275 382.384 136.308 382.766 136.316L383.171 136.306Z" fill="#FAFAFA"/>
<path d="M428.563 127.975C428.458 127.924 428.356 127.868 428.257 127.807C428.07 127.699 427.784 127.521 427.409 127.324C426.356 126.736 425.266 126.215 424.146 125.766C420.448 124.262 416.475 123.549 412.485 123.673C408.494 123.797 404.574 124.755 400.977 126.486C399.889 127.004 398.835 127.59 397.822 128.241C397.457 128.468 397.191 128.665 396.993 128.783L396.707 128.97C396.707 128.97 397.082 128.684 397.792 128.211C398.804 127.549 399.858 126.953 400.947 126.427C404.546 124.668 408.478 123.693 412.483 123.567C416.487 123.441 420.473 124.167 424.175 125.697C425.295 126.152 426.382 126.682 427.429 127.284C428.168 127.679 428.563 127.975 428.563 127.975Z" fill="#FAFAFA"/>
<path d="M408.519 132.372C408.519 132.372 408.47 132.234 408.401 131.978C408.332 131.722 408.213 131.367 408.075 130.923C407.687 129.77 407.222 128.643 406.685 127.551C406.139 126.463 405.517 125.415 404.822 124.416C404.555 124.031 404.339 123.726 404.181 123.519C404.023 123.312 403.944 123.193 403.944 123.193C404.279 123.569 404.592 123.964 404.881 124.376C406.309 126.365 407.41 128.568 408.144 130.903C408.297 131.385 408.422 131.876 408.519 132.372Z" fill="#FAFAFA"/>
<path d="M418.989 123.213C418.989 123.213 419.049 123.755 419.068 124.652C419.078 125.81 418.999 126.967 418.832 128.113C418.668 129.261 418.417 130.395 418.082 131.505C417.816 132.352 417.599 132.855 417.599 132.855C417.599 132.855 417.599 132.727 417.708 132.49C417.816 132.254 417.915 131.81 418.013 131.505C418.322 130.39 418.562 129.257 418.733 128.113C418.896 126.973 418.981 125.823 418.989 124.672C418.989 124.317 418.989 123.972 418.989 123.617C418.989 123.262 418.989 123.213 418.989 123.213Z" fill="#FAFAFA"/>
<path d="M396.313 139.934C395.915 139.713 395.53 139.469 395.16 139.205C394.263 138.567 393.422 137.855 392.645 137.075C391.858 136.307 391.139 135.473 390.496 134.581C390.233 134.206 389.989 133.818 389.767 133.417C389.767 133.417 389.855 133.526 389.983 133.723C390.112 133.92 390.309 134.196 390.555 134.541C391.196 135.427 391.905 136.261 392.675 137.036C393.448 137.814 394.278 138.533 395.16 139.185L395.978 139.757L396.313 139.934Z" fill="#FAFAFA"/>
<path d="M381.061 136.867C380.96 136.544 380.881 136.215 380.824 135.881C380.688 135.044 380.645 134.194 380.696 133.348C380.745 132.499 380.891 131.659 381.13 130.843C381.228 130.506 381.349 130.177 381.495 129.857C381.473 129.951 381.447 130.043 381.416 130.133C381.357 130.301 381.288 130.548 381.199 130.863C380.982 131.679 380.847 132.515 380.795 133.357C380.746 134.197 380.779 135.039 380.893 135.872C380.942 136.197 380.982 136.453 381.021 136.631C381.041 136.708 381.054 136.788 381.061 136.867Z" fill="#FAFAFA"/>
<path d="M381.011 149.646C380.739 149.127 380.496 148.594 380.282 148.049C379.762 146.728 379.356 145.366 379.069 143.977C378.79 142.587 378.638 141.174 378.616 139.757C378.606 139.171 378.626 138.586 378.675 138.002V138.524C378.675 138.82 378.675 139.264 378.675 139.806C378.728 141.217 378.893 142.621 379.168 144.006C379.445 145.391 379.838 146.749 380.341 148.068C380.538 148.571 380.706 148.975 380.824 149.251L381.011 149.646Z" fill="#FAFAFA"/>
<path d="M392.596 129.109C392.642 129.369 392.702 129.625 392.774 129.878C392.931 130.283 393.168 130.559 393.138 130.578C392.924 130.405 392.766 130.171 392.685 129.908C392.573 129.657 392.542 129.378 392.596 129.109Z" fill="#FAFAFA"/>
<path d="M373.351 125.421L372.71 125.776C372.296 125.993 371.724 126.328 370.985 126.762C367.228 129.042 363.933 132.009 361.273 135.507C360.77 136.177 360.376 136.739 360.12 137.124C359.863 137.508 359.696 137.725 359.696 137.725C360.165 136.946 360.675 136.193 361.224 135.467C363.849 131.928 367.154 128.949 370.945 126.703C371.724 126.233 372.527 125.805 373.351 125.421Z" fill="#FAFAFA"/>
<path d="M361.49 115.533L360.879 115.681C360.475 115.769 359.893 115.917 359.203 116.105C357.372 116.619 355.585 117.279 353.859 118.076C352.143 118.871 350.494 119.804 348.929 120.867C348.328 121.281 347.845 121.626 347.52 121.853L347.007 122.217C347.007 122.217 347.687 121.626 348.89 120.788C350.449 119.705 352.098 118.758 353.82 117.958C355.553 117.153 357.35 116.494 359.193 115.986C360.593 115.671 361.49 115.533 361.49 115.533Z" fill="#FAFAFA"/>
<path d="M441.952 132.905C441.945 133.112 441.912 133.318 441.853 133.517C441.822 133.721 441.756 133.918 441.656 134.098C441.656 133.891 441.69 133.684 441.754 133.487C441.785 133.283 441.852 133.086 441.952 132.905Z" fill="#FAFAFA"/>
<path d="M486.723 132.461C486.723 132.461 491.179 133.388 493.072 133.802C493.693 133.94 494.324 133.802 494.945 133.95C497.676 134.397 500.465 134.347 503.178 133.802C505.061 133.112 505.15 135.517 503.109 136.553C502.088 137.12 500.977 137.51 499.826 137.706L504.755 141.65C505.008 141.855 505.177 142.146 505.228 142.468L506.481 151.144C506.555 151.501 506.496 151.873 506.314 152.189C506.132 152.506 505.841 152.744 505.495 152.86C505.408 152.903 505.314 152.929 505.217 152.936C505.12 152.943 505.023 152.93 504.931 152.899C504.84 152.868 504.755 152.819 504.682 152.754C504.61 152.69 504.551 152.612 504.509 152.525L504.647 153.688C504.715 154.088 504.621 154.499 504.386 154.83C504.151 155.161 503.795 155.385 503.395 155.453C502.995 155.521 502.584 155.427 502.253 155.192C501.922 154.957 501.698 154.601 501.63 154.201C501.625 154.175 501.625 154.148 501.63 154.122L499.904 155.108C499.904 155.108 498.761 156.291 497.528 154.644C496.542 153.284 493.457 147.881 493.457 147.881C493.457 147.881 480.462 142.409 480.639 140.22L486.723 132.461Z" fill="#FFBE9D"/>
<path d="M501.669 154.19C501.496 153.501 501.377 152.799 501.314 152.09C501.117 150.809 500.743 149.004 500.486 147.033C500.309 146.047 500.082 145.11 499.865 144.331C499.734 143.988 499.486 143.702 499.165 143.523L498.258 142.951C497.633 142.605 497.051 142.188 496.523 141.708C497.218 141.928 497.881 142.24 498.495 142.635L499.431 143.158C499.847 143.367 500.175 143.716 500.358 144.144C500.641 145.059 500.868 145.991 501.038 146.934C501.304 148.906 501.61 150.71 501.728 152.031C501.819 152.75 501.8 153.478 501.669 154.19Z" fill="#EB996E"/>
<path d="M504.548 152.515C504.341 152.515 504.016 149.399 503.217 145.613C503.122 144.748 502.839 143.913 502.389 143.168C501.893 142.631 501.359 142.13 500.792 141.669C500.416 141.353 500.014 141.069 499.589 140.821C499.283 140.654 499.096 140.614 499.096 140.575C499.096 140.536 499.313 140.516 499.668 140.634C500.147 140.822 500.598 141.074 501.009 141.383C501.629 141.817 502.207 142.309 502.734 142.852C503.276 143.642 503.615 144.553 503.72 145.505C504.075 147.13 504.322 148.776 504.459 150.434C504.562 151.123 504.592 151.82 504.548 152.515Z" fill="#EB996E"/>
<path d="M493.92 144.302C494.521 144.483 495.093 144.752 495.616 145.1L496.444 145.554C496.817 145.712 497.153 145.948 497.43 146.244C497.699 146.578 497.888 146.969 497.982 147.388C498.1 147.792 498.228 148.206 498.366 148.62C499.072 150.638 499.616 152.708 499.993 154.812C499.127 152.863 498.418 150.849 497.873 148.788L497.509 147.555C497.433 147.199 497.282 146.862 497.065 146.569C496.844 146.317 496.576 146.109 496.276 145.958L495.488 145.445C494.912 145.142 494.384 144.757 493.92 144.302Z" fill="#EB996E"/>
<path d="M494.265 134.925C494.324 134.728 496.168 135.448 498.209 136.641C500.25 137.834 501.788 139.076 501.679 139.204C501.571 139.333 500.013 138.218 497.952 137.085L495.34 135.566C494.958 135.394 494.598 135.179 494.265 134.925Z" fill="#EB996E"/>
<path d="M110.353 78.2267L106.741 85.4272L117.972 91.0608L121.584 83.8602L110.353 78.2267Z" fill="#263238"/>
<path d="M115.613 76.0124L108.222 90.7937L96.1264 84.7334C97.24 79.2396 99.7902 74.1393 103.517 69.9521L115.613 76.0124Z" fill="#455A64"/>
<path d="M109.43 88.3546C107.139 87.7681 104.942 86.8642 102.901 85.6693C100.705 84.7596 98.6419 83.558 96.7669 82.0972C99.0587 82.7148 101.261 83.6257 103.32 84.8071C105.504 85.7143 107.559 86.9072 109.43 88.3546Z" fill="#263238"/>
<path d="M110.834 85.5461C108.525 84.8324 106.315 83.8309 104.256 82.5652C102.071 81.5295 99.9918 80.2836 98.048 78.8452C100.4 79.4455 102.645 80.4097 104.7 81.7029C106.916 82.6863 108.982 83.9804 110.834 85.5461Z" fill="#263238"/>
<path d="M112.731 81.7779C110.391 81.0624 108.155 80.0437 106.079 78.7477C103.871 77.7013 101.782 76.4211 99.8463 74.9292C102.211 75.5635 104.463 76.5608 106.523 77.8855C108.751 78.9107 110.837 80.2189 112.731 81.7779Z" fill="#263238"/>
<path d="M114.431 78.279C112.135 77.6717 109.937 76.7428 107.902 75.5199C105.717 74.5827 103.663 73.3653 101.793 71.8984C104.088 72.5057 106.286 73.4346 108.321 74.6576C110.506 75.5948 112.56 76.8121 114.431 78.279Z" fill="#263238"/>
<path d="M212.976 43.2202L205.595 39.9912L200.559 51.5018L207.94 54.7308L212.976 43.2202Z" fill="#263238"/>
<path d="M215.387 48.3968L200.211 41.7699L205.631 29.4521C211.195 30.2676 216.436 32.5652 220.806 36.1038L215.387 48.3968Z" fill="#455A64"/>
<path d="M202.749 42.8777C203.228 40.558 204.015 38.3126 205.089 36.2014C205.885 33.9749 206.97 31.8628 208.316 29.9194C207.847 32.2418 207.059 34.4884 205.976 36.5956C205.18 38.8221 204.095 40.9343 202.749 42.8777Z" fill="#263238"/>
<path d="M205.631 44.1341C206.219 41.789 207.105 39.5288 208.267 37.4087C209.18 35.1683 210.31 33.0229 211.642 31.0034C211.198 33.3894 210.366 35.6864 209.178 37.8028C208.298 40.0686 207.103 42.1998 205.631 44.1341Z" fill="#263238"/>
<path d="M209.499 45.8347C210.089 43.4593 210.992 41.1727 212.184 39.0353C213.107 36.7734 214.272 34.6177 215.658 32.6055C215.145 35.0015 214.264 37.3035 213.046 39.4295C212.131 41.7019 210.939 43.8531 209.499 45.8347Z" fill="#263238"/>
<path d="M213.071 47.4602C214.375 42.9 216.298 38.54 218.786 34.502C218.275 36.8298 217.446 39.0763 216.323 41.1782C215.524 43.408 214.43 45.5207 213.071 47.4602Z" fill="#263238"/>
<path d="M154.89 37.3205L146.093 40.9951L151.828 54.7253L160.625 51.0507L154.89 37.3205Z" fill="#263238"/>
<path d="M161.287 39.5024L143.18 47.0655L136.997 32.2843C142.257 28.1903 148.518 25.5789 155.128 24.7212L161.287 39.5024Z" fill="#3A78BC"/>
<path d="M155.35 24.6968C153.154 27.3932 150.33 29.5105 147.126 30.8633C143.923 32.2161 140.436 32.7633 136.972 32.457C140.335 31.9867 143.638 31.1609 146.826 29.9934C149.837 28.5168 152.693 26.7424 155.35 24.6968Z" fill="#263238"/>
<path d="M149.142 44.5286C147.837 42.6273 146.8 40.5547 146.062 38.3697C145.021 36.3082 144.275 34.1106 143.845 31.8413C145.153 33.7447 146.197 35.8165 146.949 38.0002C147.978 40.0648 148.716 42.2617 149.142 44.5286Z" fill="#263238"/>
<path d="M152.64 43.1741C151.318 41.2704 150.273 39.1884 149.536 36.9905C148.495 34.9202 147.749 32.7145 147.319 30.4375C148.63 32.3477 149.675 34.4282 150.423 36.621C151.451 38.6968 152.196 40.9007 152.64 43.1741Z" fill="#263238"/>
<path d="M156.064 41.6716C154.742 39.7679 153.697 37.686 152.96 35.4881C151.919 33.4178 151.173 31.2121 150.743 28.9351C152.054 30.8453 153.099 32.9257 153.847 35.1185C154.875 37.1943 155.621 39.3982 156.064 41.6716Z" fill="#263238"/>
<path d="M158.922 40.4885C157.54 38.4016 156.423 36.1507 155.596 33.7877C154.479 31.5448 153.651 29.169 153.133 26.7173C154.525 28.7948 155.635 31.0481 156.434 33.4181C157.568 35.6562 158.405 38.0333 158.922 40.4885Z" fill="#263238"/>
<path d="M145.865 45.8342C144.483 43.7473 143.366 41.4964 142.54 39.1334C141.422 36.8905 140.594 34.5147 140.076 32.063C142.559 36.3947 144.487 41.0214 145.816 45.8342H145.865Z" fill="#263238"/>
<path d="M237.863 151.401C259.023 119.492 250.309 76.4724 218.401 55.3127C186.493 34.1531 143.473 42.8665 122.313 74.7748C101.153 106.683 109.867 149.703 141.775 170.863C173.683 192.022 216.703 183.309 237.863 151.401Z" fill="#3A78BC"/>
<path d="M233.877 134.231C245.843 104.39 231.352 70.4995 201.511 58.5338C171.671 46.5681 137.78 61.0587 125.814 90.8995C113.848 120.74 128.339 154.631 158.18 166.597C188.021 178.563 221.912 164.072 233.877 134.231Z" fill="#FAFAFA"/>
<path d="M233.592 90.1535C233.43 89.8824 233.281 89.6028 233.149 89.3159L231.917 86.8523L231.006 85.0293C230.661 84.3642 230.193 83.6744 229.724 82.9107C228.699 81.1514 227.555 79.4641 226.3 77.8604C222.941 73.3646 218.921 69.4027 214.377 66.1093C208.401 61.7076 201.635 58.496 194.446 56.6493C183.336 53.6857 171.584 54.1929 160.77 58.1028C159.587 58.5462 158.306 58.9157 157.222 59.4331L153.773 61.0837C153.207 61.3793 152.591 61.6257 152.049 61.9459L150.374 62.956C149.265 63.6458 148.132 64.3109 147.023 65.05C144.846 66.6065 142.765 68.293 140.79 70.1003C138.772 71.9598 136.879 73.9514 135.124 76.062C134.237 77.1459 133.474 78.3039 132.661 79.4371C131.809 80.5605 131.043 81.7464 130.37 82.9846C128.903 85.4615 127.595 88.0287 126.453 90.6709C125.39 93.3932 124.509 96.1831 123.817 99.0223C122.37 104.858 121.871 110.889 122.338 116.883C122.846 123.05 124.283 129.105 126.6 134.842C129.084 140.528 132.406 145.809 136.455 150.51C140.39 155.058 145.031 158.943 150.201 162.015C152.711 163.52 155.32 164.854 158.011 166.006C160.674 167.069 163.407 167.95 166.19 168.642C167.556 169.026 168.947 169.314 170.353 169.504C171.733 169.701 173.112 169.972 174.492 170.096C177.228 170.337 179.977 170.395 182.72 170.268C185.397 170.15 188.064 169.854 190.702 169.381C192.008 169.135 193.165 168.765 194.545 168.47L196.417 168.002C197.058 167.829 197.649 167.583 198.265 167.361L201.862 166.08C203.044 165.612 204.153 165.021 205.286 164.503C207.509 163.452 209.657 162.25 211.716 160.906C218.57 156.39 224.392 150.476 228.799 143.551C233.206 136.626 236.099 128.848 237.288 120.726C238.143 115.183 238.143 109.542 237.288 103.999C237.043 101.968 236.648 99.9592 236.105 97.9876C235.883 97.1254 235.711 96.337 235.514 95.5241L234.849 93.6025L233.937 90.9911C233.74 90.3999 233.666 90.0796 233.666 90.0796C233.666 90.0796 233.814 90.3752 234.036 90.9418L235.021 93.5532C235.243 94.1198 235.464 94.7603 235.735 95.4747C236.006 96.1892 236.154 96.9775 236.376 97.9383C236.943 99.9179 237.371 101.935 237.657 103.974C238.571 109.55 238.621 115.233 237.805 120.825C236.658 129.051 233.777 136.94 229.351 143.969C224.926 150.998 219.057 157.006 212.135 161.596C210.045 162.954 207.873 164.18 205.631 165.267C204.473 165.784 203.34 166.4 202.157 166.868L198.511 168.199C197.895 168.396 197.28 168.667 196.639 168.839L194.717 169.307C193.436 169.627 192.254 169.997 190.85 170.243C188.171 170.731 185.464 171.044 182.745 171.18C179.952 171.314 177.154 171.265 174.369 171.032C172.989 170.884 171.585 170.638 170.156 170.44C168.741 170.242 167.342 169.946 165.968 169.554C160.212 168.22 154.712 165.956 149.684 162.853C144.429 159.739 139.712 155.795 135.716 151.176C127.344 141.645 122.325 129.635 121.427 116.982C120.963 110.887 121.479 104.757 122.954 98.8252C124.281 93.0706 126.536 87.5705 129.631 82.5411C130.312 81.2865 131.086 80.0843 131.946 78.9444C132.809 77.7865 133.597 76.604 134.41 75.5201C137.965 71.3059 142.038 67.5564 146.531 64.3601C147.639 63.5964 148.822 62.956 149.93 62.2415L151.63 61.2315C152.197 60.8866 152.813 60.6403 153.379 60.3446L156.902 58.694C158.085 58.1767 159.366 57.8071 160.474 57.3637C162.82 56.512 165.224 55.8287 167.668 55.319C175.794 53.6148 184.19 53.6582 192.298 55.4463C200.406 57.2345 208.041 60.7264 214.697 65.6905C219.252 69.0497 223.265 73.0876 226.596 77.6634C227.853 79.2895 228.981 81.0109 229.971 82.8122C230.414 83.5759 230.882 84.2656 231.227 84.9308L232.089 86.7784C232.582 87.8624 232.952 88.7 233.247 89.242C233.543 89.784 233.592 90.1535 233.592 90.1535Z" fill="#263238"/>
<path d="M225.413 92.5926C222.534 94.0892 219.457 95.1676 216.273 95.7951C218.803 93.7556 221.616 92.0958 224.625 90.868C229.404 88.5277 233.469 87.0989 233.74 87.6655C234.011 88.2321 230.266 90.4739 225.413 92.5926Z" fill="#263238"/>
<path d="M226.349 130.383C223.254 129.441 220.315 128.047 217.628 126.244C220.852 126.608 224.005 127.438 226.99 128.708C231.917 130.408 235.933 132.255 235.711 132.846C235.489 133.438 231.276 132.304 226.349 130.383Z" fill="#263238"/>
<path d="M200.384 157.901C198.839 155.06 197.726 152.004 197.082 148.835C199.135 151.328 200.796 154.12 202.01 157.113C204.473 161.843 205.877 165.932 205.311 166.203C204.744 166.474 202.552 162.754 200.384 157.901Z" fill="#263238"/>
<path d="M162.593 159.232C163.495 156.123 164.857 153.167 166.633 150.461C166.319 153.683 165.548 156.844 164.342 159.848C162.691 164.775 160.868 168.815 160.277 168.618C159.686 168.421 160.721 164.208 162.593 159.232Z" fill="#263238"/>
<path d="M134.804 133.684C137.63 132.109 140.678 130.971 143.845 130.309C141.351 132.379 138.571 134.08 135.592 135.359C130.887 137.823 126.822 139.301 126.551 138.759C126.28 138.217 129.976 135.827 134.804 133.684Z" fill="#263238"/>
<path d="M133.055 95.8194C136.17 96.71 139.141 98.0458 141.874 99.7856C138.646 99.5075 135.476 98.7606 132.464 97.5685C127.389 95.9918 123.447 94.218 123.644 93.6268C123.841 93.0355 128.054 94.021 133.055 95.8194Z" fill="#263238"/>
<path d="M158.38 67.76C159.978 70.5681 161.149 73.5988 161.854 76.752C159.754 74.2914 158.028 71.5356 156.73 68.573C154.266 63.8923 152.689 59.8521 153.231 59.5811C153.773 59.3101 156.089 62.9561 158.38 67.76Z" fill="#263238"/>
<path d="M196.122 65.5921C195.278 68.7192 193.983 71.7068 192.279 74.4609C192.503 71.2291 193.209 68.0489 194.373 65.0256C195.9 59.9507 197.624 55.9843 198.216 56.1568C198.807 56.3292 197.871 60.5911 196.122 65.5921Z" fill="#263238"/>
<path d="M224.477 90.5971C221.681 92.2484 218.661 93.4849 215.51 94.2678C217.953 92.1432 220.691 90.384 223.639 89.0451C228.296 86.5815 232.311 84.9064 232.607 85.4483C232.902 85.9903 229.256 88.2814 224.477 90.5971Z" fill="#263238"/>
<path d="M134.73 63.1774C134.033 64.0507 133.276 64.8739 132.464 65.6409C130.394 67.8108 128.461 70.1063 126.674 72.5142C120.728 80.4225 116.605 89.5492 114.603 99.2393C112.601 108.929 112.77 118.942 115.096 128.56C115.776 131.478 116.64 134.349 117.682 137.158C118.115 138.169 118.485 139.205 118.791 140.262C118.617 140.037 118.476 139.788 118.372 139.523C118.126 139.005 117.732 138.291 117.338 137.281C116.143 134.513 115.171 131.654 114.431 128.732C111.895 119.024 111.632 108.861 113.662 99.0344C115.691 89.2076 119.959 79.9808 126.132 72.0707C127.992 69.6815 130.025 67.4335 132.217 65.3453C132.956 64.6062 133.622 64.0889 134.04 63.7193C134.459 63.3498 134.705 63.1527 134.73 63.1774Z" fill="white"/>
<path d="M151.137 52.3872C149.328 53.8166 147.371 55.0472 145.299 56.0579C143.39 57.3603 141.341 58.4429 139.189 59.2851C140.823 57.6274 142.721 56.2537 144.806 55.2203C146.738 53.9192 148.88 52.9609 151.137 52.3872Z" fill="white"/>
<g opacity="0.4">
<path opacity="0.4" d="M150.423 162.828C150.423 162.828 196.614 195.125 230.414 154.6C265.668 112.276 218.294 68.8193 218.294 68.8193C218.294 68.8193 257.415 102.89 225.142 149.205C217.111 160.759 205.212 165.735 195.727 168.618C171.535 176.008 150.423 162.828 150.423 162.828Z" fill="black"/>
</g>
<path d="M182.917 77.7866C186.486 85.5538 189.547 93.5443 192.081 101.708C193.104 104.621 193.71 107.665 193.88 110.749C194.021 113.877 192.933 116.936 190.85 119.273C189.8 120.418 188.416 121.203 186.895 121.517C185.374 121.831 183.792 121.658 182.375 121.022L182.917 77.7866Z" fill="#E0E0E0"/>
<path d="M176.931 108.851L182.72 67.8086L186.44 109.861L181.168 114.172L176.931 108.851Z" fill="#3A78BC"/>
<g opacity="0.4">
<path opacity="0.4" d="M182.72 67.8086L182.277 107.447L186.44 109.861L182.72 67.8086Z" fill="black"/>
</g>
<path d="M187.45 111.513C187.97 112.753 188.11 114.12 187.853 115.44C187.595 116.761 186.952 117.975 186.005 118.93C185.058 119.884 183.848 120.537 182.53 120.804C181.212 121.071 179.844 120.942 178.599 120.431C177.355 119.921 176.29 119.053 175.539 117.938C174.787 116.822 174.384 115.508 174.379 114.163C174.375 112.818 174.769 111.502 175.513 110.381C176.256 109.261 177.316 108.385 178.557 107.867C180.219 107.172 182.09 107.165 183.758 107.849C185.426 108.533 186.753 109.851 187.45 111.513Z" fill="#FAFAFA"/>
<path d="M187.45 111.513C187.45 111.513 187.154 110.995 186.465 110.182C185.541 109.031 184.257 108.224 182.819 107.891C181.929 107.668 181.002 107.638 180.1 107.804C179.198 107.97 178.342 108.327 177.59 108.853C176.838 109.378 176.208 110.059 175.742 110.849C175.276 111.639 174.985 112.519 174.888 113.432C174.792 114.344 174.893 115.266 175.184 116.136C175.475 117.006 175.949 117.803 176.575 118.473C177.201 119.144 177.963 119.672 178.811 120.023C179.659 120.373 180.572 120.537 181.488 120.504C182.556 120.457 183.596 120.146 184.516 119.6C185.436 119.055 186.206 118.291 186.76 117.376C187.537 116.116 187.875 114.635 187.721 113.163C187.598 112.104 187.376 111.537 187.45 111.513C187.804 111.979 188.025 112.532 188.091 113.114C188.393 114.689 188.131 116.32 187.352 117.721C186.768 118.774 185.925 119.661 184.904 120.299C183.883 120.937 182.715 121.304 181.513 121.367C180.022 121.443 178.543 121.057 177.28 120.261C176.017 119.465 175.031 118.298 174.457 116.92C173.882 115.542 173.748 114.02 174.071 112.563C174.395 111.105 175.162 109.783 176.266 108.778C177.163 107.97 178.25 107.402 179.426 107.126C180.602 106.851 181.828 106.876 182.991 107.201C184.536 107.641 185.879 108.609 186.785 109.936C187.14 110.394 187.37 110.938 187.45 111.513Z" fill="#263238"/>
<path d="M185.849 112.202C186.24 113.127 186.347 114.148 186.157 115.135C185.968 116.122 185.489 117.03 184.783 117.744C184.076 118.459 183.174 118.948 182.189 119.149C181.205 119.35 180.183 119.254 179.253 118.874C178.323 118.494 177.527 117.846 176.965 117.012C176.404 116.179 176.102 115.198 176.099 114.193C176.096 113.188 176.391 112.205 176.947 111.368C177.502 110.532 178.294 109.878 179.222 109.492C180.46 108.976 181.853 108.971 183.095 109.479C184.336 109.987 185.327 110.966 185.849 112.202Z" fill="#455A64"/>
</svg>
