<svg width="286" height="254" viewBox="0 0 286 254" fill="none" xmlns="http://www.w3.org/2000/svg">
<path d="M140.906 145.671C141.235 149.934 147.825 193.51 147.825 193.51L145.612 210.254L148.196 248.752L161.16 247.443L165.998 193.671L170.489 142.017L140.906 145.671Z" fill="#FFA8A7"/>
<path d="M161.794 244.62C161.794 244.62 176.582 250.169 176.744 252.908L148.106 252.795V245.308L149.158 245.553C153.367 246.532 157.774 246.207 161.794 244.62Z" fill="#263238"/>
<path d="M176.229 252.113C176.229 252.202 169.938 252.268 162.183 252.268C154.427 252.268 148.136 252.202 148.136 252.113C148.136 252.023 154.427 251.957 162.183 251.957C169.938 251.957 176.229 252.029 176.229 252.113Z" fill="#455A64"/>
<path d="M132.504 144.798C132.833 149.061 137.45 161.613 137.45 161.613L139.483 215.522L139.812 247.891L152.788 246.569L155.724 202.551L157.626 142.017L132.504 144.798Z" fill="#FFA8A7"/>
<path d="M157.716 165.105C157.723 165.175 157.723 165.245 157.716 165.315C157.716 165.464 157.716 165.668 157.716 165.913C157.716 166.469 157.638 167.252 157.584 168.257C157.452 170.314 157.267 173.256 157.04 176.88C156.591 184.163 155.844 194.222 155.282 205.332C154.72 216.443 154.086 226.495 153.709 233.796C153.494 237.42 153.314 240.374 153.195 242.419C153.129 243.424 153.075 244.213 153.039 244.764C153.039 245.021 153.003 245.218 152.991 245.362C152.991 245.43 152.981 245.499 152.962 245.565C152.955 245.497 152.955 245.429 152.962 245.362V244.764C152.962 244.207 153.021 243.424 153.063 242.419C153.159 240.362 153.302 237.42 153.476 233.79C153.859 226.489 154.379 216.449 154.959 205.314C155.539 194.18 156.304 184.151 156.807 176.874C157.076 173.25 157.297 170.296 157.452 168.257C157.53 167.252 157.596 166.463 157.644 165.913C157.668 165.662 157.686 165.462 157.698 165.315C157.698 165.245 157.704 165.175 157.716 165.105Z" fill="#AA6550"/>
<path d="M166.925 54.292L172.45 64.996L180.493 80.5437L188.069 77.0754L188.966 74.9525C192.064 82.0267 201.112 86.2605 194.348 89.9979L171.057 100.899L161.842 84.4067L166.925 54.292Z" fill="#E874A6"/>
<path d="M134.25 16.6726C133.813 17.3372 133.538 18.0957 133.449 18.8864C133.36 19.6771 133.458 20.4778 133.736 21.2233C134.053 22.0545 134.597 22.9754 134.173 23.7588C133.748 24.5421 132.636 24.572 131.781 24.871C131.043 25.1484 130.425 25.6766 130.037 26.3632C129.649 27.0497 129.515 27.8508 129.658 28.6264C129.86 29.1544 129.951 29.7181 129.927 30.2828C129.717 30.8329 129.377 31.3235 128.934 31.712C128.461 32.2734 128.144 32.9493 128.015 33.672C127.885 34.3947 127.948 35.1387 128.197 35.8293C128.446 36.52 128.873 37.133 129.433 37.6069C129.994 38.0807 130.67 38.3988 131.392 38.5291C132.056 38.5576 132.708 38.7076 133.318 38.9716C133.969 39.3723 134.25 40.1676 134.711 40.7656C135.153 41.3539 135.769 41.7885 136.471 42.0084C137.174 42.2282 137.927 42.2222 138.626 41.991C139.325 41.7599 139.933 41.3153 140.366 40.72C140.799 40.1247 141.034 39.4086 141.038 38.6726" fill="#263238"/>
<path d="M145.212 11.8888C143.669 10.9081 143.292 8.63572 144.129 7.00919C144.594 6.21647 145.234 5.5414 146.002 5.03635C146.769 4.5313 147.643 4.20987 148.554 4.09699C149.866 3.89618 151.207 4.00818 152.468 4.42384C153.728 4.83951 154.873 5.54709 155.808 6.48894C156.807 7.5115 157.602 8.88089 158.965 9.32341C160.161 9.73602 161.471 9.36527 162.721 9.52672C163.553 9.67727 164.341 10.0121 165.027 10.5067C165.713 11.0013 166.28 11.6431 166.685 12.3851C167.482 13.8774 167.96 15.5185 168.091 17.2049C168.276 18.7417 168.396 20.434 169.46 21.5523C170.524 22.6705 172.145 22.8798 173.437 23.6572C174.623 24.441 175.457 25.6574 175.76 27.0471C176.063 28.4368 175.81 29.8897 175.057 31.0962C174.543 31.8377 173.807 32.5254 173.748 33.4283C173.688 34.3313 174.226 34.9891 174.477 35.7784C174.608 36.2872 174.628 36.8181 174.536 37.3353C174.444 37.8525 174.242 38.3439 173.944 38.7764C173.646 39.2089 173.258 39.5724 172.808 39.8423C172.357 40.1123 171.854 40.2823 171.332 40.3411C170.261 40.4009 169.113 39.9823 168.15 40.4607C167.188 40.9391 166.841 42.0932 166.225 42.9663C165.6 43.8131 164.702 44.4192 163.683 44.6827C162.664 44.9462 161.585 44.8511 160.628 44.4134C159.838 44.0247 159.091 43.3908 158.236 43.4446C157.381 43.4985 156.675 44.2519 155.844 44.4194C154.714 44.6406 153.643 43.8214 152.974 42.8766C152.304 41.9317 151.837 40.8434 150.976 40.084C149.852 39.0793 148.273 38.8342 146.856 38.3438C145.279 37.8064 143.836 36.9366 142.624 35.7931C141.412 34.6497 140.459 33.2594 139.831 31.7161C139.203 30.1729 138.914 28.5128 138.983 26.848C139.051 25.1832 139.477 23.5526 140.23 22.0665" fill="#263238"/>
<path d="M141.941 14.3465C141.297 14.4138 140.703 14.7206 140.276 15.2057C139.848 15.6909 139.618 16.3191 139.632 16.9657L141.175 51.7866C141.241 55.9007 147.251 58.209 151.646 58.1073C156.089 57.9997 156.233 55.823 156.292 51.9121C156.382 45.3821 156.376 42.9423 156.376 42.9423C156.376 42.9423 161.991 41.9975 163.139 34.6721C163.707 31.0244 163.51 25.0565 163.193 20.1709C162.906 15.7817 159.982 10.3938 155.605 10.8662L141.941 14.3465Z" fill="#FFA8A7"/>
<path d="M160.999 24.3508C161.002 24.5958 160.909 24.8323 160.741 25.01C160.572 25.1876 160.34 25.2923 160.096 25.3016C159.976 25.3114 159.856 25.2972 159.743 25.2598C159.629 25.2225 159.524 25.1628 159.433 25.0842C159.343 25.0056 159.27 24.9098 159.217 24.8023C159.164 24.6948 159.134 24.5779 159.127 24.4584C159.124 24.2135 159.216 23.9769 159.385 23.7993C159.554 23.6216 159.785 23.517 160.03 23.5076C160.149 23.4979 160.269 23.5121 160.383 23.5494C160.497 23.5867 160.602 23.6465 160.692 23.725C160.782 23.8036 160.856 23.8994 160.908 24.0069C160.961 24.1144 160.992 24.2313 160.999 24.3508Z" fill="#263238"/>
<path d="M161.901 23.2745C161.788 23.4001 161.076 22.8738 160.066 22.8798C159.055 22.8858 158.314 23.3941 158.206 23.2685C158.098 23.1429 158.266 22.9934 158.589 22.7542C159.026 22.4522 159.546 22.2915 160.078 22.2938C160.603 22.2898 161.116 22.4532 161.543 22.7602C161.854 22.9994 161.961 23.2207 161.901 23.2745Z" fill="#263238"/>
<path d="M151.054 24.351C151.056 24.5965 150.962 24.833 150.792 25.0105C150.622 25.188 150.39 25.2925 150.145 25.3018C149.908 25.3148 149.675 25.2334 149.498 25.0754C149.321 24.9174 149.214 24.6956 149.2 24.4586C149.198 24.2141 149.291 23.9784 149.46 23.8011C149.628 23.6238 149.859 23.5186 150.103 23.5078C150.221 23.5005 150.339 23.5166 150.451 23.555C150.562 23.5935 150.665 23.6536 150.754 23.732C150.842 23.8103 150.914 23.9053 150.965 24.0115C151.017 24.1178 151.047 24.2331 151.054 24.351Z" fill="#263238"/>
<path d="M151.969 23.4899C151.849 23.6095 151.138 23.0833 150.127 23.0893C149.117 23.0953 148.375 23.6036 148.267 23.478C148.16 23.3524 148.327 23.2029 148.656 22.9697C149.091 22.6619 149.612 22.4988 150.145 22.5033C150.671 22.5031 151.183 22.6684 151.61 22.9757C151.915 23.2089 152.023 23.4301 151.969 23.4899Z" fill="#263238"/>
<path d="M155.653 30.9767C156.186 30.8067 156.738 30.7062 157.297 30.6777C157.554 30.6777 157.799 30.5999 157.841 30.4205C157.862 30.1537 157.802 29.8868 157.668 29.6551L156.896 27.6937C155.832 24.8951 155.061 22.5988 155.174 22.557C155.288 22.5151 156.239 24.7456 157.309 27.5442L158.044 29.5176C158.205 29.8288 158.251 30.1863 158.176 30.5282C158.14 30.6196 158.084 30.7016 158.011 30.7679C157.938 30.8343 157.852 30.8831 157.757 30.9109C157.613 30.9492 157.464 30.9693 157.315 30.9707C156.763 31.046 156.204 31.048 155.653 30.9767Z" fill="#263238"/>
<path d="M156.376 42.9363C152.928 42.9966 149.531 42.0982 146.563 40.3411C146.563 40.3411 149.051 45.5077 156.376 44.808V42.9363Z" fill="#AA6550"/>
<path d="M155.228 33.4165C155.037 33.1725 154.787 32.9821 154.501 32.8637C154.215 32.7453 153.903 32.7029 153.595 32.7407C153.149 32.78 152.736 32.9951 152.447 33.3387C152.316 33.5076 152.239 33.7117 152.225 33.9248C152.211 34.1379 152.262 34.3503 152.37 34.5347C152.532 34.7162 152.746 34.8451 152.982 34.9047C153.219 34.9644 153.468 34.9521 153.697 34.8696C154.174 34.6964 154.612 34.4324 154.989 34.0922C155.102 34.011 155.199 33.9096 155.276 33.7932C155.312 33.7371 155.331 33.6717 155.331 33.6048C155.331 33.538 155.312 33.4726 155.276 33.4165" fill="#AA6550"/>
<path d="M152.681 31.6822C152.842 31.6822 152.848 32.7706 153.787 33.548C154.726 34.3253 155.898 34.1998 155.904 34.3552C155.91 34.5107 155.647 34.5645 155.15 34.5825C154.51 34.5959 153.886 34.3842 153.386 33.9845C152.907 33.5932 152.599 33.0317 152.525 32.4178C152.483 31.9453 152.603 31.6762 152.681 31.6822Z" fill="#263238"/>
<path d="M152.417 21.7136C152.322 21.9887 151.311 21.8631 150.121 22.0067C148.931 22.1502 147.98 22.4791 147.819 22.2339C147.753 22.1143 147.915 21.8572 148.303 21.5881C148.816 21.2562 149.4 21.0513 150.008 20.9901C150.613 20.917 151.228 20.9866 151.801 21.1934C152.244 21.3728 152.459 21.5881 152.417 21.7136Z" fill="#263238"/>
<path d="M161.525 21.4327C161.345 21.666 160.652 21.4327 159.815 21.4327C158.977 21.4327 158.266 21.5882 158.104 21.349C158.033 21.2294 158.146 21.0022 158.451 20.751C158.867 20.4908 159.351 20.3598 159.842 20.3747C160.333 20.3896 160.808 20.5497 161.208 20.8348C161.507 21.0859 161.603 21.3251 161.525 21.4327Z" fill="#263238"/>
<path d="M145.959 10.31C145.956 11.0464 146.115 11.7745 146.425 12.4425C146.735 13.1105 147.189 13.7018 147.753 14.1746C148.318 14.6473 148.98 14.9898 149.692 15.1777C150.404 15.3655 151.149 15.3941 151.873 15.2614C152.991 15.0581 154.217 14.49 155.186 15.0879C156.155 15.6859 156.251 17.2527 157.153 18.036C158.445 19.1543 160.496 18.1018 162.135 18.5922C163.402 18.9629 164.192 20.1768 165.035 21.1934C165.878 22.21 167.134 23.1787 168.402 22.802C168.361 21.6606 168.192 20.5273 167.899 19.4234C167.595 18.313 166.917 17.3415 165.98 16.6726C165.454 16.3318 164.85 16.1225 164.359 15.7338C163.313 14.8846 163.068 13.4076 162.416 12.2236C161.989 11.4614 161.387 10.8121 160.659 10.3295C159.931 9.84693 159.098 9.54504 158.23 9.44891C156.789 9.29942 155.3 9.72997 153.894 9.37716C152.86 9.11404 151.951 8.4443 150.905 8.24098C148.859 7.85229 146.952 9.32334 145.469 10.7884" fill="#263238"/>
<path d="M140.069 42.7571L156.538 44.874L156.376 50.5608L173.377 71.8492L168.527 100.9L154.887 95.9003L138.556 67.9982L138.975 46.4706L140.069 42.7571Z" fill="#263238"/>
<path d="M128.049 130.344L136.044 188.05C136.044 188.05 152.525 192.685 167.69 185.987L173.939 130.195L157.345 118.725L128.049 130.344Z" fill="#E874A6"/>
<path d="M138.705 45.717L135.889 50.3754C135.889 50.3754 128.049 53.6822 126.321 57.7187C124.593 61.7551 138.688 101.318 138.688 101.318C138.688 101.318 127.924 114.3 128.031 130.344C128.031 130.344 149.463 137.203 169.675 132.671L166.368 87.1158C166.368 87.1158 165.878 76.5792 162.691 72.5428C159.504 68.5064 138.705 45.717 138.705 45.717Z" fill="#E874A6"/>
<path d="M156.466 47.3914L156.376 50.5906C156.376 50.5906 167.786 68.9608 168.527 72.7162C170.351 81.9432 167.194 97.1919 167.194 97.1919L168.527 132.766L175.057 130.506L171.063 95.0451L172.522 86.9364C172.522 86.9364 175.512 73.661 173.993 70.5754C172.851 68.2851 169.651 59.1359 166.901 54.2922C166.413 53.4311 165.722 52.7025 164.888 52.1699C164.055 51.6373 163.103 51.3168 162.117 51.2364L159.587 51.0212L156.466 47.3914Z" fill="#E874A6"/>
<path d="M166.261 84.4069C166.196 84.2545 166.146 84.0963 166.111 83.9345C166.034 83.6235 165.902 83.1631 165.717 82.583C165.199 80.9258 164.52 79.3234 163.689 77.7991C162.467 75.544 160.918 73.4824 159.091 71.6817C157.058 69.6186 154.307 67.9203 151.706 65.8154H151.664V65.7676C151.227 64.2547 150.797 62.7776 150.384 61.3604L150.558 61.468L147.317 62.066H147.239L147.185 62.0122C145.529 60.278 143.992 58.6694 142.664 57.1864L139.214 53.2935L136.941 50.7581C136.696 50.477 136.493 50.2498 136.343 50.0823C136.271 50.0062 136.205 49.9242 136.146 49.8372C136.232 49.8972 136.31 49.9675 136.379 50.0464L137.019 50.6863C137.575 51.2544 138.371 52.0976 139.351 53.168L142.856 57.013C144.189 58.4841 145.744 60.0807 147.4 61.7969L147.269 61.7551L150.51 61.1571H150.647L150.683 61.2946C151.096 62.7119 151.526 64.1889 151.969 65.6958L151.915 65.6181C154.522 67.7051 157.261 69.4153 159.312 71.5202C161.147 73.3504 162.696 75.447 163.905 77.7393C164.724 79.2782 165.378 80.8999 165.854 82.577C166.022 83.175 166.129 83.6355 166.189 83.9524C166.227 84.1014 166.251 84.2535 166.261 84.4069Z" fill="#263238"/>
<path d="M168.934 84.4071C168.939 84.2744 168.955 84.1424 168.982 84.0124C169.035 83.7194 169.095 83.3486 169.179 82.8822C169.352 81.8656 169.598 80.4544 169.897 78.7322C170.196 77.01 170.524 74.8871 170.77 72.549C170.829 71.951 170.877 71.353 170.907 70.755C170.956 70.1372 170.942 69.5161 170.865 68.9012C170.71 67.6395 170.447 66.3418 170.178 65.0143C169.843 63.4236 169.49 61.8808 169.131 60.4158L169.239 60.5234L165.759 59.5068L165.627 59.465L165.663 59.3334C165.854 58.6278 166.04 57.952 166.213 57.3062L166.255 57.4378C164.126 55.6438 162.547 53.9575 161.399 52.8273C160.855 52.2712 160.418 51.8227 160.09 51.4938C159.929 51.3422 159.781 51.1783 159.647 51.0034C159.828 51.1301 159.996 51.2743 160.149 51.434C160.484 51.7569 160.939 52.1815 161.507 52.7137C162.703 53.814 164.293 55.4704 166.428 57.2404L166.488 57.2943V57.372C166.315 58.0238 166.141 58.6995 165.956 59.4052L165.86 59.2317L169.34 60.2304H169.424V60.3201C169.783 61.7852 170.136 63.31 170.477 64.9246C170.752 66.2581 171.003 67.5617 171.164 68.8414C171.239 69.4746 171.251 70.1135 171.2 70.749C171.164 71.347 171.111 71.945 171.051 72.543C170.788 74.8931 170.423 76.9801 170.112 78.7322C169.801 80.4843 169.514 81.8955 169.293 82.8702C169.185 83.3307 169.101 83.7015 169.041 83.9885C169.023 84.132 168.987 84.2727 168.934 84.4071Z" fill="#263238"/>
<path d="M168.527 132.748C168.443 132.748 167.965 123.085 167.457 111.149C166.949 99.2131 166.614 89.5376 166.703 89.5376C166.793 89.5376 167.265 99.2011 167.768 111.137C168.27 123.073 168.611 132.748 168.527 132.748Z" fill="#263238"/>
<path d="M175.057 130.488C174.911 130.566 174.759 130.632 174.603 130.685L173.293 131.187C172.695 131.409 172.025 131.672 171.188 131.911C170.351 132.15 169.43 132.509 168.36 132.742L166.697 133.161C166.099 133.31 165.501 133.406 164.903 133.538C163.648 133.819 162.29 133.998 160.855 134.207C157.744 134.582 154.611 134.741 151.479 134.686C148.344 134.597 145.219 134.313 142.12 133.837C140.697 133.597 139.345 133.376 138.09 133.089C136.834 132.802 135.698 132.545 134.615 132.276C133.533 132.007 132.606 131.726 131.775 131.492C130.944 131.259 130.232 131.02 129.652 130.823L128.324 130.374C128.166 130.328 128.012 130.268 127.864 130.195C128.027 130.219 128.187 130.259 128.342 130.314L129.688 130.709C130.286 130.889 130.985 131.104 131.823 131.307C132.66 131.51 133.617 131.809 134.669 132.049C135.722 132.288 136.882 132.587 138.143 132.82C139.405 133.053 140.745 133.304 142.168 133.538C145.254 133.994 148.365 134.268 151.485 134.357C154.603 134.414 157.721 134.262 160.819 133.902C162.248 133.705 163.606 133.532 164.856 133.268C165.483 133.143 166.093 133.053 166.649 132.91L168.336 132.515C169.4 132.282 170.333 131.965 171.17 131.738C172.007 131.51 172.707 131.265 173.281 131.062L174.615 130.613C174.758 130.558 174.906 130.516 175.057 130.488Z" fill="#263238"/>
<path d="M126.339 57.7186C126.339 57.7186 122.028 65.0978 127.535 74.9587C133.043 84.8195 149.063 107.196 149.063 107.196C151.111 108.026 153.272 108.548 155.473 108.745C158.164 108.912 171.194 101.725 175.392 99.3745L176.235 96.7195L173.694 92.091L171.009 87.1995L156.059 91.5528L140.117 59.9133C140.117 59.9133 135.399 53.1022 126.339 57.7186Z" fill="#E874A6"/>
<path d="M132.504 82.9836C132.504 82.9836 132.57 83.0613 132.684 83.2228L133.192 83.9404L135.124 86.7091L142.186 96.9466L147.053 104.033L147.711 104.996C147.956 105.295 148.184 105.594 148.441 105.91C148.968 106.512 149.571 107.043 150.235 107.489C151.639 108.406 153.304 108.838 154.977 108.721C155.41 108.693 155.841 108.641 156.268 108.566C156.43 108.518 156.645 108.416 156.866 108.332C157.088 108.249 157.273 108.159 157.464 108.063C158.272 107.692 159.085 107.304 159.904 106.909L164.909 104.463L175.392 99.2369L175.314 99.3266L175.446 98.914C175.685 98.1605 175.918 97.4131 176.158 96.6716V96.7971L170.937 87.2712L171.111 87.3429L156.161 91.6784L156.053 91.7142L155.999 91.6126C152.005 83.6533 148.668 77.0097 146.318 72.3454L143.627 66.9276L142.921 65.4924C142.85 65.3369 142.79 65.2174 142.748 65.1217L142.694 64.9961C142.725 65.0315 142.749 65.072 142.766 65.1157L142.963 65.4745L143.699 66.8917C144.345 68.1415 145.277 69.9654 146.461 72.2736L156.245 91.487L156.083 91.4212L171.033 87.0559L171.146 87.02L171.206 87.1277C172.893 90.1894 174.639 93.3766 176.433 96.6476L176.469 96.7015V96.7672C176.235 97.5087 175.996 98.2562 175.763 99.0097L175.631 99.4223V99.4881H175.572L165.083 104.709L160.078 107.148C159.252 107.543 158.439 107.932 157.632 108.296L157.034 108.572C156.822 108.669 156.605 108.753 156.382 108.823C155.949 108.902 155.512 108.954 155.072 108.978C153.339 109.094 151.615 108.641 150.163 107.687C149.482 107.225 148.863 106.679 148.321 106.06C148.058 105.755 147.825 105.426 147.58 105.115L146.922 104.146C145.182 101.593 143.561 99.219 142.084 97.0423L135.028 86.7808L133.144 83.9763L132.66 83.2407C132.552 83.0733 132.504 82.9836 132.504 82.9836Z" fill="#263238"/>
<path d="M153.775 98.5075C153.691 98.4656 154.373 96.9707 155.019 95.0511C155.665 93.1316 156.041 91.5349 156.131 91.5529C156.033 92.7816 155.759 93.9898 155.318 95.1408C154.97 96.3322 154.45 97.4664 153.775 98.5075Z" fill="#263238"/>
<path d="M145.23 107.244C144.799 107.088 144.396 106.866 144.034 106.586C143.13 105.961 142.287 105.252 141.516 104.469C140.743 103.694 140.014 102.876 139.333 102.018C139.03 101.678 138.769 101.302 138.556 100.899C138.634 100.834 139.937 102.448 141.737 104.248C142.49 105.016 143.289 105.736 144.129 106.407C144.515 106.661 144.882 106.94 145.23 107.244Z" fill="#263238"/>
<path d="M142.102 26.1867C141.942 26.2674 141.813 26.3985 141.734 26.5597C141.656 26.721 141.632 26.9036 141.668 27.0795C141.703 27.2554 141.795 27.4148 141.93 27.5333C142.064 27.6518 142.234 27.7228 142.413 27.7354C144.877 28.2916 145.2 23.4837 144.65 22.1143C145.579 21.3484 146.409 20.4684 147.119 19.4952C147.909 17.9581 148.299 16.2473 148.255 14.5199C149.14 14.5737 152.92 13.3239 152.519 13.2103C151.598 12.9472 149.72 12.3552 149.224 11.5539C148.73 10.6984 148.018 9.98853 147.161 9.49609C146.304 9.00365 145.333 8.74605 144.345 8.7493C143.344 8.82578 142.396 9.22431 141.641 9.88517C140.887 10.546 140.366 11.4336 140.159 12.415C138.961 12.4565 137.798 12.8208 136.79 13.4692C135.783 14.1176 134.969 15.026 134.436 16.0986C133.886 17.2219 133.618 18.4622 133.654 19.7124C133.691 20.9625 134.031 22.1851 134.645 23.2744C135.044 23.7983 135.302 24.4161 135.393 25.0684C135.393 25.8817 134.795 26.5275 134.376 27.2032C133.21 29.045 133.3 31.5686 134.197 33.5718C135.094 35.5751 135.728 36.2747 137.001 36.6754C139.501 37.4587 136.607 42.6074 140.763 42.6074" fill="#263238"/>
<path d="M142.204 28.196C142.187 27.8375 142.081 27.489 141.894 27.1826C141.707 26.8762 141.446 26.6219 141.135 26.4431C140.824 26.2643 140.473 26.1668 140.114 26.1596C139.755 26.1524 139.4 26.2358 139.082 26.4021C138.341 26.8326 137.773 27.6937 137.838 29.3501C138.018 33.7633 142.413 32.669 142.413 32.5434C142.413 32.4178 142.299 30.0259 142.204 28.196Z" fill="#B78876"/>
<path d="M140.996 30.905C140.996 30.905 140.924 30.9588 140.798 31.0246C140.706 31.0711 140.606 31.0983 140.503 31.1045C140.4 31.1107 140.297 31.0957 140.2 31.0604C139.908 30.8922 139.665 30.6489 139.498 30.3556C139.331 30.0622 139.245 29.7296 139.25 29.3921C139.223 29.0135 139.28 28.6337 139.417 28.2798C139.454 28.1423 139.524 28.016 139.621 27.9118C139.718 27.8075 139.839 27.7286 139.973 27.6818C140.06 27.6534 140.154 27.6571 140.239 27.6922C140.323 27.7273 140.392 27.7915 140.434 27.8732C140.499 27.9928 140.476 28.0825 140.499 28.0884C140.523 28.0944 140.589 28.0107 140.547 27.8313C140.519 27.7226 140.453 27.6274 140.362 27.5622C140.236 27.4766 140.082 27.4424 139.931 27.4665C139.751 27.5085 139.584 27.5968 139.448 27.7226C139.312 27.8484 139.21 28.0074 139.154 28.1841C138.985 28.5738 138.911 28.9981 138.939 29.422C139.004 30.313 139.495 31.1262 140.135 31.2817C140.255 31.31 140.379 31.3119 140.5 31.2871C140.621 31.2623 140.735 31.2115 140.834 31.1382C140.996 31.0126 141.014 30.9109 140.996 30.905Z" fill="#AA6550"/>
<path d="M174.782 31.0424C174.782 31.0424 174.878 30.9048 175.033 30.6238C175.311 30.0989 175.449 29.5118 175.435 28.9184C175.422 28.3249 175.257 27.7448 174.956 27.2332C174.392 26.4509 173.588 25.8753 172.665 25.5947C171.673 25.194 170.459 24.9489 169.394 24.1535C168.327 23.2421 167.645 21.9599 167.487 20.5656C167.248 19.1185 167.367 17.5757 167.253 16.0568C167.211 15.2765 167.054 14.5068 166.787 13.7725C166.526 13.0206 166.075 12.3491 165.477 11.823C164.854 11.3305 164.103 11.0256 163.313 10.944C162.536 10.8569 161.751 10.8811 160.981 11.0157C160.222 11.1778 159.452 11.2837 158.678 11.3327C158.292 11.3574 157.904 11.3034 157.54 11.1739C157.175 11.0444 156.84 10.842 156.555 10.5792C156.081 10.0353 155.679 9.43227 155.359 8.78523C155.049 8.22123 154.608 7.73947 154.074 7.37996C153.097 6.74379 151.919 6.49042 150.767 6.66836C149.817 6.81331 148.928 7.22847 148.208 7.86433C147.663 8.35341 147.206 8.93179 146.856 9.57458C146.571 10.1316 146.344 10.7168 146.18 11.3207C146.18 11.3207 146.18 11.2789 146.18 11.1951C146.194 11.0737 146.218 10.9537 146.252 10.8363C146.364 10.381 146.526 9.93975 146.736 9.52076C147.076 8.84993 147.529 8.24297 148.076 7.7268C148.811 7.04195 149.729 6.58498 150.719 6.41122C151.93 6.2129 153.171 6.46842 154.205 7.12881C154.775 7.50727 155.246 8.01555 155.581 8.61182C155.898 9.22167 156.29 9.79005 156.747 10.3041C157.006 10.5401 157.31 10.7206 157.641 10.8348C157.972 10.9489 158.323 10.9942 158.672 10.9679C159.431 10.9157 160.184 10.8077 160.927 10.645C161.717 10.5102 162.522 10.4841 163.319 10.5672C164.168 10.6596 164.974 10.9891 165.645 11.518C166.287 12.0774 166.771 12.7948 167.05 13.599C167.325 14.3689 167.486 15.1747 167.529 15.991C167.642 17.5697 167.529 19.0766 167.744 20.4819C167.881 21.8168 168.523 23.0489 169.538 23.9263C170.53 24.6917 171.726 24.9549 172.731 25.3734C173.691 25.6791 174.522 26.2955 175.093 27.1256C175.474 27.7855 175.627 28.5525 175.53 29.3082C175.478 29.7789 175.323 30.2324 175.075 30.6357C174.996 30.7839 174.898 30.9207 174.782 31.0424Z" fill="#455A64"/>
<path d="M163.289 19.8C163.319 19.8 163.289 20.1588 163.349 20.7927C163.44 21.688 163.704 22.5571 164.126 23.3521C164.412 23.9005 164.775 24.4058 165.202 24.8531C165.705 25.3567 166.267 25.7965 166.877 26.1626C167.213 26.383 167.524 26.6397 167.804 26.9281C168.095 27.2442 168.3 27.6289 168.402 28.0463C168.533 28.9084 168.533 29.7855 168.402 30.6476C168.336 31.0505 168.35 31.4626 168.445 31.8598C168.539 32.2571 168.712 32.6316 168.952 32.9618C169.499 33.5158 170.155 33.9514 170.877 34.2415C171.552 34.5303 172.179 34.9194 172.737 35.3956C172.985 35.6321 173.187 35.9117 173.335 36.2208C173.462 36.509 173.541 36.8161 173.568 37.1298C173.61 37.5973 173.549 38.0683 173.389 38.5095C173.229 38.9507 172.973 39.3514 172.641 39.6832C172.455 39.8538 172.243 39.9949 172.014 40.1018C171.858 40.1675 171.774 40.1974 171.768 40.1855C172.053 40.0185 172.316 39.8177 172.552 39.5875C172.851 39.2613 173.077 38.8747 173.214 38.4538C173.351 38.033 173.396 37.5876 173.347 37.1477C173.286 36.5455 173.008 35.9862 172.564 35.575C172.022 35.1284 171.417 34.7637 170.77 34.4926C170.006 34.1934 169.313 33.737 168.737 33.1531C168.438 32.8123 168.232 32.4005 168.139 31.9572C168.059 31.5173 168.039 31.0688 168.079 30.6236C168.204 29.7932 168.204 28.9485 168.079 28.1181C167.848 27.3837 167.342 26.7668 166.667 26.3959C166.047 26.0094 165.476 25.5474 164.969 25.0205C164.535 24.5518 164.173 24.0219 163.893 23.4478C163.475 22.6237 163.235 21.7213 163.187 20.7987C163.167 20.5499 163.167 20.2999 163.187 20.0512C163.207 19.9625 163.242 19.8777 163.289 19.8Z" fill="#455A64"/>
<path d="M131.948 38.2781C131.892 38.2698 131.838 38.2537 131.787 38.2302C131.634 38.1676 131.486 38.0936 131.344 38.009C130.811 37.6735 130.369 37.2113 130.059 36.6635C129.808 36.2362 129.648 35.7623 129.587 35.2707C129.526 34.7792 129.567 34.2805 129.706 33.8051C129.895 33.1848 130.235 32.621 130.695 32.164C131.155 31.7069 131.721 31.3709 132.343 31.1859L132.277 31.3952C131.727 30.7499 131.32 29.996 131.081 29.1827C130.953 28.7344 130.926 28.2633 131.001 27.8032C131.076 27.3431 131.253 26.9054 131.518 26.5216C131.802 26.1076 132.21 25.7937 132.684 25.6246C133.169 25.4918 133.677 25.4653 134.173 25.5469C134.642 25.6288 135.121 25.6489 135.596 25.6067C135.823 25.5811 136.041 25.5016 136.232 25.3747C136.422 25.2478 136.579 25.0772 136.69 24.8772C136.986 24.2441 137.035 23.5233 136.828 22.856C136.654 22.1802 136.361 21.5284 136.23 20.8288C135.929 19.4891 136.107 18.0864 136.732 16.8641C137.288 15.7759 138.179 14.8953 139.274 14.3526C140.2 13.8934 141.232 13.6871 142.264 13.7546L142.156 13.8443C142.263 13.0886 142.641 12.3977 143.22 11.9008C143.632 11.5276 144.129 11.2607 144.667 11.1234C145.008 11.0436 145.362 11.0294 145.708 11.0816C145.827 11.0963 145.944 11.1264 146.055 11.1713C145.6 11.1039 145.137 11.1263 144.691 11.237C144.171 11.3757 143.692 11.6406 143.298 12.0084C142.762 12.4839 142.417 13.1388 142.329 13.8502V13.9459H142.228C141.241 13.893 140.258 14.0991 139.375 14.5439C138.344 15.0669 137.506 15.9047 136.983 16.9359C136.4 18.1032 136.237 19.4359 136.523 20.7092C136.672 21.367 136.965 22.0128 137.151 22.7304C137.382 23.472 137.322 24.2738 136.983 24.9728C136.855 25.2158 136.671 25.4249 136.447 25.5829C136.222 25.7409 135.963 25.8433 135.692 25.8818C135.189 25.9316 134.682 25.9114 134.185 25.822C133.733 25.7449 133.27 25.7652 132.827 25.8818C132.415 26.03 132.059 26.304 131.811 26.6651C131.573 27.0101 131.413 27.403 131.343 27.8161C131.273 28.2293 131.293 28.6528 131.404 29.0571C131.622 29.8307 131.996 30.5513 132.504 31.174L132.624 31.3295L132.439 31.3773C131.853 31.5459 131.318 31.8561 130.881 32.2806C130.444 32.7051 130.118 33.2308 129.933 33.8111C129.796 34.2605 129.75 34.7327 129.799 35.1999C129.847 35.6672 129.988 36.1201 130.214 36.532C130.499 37.0717 130.909 37.5352 131.41 37.8834C131.739 38.1764 131.954 38.2601 131.948 38.2781Z" fill="#455A64"/>
<path d="M146.443 12.0383C146.097 12.2145 145.795 12.4658 145.558 12.7739C145.058 13.7097 144.942 14.8037 145.236 15.8236V15.9372H145.128C144.493 16.1073 143.907 16.4221 143.414 16.8568C142.921 17.2914 142.535 17.8343 142.287 18.4428C142.151 18.7862 142.072 19.1499 142.054 19.5192C142.064 19.9211 142.11 20.3214 142.192 20.7151C142.278 21.1293 142.336 21.5488 142.365 21.9709C142.395 22.4325 142.271 22.8909 142.012 23.2745C141.438 24.0034 140.684 24.5701 139.824 24.919C139.072 25.2518 138.379 25.7041 137.773 26.2585C136.776 27.2397 136.188 28.5625 136.128 29.9601C136.103 30.9041 136.308 31.8402 136.726 32.6869C137.019 33.2849 137.264 33.5719 137.24 33.5958C137.169 33.5353 137.105 33.4671 137.049 33.3925C136.887 33.1881 136.743 32.97 136.619 32.7407C136.148 31.8885 135.908 30.9276 135.925 29.9541C135.964 28.4934 136.563 27.1036 137.599 26.0731C138.218 25.4886 138.932 25.0135 139.71 24.6679C140.521 24.3233 141.231 23.778 141.773 23.0832C142.264 22.4134 142.042 21.5344 141.917 20.745C141.835 20.3413 141.788 19.9311 141.779 19.5192C141.797 19.1089 141.884 18.7047 142.036 18.3232C142.307 17.6778 142.724 17.1047 143.256 16.6499C143.788 16.195 144.419 15.8711 145.098 15.704L145.014 15.9073C144.751 14.5499 144.954 13.3539 145.457 12.726C145.638 12.4865 145.874 12.2938 146.144 12.1639C146.237 12.1074 146.338 12.065 146.443 12.0383Z" fill="#455A64"/>
<path d="M173.538 67.1011C173.675 67.3389 173.79 67.5892 173.879 67.8486C173.975 68.0997 174.106 68.3987 174.226 68.7575L174.603 69.9834C174.716 70.4438 174.824 70.9581 174.944 71.5082C175.041 72.1024 175.107 72.7012 175.141 73.3022C175.236 74.6713 175.147 76.0469 174.878 77.3925C174.326 79.8089 173.567 82.1737 172.611 84.4607C172.295 85.3039 172.013 86.0035 171.816 86.5596C171.736 86.8235 171.628 87.0781 171.493 87.3191C171.537 87.0459 171.607 86.7776 171.703 86.5178C171.852 86.0095 172.097 85.2799 172.408 84.3829C173.294 82.0871 174.016 79.7311 174.567 77.3327C174.835 76.0111 174.932 74.6604 174.854 73.3142C174.854 72.7162 174.734 72.1182 174.686 71.5621C174.639 71.0059 174.489 70.5096 174.387 70.0492C174.286 69.5887 174.154 69.194 174.059 68.8233C173.963 68.4525 173.837 68.1595 173.76 67.9024C173.661 67.6428 173.587 67.3745 173.538 67.1011Z" fill="#263238"/>
<g opacity="0.3">
<path opacity="0.3" d="M137.838 90.7637C138.586 93.6101 140.547 97.2399 141.923 100.439C143.256 103.647 145.152 106.592 147.52 109.134C149.912 111.645 153.404 113.38 156.842 112.865C159.3 112.501 161.447 111.071 163.504 109.678L169.532 105.606C170.283 105.166 170.946 104.59 171.487 103.907C171.753 103.563 171.922 103.153 171.977 102.721C172.032 102.289 171.97 101.85 171.798 101.45L162.864 105.797C160.765 106.82 158.636 107.854 156.34 108.279C154.044 108.703 151.52 108.446 149.631 107.083C148.498 106.154 147.532 105.04 146.772 103.788L137.803 90.7936" fill="black"/>
</g>
<path d="M140.691 62.1676C140.649 62.1676 140.284 61.5696 139.567 60.7205C137.688 58.445 135.156 56.8003 132.313 56.0083C131.225 55.7033 130.519 55.6196 130.519 55.5658C130.683 55.537 130.851 55.537 131.015 55.5658C131.464 55.6087 131.91 55.6826 132.349 55.7871C135.289 56.4736 137.897 58.1657 139.722 60.571C139.997 60.9285 140.245 61.3063 140.464 61.7012C140.637 61.9942 140.715 62.1556 140.691 62.1676Z" fill="#263238"/>
<g opacity="0.3">
<path opacity="0.3" d="M128.163 130.302C134.568 134.951 142.117 137.77 150.001 138.459C157.973 139.093 165.125 136.27 172.306 132.748V131.397C164.744 133.755 156.814 134.712 148.907 134.219C136.331 133.257 128.163 130.302 128.163 130.302Z" fill="black"/>
</g>
<path d="M191.783 88.0307C191.783 88.0307 197.386 86.3503 201.022 74.1155L193.936 82.5292L191.783 88.0307Z" fill="#FFA8A7"/>
<path d="M176.11 96.893C176.11 96.893 188.069 65.4806 188.362 65.4268C188.655 65.373 203.019 55.8052 203.019 55.8052L204.729 56.1939L190.366 66.7364L177.629 97.6943L176.11 96.893Z" fill="#E0E0E0"/>
<path d="M177.216 98.5972L190.372 66.7125L204.759 56.1938C204.969 56.1938 191.604 88.4852 191.604 88.4852L177.216 98.5972Z" fill="#263238"/>
<path d="M175.942 84.8494C175.942 84.8494 177.856 80.4841 178.866 79.8622C179.991 79.1685 182.377 77.3386 183.148 75.6762C183.668 74.558 184.523 74.9287 184.523 74.9287L182.951 79.2941L191.657 74.1155C191.789 74.556 191.814 75.0215 191.731 75.4737C191.648 75.9259 191.459 76.3519 191.179 76.7167C190.21 78.0383 190.533 77.9127 190.533 77.9127C190.533 77.9127 191.58 78.5406 191.053 79.4735C190.626 80.1951 190.154 80.89 189.642 81.5545C189.642 81.5545 190.605 82.7504 190.24 83.8328C190.472 84.5756 190.519 85.3639 190.378 86.1291C190.15 87.4686 187.741 90.004 187.741 90.004L175.703 95.7328L171.182 87.325L175.942 84.8494Z" fill="#FFA8A7"/>
<path d="M185.875 77.5659C185.099 78.2259 184.257 78.805 183.363 79.2941C182.522 79.8716 181.627 80.3662 180.69 80.7711C181.466 80.1086 182.307 79.5275 183.202 79.037C184.042 78.4599 184.938 77.9672 185.875 77.5659Z" fill="#AA6550"/>
<path d="M190.701 77.4165C190.024 78.2791 189.271 79.0796 188.452 79.8085C187.701 80.6204 186.876 81.361 185.988 82.021C186.661 81.1433 187.413 80.3305 188.237 79.5932C188.99 78.7942 189.815 78.0656 190.701 77.4165Z" fill="#AA6550"/>
<path d="M190.055 81.1299C189.788 81.6755 189.433 82.1727 189.002 82.6009C188.645 83.0941 188.209 83.5246 187.711 83.8746C187.983 83.3312 188.34 82.8346 188.769 82.4036C189.123 81.9099 189.558 81.4793 190.055 81.1299Z" fill="#AA6550"/>
<path d="M190.276 83.6296C190.336 83.6834 190.073 84.0901 189.732 84.5804C189.391 85.0708 189.134 85.4535 189.026 85.4116C188.919 85.3698 189.134 84.9033 189.487 84.401C189.84 83.8987 190.21 83.5758 190.276 83.6296Z" fill="#AA6550"/>
<path d="M193.756 83.2946C193.756 83.2946 198.229 79.7964 198.845 78.2297C198.965 77.9187 201.71 73.5414 201.716 71.8252V68.6499L200.627 63.9617C199.096 64.1411 198.833 65.2174 198.917 66.5809C198.959 67.1789 199.419 69.3197 199.419 69.3197L198.947 71.8252C198.863 70.5706 198.549 69.3421 198.02 68.2014C197.679 67.6034 196.884 67.9802 196.567 68.2851C195.969 68.8831 196.286 69.6007 196.495 71.4306C196.902 74.9706 196.746 75.5328 196.746 75.5328C196.702 74.2035 196.369 72.8998 195.772 71.7116C195.407 71.0777 195 70.7249 194.576 70.9522C194.151 71.1794 193.637 72.0345 194.037 73.3441C194.791 75.8377 194.97 77.4045 194.899 78.128C194.405 77.4781 193.988 76.7739 193.655 76.0291C193.609 75.9003 193.524 75.7889 193.412 75.7101C193.3 75.6314 193.167 75.5891 193.03 75.5891C192.893 75.5891 192.76 75.6314 192.648 75.7101C192.536 75.7889 192.451 75.9003 192.405 76.0291C192.076 76.8782 192.22 77.1772 192.883 79.617C193.206 80.8788 193.756 83.2946 193.756 83.2946Z" fill="#FFA8A7"/>
<path d="M198.564 78.7321C198.703 78.4028 198.871 78.0866 199.067 77.7873C199.247 77.4565 199.397 77.1103 199.515 76.7528C199.573 76.559 199.597 76.3567 199.587 76.1548C199.587 75.9275 199.527 75.6883 199.485 75.4432C199.225 74.2599 199.04 73.0616 198.929 71.8552C199.344 73.0029 199.634 74.1917 199.796 75.4013C199.832 75.6525 199.874 75.8976 199.892 76.1428C199.903 76.3906 199.867 76.6384 199.784 76.8724C199.652 77.2462 199.473 77.6018 199.252 77.9308C198.887 78.463 198.6 78.756 198.564 78.7321Z" fill="#AA6550"/>
<path d="M195.616 71.5203C196.269 72.7535 196.779 74.0577 197.135 75.4072C197.47 76.5135 197.733 77.5241 197.871 78.2716C197.978 78.6605 198.015 79.0656 197.978 79.4675C197.844 79.0766 197.736 78.677 197.655 78.2716C197.458 77.548 197.171 76.5493 196.836 75.455C196.172 73.2724 195.538 71.5203 195.616 71.5203Z" fill="#AA6550"/>
<path d="M195.843 81.8056C195.789 81.5089 195.751 81.2095 195.73 80.9087C195.586 80.206 195.334 79.5301 194.982 78.9054C194.576 78.1579 194.163 77.4941 193.93 76.9739C193.769 76.7073 193.668 76.4097 193.631 76.1008C193.679 76.1008 193.834 76.3938 194.121 76.8722C194.408 77.3506 194.839 77.9905 195.257 78.7559C195.628 79.4117 195.862 80.1359 195.945 80.8847C196.001 81.1951 195.966 81.515 195.843 81.8056Z" fill="#AA6550"/>
<path d="M152.979 245.355C152.979 245.355 167.564 250.827 167.714 253.524L139.489 253.416V246.031L140.523 246.276C144.672 247.244 149.018 246.923 152.979 245.355Z" fill="#263238"/>
<path d="M167.212 252.747C167.212 252.831 161.01 252.902 153.368 252.902C145.726 252.902 139.519 252.831 139.519 252.747C139.519 252.663 145.72 252.591 153.368 252.591C161.016 252.591 167.212 252.657 167.212 252.747Z" fill="#455A64"/>
<path d="M167.738 253.524C167.296 252.827 166.783 252.177 166.207 251.587C164.742 250.221 162.992 249.2 161.082 248.597C158.846 247.825 156.896 247 155.455 246.396C154.744 246.091 154.175 245.834 153.787 245.648C153.575 245.569 153.374 245.462 153.189 245.332C153.408 245.378 153.623 245.446 153.829 245.535L155.539 246.187C156.98 246.743 158.959 247.538 161.184 248.304C163.133 248.909 164.909 249.973 166.362 251.407C166.792 251.851 167.164 252.347 167.469 252.884C167.595 253.08 167.686 253.297 167.738 253.524Z" fill="#455A64"/>
<path d="M22.8923 97.3544C22.8923 97.3544 13.76 90.9854 9.56763 92.1399C5.37529 93.2945 0 99.1903 0 99.1903C0 99.1903 10.637 96.1241 13.8452 96.7676C16.8417 97.1915 19.8661 97.3876 22.8923 97.3544Z" fill="#E0E0E0"/>
<path d="M25.9679 99.6538C24.6336 102.663 22.3434 105.171 21.0564 108.171C19.5917 111.676 19.5679 115.617 20.9901 119.139C23.3527 116.5 24.9611 113.274 25.6462 109.799C26.315 106.585 26.6731 103.315 26.7155 100.032L25.9679 99.6538Z" fill="#E0E0E0"/>
<path d="M24.5673 98.8875C24.9837 97.6573 14.6495 98.1967 11.3184 102.181C7.98721 106.165 4.6939 110.499 7.53296 120.559C7.53296 120.559 13.7694 109.657 13.7694 109.818C13.7694 109.979 23.7345 101.291 24.5673 98.8875Z" fill="#E0E0E0"/>
<path d="M24.6431 98.7455C23.6967 99.1146 33.0751 101.973 37.4094 102.323C39.7846 102.594 42.1888 102.214 44.3651 101.225C44.3651 101.225 38.0718 93.5311 24.6431 98.7455Z" fill="#E0E0E0"/>
<path d="M72.0837 138.313C72.0837 138.313 76.6073 136.42 77.8849 137.745C79.1625 139.07 84.3769 145.94 89.3263 146.366C89.3263 146.366 84.8027 136.751 80.705 135.199C78.0079 134.177 72.0837 138.313 72.0837 138.313Z" fill="#E0E0E0"/>
<path d="M73.2478 137.792C73.2478 137.792 73.068 134.395 71.3551 132.606C69.6422 130.817 63.5003 129.606 63.5003 129.606C64.7408 131.562 66.2581 133.328 68.005 134.849C69.6297 136.034 71.3897 137.022 73.2478 137.792Z" fill="#E0E0E0"/>
<path d="M73.2478 137.593C73.2478 137.593 70.0964 137.593 67.8725 141.483C66.3907 144.154 65.2947 147.021 64.617 150C64.8063 149.669 70.5601 147.161 72.0743 143.962C72.9844 141.968 73.3875 139.781 73.2478 137.593Z" fill="#E0E0E0"/>
<path d="M73.9575 137.593C73.9575 137.593 74.5253 145.088 75.7934 146.366C77.0616 147.644 78.907 152.3 78.907 152.3C78.907 152.3 81.746 145.514 80.1751 142.268C78.6041 139.022 73.9575 137.593 73.9575 137.593Z" fill="#E0E0E0"/>
<path d="M46.4944 152.073C46.1348 152.612 38.9235 158.233 37.7974 160.959C36.6712 163.684 37.6176 167.848 37.7974 169.116C37.9772 170.384 44.3178 167.479 45.3682 162.586C46.0717 159.125 46.4487 155.605 46.4944 152.073Z" fill="#E0E0E0"/>
<path d="M47.9139 147.861C47.9139 148.76 48.018 157.646 50.3555 160.75C52.3198 163.122 54.5416 165.267 56.9799 167.148C56.9799 167.148 58.513 155.915 55.2765 152.441C53.2442 150.323 50.7127 148.748 47.9139 147.861Z" fill="#E0E0E0"/>
<path d="M46.8445 149.385C46.3145 149.262 39.7563 148.637 36.6334 152.375C34.6599 154.803 33.0237 157.487 31.7691 160.353C31.7691 160.353 41.6869 155.432 43.5039 153.255C45.3209 151.079 46.8445 149.385 46.8445 149.385Z" fill="#E0E0E0"/>
<path d="M51.3586 145.316C52.1818 144.752 53.1507 144.438 54.1483 144.413C55.1458 144.388 56.1293 144.652 56.98 145.174C59.9231 147.01 64.8252 154.145 64.8252 154.145C64.8252 154.145 58.8253 153.776 55.7024 150.748C53.9569 149.196 52.4881 147.36 51.3586 145.316Z" fill="#E0E0E0"/>
<path d="M47.0905 146.423C47.0905 146.423 43.3051 143.186 40.3809 142.467C37.4567 141.748 28.9584 143.868 28.9584 143.868C31.8607 145.828 35.3493 146.731 38.8383 146.423C44.7341 145.912 47.0905 146.423 47.0905 146.423Z" fill="#E0E0E0"/>
<path d="M34.4662 179.327C34.4662 179.327 31.7407 184.589 34.4662 187.494C37.1917 190.4 38.6491 196.201 38.6491 196.201C38.6491 196.201 43.3809 191.658 40.9961 186.586C39.6038 183.562 37.3269 181.031 34.4662 179.327Z" fill="#E0E0E0"/>
<path d="M30.1509 179.46C29.4222 179.829 24.7093 186.17 24.3497 190.703C23.9901 195.236 23.621 203.005 24.3497 202.494C25.0784 201.983 30.3307 197.053 31.7786 192.34C33.2265 187.627 30.1509 179.46 30.1509 179.46Z" fill="#E0E0E0"/>
<path d="M28.3244 178.968C27.6051 179.148 20.7535 177.88 16.9019 182.753C14.2196 186.477 11.9687 190.493 10.1922 194.725C10.1922 194.725 20.1668 189.624 22.4948 186.823C24.8229 184.021 28.3244 178.968 28.3244 178.968Z" fill="#E0E0E0"/>
<path d="M67.2479 170.261C67.2479 170.261 65.1754 176.432 67.2479 181.873C68.433 185.029 69.9161 188.065 71.6768 190.939C71.6768 190.939 74.743 180.056 72.7557 177.151C70.7683 174.246 67.2479 170.261 67.2479 170.261Z" fill="#E0E0E0"/>
<path d="M68.3835 169.608C69.1122 170.29 77.6199 182.498 83.4021 183.586C89.1843 184.674 84.3012 183.122 84.3012 183.122C84.3012 183.122 82.4842 174.899 79.8911 171.492C77.2981 168.085 68.3835 169.608 68.3835 169.608Z" fill="#E0E0E0"/>
<path d="M67.0586 169.391C67.0586 169.391 73.3329 165.037 75.784 163.93C78.2351 162.823 86.3548 164.28 86.3548 164.28C86.3548 164.28 76.5222 169.41 74.1563 168.917C71.7904 168.425 67.087 170.469 67.087 170.469" fill="#E0E0E0"/>
<path d="M88.9004 110.026C88.9004 110.026 83.4683 115.789 84.1687 120.294C84.6897 123.296 85.4686 126.246 86.4967 129.114L88.8815 121.193L88.9004 110.026Z" fill="#E0E0E0"/>
<path d="M89.6386 108.871C89.6386 108.871 88.3799 117.701 90.8972 121.297C93.4145 124.893 96.8403 131.707 97.1999 131.205C97.5596 130.704 102.783 125.981 99.0075 119.319C96.6391 115.227 93.4492 111.67 89.6386 108.871Z" fill="#E0E0E0"/>
<path d="M87.8121 110.433C87.8121 110.433 79.1246 107.915 77.8754 112.06C76.6262 116.206 75.5758 119.802 75.5758 119.802C77.4152 117.88 79.4734 116.181 81.7081 114.739C83.8267 113.426 85.865 111.988 87.8121 110.433Z" fill="#E0E0E0"/>
<path d="M48.8508 112.77L49.5605 112.155C51.6141 110.404 57.6045 105.587 60.6329 106.326C63.628 107.173 66.5569 108.239 69.3961 109.515C69.3961 109.515 56.2702 116.329 48.8508 112.77Z" fill="#E0E0E0"/>
<path d="M50.611 112.827C50.611 112.174 46.6647 111.124 43.1727 114.72C39.6806 118.316 39.1507 120.54 39.1507 120.54C39.1507 120.54 50.365 119.045 50.611 112.827Z" fill="#E0E0E0"/>
<path d="M50.0242 113.556C50.0242 113.556 46.0306 118.146 49.0779 122.65C52.1251 127.155 54.756 131.48 54.756 131.48C55.6967 128.567 55.6967 125.431 54.756 122.518C53.6621 119.299 52.065 116.275 50.0242 113.556Z" fill="#E0E0E0"/>
<path d="M64.9198 124.988C64.74 123.89 66.1879 114.9 54.2923 115.789H53.204C53.204 115.789 58.8821 124.969 60.1975 127.855C60.9786 129.821 62.2451 131.556 63.8788 132.899C65.2794 134.158 65.0996 126.086 64.9198 124.988Z" fill="#E0E0E0"/>
<path d="M67.2195 169.864C67.2937 168.459 67.0802 167.053 66.592 165.733C66.1038 164.414 65.3513 163.208 64.3805 162.189C64.2006 161.99 63.9357 161.791 63.6991 161.905C63.6241 161.953 63.5595 162.015 63.5091 162.088C63.4587 162.161 63.4236 162.244 63.4057 162.331C62.975 164.001 63.2127 165.773 64.0682 167.271C64.9326 168.746 66.0177 170.08 67.2858 171.227" fill="#E0E0E0"/>
<path d="M33.6996 178.182C31.5425 174.262 28.1532 171.162 24.0563 169.362C23.8115 169.226 23.5303 169.17 23.2519 169.201C23.048 169.265 22.8687 169.39 22.7383 169.56C22.608 169.729 22.5329 169.934 22.5232 170.148C22.5098 171.042 22.8499 171.906 23.4696 172.552C26.0915 175.977 29.9244 178.269 34.1823 178.958" fill="#E0E0E0"/>
<path d="M81.358 164.905C81.358 164.905 80.7523 164.905 79.6546 165.075C78.1173 165.278 76.6108 165.669 75.1689 166.239C73.031 167.091 71.0164 168.224 69.1784 169.608C66.9494 171.337 64.8375 173.212 62.8568 175.22C58.532 179.431 54.7182 183.33 52.0778 186.264C50.7624 187.731 49.7119 188.933 48.9927 189.775L48.1505 190.721C47.9612 190.939 47.8571 191.053 47.8382 191.043C47.9052 190.908 47.9878 190.781 48.0842 190.665C48.264 190.438 48.5195 190.087 48.8602 189.662C49.5416 188.791 50.5542 187.551 51.8507 186.056C54.4437 183.065 58.2291 179.11 62.554 174.908C64.5436 172.878 66.6785 170.996 68.9419 169.277C70.8196 167.888 72.88 166.763 75.0648 165.936C76.538 165.388 78.0788 165.041 79.6451 164.905C80.0675 164.881 80.4909 164.881 80.9132 164.905C81.061 164.889 81.2102 164.889 81.358 164.905Z" fill="#E0E0E0"/>
<path d="M47.611 188.441C47.5448 188.488 46.835 187.258 45.2925 185.602C43.2865 183.45 40.8238 181.776 38.0856 180.702C35.3473 179.627 32.4032 179.18 29.4694 179.394C27.2171 179.545 25.8638 179.961 25.8449 179.886C26.1443 179.736 26.4627 179.628 26.7913 179.564C27.663 179.333 28.5525 179.174 29.4505 179.091C32.4399 178.789 35.4582 179.203 38.2557 180.299C41.0532 181.395 43.5497 183.141 45.5385 185.394C46.1424 186.068 46.687 186.793 47.1663 187.561C47.3501 187.835 47.4995 188.13 47.611 188.441Z" fill="#E0E0E0"/>
<path d="M49.9485 112.704C49.9569 112.792 49.9569 112.881 49.9485 112.969C49.9485 113.159 49.9485 113.414 49.8823 113.726C49.816 114.417 49.7214 115.392 49.5984 116.632C49.3429 119.149 48.9738 122.802 48.5668 127.316C47.7719 136.335 46.8255 148.836 46.8445 162.662C46.8634 176.489 47.8571 188.99 48.5574 198.018C48.9265 202.513 49.2198 206.166 49.428 208.721C49.5227 209.961 49.5984 210.936 49.6551 211.627C49.6551 211.939 49.6552 212.194 49.7025 212.384C49.7149 212.472 49.7149 212.561 49.7025 212.649C49.6786 212.565 49.6628 212.48 49.6551 212.393C49.6551 212.194 49.6552 211.948 49.57 211.636C49.4943 210.945 49.3902 209.971 49.2671 208.731C49.0116 206.214 48.652 202.561 48.2545 198.046C47.4785 189.018 46.4565 176.517 46.3618 162.662C46.2672 148.808 47.3082 136.306 48.2545 127.288C48.6993 122.774 49.1157 119.13 49.4186 116.613C49.5763 115.351 49.6993 114.386 49.7876 113.717L49.9012 112.96C49.9028 112.873 49.9188 112.786 49.9485 112.704Z" fill="#E0E0E0"/>
<path d="M77.0711 137.044C76.6565 137.155 76.2315 137.221 75.8029 137.243C74.9891 137.328 73.8061 137.489 72.3582 137.716C64.7928 138.933 57.5071 141.497 50.8476 145.287C49.57 146.006 48.5574 146.621 47.8571 147.066C47.5111 147.315 47.14 147.528 46.7499 147.7C47.068 147.413 47.4099 147.153 47.7719 146.924C48.4344 146.442 49.4375 145.789 50.6962 145.031C57.3202 141.083 64.671 138.509 72.3109 137.461C73.7777 137.271 74.9607 137.158 75.784 137.12C76.21 137.057 76.6407 137.032 77.0711 137.044Z" fill="#E0E0E0"/>
<path d="M47.7057 133.032C47.6576 132.874 47.6196 132.712 47.5921 132.549C47.5259 132.18 47.4501 131.716 47.346 131.149C47.2425 130.409 47.0972 129.676 46.9107 128.953C46.6931 128.111 46.5322 127.127 46.1631 126.114C45.9928 125.594 45.8224 125.045 45.6426 124.477C45.4628 123.909 45.2073 123.341 44.9802 122.736C44.5354 121.524 43.9108 120.294 43.2862 118.95C41.8171 116.169 40.0836 113.535 38.1096 111.086C34.4382 106.686 30.1662 102.825 25.419 99.6161C24.5389 98.9631 23.6777 98.471 22.9491 97.9789C22.2204 97.4868 21.5674 97.1177 21.0563 96.8054L19.8356 96.0484C19.6909 95.9711 19.5545 95.8791 19.4286 95.7739C19.5881 95.82 19.7408 95.8868 19.8829 95.9727L21.1321 96.6446C21.6809 96.9285 22.3434 97.2881 23.0815 97.7613C23.8197 98.2345 24.6998 98.7076 25.6083 99.3417C30.4298 102.505 34.7545 106.367 38.4409 110.802C40.4342 113.275 42.1748 115.941 43.6363 118.761C44.2615 119.992 44.8206 121.256 45.3114 122.546C45.5291 123.161 45.794 123.729 45.9549 124.316C46.1158 124.903 46.2956 125.442 46.4565 125.972C46.7361 126.928 46.9666 127.898 47.1473 128.877C47.3204 129.606 47.4438 130.346 47.5164 131.092C47.5826 131.669 47.6394 132.133 47.6773 132.502C47.7148 132.676 47.7244 132.855 47.7057 133.032Z" fill="#E0E0E0"/>
<path d="M90.2632 109.61C90.1209 109.697 89.9683 109.767 89.809 109.818L88.4746 110.319C87.3106 110.736 85.6355 111.37 83.5914 112.212C78.2555 114.35 73.0509 116.802 68.005 119.556C62.9733 122.338 58.1129 125.419 53.4501 128.783C51.652 130.07 50.223 131.139 49.2482 131.896L48.1126 132.757C47.9833 132.863 47.8438 132.954 47.6962 133.032C47.6962 133.032 47.8098 132.899 48.0558 132.682L49.1442 131.735C50.0905 130.94 51.4911 129.843 53.2702 128.499C62.5265 121.595 72.6917 116.003 83.4779 111.881C85.5409 111.095 87.2633 110.499 88.4084 110.13L89.7711 109.704C89.9315 109.656 90.0964 109.624 90.2632 109.61Z" fill="#E0E0E0"/>
<path d="M65.147 253.219H30.9837L27.4159 211.485H69.1501L65.147 253.219Z" fill="#E0E0E0"/>
<path d="M71.9229 211.485H24.7755V217.901H71.9229V211.485Z" fill="#E0E0E0"/>
<path d="M71.6201 217.92C71.6201 218.033 61.0682 218.137 48.0748 218.137C35.0814 218.137 24.5201 218.033 24.5201 217.92C24.5201 217.806 35.0624 217.702 48.0748 217.702C61.0871 217.702 71.6201 217.797 71.6201 217.92Z" fill="#EBEBEB"/>
<path d="M224.226 253.708L259.366 253.984L259.715 209.63L224.575 209.354L224.226 253.708Z" fill="#EBEBEB"/>
<path d="M245.957 210.957L245.327 253.903L239.78 253.857L240.972 210.911L245.957 210.957Z" fill="#FAFAFA"/>
<path d="M204.387 210.635L224.547 210.785L259.688 211.06L224.502 215.69L224.203 253.742L204.054 253.582L204.387 210.635Z" fill="#E0E0E0"/>
<path d="M215.355 210.716L214.553 253.662L208.581 253.616L209.556 210.67L215.355 210.716Z" fill="#FAFAFA"/>
<path d="M231.31 197.65C231.31 197.913 230.737 198.2 229.659 198.464C227.026 199.041 224.325 199.238 221.636 199.048C221.04 199.048 220.41 198.933 219.768 198.83C219.074 198.738 218.388 198.592 217.716 198.395C217.277 198.264 216.854 198.083 216.455 197.856C215.915 197.548 215.455 197.116 215.115 196.595C214.753 196.017 214.555 195.352 214.541 194.67C214.535 194.168 214.593 193.667 214.713 193.18C215.024 191.656 215.472 190.163 216.054 188.721C216.399 187.913 216.829 187.145 217.338 186.429C217.606 186.067 217.897 185.722 218.209 185.397C218.553 185.041 218.938 184.725 219.355 184.458C219.842 184.148 220.382 183.93 220.948 183.816C221.548 183.678 222.171 183.678 222.771 183.816C223.665 184.068 224.488 184.523 225.178 185.145C227.048 186.728 228.604 188.648 229.762 190.807C230.545 192.232 231.069 193.784 231.31 195.392C231.447 196.538 231.31 197.191 231.057 197.26C230.484 197.386 229.659 195.128 227.424 192.286C226.124 190.645 224.605 189.191 222.908 187.965C222.614 187.712 222.265 187.531 221.888 187.438C221.824 187.42 221.757 187.42 221.693 187.438C221.588 187.478 221.487 187.532 221.395 187.598C221.235 187.714 221.085 187.844 220.948 187.988C220.772 188.184 220.608 188.391 220.456 188.607C220.119 189.091 219.834 189.609 219.607 190.154C219.114 191.381 218.708 192.641 218.392 193.925C218.341 194.105 218.307 194.289 218.289 194.475H218.186C218.06 194.475 218.026 194.544 218.106 194.475L218.243 194.372C218.273 194.408 218.308 194.439 218.347 194.463C218.504 194.57 218.673 194.659 218.851 194.727C219.362 194.91 219.883 195.067 220.41 195.197C220.96 195.346 221.556 195.461 222.026 195.564C223.08 195.782 224.089 195.931 225.017 196.057C226.885 196.309 228.456 196.469 229.522 196.676C230.587 196.882 231.31 197.375 231.31 197.65Z" fill="#E0E0E0"/>
<path d="M230.588 197.971C230.496 197.409 233.121 196.584 237.224 195.38C239.567 194.704 241.864 193.878 244.101 192.905C244.634 192.691 245.139 192.409 245.602 192.068C245.763 191.942 245.831 191.816 245.808 191.827C245.785 191.839 245.808 191.988 245.808 191.908C245.746 191.697 245.661 191.493 245.556 191.3C245.396 190.945 245.224 190.601 245.052 190.246C244.736 189.59 244.38 188.955 243.986 188.343C243.634 187.792 243.214 187.288 242.737 186.842C242.511 186.641 242.273 186.454 242.026 186.28C241.826 186.141 241.611 186.026 241.384 185.936C241.062 185.788 240.698 185.751 240.353 185.833C239.891 185.985 239.466 186.231 239.103 186.555C237.284 188.079 235.67 189.832 234.301 191.77C231.951 195.128 231.333 197.742 230.748 197.661C230.484 197.661 230.29 196.905 230.381 195.621C230.565 193.797 231.082 192.021 231.906 190.383C233.106 187.932 234.737 185.715 236.719 183.839C237.429 183.143 238.276 182.605 239.207 182.257C240.328 181.896 241.537 181.916 242.645 182.314C243.158 182.498 243.65 182.736 244.112 183.025C245.355 183.848 246.413 184.922 247.218 186.177C247.714 186.933 248.151 187.726 248.525 188.549L249.041 189.696C249.284 190.209 249.457 190.752 249.556 191.312C249.682 192.098 249.545 192.903 249.167 193.604C248.845 194.174 248.398 194.664 247.86 195.037C247.119 195.529 246.313 195.915 245.465 196.183C242.973 197.081 240.39 197.7 237.762 198.028C233.384 198.636 230.679 198.475 230.588 197.971Z" fill="#EBEBEB"/>
<path d="M198 210.564L249.655 210.969L249.771 196.288L198.115 195.882L198 210.564Z" fill="#E0E0E0"/>
<path d="M216.993 210.706L263.686 211.072L263.801 196.391L217.108 196.024L216.993 210.706Z" fill="#EBEBEB"/>
<path d="M249.465 196.297L249.132 211.048L243.688 210.934L244.066 196.263L249.465 196.297Z" fill="#FAFAFA"/>
<path d="M210.771 196.068L210.243 210.693L204.26 210.647L204.581 195.953L210.771 196.068Z" fill="#FAFAFA"/>
<path d="M263.13 253.833L283.038 253.99L283.235 228.855L263.327 228.699L263.13 253.833Z" fill="#EBEBEB"/>
<path d="M275.425 229.616L275.07 253.949L271.929 253.926L272.605 229.593L275.425 229.616Z" fill="#FAFAFA"/>
<path d="M251.871 229.432L263.299 229.513L283.207 229.673L263.276 232.298L263.104 253.857L251.688 253.765L251.871 229.432Z" fill="#E0E0E0"/>
<path d="M258.084 229.478L257.637 253.811L254.244 253.788L254.794 229.455L258.084 229.478Z" fill="#FAFAFA"/>
<path d="M267.127 222.074C267.127 222.441 265.82 222.888 263.539 223.083C262.139 223.195 260.73 223.079 259.367 222.739C258.709 222.563 258.135 222.156 257.751 221.593C257.515 221.227 257.388 220.802 257.384 220.367C257.377 220.058 257.411 219.749 257.488 219.45C257.664 218.572 257.921 217.713 258.256 216.882C258.461 216.414 258.714 215.968 259.012 215.553C259.347 215.095 259.767 214.705 260.25 214.407C260.562 214.205 260.912 214.069 261.278 214.006C261.645 213.943 262.02 213.954 262.382 214.04C262.925 214.199 263.426 214.477 263.849 214.854C264.933 215.774 265.825 216.9 266.473 218.166C267.551 220.344 267.39 221.879 267.047 221.937C266.703 221.994 266.107 220.791 264.823 219.232C264.076 218.339 263.217 217.545 262.267 216.871C262.128 216.753 261.963 216.671 261.786 216.63C261.755 216.643 261.728 216.663 261.705 216.687C261.526 216.829 261.371 216.999 261.247 217.192C261.067 217.451 260.913 217.727 260.789 218.017C260.521 218.697 260.299 219.394 260.124 220.103L260.066 220.355H259.883H259.734C259.654 220.355 259.642 220.355 259.734 220.355C259.807 220.307 259.872 220.249 259.929 220.183H259.986C260.056 220.236 260.133 220.279 260.215 220.309C261.336 220.677 262.486 220.946 263.654 221.112C265.728 221.432 267.127 221.673 267.127 222.074Z" fill="#E0E0E0"/>
<path d="M266.714 222.258C266.645 221.834 268.124 221.261 270.416 220.516C271.723 220.097 273.005 219.603 274.256 219.037C274.528 218.93 274.783 218.783 275.012 218.601C275.081 218.601 275.081 218.51 275.012 218.601C274.963 218.693 274.939 218.796 274.943 218.899C274.806 218.624 274.668 218.349 274.542 218.063C274.367 217.708 274.172 217.364 273.958 217.031C273.777 216.749 273.561 216.491 273.316 216.263C273.133 216.08 272.919 215.929 272.686 215.816C272.585 215.758 272.467 215.737 272.353 215.759C272.135 215.816 271.934 215.926 271.769 216.08C270.753 216.907 269.841 217.854 269.052 218.899C267.688 220.71 267.23 222.143 266.76 222.086C266.29 222.028 266.061 220.321 267.173 217.822C267.84 216.384 268.769 215.082 269.912 213.982C270.347 213.547 270.871 213.211 271.448 212.997C272.169 212.756 272.95 212.756 273.671 212.997C273.987 213.116 274.29 213.265 274.577 213.444C274.834 213.605 275.075 213.789 275.299 213.994C275.739 214.388 276.124 214.839 276.445 215.335C276.737 215.78 276.994 216.248 277.213 216.733L277.511 217.375C277.656 217.702 277.764 218.044 277.832 218.395C277.915 218.935 277.818 219.486 277.557 219.965C277.351 220.337 277.06 220.655 276.709 220.894C276.264 221.203 275.778 221.446 275.264 221.616C273.826 222.117 272.333 222.444 270.817 222.59C268.33 222.842 266.783 222.647 266.714 222.258Z" fill="#E0E0E0"/>
<path d="M248.273 229.383L277.545 229.613L277.61 221.292L248.338 221.062L248.273 229.383Z" fill="#E0E0E0"/>
<path d="M259.036 229.458L285.489 229.666L285.554 221.345L259.102 221.138L259.036 229.458Z" fill="#EBEBEB"/>
<path d="M277.408 221.306L277.224 229.662L274.141 229.604L274.359 221.283L277.408 221.306Z" fill="#FAFAFA"/>
<path d="M255.493 221.18L255.195 229.467L251.803 229.432L251.986 221.111L255.493 221.18Z" fill="#FAFAFA"/>
<path d="M90.5442 0.315688H41.9382C41.0006 0.333898 40.1066 0.714449 39.4435 1.37752C38.7804 2.0406 38.3999 2.93467 38.3817 3.87222V50.9845C38.3846 51.9323 38.7584 52.8414 39.423 53.5172C40.0877 54.1929 40.9905 54.5817 41.9382 54.6003H59.8394L66.8221 64.4993L72.8919 54.6003H90.5442C91.0212 54.6083 91.495 54.5202 91.9373 54.3414C92.3796 54.1625 92.7814 53.8965 93.1188 53.5591C93.4562 53.2217 93.7222 52.8199 93.9011 52.3776C94.08 51.9353 94.168 51.4615 94.16 50.9845V3.9315C94.168 3.45446 94.08 2.98067 93.9011 2.53836C93.7222 2.09605 93.4562 1.69425 93.1188 1.35688C92.7814 1.01951 92.3796 0.753457 91.9373 0.574585C91.495 0.395712 91.0212 0.307669 90.5442 0.315688Z" fill="#FAFAFA"/>
<path d="M90.5442 0.315754C91.0345 0.277869 91.5266 0.359215 91.9786 0.552853C92.5318 0.789236 93.0227 1.15035 93.4131 1.60796C93.9434 2.25407 94.24 3.06029 94.2548 3.896C94.2548 7.58294 94.2548 12.9296 94.3378 19.6396C94.4208 26.3496 94.3378 34.5059 94.409 43.7173C94.409 46.0884 94.409 48.4594 94.409 50.8304C94.4384 51.4906 94.3006 52.1475 94.0083 52.7402C93.7161 53.333 93.279 53.8423 92.7374 54.221C92.1762 54.6104 91.5215 54.8436 90.8405 54.8967C90.1648 54.8967 89.5602 54.8967 88.92 54.8967H72.8919L73.1409 54.7544L67.0829 64.6653L66.8458 65.0565L66.585 64.689L59.5786 54.7782L59.8394 54.9086H47.2849C45.3288 54.9086 43.4557 54.9086 41.464 54.9086C40.947 54.846 40.4478 54.6806 39.9958 54.422C39.5438 54.1634 39.1481 53.8169 38.8322 53.403C38.2211 52.5818 37.9303 51.566 38.0142 50.5459C38.0142 46.7681 38.0142 43.0455 38.0142 39.3784C38.0142 32.0637 38.0142 25.01 38.0142 18.2763C38.0142 14.9213 38.0142 11.6374 38.0142 8.44836C38.0142 6.85978 38.0142 5.28305 38.0142 3.70632C38.0514 2.88705 38.3483 2.10088 38.862 1.46152C39.3756 0.822164 40.0793 0.362768 40.8712 0.149783C41.6219 0.0142496 42.3862 -0.029541 43.1474 0.0193759H49.5847H57.5632L81.6528 0.114219H88.2087H89.904C90.0975 0.10355 90.2914 0.10355 90.4849 0.114219C90.4849 0.114219 90.2952 0.114219 89.904 0.114219H88.2087H81.6528L57.5632 0.220911H43.2067C42.4888 0.185306 41.7692 0.22904 41.0609 0.351318C40.375 0.535204 39.7659 0.933445 39.3223 1.48793C38.8787 2.04242 38.6239 2.72415 38.595 3.43366V8.1757C38.595 11.3647 38.595 14.6486 38.595 18.0036C38.595 24.7373 38.595 31.7911 38.595 39.1057V50.2732C38.5122 51.1592 38.7568 52.0449 39.2826 52.7628C39.5512 53.108 39.8853 53.3967 40.2657 53.6123C40.6462 53.828 41.0655 53.9663 41.4996 54.0194C43.3371 54.0787 45.3288 54.0194 47.2493 54.0194H59.958L60.0528 54.1498L67.0355 64.0607H66.5376L72.6074 54.1617L72.6904 54.0194H72.8563L88.9912 54.4462C89.6195 54.4462 90.2834 54.4462 90.8761 54.4462C91.4581 54.3937 92.0171 54.1938 92.5003 53.8653C92.9749 53.5385 93.358 53.0957 93.6133 52.579C93.8685 52.0623 93.9873 51.4889 93.9585 50.9134C93.9585 48.4712 93.9585 46.1002 93.9585 43.8003C93.9585 34.5889 93.9584 26.4682 94.0296 19.7226C94.1007 12.977 94.0296 7.67778 94.1126 3.97898C94.1104 3.28889 93.9075 2.61435 93.5286 2.03758C93.1497 1.46081 92.6111 1.00673 91.9786 0.73069C91.5254 0.51749 91.0412 0.377437 90.5442 0.315754Z" fill="#263238"/>
<path d="M74.3857 34.6837H74.0537H73.0935H69.5369H57.6818H57.587V34.5889C57.4921 33.9606 57.3973 33.2967 57.3024 32.6209C56.5082 26.8712 55.7968 21.7379 55.3345 18.3948L55.4056 18.4659H52.2522H51.4105H51.1141H51.4105H52.2403H55.3938H55.4531C55.9391 21.8209 56.6386 26.9542 57.504 32.692C57.5988 33.3559 57.6937 34.0317 57.7766 34.66L57.67 34.5533H69.5251H73.0816H74.0419C74.1605 34.5854 74.2756 34.6291 74.3857 34.6837Z" fill="#263238"/>
<path d="M57.5632 35.0275C57.5178 35.0224 57.4755 35.002 57.4432 34.9697C57.4109 34.9374 57.3905 34.8951 57.3854 34.8497L55.1566 18.786H51.3986C51.0666 18.786 50.9125 18.786 50.9006 18.5607C50.8888 18.3355 51.0666 18.3236 51.3986 18.3118H52.2403H55.4649C55.5176 18.3114 55.5686 18.3306 55.608 18.3657C55.6474 18.4007 55.6724 18.449 55.6783 18.5014L57.9781 34.4821L74.0537 34.5533C74.4449 34.5533 74.5872 34.5533 74.599 34.7785C74.599 34.9919 74.4449 35.0038 74.0537 35.0156H73.1053H69.5488H57.5869L57.5632 35.0275Z" fill="#263238"/>
<path d="M57.2076 31.2459H57.5395H58.4879H62.0445L74.3501 31.1867L74.2434 31.2815C74.6109 29.2069 75.0021 26.9662 75.4289 24.6426C75.6423 23.4571 75.8438 22.2716 76.0454 21.1572L76.1521 21.2876H61.6414H57.338H61.6414L76.1521 21.2284H76.2825V21.3588C76.0928 22.5443 75.8794 23.6468 75.6779 24.8442C75.2629 27.2152 74.8717 29.4084 74.4923 31.483V31.566H74.3975H62.0919H58.5353H57.255L57.2076 31.2459Z" fill="#263238"/>
<path d="M57.2194 31.4711C57.1597 31.4711 57.1024 31.4473 57.0602 31.4051C57.0179 31.3629 56.9942 31.3056 56.9942 31.2458C56.9942 31.0443 57.2076 31.0324 57.2787 31.0206H58.4642H62.0208L74.0656 30.9613L75.7253 21.4772L55.8442 21.4061C55.7375 21.4061 55.5242 21.4061 55.5242 21.1808C55.5242 20.9556 55.7376 20.9674 55.8324 20.9556H57.3024H64.6289H76.2469C76.2792 20.9551 76.3111 20.9624 76.34 20.9768C76.3689 20.9913 76.3939 21.0125 76.4129 21.0386C76.424 21.0648 76.4297 21.0931 76.4297 21.1216C76.4297 21.1501 76.424 21.1783 76.4129 21.2046L74.599 31.5422C74.5906 31.5924 74.5644 31.638 74.5252 31.6706C74.4861 31.7032 74.4366 31.7207 74.3856 31.72L57.1957 31.6489L57.2194 31.4711Z" fill="#263238"/>
<path d="M61.8785 39.2243C61.8391 39.096 61.8074 38.9653 61.7837 38.8331C61.6733 38.4875 61.4577 38.185 61.1672 37.9677C60.9313 37.7955 60.6525 37.6917 60.3615 37.6676C60.0705 37.6436 59.7784 37.7002 59.5175 37.8313C59.2565 37.9623 59.0367 38.1628 58.8823 38.4107C58.7279 38.6586 58.6447 38.9442 58.642 39.2362C58.6426 39.529 58.7247 39.8159 58.8791 40.0647C59.0335 40.3135 59.2541 40.5144 59.5163 40.6448C59.7784 40.7753 60.0717 40.8302 60.3633 40.8033C60.6549 40.7765 60.9333 40.669 61.1672 40.4928C61.4589 40.2767 61.6747 39.9738 61.7837 39.6274C61.8548 39.3785 61.8548 39.2243 61.8785 39.2243C61.9043 39.3654 61.9043 39.51 61.8785 39.6511C61.7967 40.0359 61.5828 40.3798 61.2739 40.6232C60.9707 40.8755 60.5935 41.022 60.1996 41.0407C59.8056 41.0593 59.4164 40.9491 59.0907 40.7266C58.765 40.5041 58.5207 40.1816 58.3949 39.8078C58.269 39.4341 58.2684 39.0294 58.3931 38.6553C58.5178 38.2811 58.7611 37.9578 59.086 37.7344C59.411 37.5109 59.7999 37.3994 60.1939 37.4168C60.588 37.4342 60.9656 37.5796 61.2695 37.8309C61.5735 38.0822 61.7873 38.4257 61.8785 38.8094C61.9048 38.9465 61.9048 39.0873 61.8785 39.2243Z" fill="#263238"/>
<path d="M59.9106 41.1923C59.7807 41.1762 59.6533 41.1443 59.5312 41.0975C59.1455 40.9611 58.8112 40.7093 58.5736 40.3763C58.3361 40.0433 58.2068 39.6452 58.2034 39.2362C58.2078 38.8259 58.3372 38.4268 58.5745 38.0921C58.8118 37.7574 59.1455 37.503 59.5312 37.3631C59.8423 37.2534 60.176 37.2241 60.5014 37.278C60.8269 37.3319 61.1334 37.4672 61.3925 37.6713C61.7392 37.951 61.9814 38.3395 62.0801 38.7738C62.1048 38.923 62.1048 39.0752 62.0801 39.2244C62.1046 39.3775 62.1046 39.5336 62.0801 39.6867C61.9796 40.1675 61.6987 40.5915 61.2951 40.8715C60.8916 41.1516 60.3961 41.2664 59.9106 41.1923ZM60.4203 37.8847C60.1917 37.8548 59.9592 37.8833 59.7446 37.9677C59.4855 38.063 59.2621 38.236 59.1051 38.463C58.9481 38.6901 58.865 38.9601 58.8673 39.2362C58.8667 39.5119 58.9504 39.7811 59.1073 40.0079C59.2641 40.2346 59.4864 40.408 59.7446 40.5047C59.9584 40.5813 60.1875 40.6051 60.4125 40.5741C60.6375 40.5431 60.8516 40.4583 61.0368 40.3269C61.29 40.1364 61.4767 39.8709 61.5703 39.5681C61.5703 39.4417 61.594 39.3469 61.6414 39.2836V39.1769L61.5703 38.8924C61.4815 38.5905 61.2936 38.3274 61.0368 38.1455C60.8607 37.9946 60.6482 37.8924 60.4203 37.8492V37.8847Z" fill="#263238"/>
<path d="M72.6192 39.2125C72.6192 39.2125 72.6192 39.0703 72.5125 38.8213C72.4156 38.4724 72.2022 38.167 71.9079 37.9559C71.674 37.7798 71.3957 37.6722 71.1041 37.6454C70.8125 37.6186 70.5192 37.6734 70.257 37.8039C69.9949 37.9344 69.7742 38.1352 69.6198 38.384C69.4654 38.6328 69.3833 38.9197 69.3828 39.2125C69.3855 39.5045 69.4686 39.7902 69.623 40.038C69.7775 40.2859 69.9972 40.4864 70.2582 40.6175C70.5192 40.7486 70.8112 40.8052 71.1022 40.7811C71.3933 40.757 71.6721 40.6532 71.9079 40.481C72.1997 40.2649 72.4155 39.9619 72.5244 39.6156C72.5955 39.3667 72.5955 39.2125 72.6192 39.2125C72.6436 39.3498 72.6436 39.4902 72.6192 39.6275C72.5424 40.0141 72.3275 40.3597 72.0146 40.5996C71.7851 40.7844 71.5122 40.9075 71.2217 40.9573C70.9313 41.0071 70.6329 40.9819 70.3549 40.8841C70.1106 40.8021 69.8871 40.6676 69.7003 40.49C69.5134 40.3124 69.3677 40.0962 69.2733 39.8563C69.179 39.6165 69.1382 39.3589 69.154 39.1016C69.1697 38.8443 69.2416 38.5936 69.3645 38.3671C69.4874 38.1405 69.6585 37.9436 69.8656 37.7902C70.0727 37.6368 70.3109 37.5305 70.5634 37.4789C70.8159 37.4273 71.0767 37.4316 71.3274 37.4914C71.5781 37.5513 71.8127 37.6653 72.0146 37.8255C72.3213 38.0709 72.5347 38.414 72.6192 38.7976C72.6455 38.9347 72.6455 39.0755 72.6192 39.2125Z" fill="#263238"/>
<path d="M70.6513 41.1804C70.5226 41.1586 70.3958 41.1269 70.2719 41.0856C69.8855 40.9494 69.5509 40.6966 69.3142 40.3622C69.0775 40.0278 68.9503 39.6281 68.9503 39.2184C68.9503 38.8087 69.0775 38.4091 69.3142 38.0746C69.5509 37.7402 69.8855 37.4875 70.2719 37.3512C70.5827 37.2393 70.9169 37.2088 71.2427 37.2628C71.5686 37.3167 71.8751 37.4533 72.1332 37.6595C72.4806 37.9314 72.7201 38.318 72.8089 38.7501C72.8393 38.9028 72.8393 39.0599 72.8089 39.2125C72.8333 39.3656 72.8333 39.5217 72.8089 39.6748C72.7033 40.1528 72.4212 40.5734 72.019 40.8525C71.6168 41.1316 71.1242 41.2487 70.6394 41.1804H70.6513ZM71.2085 37.8492C70.9808 37.8211 70.7496 37.8454 70.5327 37.9203C70.3502 37.9889 70.1845 38.096 70.0469 38.2341C69.9092 38.3723 69.8028 38.5384 69.7349 38.7212C69.6669 38.9039 69.6389 39.0992 69.6528 39.2937C69.6668 39.4882 69.7223 39.6775 69.8156 39.8488C69.9089 40.02 70.0379 40.1692 70.1938 40.2864C70.3497 40.4035 70.529 40.4858 70.7195 40.5278C70.9099 40.5697 71.1071 40.5703 71.2979 40.5295C71.4886 40.4887 71.6683 40.4075 71.8249 40.2913C72.0832 40.1058 72.2712 39.8384 72.3584 39.5326C72.3878 39.4392 72.4115 39.3442 72.4296 39.248V39.1532C72.4296 39.0939 72.4296 38.9872 72.3584 38.8687C72.2712 38.5629 72.0832 38.2955 71.8249 38.11C71.6422 37.9768 71.4313 37.8875 71.2085 37.8492Z" fill="#263238"/>
<path d="M82.2693 22.8285C82.2693 23.9352 81.9411 25.0171 81.3263 25.9373C80.7114 26.8575 79.8375 27.5747 78.815 27.9982C77.7926 28.4217 76.6675 28.5325 75.582 28.3166C74.4966 28.1007 73.4995 27.5678 72.717 26.7852C71.9344 26.0027 71.4015 25.0056 71.1856 23.9202C70.9697 22.8347 71.0805 21.7096 71.504 20.6872C71.9275 19.6647 72.6447 18.7908 73.5649 18.1759C74.4851 17.5611 75.567 17.2329 76.6737 17.2329C78.1568 17.236 79.5782 17.8266 80.6269 18.8753C81.6756 19.924 82.2662 21.3454 82.2693 22.8285Z" fill="#FF80B6"/>
<path d="M73.4728 22.9472L74.3027 22.1055L75.9268 23.5399L79.0921 20.4932L79.8746 21.323L75.8083 25.1522L73.4728 22.9472Z" fill="white"/>
</svg>
