<svg width="50" height="48" viewBox="0 0 50 48" fill="none" xmlns="http://www.w3.org/2000/svg">
<path d="M18.0747 10.2255C18.2119 10.9583 18.9389 11.5363 19.7964 11.3759C20.629 11.2021 21.1025 10.4037 20.9468 9.65324C20.7639 8.78059 19.902 8.29445 19.0854 8.53801C18.356 8.75568 17.9245 9.50891 18.0747 10.2255Z" fill="#6392CA"/>
<path d="M49.6327 30.6857C41.6619 7.48329 42.2102 9.07298 42.1762 8.99397C41.3464 7.07371 39.7358 5.58089 37.7572 4.89816C37.4739 4.8004 21.4299 1.04737 20.9662 0.886819C19.5442 0.394325 17.5685 0.670407 16.1816 1.94603L2.43229 14.5976C0.886548 16.0194 0 18.0432 0 20.1505V42.5545C0 45.1947 2.13648 47.3427 4.76263 47.3427H34.178C36.8041 47.3427 38.9406 45.1947 38.9406 42.5545V40.389L47.1396 36.8801C49.5233 35.8485 50.6322 33.08 49.6327 30.6857ZM34.178 44.4129H4.76263C3.75196 44.4129 2.92977 43.5792 2.92977 42.5545V20.1505C2.92977 18.8606 3.47138 17.6224 4.41584 16.7538C16.1955 5.91479 8.9144 12.6755 18.212 4.10117C18.6969 3.65428 19.3663 3.47478 20.0303 3.67498C20.6238 3.85223 19.5766 2.99928 34.525 16.754C35.4692 17.6225 36.0108 18.8606 36.0108 20.1505V42.5545C36.0107 43.5792 35.1886 44.4129 34.178 44.4129ZM45.9814 34.1889L38.9405 37.2022V20.1505C38.9405 18.0432 38.054 16.0194 36.5084 14.5978L26.2691 5.176L36.8654 7.69033C38.022 8.10899 38.9648 8.98538 39.4656 10.1081C47.4213 33.2662 46.8847 31.7119 46.9195 31.7921C47.3195 32.7167 46.8963 33.793 45.9814 34.1889Z" fill="#6392CA"/>
<path d="M23.6295 18.7561C22.8837 18.443 22.0249 18.7942 21.7118 19.5401L14.5805 36.5366C14.1736 37.5063 14.8923 38.5687 15.9306 38.5687C16.503 38.5687 17.0468 38.2311 17.2821 37.6703L24.4135 20.6737C24.7265 19.9276 24.3755 19.0691 23.6295 18.7561Z" fill="#6392CA"/>
<path d="M16.764 22.9772C16.764 20.15 14.6934 17.8499 12.1481 17.8499C9.60279 17.8499 7.53223 20.15 7.53223 22.9772C7.53223 25.8045 9.60289 28.1046 12.1482 28.1046C14.6935 28.1046 16.764 25.8045 16.764 22.9772ZM12.1482 25.1749C11.2342 25.1749 10.462 24.1685 10.462 22.9772C10.462 21.786 11.2341 20.7796 12.1482 20.7796C13.0623 20.7796 13.8344 21.786 13.8344 22.9772C13.8343 24.1685 13.0622 25.1749 12.1482 25.1749Z" fill="#6392CA"/>
<path d="M26.9296 29.4706C24.3843 29.4706 22.3136 31.7707 22.3136 34.598C22.3136 37.4252 24.3843 39.7254 26.9296 39.7254C29.4748 39.7254 31.5455 37.4252 31.5455 34.598C31.5455 31.7707 29.4747 29.4706 26.9296 29.4706ZM26.9296 36.7956C26.0156 36.7956 25.2434 35.7892 25.2434 34.598C25.2434 33.4067 26.0155 32.4003 26.9296 32.4003C27.8436 32.4003 28.6157 33.4067 28.6157 34.598C28.6157 35.7892 27.8435 36.7956 26.9296 36.7956Z" fill="#6392CA"/>
</svg>
