<svg width="258" height="241" viewBox="0 0 258 241" fill="none" xmlns="http://www.w3.org/2000/svg">
<path d="M241.703 144.374H15.7185C7.12132 144.374 0.151947 151.343 0.151947 159.941V162.309C0.151947 170.907 7.12132 177.876 15.7185 177.876H241.703C250.3 177.876 257.269 170.907 257.269 162.309V159.941C257.269 151.343 250.3 144.374 241.703 144.374Z" fill="#FAFAFA"/>
<path d="M197.931 144.374H242.269C246.245 144.374 250.059 145.954 252.871 148.765C255.683 151.577 257.262 155.391 257.262 159.367V162.876C257.262 166.852 255.683 170.666 252.871 173.478C250.059 176.289 246.245 177.869 242.269 177.869H197.931V144.374Z" fill="#E874A6"/>
<path d="M28.5433 161.84V166.267H26.7615V162.068C26.7615 160.687 26.0708 160.03 24.9244 160.03C23.6399 160.03 22.7697 160.811 22.7697 162.358V166.267H20.9326V155.528H22.7421V159.436C23.0811 159.105 23.4848 158.847 23.928 158.678C24.3712 158.509 24.8444 158.434 25.3181 158.456C27.1689 158.456 28.5433 159.512 28.5433 161.84Z" fill="#263238"/>
<path d="M35.4909 165.845C34.9854 166.204 34.3769 166.388 33.7574 166.37C32.0654 166.37 31.0916 165.472 31.0916 163.76V160.044H29.8209V158.601H31.0916V156.833H32.901V158.601H34.9729V160.044H32.901V163.718C32.901 164.471 33.2809 164.878 33.9715 164.878C34.3358 164.888 34.6929 164.776 34.9867 164.561L35.4909 165.845Z" fill="#263238"/>
<path d="M41.4371 165.845C40.9321 166.205 40.3233 166.389 39.7036 166.37C38.0116 166.37 37.0448 165.472 37.0448 163.76V160.044H35.7395V158.601H37.0171V156.833H38.8197V158.601H40.8915V160.044H38.8197V163.718C38.8197 164.471 39.1995 164.878 39.8901 164.878C40.2544 164.888 40.6115 164.776 40.9053 164.561L41.4371 165.845Z" fill="#263238"/>
<path d="M51.1334 162.406C51.1617 162.93 51.0803 163.454 50.8942 163.945C50.7081 164.435 50.4215 164.882 50.0528 165.255C49.684 165.628 49.2413 165.92 48.7531 166.112C48.2648 166.304 47.7418 166.392 47.2176 166.37C46.7534 166.387 46.2911 166.302 45.8629 166.122C45.4348 165.942 45.051 165.671 44.7382 165.328V169.071H42.9288V158.539H44.6554V159.554C44.9712 159.189 45.366 158.9 45.8099 158.71C46.2538 158.519 46.7352 158.433 47.2176 158.456C47.7408 158.433 48.2631 158.52 48.7509 158.711C49.2386 158.902 49.6811 159.192 50.0498 159.564C50.4185 159.936 50.7054 160.381 50.892 160.871C51.0786 161.36 51.1608 161.883 51.1334 162.406ZM49.2963 162.406C49.2734 161.958 49.1194 161.527 48.8536 161.165C48.5878 160.804 48.2218 160.528 47.801 160.373C47.3801 160.217 46.9229 160.189 46.486 160.291C46.0491 160.392 45.6516 160.62 45.3429 160.946C45.0341 161.271 44.8277 161.68 44.7491 162.122C44.6705 162.564 44.7232 163.019 44.9007 163.431C45.0782 163.843 45.3727 164.194 45.7477 164.44C46.1227 164.686 46.5617 164.817 47.0104 164.816C47.3231 164.823 47.6337 164.764 47.9224 164.644C48.211 164.523 48.4713 164.344 48.6865 164.117C48.9018 163.89 49.0672 163.621 49.1722 163.326C49.2772 163.031 49.3195 162.718 49.2963 162.406Z" fill="#263238"/>
<path d="M52.2522 159.651C52.2397 159.488 52.2611 159.324 52.3149 159.169C52.3688 159.015 52.454 158.873 52.5652 158.753C52.6764 158.633 52.8112 158.537 52.9612 158.472C53.1111 158.406 53.273 158.372 53.4366 158.372C53.6002 158.372 53.7621 158.406 53.912 158.472C54.0619 158.537 54.1967 158.633 54.3079 158.753C54.4191 158.873 54.5043 159.015 54.5582 159.169C54.6121 159.324 54.6335 159.488 54.621 159.651C54.6335 159.814 54.6121 159.978 54.5582 160.132C54.5043 160.287 54.4191 160.428 54.3079 160.548C54.1967 160.669 54.0619 160.764 53.912 160.83C53.7621 160.895 53.6002 160.929 53.4366 160.929C53.273 160.929 53.1111 160.895 52.9612 160.83C52.8112 160.764 52.6764 160.669 52.5652 160.548C52.454 160.428 52.3688 160.287 52.3149 160.132C52.2611 159.978 52.2397 159.814 52.2522 159.651ZM52.2522 165.176C52.2397 165.012 52.2611 164.849 52.3149 164.694C52.3688 164.54 52.454 164.398 52.5652 164.278C52.6764 164.158 52.8112 164.062 52.9612 163.997C53.1111 163.931 53.273 163.897 53.4366 163.897C53.6002 163.897 53.7621 163.931 53.912 163.997C54.0619 164.062 54.1967 164.158 54.3079 164.278C54.4191 164.398 54.5043 164.54 54.5582 164.694C54.6121 164.849 54.6335 165.012 54.621 165.176C54.6335 165.339 54.6121 165.503 54.5582 165.657C54.5043 165.812 54.4191 165.953 54.3079 166.073C54.1967 166.193 54.0619 166.289 53.912 166.355C53.7621 166.42 53.6002 166.454 53.4366 166.454C53.273 166.454 53.1111 166.42 52.9612 166.355C52.8112 166.289 52.6764 166.193 52.5652 166.073C52.454 165.953 52.3688 165.812 52.3149 165.657C52.2611 165.503 52.2397 165.339 52.2522 165.176Z" fill="#263238"/>
<path d="M60.2703 154.084H61.8863L57.1487 167.71H55.4912L60.2703 154.084Z" fill="#263238"/>
<path d="M64.6211 154.084H66.2441L61.4719 167.71H59.849L64.6211 154.084Z" fill="#263238"/>
<path d="M78.4542 158.539L75.6089 166.267H73.8685L71.8726 160.942L69.8491 166.267H68.1088L65.2772 158.539H66.9831L69.0204 164.243L71.1475 158.539H72.6669L74.7387 164.271L76.8106 158.539H78.4542Z" fill="#263238"/>
<path d="M91.6105 158.539L88.7583 166.267H87.0248L85.0289 160.942L82.9985 166.267H81.265L78.4266 158.539H80.1393L82.2112 164.243L84.3383 158.539H85.8577L87.9295 164.271L90.0014 158.539H91.6105Z" fill="#263238"/>
<path d="M104.801 158.539L101.949 166.267H100.216L98.2197 160.942L96.1893 166.267H94.4421L91.6036 158.539H93.3095L95.3813 164.243L97.5084 158.539H99.0278L101.1 164.271L103.171 158.539H104.801Z" fill="#263238"/>
<path d="M104.926 165.169C104.926 164.854 105.051 164.551 105.274 164.329C105.496 164.106 105.798 163.981 106.113 163.981C106.429 163.981 106.731 164.106 106.953 164.329C107.176 164.551 107.301 164.854 107.301 165.169C107.301 165.484 107.176 165.786 106.953 166.009C106.731 166.231 106.429 166.356 106.113 166.356C105.798 166.356 105.496 166.231 105.274 166.009C105.051 165.786 104.926 165.484 104.926 165.169Z" fill="#263238"/>
<path d="M241.696 177.869L243.125 177.786C243.595 177.738 244.175 177.634 244.866 177.524C245.657 177.349 246.435 177.118 247.193 176.833C249.324 176.025 251.251 174.756 252.835 173.118C253.837 172.067 254.696 170.89 255.391 169.616C256.158 168.155 256.69 166.582 256.965 164.955C257.221 163.125 257.291 161.273 257.172 159.43C257.114 157.393 256.644 155.389 255.791 153.539C254.863 151.52 253.516 149.722 251.841 148.262C250.031 146.682 247.873 145.553 245.542 144.968C244.321 144.657 243.067 144.492 241.806 144.478H229.651H211.757L15.7116 144.519C12.157 144.528 8.71354 145.759 5.95947 148.006C3.20539 150.253 1.3084 153.38 0.587025 156.86C0.511057 157.441 0.393652 158.007 0.345309 158.587C0.296966 159.167 0.269342 159.74 0.276248 160.327V162.082C0.276248 162.662 0.331496 163.235 0.352214 163.815C0.68948 167.254 2.17388 170.479 4.56653 172.972C6.95918 175.465 10.1209 177.08 13.543 177.558C14.0985 177.645 14.6592 177.693 15.2212 177.703C15.7806 177.745 16.3538 177.703 16.9202 177.703H72.3561L160.479 177.738L219.872 177.786H236.026H240.225H241.654C241.654 177.786 241.171 177.786 240.225 177.786H236.026H219.872L160.479 177.835H72.3561H16.9409C16.3677 177.835 15.8083 177.835 15.235 177.835C14.6615 177.825 14.0893 177.776 13.5223 177.69C10.0352 177.202 6.81343 175.556 4.37562 173.016C1.93781 170.475 0.42576 167.188 0.0828735 163.684C0.0828735 163.097 0.00690618 162.503 0 161.923V160.169C0 159.588 0.0483437 158.988 0.0759684 158.401C0.103593 157.814 0.23481 157.233 0.317684 156.646C1.08291 153.131 3.02645 149.982 5.82618 147.723C8.62591 145.463 12.1137 144.228 15.7116 144.222L211.737 144.264H229.631H241.786C243.06 144.279 244.329 144.449 245.563 144.768C247.916 145.359 250.094 146.502 251.917 148.103C253.607 149.579 254.965 151.396 255.902 153.435C256.753 155.305 257.223 157.327 257.283 159.381C257.391 161.226 257.317 163.076 257.062 164.906C256.774 166.543 256.233 168.125 255.46 169.595C254.757 170.876 253.889 172.058 252.877 173.111C251.279 174.751 249.338 176.018 247.193 176.819C246.43 177.105 245.648 177.336 244.852 177.51C244.161 177.614 243.581 177.724 243.105 177.759L241.696 177.869Z" fill="#263238"/>
<path d="M223.132 165.694C221.696 165.694 220.292 165.268 219.099 164.47C217.905 163.672 216.974 162.538 216.425 161.211C215.876 159.885 215.733 158.425 216.013 157.017C216.294 155.608 216.986 154.315 218.002 153.3C219.018 152.285 220.312 151.595 221.72 151.315C223.129 151.036 224.588 151.181 225.914 151.731C227.241 152.282 228.374 153.213 229.17 154.408C229.967 155.602 230.392 157.006 230.39 158.442C230.388 160.366 229.623 162.21 228.262 163.57C226.901 164.93 225.056 165.694 223.132 165.694ZM223.132 151.757C221.809 151.754 220.515 152.144 219.414 152.877C218.313 153.61 217.454 154.653 216.946 155.874C216.438 157.095 216.303 158.44 216.56 159.738C216.816 161.036 217.452 162.228 218.386 163.164C219.32 164.101 220.512 164.739 221.809 164.998C223.106 165.257 224.451 165.125 225.673 164.62C226.896 164.114 227.94 163.257 228.676 162.158C229.411 161.058 229.803 159.765 229.803 158.442C229.801 156.672 229.098 154.975 227.848 153.722C226.598 152.469 224.902 151.762 223.132 151.757Z" fill="white"/>
<path d="M234.527 171.143C234.449 171.141 234.374 171.109 234.32 171.053L227.731 163.933C227.689 163.875 227.669 163.804 227.675 163.733C227.681 163.662 227.714 163.596 227.766 163.547C227.818 163.498 227.886 163.471 227.958 163.469C228.029 163.468 228.098 163.492 228.153 163.539L234.776 170.659C234.828 170.714 234.857 170.787 234.857 170.863C234.857 170.939 234.828 171.011 234.776 171.067C234.742 171.096 234.702 171.118 234.66 171.131C234.617 171.144 234.572 171.148 234.527 171.143Z" fill="white"/>
<path d="M109.919 168.781C109.836 168.781 109.767 165.369 109.767 161.184C109.767 156.999 109.836 153.587 109.919 153.587C110.002 153.587 110.064 156.999 110.064 161.184C110.064 165.369 110.002 168.781 109.919 168.781Z" fill="#E874A6"/>
<path d="M127.723 28.8889C126.62 37.8338 126.631 46.881 127.758 55.823C128.041 58.0883 128.524 60.5607 130.306 61.9764C132.433 63.6616 135.769 63.0745 137.702 61.1753C139.636 59.2761 140.354 56.4239 140.32 53.7097C140.285 50.9956 139.588 48.3505 139.097 45.6847C138.448 42.1695 138.124 38.523 136.549 35.3255C134.974 32.1279 131.715 29.3862 128.179 29.7453" fill="#263238"/>
<path d="M132.958 2.58317C137.012 -1.40861 145.707 -0.393394 150.223 3.03898C154.74 6.47135 157.13 12.1275 158.083 17.7422C159.036 23.357 158.815 29.1029 159.277 34.7729C159.74 40.4429 161.018 46.2924 164.519 50.7814C166.018 52.6944 167.889 54.3174 169.222 56.3478C170.488 58.283 171.206 60.5254 171.298 62.8361C171.391 65.1469 170.855 67.4394 169.747 69.4696C168.569 71.4607 166.82 73.0519 164.726 74.037C162.633 75.0222 160.292 75.3557 158.007 74.9945C153.297 74.1036 149.678 70.0911 147.875 65.6504C146.073 61.2098 145.803 56.3202 145.41 51.5411C144.263 36.6638 142.261 21.8647 139.415 7.21722" fill="#263238"/>
<path d="M127.999 46.4511L132.219 45.3047H150.817L160.9 51.2578C160.9 51.2578 143.269 59.193 136.729 56.0093C132.845 54.122 129.752 50.9258 127.992 46.9829" fill="#FFA8A7"/>
<path d="M150.962 12.7837L151.073 10.3044L136.224 7.0032C131.632 6.36784 126.507 10.8361 126.072 15.4495C125.589 20.5739 125.202 26.8516 125.693 30.6983C126.673 38.4471 132.55 39.6073 132.55 39.6073L133.179 56.5344L150.223 57.2664L150.962 12.7837Z" fill="#FFA8A7"/>
<path d="M128.282 20.8569C128.271 21.1143 128.361 21.366 128.532 21.5583C128.704 21.7505 128.944 21.8681 129.201 21.8859C129.327 21.8992 129.454 21.8874 129.575 21.851C129.696 21.8147 129.809 21.7546 129.907 21.6742C130.004 21.5939 130.085 21.4949 130.144 21.383C130.203 21.2711 130.239 21.1486 130.251 21.0226C130.26 20.7663 130.17 20.5164 129.998 20.3256C129.827 20.1348 129.588 20.0182 129.332 20.0005C129.207 19.9862 129.08 19.9971 128.959 20.0326C128.837 20.0682 128.725 20.1276 128.627 20.2074C128.529 20.2872 128.448 20.3858 128.389 20.4973C128.33 20.6089 128.294 20.7311 128.282 20.8569Z" fill="#263238"/>
<path d="M127.592 18.1843C127.709 18.3155 128.476 17.7837 129.539 17.8252C130.603 17.8666 131.369 18.4122 131.487 18.2879C131.604 18.1636 131.425 17.9978 131.093 17.7354C130.643 17.406 130.104 17.2206 129.546 17.2036C128.992 17.1886 128.447 17.3454 127.985 17.6525C127.675 17.9011 127.592 18.1221 127.592 18.1843Z" fill="#263238"/>
<path d="M138.683 21.3541C138.672 21.6116 138.761 21.8633 138.933 22.0556C139.105 22.2478 139.345 22.3654 139.602 22.3832C139.727 22.3965 139.855 22.3847 139.976 22.3483C140.097 22.312 140.21 22.2519 140.307 22.1715C140.405 22.0912 140.486 21.9922 140.545 21.8803C140.604 21.7684 140.64 21.6459 140.651 21.5199C140.661 21.2625 140.569 21.0116 140.397 20.8206C140.224 20.6297 139.983 20.5138 139.726 20.4978C139.601 20.4835 139.474 20.4945 139.353 20.5301C139.233 20.5657 139.12 20.6252 139.023 20.7051C138.926 20.785 138.846 20.8836 138.787 20.9951C138.729 21.1066 138.693 21.2287 138.683 21.3541Z" fill="#263238"/>
<path d="M138.062 18.7367C138.179 18.8679 138.946 18.3362 140.009 18.3707C141.073 18.4052 141.832 18.9646 141.957 18.8403C142.081 18.716 141.894 18.5434 141.563 18.2878C141.111 17.9571 140.569 17.7717 140.009 17.7561C139.457 17.7379 138.913 17.895 138.455 18.205C138.124 18.4467 138.006 18.6746 138.062 18.7367Z" fill="#263238"/>
<path d="M133.959 27.0517C133.403 26.8593 132.826 26.7364 132.24 26.6857C131.97 26.6857 131.715 26.589 131.673 26.4025C131.659 26.1206 131.731 25.841 131.881 25.6014C132.157 24.9522 132.447 24.2754 132.744 23.5295C133.952 20.622 134.816 18.2256 134.719 18.1773C134.622 18.1289 133.524 20.4494 132.323 23.3638L131.487 25.4357C131.309 25.7598 131.248 26.1354 131.314 26.4992C131.351 26.5966 131.409 26.6844 131.484 26.7562C131.56 26.8279 131.65 26.8817 131.749 26.9136C131.898 26.9558 132.051 26.9813 132.205 26.9895C132.785 27.0848 133.374 27.1057 133.959 27.0517Z" fill="#263238"/>
<path d="M132.571 39.621C136.281 39.7956 139.969 38.9525 143.234 37.1831C143.234 37.1831 140.624 42.5147 132.668 41.5616L132.571 39.621Z" fill="#936457"/>
<path d="M134.325 29.6416C134.533 29.3886 134.802 29.1924 135.106 29.0716C135.411 28.9509 135.741 28.9093 136.066 28.951C136.3 28.9803 136.526 29.0565 136.73 29.1752C136.934 29.2939 137.112 29.4525 137.254 29.6416C137.39 29.8235 137.467 30.0425 137.476 30.2695C137.484 30.4965 137.424 30.7207 137.302 30.9124C137.126 31.0923 136.903 31.2174 136.657 31.2726C136.412 31.3278 136.156 31.3106 135.921 31.2232C135.424 31.0285 134.971 30.7374 134.588 30.3668C134.47 30.2795 134.371 30.169 134.298 30.0422C134.257 29.9848 134.235 29.916 134.235 29.8454C134.235 29.7748 134.257 29.706 134.298 29.6485" fill="#936457"/>
<path d="M137.067 27.8873C136.894 27.8873 136.853 29.0268 135.838 29.8142C134.823 30.6015 133.6 30.4357 133.586 30.5946C133.573 30.7534 133.856 30.8294 134.374 30.857C135.05 30.8898 135.715 30.6818 136.252 30.27C136.765 29.8735 137.107 29.2949 137.205 28.6539C137.26 28.1705 137.143 27.8804 137.067 27.8873Z" fill="#263238"/>
<path d="M137.951 15.5254C138.048 15.8155 139.111 15.7119 140.354 15.8983C141.598 16.0848 142.599 16.4646 142.772 16.2091C142.848 16.0848 142.682 15.8086 142.281 15.5185C141.755 15.1467 141.146 14.9096 140.506 14.8279C139.872 14.7292 139.223 14.7837 138.614 14.9867C138.11 15.1387 137.875 15.3873 137.951 15.5254Z" fill="#263238"/>
<path d="M127.758 14.5378C127.937 14.7865 128.683 14.5378 129.56 14.5724C130.437 14.6069 131.183 14.7865 131.363 14.5378C131.439 14.4135 131.363 14.1718 131.01 13.9301C130.581 13.6424 130.077 13.4888 129.56 13.4888C129.044 13.4888 128.539 13.6424 128.11 13.9301C127.792 14.1718 127.682 14.4481 127.758 14.5378Z" fill="#263238"/>
<path d="M150.734 24.9039C152.081 24.013 152.668 16.3265 152.613 13.1634C152.558 10.0004 150.866 7.19648 148.642 4.95888C146.239 2.54171 143.421 1.69225 140.023 1.32622C138.117 1.11904 136.073 0.870415 134.229 1.39528C132.385 1.92015 131.356 2.56934 130.458 4.26135C129.961 5.20059 129.829 6.54039 130.693 7.15504C131.556 7.76969 132.64 7.27245 133.614 6.9962C136.197 6.25724 139.028 7.09289 141.259 8.58462C143.49 10.0764 145.244 12.1827 146.964 14.2546C149.194 16.9549 150.251 21.4439 150.748 24.9039" fill="#E874A6"/>
<path d="M124.726 6.93407C125.713 3.79866 131.818 -0.0826149 138.283 2.79036C141.252 2.89395 144.139 3.38429 147.302 6.24345C153.013 11.4576 150.824 24.1995 150.824 24.1995C147.318 22.394 144.219 19.8911 141.715 16.8444C138.048 12.4245 136.038 8.96448 135.32 6.865C129.353 8.30149 127.101 13.5157 126.052 15.774C124.705 14.2961 122.978 12.4659 124.726 6.93407Z" fill="#263238"/>
<path d="M149.56 23.4676C149.685 23.4054 154.643 21.7341 154.692 26.8654C154.74 31.9967 149.581 31.0091 149.574 30.8365C149.567 30.6638 149.56 23.4676 149.56 23.4676Z" fill="#C69481"/>
<path d="M151.121 28.8751C151.121 28.8751 151.211 28.9372 151.363 29.0063C151.472 29.053 151.59 29.0771 151.708 29.0771C151.827 29.0771 151.944 29.053 152.054 29.0063C152.383 28.7925 152.649 28.4949 152.825 28.1441C153.001 27.7934 153.08 27.402 153.055 27.0104C153.061 26.5728 152.971 26.1391 152.792 25.7397C152.743 25.5766 152.654 25.4283 152.534 25.3079C152.413 25.1874 152.265 25.0985 152.102 25.0491C151.999 25.0216 151.89 25.0315 151.794 25.077C151.698 25.1226 151.621 25.2008 151.577 25.2977C151.508 25.4427 151.542 25.5463 151.515 25.5532C151.487 25.5601 151.404 25.4703 151.446 25.2562C151.472 25.1295 151.54 25.0152 151.639 24.9316C151.782 24.8255 151.96 24.7785 152.136 24.8004C152.348 24.8393 152.545 24.9323 152.71 25.0703C152.874 25.2083 153 25.3865 153.076 25.5877C153.298 26.0286 153.409 26.5169 153.4 27.0104C153.4 28.0463 152.855 29.0201 152.116 29.2411C151.979 29.2833 151.834 29.2934 151.693 29.2706C151.552 29.2478 151.417 29.1929 151.301 29.1099C151.128 28.9994 151.073 28.8889 151.121 28.8751Z" fill="#936457"/>
<path d="M94.3385 137.944L83.9792 139.091L77.6739 143.048C77.6739 143.048 77.5496 144.333 79.3452 144.125L82.9019 142.627L80.0842 145.707C80.0842 145.707 80.7748 146.943 82.3149 146.08C83.2787 145.523 84.1272 144.787 84.8149 143.911L91.0305 143.476C91.0305 143.476 86.3342 147.993 87.1975 149.167C88.0608 150.341 88.6202 150.092 89.2694 149.664C89.9186 149.236 90.326 147.744 91.8661 147.254C93.4062 146.763 95.9684 145.313 98.7309 144.001C101.113 142.875 103.524 134.816 103.524 134.816L95.5885 133.269L94.3385 137.944Z" fill="#FFA8A7"/>
<path d="M90.2224 140.583C90.2224 140.714 87.6119 141.218 84.3453 141.708H84.2624L84.3936 141.639C82.1146 143.973 80.2016 145.783 80.1049 145.693C80.0082 145.603 81.7762 143.621 84.0552 141.308L84.1105 141.246H84.1864H84.2762C87.5359 140.748 90.2017 140.451 90.2224 140.583Z" fill="#936457"/>
<path d="M156.363 202.994L154.436 186.294L138.952 190.632L142.861 206.647L156.363 202.994Z" fill="#FFA8A7"/>
<path d="M156.536 202.987L159.153 222.448L165.666 237.248C165.777 237.501 165.834 237.773 165.836 238.049C165.837 238.325 165.781 238.597 165.672 238.851C165.564 239.104 165.404 239.332 165.203 239.521C165.002 239.71 164.765 239.856 164.505 239.949C164.204 240.059 163.88 240.095 163.562 240.054C163.243 240.013 162.939 239.896 162.675 239.714C159.27 237.338 146.791 228.554 146.66 227.117C146.529 225.453 142.516 206.771 142.516 206.771L156.536 202.987Z" fill="#E874A6"/>
<g opacity="0.6">
<path opacity="0.6" d="M164.505 239.914L146.453 225.777L146.584 226.599C146.694 227.309 147.054 227.955 147.599 228.422C149.063 229.679 153.165 233.05 162.62 239.686C162.891 239.878 163.205 239.999 163.534 240.039C163.863 240.079 164.197 240.036 164.505 239.914Z" fill="white"/>
</g>
<g opacity="0.6">
<path opacity="0.6" d="M149.45 218.871C149.716 219.009 149.922 219.24 150.027 219.521C150.133 219.801 150.132 220.111 150.023 220.39C149.896 220.662 149.67 220.874 149.391 220.983C149.112 221.093 148.802 221.091 148.524 220.977C148.242 220.832 148.024 220.586 147.913 220.289C147.802 219.991 147.806 219.663 147.924 219.368C148.085 219.099 148.344 218.904 148.647 218.822C148.95 218.741 149.272 218.781 149.547 218.933" fill="white"/>
</g>
<path d="M158.732 232.138C159.101 231.457 159.598 230.855 160.196 230.363C161.239 229.603 162.358 229.707 162.364 229.582C162.371 229.458 162.102 229.417 161.639 229.431C161.03 229.451 160.441 229.653 159.947 230.011C159.448 230.353 159.059 230.833 158.828 231.392C158.67 231.841 158.67 232.131 158.732 232.138Z" fill="#263238"/>
<path d="M160.527 234.52C160.631 234.589 161.156 233.83 162.109 233.415C162.717 233.196 163.337 233.014 163.967 232.87C164.008 232.759 163.007 232.497 161.895 233.022C160.783 233.547 160.417 234.486 160.527 234.52Z" fill="#263238"/>
<path d="M155.638 229.23C155.741 229.306 156.543 228.18 157.965 227.359C159.388 226.537 160.728 226.364 160.728 226.233C160.728 226.102 159.257 226.081 157.737 226.986C156.218 227.89 155.534 229.175 155.638 229.23Z" fill="#263238"/>
<path d="M154.346 223.367C154.415 223.47 155.417 222.856 156.805 222.586C158.193 222.317 159.346 222.476 159.367 222.352C159.388 222.227 158.207 221.854 156.715 222.165C155.223 222.476 154.27 223.284 154.346 223.367Z" fill="#263238"/>
<path d="M153.428 217.669C153.511 217.773 154.484 216.979 155.969 216.792C157.454 216.606 158.594 217.151 158.642 217.034C158.69 216.917 158.414 216.779 157.951 216.585C157.306 216.354 156.615 216.278 155.935 216.364C155.256 216.439 154.604 216.676 154.036 217.055C153.587 217.366 153.393 217.635 153.428 217.669Z" fill="#263238"/>
<path d="M155.762 215.715C155.789 215.465 155.759 215.212 155.672 214.976C155.502 214.313 155.202 213.691 154.788 213.146C154.52 212.721 154.12 212.396 153.649 212.22C153.488 212.177 153.317 212.185 153.16 212.241C153.003 212.298 152.868 212.402 152.772 212.538C152.606 212.816 152.547 213.145 152.606 213.464C152.752 214.109 153.119 214.683 153.644 215.087C154.168 215.49 154.818 215.698 155.479 215.674C156.131 215.638 156.758 215.409 157.28 215.015C157.802 214.621 158.194 214.081 158.407 213.464C158.462 213.309 158.483 213.144 158.467 212.981C158.452 212.817 158.4 212.659 158.317 212.517C158.218 212.382 158.079 212.281 157.919 212.229C157.759 212.177 157.587 212.176 157.427 212.227C156.967 212.408 156.564 212.708 156.259 213.098C155.797 213.599 155.427 214.179 155.168 214.81C155.058 215.025 154.995 215.26 154.982 215.501C155.37 214.69 155.875 213.941 156.48 213.277C156.76 212.953 157.116 212.704 157.516 212.552C157.602 212.52 157.696 212.518 157.784 212.545C157.871 212.573 157.947 212.629 158 212.704C158.044 212.802 158.066 212.908 158.066 213.015C158.066 213.122 158.044 213.228 158 213.325C157.799 213.853 157.45 214.312 156.996 214.647C156.542 214.983 156.001 215.181 155.438 215.218C154.878 215.236 154.33 215.063 153.882 214.728C153.434 214.393 153.113 213.915 152.972 213.374C152.924 213.154 152.956 212.924 153.062 212.725C153.112 212.648 153.185 212.589 153.27 212.555C153.356 212.522 153.449 212.516 153.538 212.538C153.942 212.7 154.287 212.982 154.526 213.346C155.075 214.057 155.493 214.859 155.762 215.715Z" fill="#263238"/>
<path d="M120.547 107.35L120.264 111.563C120.264 111.563 116.708 118.296 116.383 124.332C116.19 127.834 116.114 133 116.079 136.715C116.051 139.705 116.881 142.641 118.469 145.175L125.596 156.605L124.615 169.513L137.537 195.39L156.66 190.556L154.395 142.799L146.701 117.578L145.237 105.61L120.547 107.35Z" fill="#263238"/>
<path d="M159.07 104.726L159.409 110.216C159.409 110.216 174.768 77.5085 195.721 73.4752C209.333 70.8509 214.699 85.6923 209.92 97.4742C207.047 104.567 195.114 118.144 195.1 118.455C194.72 125.741 187.303 124.671 187.303 124.671C187.303 124.671 178.007 139.346 175.244 142.212C173.352 144.181 153.386 143.476 153.386 143.476L147.109 130.5L144.581 105.637L159.07 104.726Z" fill="#263238"/>
<path d="M132.516 139.015C132.436 139.42 132.316 139.815 132.157 140.196C131.874 141.025 131.515 142.088 131.073 143.359C130.168 146.032 129.001 149.747 127.84 153.905C126.68 158.062 125.851 161.867 125.278 164.63C125.009 165.949 124.788 167.054 124.588 167.91C124.535 168.318 124.438 168.719 124.298 169.105C124.301 168.692 124.342 168.281 124.422 167.876C124.519 167.095 124.698 165.963 124.947 164.568C125.444 161.805 126.259 157.959 127.392 153.787C128.524 149.616 129.767 145.907 130.755 143.255C131.245 141.929 131.666 140.859 131.977 140.134C132.121 139.745 132.301 139.37 132.516 139.015Z" fill="#455A64"/>
<path d="M127.751 133.863C127.71 134.904 127.609 135.942 127.447 136.971C127.226 138.89 126.97 141.536 126.825 144.471C126.68 147.406 126.68 150.072 126.715 151.998C126.776 153.038 126.776 154.08 126.715 155.12C126.633 154.851 126.587 154.572 126.577 154.291C126.514 153.753 126.452 152.972 126.397 152.005C126.267 149.489 126.267 146.967 126.397 144.45C126.518 141.932 126.767 139.422 127.143 136.929C127.295 135.976 127.433 135.203 127.55 134.678C127.581 134.398 127.649 134.125 127.751 133.863Z" fill="#455A64"/>
<path d="M156.66 189.54C156.655 189.462 156.655 189.384 156.66 189.306C156.66 189.126 156.66 188.905 156.605 188.615C156.605 187.986 156.508 187.109 156.439 185.991C156.308 183.677 156.128 180.39 155.9 176.322C155.486 168.138 154.913 156.881 154.291 144.45C154.091 141.342 154.16 138.276 153.504 135.472C152.88 132.725 151.802 130.101 150.313 127.709C147.81 123.636 144.144 120.405 139.788 118.434C136.864 117.095 133.712 116.321 130.499 116.155C129.367 116.107 128.483 116.155 127.882 116.155L127.191 116.19H126.956C128.128 116.007 129.314 115.937 130.499 115.983C133.748 116.078 136.947 116.813 139.912 118.144C141.965 119.055 143.882 120.245 145.61 121.68C147.585 123.344 149.289 125.306 150.658 127.495C152.168 129.918 153.261 132.577 153.891 135.361C154.581 138.269 154.491 141.349 154.692 144.443C155.272 156.874 155.797 168.131 156.176 176.322C156.342 180.376 156.473 183.67 156.57 185.991C156.57 187.109 156.639 187.986 156.66 188.622C156.66 188.898 156.66 189.126 156.66 189.312C156.66 189.499 156.674 189.54 156.66 189.54Z" fill="#455A64"/>
<path d="M147.91 121.584C147.82 121.501 149.65 119.132 151.998 116.287C154.346 113.441 156.335 111.197 156.432 111.273C156.529 111.349 154.699 113.724 152.344 116.57C149.989 119.415 148.006 121.66 147.91 121.584Z" fill="#455A64"/>
<path d="M178.504 102.205C180.314 99.2525 182.302 96.4134 184.457 93.7033C185.297 92.5499 186.25 91.4833 187.303 90.5195C186.542 91.7317 185.714 92.9006 184.823 94.021C183.269 96.155 181.17 99.1454 179.057 102.592C176.943 106.038 174.954 109.194 174.588 111.832C174.375 113.252 174.513 114.704 174.989 116.059C174.716 115.765 174.524 115.406 174.43 115.016C174.087 113.968 173.986 112.856 174.133 111.763C174.361 110.165 174.876 108.621 175.652 107.205" fill="#455A64"/>
<path d="M189.167 86.2724C189.264 86.3622 188.518 87.2946 188.055 88.6551C187.593 90.0156 187.579 91.2034 187.441 91.2104C187.303 91.2173 187.116 89.9603 187.634 88.51C188.152 87.0597 189.091 86.2034 189.167 86.2724Z" fill="#455A64"/>
<path d="M145.886 155.5C145.776 155.445 146.736 153.2 148.034 150.486C149.332 147.772 150.479 145.617 150.589 145.652C150.7 145.686 149.74 147.945 148.442 150.659C147.143 153.373 145.997 155.548 145.886 155.5Z" fill="#455A64"/>
<path d="M135.064 148.076C135.182 148.034 135.672 149.077 136.162 150.41C136.653 151.743 136.95 152.855 136.853 152.896C136.756 152.938 136.245 151.895 135.762 150.562C135.278 149.229 134.947 148.124 135.064 148.076Z" fill="#455A64"/>
<path d="M110.223 60.816C111.328 51.2579 117.46 49.1169 117.46 49.1169L118.358 105.589L111.314 134.754C111.105 135.623 110.721 136.44 110.184 137.155C109.647 137.869 108.969 138.466 108.192 138.908C107.416 139.35 106.556 139.628 105.668 139.725C104.779 139.822 103.88 139.735 103.026 139.471L88.7583 135.133C88.7583 135.133 109.125 70.388 110.223 60.816Z" fill="#E874A6"/>
<path d="M169.768 55.885C169.768 55.885 173.297 63.9169 173.297 68.1435C173.297 72.3701 177.523 99.7531 173.297 105.554C169.07 111.355 160.741 111.134 158.4 110.962C155.175 110.692 140.133 82.8744 140.748 82.5153L149.208 80.6782C149.208 80.6782 155.134 81.0442 157.958 83.4407C160.783 85.8371 163.545 83.0747 163.545 83.0747L169.519 57.4044" fill="#E874A6"/>
<path d="M157.979 49.1171C157.979 49.1171 167.648 52.4321 169.768 55.8852C171.888 59.3383 159.692 104.519 159.692 104.519L120.547 107.322C120.547 107.322 117.46 106.763 116.618 103.959C115.775 101.155 117.46 49.0895 117.46 49.0895L128.351 45.2358C128.351 45.2358 133.034 50.0702 136.404 51.0577C139.774 52.0453 157.979 49.1171 157.979 49.1171Z" fill="#E874A6"/>
<path d="M119.912 61.5137C119.944 61.6658 119.958 61.8211 119.954 61.9764C119.954 62.3355 119.954 62.7775 119.995 63.3093C119.995 64.4695 119.995 66.1477 119.995 68.2196C119.865 73.6162 119.464 79.0029 118.793 84.3593C118.4 87.4947 117.93 90.4782 117.447 93.1716C116.963 95.865 116.438 98.2753 116.494 100.333C116.482 101.955 116.866 103.555 117.612 104.995C117.916 105.507 118.252 105.998 118.621 106.466C118.621 106.466 118.483 106.376 118.268 106.155C117.962 105.826 117.691 105.464 117.46 105.078C116.637 103.633 116.195 102.003 116.176 100.34C116.079 98.2684 116.57 95.7822 117.039 93.1026C117.509 90.423 117.958 87.4326 118.344 84.3041C119.132 78.0471 119.512 72.3426 119.684 68.2058C119.753 66.1892 119.809 64.5317 119.85 63.3093C119.85 62.7775 119.85 62.3355 119.891 61.9764C119.873 61.822 119.88 61.6658 119.912 61.5137Z" fill="#263238"/>
<path d="M157.979 85.6921C157.553 85.1161 157.092 84.5672 156.598 84.0484C156.053 83.5219 155.425 83.088 154.74 82.7639C153.886 82.3959 152.979 82.1629 152.053 82.0733C150.376 81.7771 148.652 81.8764 147.019 82.3633C146.539 82.5322 146.092 82.7847 145.7 83.1092C145.444 83.3716 145.292 83.5098 145.265 83.4959C145.237 83.4821 145.348 83.2957 145.575 82.9918C145.946 82.5912 146.398 82.2755 146.901 82.0664C148.572 81.4689 150.369 81.3189 152.116 81.6313C153.087 81.7355 154.034 81.9991 154.92 82.4117C155.637 82.771 156.283 83.2577 156.826 83.8482C157.192 84.24 157.502 84.6817 157.744 85.1603C157.931 85.478 157.979 85.6783 157.979 85.6921Z" fill="#263238"/>
<path d="M147.785 94.3179C147.855 94.3179 148.165 95.3745 148.884 97.032C149.842 99.1777 150.947 101.255 152.192 103.248C153.419 105.255 154.787 107.173 156.287 108.987C156.738 109.534 157.232 110.044 157.765 110.513C157.963 110.677 158.176 110.822 158.4 110.948C158.4 110.948 158.083 110.948 157.654 110.651C157.07 110.224 156.533 109.735 156.052 109.194C152.901 105.625 150.379 101.548 148.593 97.1356C148.328 96.4574 148.097 95.7658 147.903 95.0637C147.831 94.8215 147.791 94.5706 147.785 94.3179Z" fill="#263238"/>
<path d="M162.703 60.3949C162.606 60.3327 163.497 58.9239 164.968 57.4943C166.439 56.0647 167.862 55.2014 167.924 55.2981C167.986 55.3948 166.708 56.41 165.279 57.812C163.849 59.2139 162.813 60.4778 162.703 60.3949Z" fill="#263238"/>
<path d="M116.114 50.5881C116.176 50.4914 117.757 51.4652 119.18 53.2263C120.603 54.9874 121.252 56.7208 121.141 56.7622C121.031 56.8037 120.223 55.2014 118.828 53.5094C117.433 51.8174 116.038 50.6917 116.114 50.5881Z" fill="#263238"/>
<path d="M152.392 100.237C151.845 99.5552 151.381 98.8109 151.011 98.0197C149.078 94.2861 147.904 90.2065 147.558 86.0167C147.449 85.1523 147.449 84.2776 147.558 83.4131C147.713 84.263 147.824 85.1206 147.889 85.9822C148.147 88.0386 148.56 90.0725 149.125 92.0665C149.703 94.056 150.428 95.9997 151.294 97.8815C151.704 98.6452 152.071 99.4314 152.392 100.237Z" fill="#263238"/>
<path d="M166.957 88.5169C166.441 88.0915 165.957 87.6299 165.507 87.1356C164.357 85.9988 163.13 84.9441 161.833 83.9795C161.141 83.4433 160.396 82.9804 159.609 82.5983C158.986 82.2877 158.273 82.2117 157.599 82.3842C157.149 82.5158 156.753 82.7866 156.467 83.1577C156.28 83.4339 156.239 83.6273 156.204 83.6204C156.17 83.6135 156.163 83.4063 156.321 83.0748C156.572 82.6075 156.992 82.254 157.496 82.0872C158.242 81.8407 159.054 81.8876 159.768 82.2184C160.597 82.5993 161.378 83.0768 162.095 83.6411C163.418 84.6135 164.638 85.7197 165.735 86.9422C166.218 87.4035 166.63 87.9342 166.957 88.5169Z" fill="#263238"/>
<g opacity="0.3">
<path opacity="0.3" d="M148.69 97.4672C146.667 97.9783 144.616 96.7766 142.53 96.6937C140.638 96.597 138.828 97.3843 137.005 97.8747C133.02 98.9446 128.795 98.6901 124.967 97.1495C124.511 96.9918 124.096 96.7347 123.752 96.3968C123.584 96.1859 123.474 95.9344 123.434 95.6677C123.394 95.4009 123.425 95.1283 123.524 94.8774C127.039 94.8429 130.548 94.9948 134.07 94.9603C134.784 95.0112 135.5 94.8705 136.142 94.5528C136.303 94.4653 136.433 94.3303 136.515 94.166C136.515 94.166 138.621 94.097 139.374 94.0901C141.066 94.0901 143.02 94.2213 144.712 94.2144C145.451 94.2144 147.827 94.318 147.772 94.318" fill="black"/>
</g>
<g opacity="0.3">
<path opacity="0.3" d="M160.279 82.398C163.283 82.9402 166.075 84.3136 168.338 86.3622C168.6 86.5767 168.818 86.8392 168.981 87.1356C169.064 87.2818 169.108 87.4473 169.108 87.6156C169.108 87.784 169.064 87.9494 168.981 88.0956C168.851 88.257 168.674 88.3743 168.475 88.4312C168.276 88.4881 168.064 88.4818 167.869 88.4133C167.479 88.2701 167.124 88.0466 166.826 87.7572L160.113 82.1287" fill="black"/>
</g>
<path d="M162.157 63.033C162.264 63.9845 162.284 64.9437 162.219 65.899C162.185 67.6601 162.061 70.1049 161.805 72.8052C161.549 75.5055 161.211 77.9158 160.914 79.6561C160.805 80.6051 160.606 81.5416 160.32 82.4531C160.35 81.4994 160.445 80.5487 160.603 79.6078C160.817 77.8605 161.107 75.4641 161.363 72.7638C161.619 70.0635 161.784 67.6601 161.902 65.9059C161.921 64.9436 162.007 63.9837 162.157 63.033Z" fill="#263238"/>
<path d="M131.66 82.3842L127.564 73.5581L113.482 72.6741L112.985 73.4959L123.662 94.0625L136.528 94.1661L131.66 82.3842Z" fill="#455A64"/>
<path d="M131.162 83.206L127.067 74.373L112.985 73.489L123.165 94.8982L134.581 94.9811C135.26 94.9898 135.918 94.7433 136.425 94.2904L136.528 94.1937L131.162 83.206Z" fill="#455A64"/>
<path d="M120.478 77.6465C120.58 77.7353 120.706 77.7923 120.839 77.8105C120.973 77.8287 121.109 77.8072 121.231 77.7488C121.353 77.6904 121.455 77.5976 121.524 77.4819C121.594 77.3661 121.628 77.2325 121.623 77.0976C121.617 76.9627 121.572 76.8324 121.493 76.7228C121.414 76.6132 121.305 76.5291 121.179 76.4809C121.053 76.4328 120.915 76.4227 120.783 76.4519C120.651 76.481 120.531 76.5482 120.437 76.6451C120.372 76.7124 120.321 76.7923 120.287 76.8799C120.254 76.9675 120.239 77.061 120.242 77.1547C120.246 77.2484 120.269 77.3403 120.31 77.4249C120.35 77.5094 120.408 77.5848 120.478 77.6465Z" fill="#EBEBEB"/>
<path d="M147.661 83.6549L142.219 83.9726C141.552 83.0276 140.682 82.2447 139.672 81.6816C138.661 81.1186 137.538 80.7899 136.383 80.7198L134.443 80.5955L133.02 81.9767C133.02 81.9767 123.469 81.7971 123.047 82.9505V83.3303V83.5513L131.162 84.6079C131.162 84.6079 124.256 84.1521 123.814 84.1383C123.372 84.1245 121.887 83.9035 121.867 84.7185C121.867 85.4091 122.612 85.9685 123.8 86.2171C124.284 86.3207 130.258 87.2185 130.258 87.2185L123.648 86.742C122.909 86.6867 122.958 87.8815 123.358 88.061C123.759 88.2406 132.012 91.1965 132.012 91.1965C131.211 91.6614 130.299 91.9001 129.374 91.8871C128.213 91.7351 126.314 90.1122 125.858 90.7959C125.403 91.4796 125.458 91.894 125.693 92.0735C126.904 92.8521 128.169 93.5444 129.477 94.1454C130.375 94.4493 139.602 93.9865 139.602 93.9865L149.236 94.318L147.661 83.6549Z" fill="#FFA8A7"/>
<path d="M129.767 81.9144C130.885 81.8784 132.003 81.9084 133.117 82.0042C134.236 82.0336 135.352 82.1328 136.459 82.3012C135.342 82.3414 134.223 82.3114 133.11 82.2114C131.99 82.186 130.874 82.0868 129.767 81.9144Z" fill="#936457"/>
<path d="M130.354 81.5279C130.354 81.5279 130.258 81.3414 130.099 81.003C129.94 80.6646 129.691 80.119 129.408 79.532C128.814 78.206 128.027 76.4518 127.115 74.4352H127.17L123.945 74.228L116.162 73.7101L113.807 73.5374L113.165 73.4822H112.944H113.165H113.807L116.169 73.6134L123.952 74.0899L127.177 74.304H127.219V74.3385L129.47 79.456L130.113 80.9409C130.313 81.3345 130.354 81.5279 130.354 81.5279Z" fill="#263238"/>
<path d="M184.782 128.69L175.403 140.486C175.403 140.486 184.879 153.083 183.359 155.431L159.188 138.96L173.048 119.981L184.782 128.69Z" fill="#E874A6"/>
<g opacity="0.6">
<path opacity="0.6" d="M168.877 134.098C168.601 133.998 168.298 134.005 168.026 134.116C167.755 134.227 167.534 134.434 167.406 134.698C167.297 134.972 167.298 135.277 167.407 135.551C167.516 135.824 167.726 136.045 167.993 136.169C168.288 136.273 168.611 136.263 168.899 136.141C169.188 136.02 169.421 135.796 169.554 135.513C169.637 135.217 169.602 134.899 169.456 134.628C169.311 134.356 169.066 134.152 168.773 134.056" fill="white"/>
</g>
<g opacity="0.6">
<path opacity="0.6" d="M159.194 138.96L160.576 137.047L183.366 153.767C183.527 154.062 183.611 154.393 183.611 154.73C183.611 155.066 183.527 155.398 183.366 155.693L159.194 138.96Z" fill="white"/>
</g>
<path d="M175.873 140.645C175.783 140.755 175.182 140.382 174.333 140.334C173.483 140.286 172.834 140.548 172.765 140.424C172.696 140.299 173.352 139.733 174.367 139.844C175.383 139.954 175.977 140.555 175.873 140.645Z" fill="#263238"/>
<path d="M177.586 143.483C177.53 143.614 176.895 143.442 176.142 143.642C175.389 143.842 174.899 144.271 174.761 144.181C174.623 144.091 175.058 143.387 175.99 143.159C176.923 142.931 177.662 143.373 177.586 143.483Z" fill="#263238"/>
<path d="M176.805 147.475C176.688 147.42 176.95 146.729 177.71 146.315C178.47 145.9 179.188 146.052 179.167 146.183C179.146 146.315 178.566 146.404 177.945 146.757C177.323 147.109 176.93 147.544 176.805 147.475Z" fill="#263238"/>
<path d="M177.71 137.716C177.586 137.786 177.178 137.24 176.494 136.805C175.811 136.37 175.155 136.204 175.168 136.059C175.182 135.914 175.97 135.866 176.764 136.39C177.558 136.915 177.834 137.668 177.71 137.716Z" fill="#263238"/>
<path d="M179.561 135.306C179.526 135.354 179.015 135.092 178.387 134.429C178.016 134.041 177.695 133.607 177.434 133.138C177.275 132.863 177.137 132.576 177.019 132.281C176.943 132.11 176.892 131.929 176.867 131.743C176.854 131.605 176.886 131.468 176.958 131.35C177.03 131.233 177.139 131.143 177.268 131.093C177.384 131.057 177.506 131.048 177.626 131.067C177.746 131.086 177.86 131.133 177.959 131.204C178.111 131.309 178.244 131.44 178.352 131.591C178.559 131.835 178.741 132.099 178.898 132.378C179.166 132.851 179.357 133.364 179.464 133.897C179.615 134.374 179.615 134.885 179.464 135.361C179.381 135.361 179.381 134.809 179.133 133.98C178.99 133.494 178.783 133.03 178.518 132.599C178.364 132.355 178.191 132.124 178 131.908C177.8 131.66 177.586 131.501 177.441 131.57C177.296 131.639 177.372 131.604 177.372 131.722C177.389 131.858 177.426 131.99 177.482 132.116C177.584 132.395 177.704 132.667 177.841 132.93C178.076 133.379 178.349 133.806 178.656 134.208C179.188 134.885 179.609 135.244 179.561 135.306Z" fill="#263238"/>
<path d="M179.285 135.361C179.313 134.857 179.499 134.374 179.816 133.98C180.117 133.528 180.493 133.131 180.928 132.806C181.188 132.615 181.465 132.451 181.757 132.316C181.935 132.207 182.137 132.146 182.345 132.139C182.554 132.132 182.76 132.178 182.945 132.274C183.048 132.354 183.127 132.461 183.172 132.583C183.218 132.705 183.227 132.837 183.2 132.965C183.156 133.146 183.089 133.32 183 133.483C182.847 133.777 182.649 134.045 182.413 134.277C182.029 134.669 181.555 134.961 181.032 135.127C180.799 135.226 180.549 135.277 180.296 135.277C180.044 135.277 179.793 135.226 179.561 135.127C180.027 135.039 180.488 134.926 180.942 134.788C181.395 134.601 181.801 134.316 182.13 133.953C182.323 133.747 182.486 133.514 182.613 133.262C182.758 132.979 182.814 132.709 182.703 132.668C182.589 132.63 182.468 132.618 182.349 132.633C182.229 132.647 182.115 132.687 182.013 132.751C181.746 132.865 181.491 133.006 181.253 133.172C180.812 133.455 180.417 133.802 180.079 134.201C179.554 134.864 179.388 135.389 179.285 135.361Z" fill="#263238"/>
<path d="M187.303 124.664L184.347 128.365L173.325 120.188L175.334 117.115L187.303 124.664Z" fill="#FFA8A7"/>
</svg>
