<svg width="267" height="265" viewBox="0 0 267 265" fill="none" xmlns="http://www.w3.org/2000/svg">
<path d="M210.569 259.602C225.457 259.602 237.527 252.751 237.527 244.301C237.527 235.85 225.457 229 210.569 229C195.68 229 183.611 235.85 183.611 244.301C183.611 252.751 195.68 259.602 210.569 259.602Z" fill="#E0E0E0"/>
<path d="M236.645 35.0733L241.655 37.9624C241.628 37.7389 241.615 37.514 241.615 37.2889V35.8545C241.615 33.2684 243.426 32.2246 245.656 33.5109C246.616 34.1038 247.438 34.8962 248.067 35.8343C248.437 32.5882 250.983 31.376 254.074 33.1405C257.441 35.0665 260.135 39.7672 260.135 43.6261V45.8013C260.154 46.6664 259.979 47.5248 259.623 48.3133L263.778 50.7175C264.432 51.1433 264.976 51.7169 265.367 52.3919C265.757 53.067 265.984 53.8245 266.027 54.6033C266.027 56.0378 265.017 56.6237 263.778 55.9031L236.638 40.2319C235.985 39.8062 235.442 39.2324 235.052 38.5572C234.662 37.8821 234.437 37.1245 234.396 36.3461C234.402 34.9386 235.406 34.3594 236.645 35.0733Z" fill="#EBEBEB"/>
<path d="M210.71 47.0744L214.495 49.2564C214.474 49.0911 214.463 48.9246 214.461 48.758V47.6333C214.461 45.6871 215.808 44.8924 217.519 45.8689C218.243 46.3164 218.863 46.9134 219.337 47.6199C219.613 45.1685 221.533 44.2526 223.869 45.5995C225.201 46.4669 226.309 47.6362 227.103 49.0123C227.898 50.3884 228.357 51.9326 228.442 53.5193V55.1558C228.457 55.8095 228.325 56.4581 228.058 57.0549L231.197 58.8665C231.69 59.1882 232.1 59.6218 232.394 60.1321C232.687 60.6423 232.856 61.2148 232.887 61.8027C232.887 62.8803 232.133 63.318 231.197 62.7792L210.71 51.0006C210.217 50.6789 209.807 50.2453 209.513 49.735C209.22 49.2248 209.05 48.6523 209.02 48.0644C209.02 46.9599 209.774 46.5356 210.71 47.0744Z" fill="#EBEBEB"/>
<path d="M23.3967 245.284V232.831C23.3967 232.831 22.7232 225.821 17.8474 220.501C12.9717 215.18 8.52689 216.985 7.07224 219.511C5.61758 222.036 8.90402 226.831 10.985 229.525C13.4902 232.771 23.3765 247.849 23.3765 254.604L23.3967 245.284Z" fill="#FF80B6"/>
<g opacity="0.2">
<path opacity="0.2" d="M23.3967 245.284V232.831C23.3967 232.831 22.7232 225.821 17.8474 220.501C12.9717 215.18 8.52689 216.985 7.07224 219.511C5.61758 222.036 8.90402 226.831 10.985 229.525C13.4902 232.771 23.3765 247.849 23.3765 254.604L23.3967 245.284Z" fill="black"/>
</g>
<path d="M23.3967 243.317C23.3249 243.318 23.255 243.294 23.1994 243.248C23.1439 243.203 23.1064 243.139 23.0937 243.068C20.8511 229.511 10.5338 220.204 10.4328 220.11C10.4043 220.082 10.3817 220.048 10.3662 220.011C10.3508 219.974 10.3428 219.935 10.3428 219.895C10.3428 219.854 10.3508 219.815 10.3662 219.778C10.3817 219.741 10.4043 219.707 10.4328 219.679C10.4906 219.623 10.5679 219.592 10.6483 219.592C10.7288 219.592 10.806 219.623 10.8638 219.679C10.9716 219.773 21.4437 229.208 23.72 242.987C23.7267 243.027 23.7256 243.067 23.7168 243.106C23.7079 243.145 23.6914 243.182 23.6682 243.214C23.6451 243.247 23.6157 243.274 23.5818 243.295C23.5479 243.317 23.5102 243.331 23.4708 243.337L23.3967 243.317Z" fill="white"/>
<path d="M23.4506 246.913C23.4506 246.913 23.8547 245.681 22.0431 245.365C20.2315 245.048 19.5311 243.546 19.3493 241.014C19.1675 238.482 18.4132 236.664 16.1369 236.3C13.8607 235.936 12.0289 237.074 10.554 235.936C9.07917 234.798 5.24724 232.037 2.06182 233.296C-1.1236 234.556 -0.073013 237.263 1.57694 239.027C3.22689 240.792 3.71851 241.384 2.44569 244.253C1.17287 247.122 2.10223 249.803 5.03174 250.469C7.96125 251.136 9.59773 250.799 9.64487 254.012C9.69201 257.224 10.1365 258.658 11.7393 259.918C13.3421 261.177 18.393 260.591 20.4942 261.096C21.1256 261.258 21.7152 261.553 22.2239 261.96C22.7325 262.368 23.1484 262.879 23.4439 263.46L23.4506 246.913Z" fill="#FF80B6"/>
<path d="M23.4506 260.153C23.398 260.153 23.3467 260.137 23.3035 260.107C23.2603 260.077 23.227 260.034 23.2082 259.985C17.8744 244.152 5.8062 237.761 5.69845 237.694C5.6457 237.659 5.60777 237.606 5.59198 237.544C5.5762 237.483 5.58368 237.418 5.61298 237.362C5.64228 237.306 5.69132 237.263 5.75064 237.241C5.80995 237.219 5.87533 237.219 5.93416 237.243C6.05538 237.31 18.2987 243.789 23.6998 259.823C23.7113 259.854 23.7165 259.887 23.7149 259.92C23.7133 259.953 23.705 259.985 23.6905 260.015C23.676 260.045 23.6556 260.071 23.6306 260.093C23.6055 260.114 23.5764 260.13 23.5449 260.14C23.5154 260.153 23.4827 260.158 23.4506 260.153Z" fill="white"/>
<path d="M15.8002 246.354H15.7396C12.2579 245.56 6.68844 245.991 6.63457 245.991C6.56771 245.996 6.50132 245.975 6.44968 245.933C6.39803 245.89 6.36528 245.828 6.35845 245.762C6.3557 245.728 6.35967 245.695 6.37011 245.663C6.38056 245.632 6.39727 245.602 6.41926 245.577C6.44124 245.552 6.46805 245.532 6.4981 245.517C6.52815 245.502 6.56081 245.494 6.59416 245.492C6.82313 245.492 12.2983 245.048 15.8541 245.863C15.9202 245.87 15.9807 245.903 16.0224 245.955C16.0641 246.007 16.0835 246.073 16.0763 246.139C16.0692 246.205 16.0361 246.265 15.9843 246.307C15.9325 246.349 15.8663 246.368 15.8002 246.361V246.354Z" fill="white"/>
<path d="M18.6354 253.964C17.0461 253.964 15.3557 253.857 15.2682 253.85C15.2357 253.848 15.2039 253.84 15.1747 253.826C15.1455 253.812 15.1194 253.792 15.098 253.767C15.0767 253.743 15.0605 253.714 15.0503 253.683C15.0402 253.652 15.0364 253.62 15.0392 253.587C15.039 253.554 15.0458 253.521 15.0593 253.49C15.0728 253.46 15.0926 253.433 15.1175 253.41C15.1423 253.388 15.1716 253.371 15.2034 253.361C15.2351 253.351 15.2687 253.348 15.3018 253.352C17.1157 253.478 18.9362 253.478 20.7501 253.352C20.8158 253.343 20.8821 253.36 20.9358 253.399C20.9895 253.438 21.0266 253.495 21.0396 253.56C21.0494 253.626 21.0331 253.693 20.9941 253.748C20.9551 253.802 20.8965 253.838 20.8309 253.85C20.1028 253.941 19.369 253.979 18.6354 253.964Z" fill="white"/>
<path d="M14.1502 244.496C14.0835 244.49 14.0215 244.459 13.9774 244.409C13.9334 244.359 13.9108 244.293 13.9145 244.226C14.0342 242.416 14.4106 240.631 15.0324 238.926C15.0631 238.874 15.1114 238.834 15.1688 238.814C15.2262 238.794 15.2888 238.795 15.3456 238.816C15.4023 238.838 15.4494 238.88 15.4784 238.933C15.5074 238.987 15.5164 239.049 15.5039 239.108C14.9013 240.773 14.5341 242.514 14.4129 244.28C14.4045 244.343 14.3727 244.4 14.324 244.44C14.2752 244.48 14.2131 244.5 14.1502 244.496Z" fill="white"/>
<path d="M23.0196 81.9117L164.902 0V182.626L23.0196 264.545V81.9117Z" fill="#37474F"/>
<path d="M125.357 47V159.796L32.32 213.511V100.708L125.357 47Z" fill="#FF80B6"/>
<path opacity="0.7" d="M125.357 47V159.796L32.32 213.511V100.708L125.357 47Z" fill="white"/>
<path d="M155.595 29.5439V177.259L125.357 159.796V46.9998L155.595 29.5439Z" fill="#FF80B6"/>
<path opacity="0.6" d="M155.595 29.5439V177.259L125.357 159.796V46.9998L155.595 29.5439Z" fill="white"/>
<path d="M155.595 177.259L32.32 248.429V213.511L125.357 159.796L155.595 177.259Z" fill="#FF80B6"/>
<path opacity="0.8" d="M155.595 177.259L32.32 248.429V213.511L125.357 159.796L155.595 177.259Z" fill="white"/>
<path d="M67.3529 208.999C62.8542 206.406 55.5069 206.439 50.9409 209.079C48.6377 210.426 47.4928 212.144 47.4928 213.874C47.4928 214.171 47.4928 215.322 47.4928 215.605C47.4928 217.316 48.5771 219.013 50.8197 220.319C55.3183 222.912 62.6657 222.878 67.2317 220.245C69.5483 218.898 70.6932 217.161 70.6797 215.423C70.6797 215.134 70.6797 213.955 70.6797 213.652C70.6528 211.955 69.5551 210.278 67.3529 208.999Z" fill="#FF80B6"/>
<path opacity="0.5" d="M67.3529 208.999C62.8542 206.406 55.5069 206.439 50.9409 209.079C48.6377 210.426 47.4928 212.144 47.4928 213.874C47.4928 214.171 47.4928 215.322 47.4928 215.605C47.4928 217.316 48.5771 219.013 50.8197 220.319C55.3183 222.912 62.6657 222.878 67.2317 220.245C69.5483 218.898 70.6932 217.161 70.6797 215.423C70.6797 215.134 70.6797 213.955 70.6797 213.652C70.6528 211.955 69.5551 210.278 67.3529 208.999Z" fill="black"/>
<path d="M50.7995 218.548C55.2981 221.141 62.6454 221.107 67.2114 218.474C71.7774 215.841 71.838 211.591 67.3394 208.999C62.8408 206.406 55.4934 206.439 50.9274 209.079C46.3614 211.719 46.3008 215.955 50.7995 218.548Z" fill="#FF80B6"/>
<path opacity="0.3" d="M50.7995 218.548C55.2981 221.141 62.6454 221.107 67.2114 218.474C71.7774 215.841 71.838 211.591 67.3394 208.999C62.8408 206.406 55.4934 206.439 50.9274 209.079C46.3614 211.719 46.3008 215.955 50.7995 218.548Z" fill="black"/>
<path d="M60.9955 213.511C60.9916 213.682 60.9389 213.848 60.8434 213.99C60.7479 214.132 60.6137 214.244 60.4567 214.312C60.0395 214.524 59.578 214.635 59.1098 214.635C58.6417 214.635 58.1802 214.524 57.7629 214.312C57.601 214.243 57.4593 214.133 57.3509 213.994C57.2426 213.855 57.1712 213.691 57.1434 213.517V154.712L60.9484 154.759L60.9955 213.511Z" fill="#FF80B6"/>
<path opacity="0.5" d="M60.9955 213.511C60.9916 213.682 60.9389 213.848 60.8434 213.99C60.7479 214.132 60.6137 214.244 60.4567 214.312C60.0395 214.524 59.578 214.635 59.1098 214.635C58.6417 214.635 58.1802 214.524 57.7629 214.312C57.601 214.243 57.4593 214.133 57.3509 213.994C57.2426 213.855 57.1712 213.691 57.1434 213.517V154.712L60.9484 154.759L60.9955 213.511Z" fill="black"/>
<path opacity="0.3" d="M58.8539 214.649C58.4711 214.632 58.0975 214.526 57.7629 214.339C57.601 214.27 57.4593 214.16 57.3509 214.021C57.2426 213.882 57.1712 213.718 57.1434 213.544V154.712H58.8539V214.649Z" fill="black"/>
<path d="M60.4029 155.547C59.9852 155.758 59.5238 155.867 59.056 155.867C58.5881 155.867 58.1268 155.758 57.7091 155.547C56.9616 155.116 56.9481 154.422 57.7091 153.991C58.1268 153.78 58.5881 153.671 59.056 153.671C59.5238 153.671 59.9852 153.78 60.4029 153.991C61.1302 154.422 61.1437 155.123 60.4029 155.547Z" fill="#263238"/>
<path d="M73.9796 153.58C73.2022 146.095 71.4708 138.739 68.8277 131.693L69.5012 124.534C73.0503 121.659 71.5215 117.706 70.5114 116.17C69.5012 114.635 68.39 112.991 67.2519 111.362C67.3741 109.957 67.0689 108.549 66.3764 107.321C64.1607 103.597 60.1402 105.543 58.8607 106.277L51.8635 110.264C51.5133 110.466 49.8432 111.395 49.5401 111.611C47.9972 112.617 46.5358 113.743 45.1694 114.978C44.496 115.537 44.1256 116.621 44.1256 118.083C44.1256 120.904 45.6139 124.049 47.4457 125.107C47.54 125.161 47.6275 125.201 47.7151 125.241C49.4728 126.198 50.2472 127.194 51.2305 129.43C52.0319 131.255 53.2037 133.532 53.0555 134.198C52.9074 134.865 49.5334 139.189 47.7555 143.431C46.4711 146.559 45.5405 149.821 44.9809 153.156C44.5835 155.56 45.9776 158.052 49.1765 159.89C54.8469 163.163 64.053 163.163 69.7302 159.89C72.7405 158.173 74.1682 155.856 73.9796 153.58Z" fill="#FF80B6"/>
<path opacity="0.05" d="M73.9796 153.58C73.2022 146.095 71.4708 138.739 68.8277 131.693L69.5012 124.534C73.0503 121.659 71.5215 117.706 70.5114 116.17C69.5012 114.635 68.39 112.991 67.2519 111.362C67.3741 109.957 67.0689 108.549 66.3764 107.321C64.1607 103.597 60.1402 105.543 58.8607 106.277L51.8635 110.264C51.5133 110.466 49.8432 111.395 49.5401 111.611C47.9972 112.617 46.5358 113.743 45.1694 114.978C44.496 115.537 44.1256 116.621 44.1256 118.083C44.1256 120.904 45.6139 124.049 47.4457 125.107C47.54 125.161 47.6275 125.201 47.7151 125.241C49.4728 126.198 50.2472 127.194 51.2305 129.43C52.0319 131.255 53.2037 133.532 53.0555 134.198C52.9074 134.865 49.5334 139.189 47.7555 143.431C46.4711 146.559 45.5405 149.821 44.9809 153.156C44.5835 155.56 45.9776 158.052 49.1765 159.89C54.8469 163.163 64.053 163.163 69.7302 159.89C72.7405 158.173 74.1682 155.856 73.9796 153.58Z" fill="black"/>
<path opacity="0.1" d="M47.4591 125.127C45.6273 124.07 44.139 120.925 44.139 118.103C44.139 116.513 44.6104 115.369 45.3512 114.857C45.6677 114.654 46.0377 114.551 46.4134 114.56C46.7892 114.57 47.1535 114.692 47.4591 114.911C49.2909 115.968 50.7792 119.106 50.7792 121.935C50.8491 122.985 50.5436 124.025 49.9172 124.871C49.6125 125.211 49.192 125.426 48.7376 125.474C48.2832 125.521 47.8274 125.397 47.4591 125.127Z" fill="black"/>
<path opacity="0.05" d="M66.5986 107.779L65.0833 108.755C65.0833 108.755 66.4302 110.311 67.2249 111.362V110.446C67.1988 109.523 66.9857 108.616 66.5986 107.779Z" fill="black"/>
<path d="M53.0824 106.264V110.305C53.0864 111.399 53.4831 112.455 54.2004 113.281C55.7089 114.722 59.6822 116.521 61.211 115.645C61.972 115.207 61.211 112.399 61.0157 110.486C60.8204 108.574 60.8675 106.264 60.8675 106.264H53.0824Z" fill="#FF80B6"/>
<path opacity="0.1" d="M53.0824 106.264V110.305C53.0864 111.399 53.4831 112.455 54.2004 113.281C55.7089 114.722 59.6822 116.521 61.211 115.645C61.972 115.207 61.211 112.399 61.0157 110.486C60.8204 108.574 60.8675 106.264 60.8675 106.264H53.0824Z" fill="black"/>
<path opacity="0.05" d="M54.2004 113.281C55.0254 114.004 55.9596 114.593 56.9682 115.025V106.27H53.0824V110.311C53.088 111.403 53.4846 112.456 54.2004 113.281Z" fill="black"/>
<path d="M59.7294 107.853C58.8756 108.289 57.9304 108.517 56.9716 108.517C56.0128 108.517 55.0677 108.289 54.2138 107.853C53.3518 107.361 52.9747 106.688 53.0824 106.048C53.1568 105.749 53.2969 105.469 53.4926 105.23C53.6883 104.992 53.9347 104.799 54.2138 104.668C55.0677 104.231 56.0128 104.004 56.9716 104.004C57.9304 104.004 58.8756 104.231 59.7294 104.668C60.0252 104.805 60.2832 105.013 60.4814 105.272C60.6796 105.531 60.8121 105.834 60.8675 106.156C60.861 106.518 60.7501 106.871 60.5483 107.172C60.3464 107.473 60.0621 107.709 59.7294 107.853Z" fill="#FF80B6"/>
<path d="M60.1604 96.9699C59.9647 96.8631 59.7437 96.8112 59.5209 96.8195C59.2981 96.8278 59.0816 96.896 58.8943 97.0171C57.8572 97.6165 57.0423 99.2731 56.975 100.862C56.9706 100.556 56.8946 100.254 56.7531 99.9815C56.6117 99.7091 56.4086 99.4735 56.1601 99.2933C55.9558 99.187 55.7266 99.1377 55.4967 99.1507C55.2667 99.1638 55.0446 99.2386 54.8536 99.3674C54.3288 99.7633 53.8984 100.271 53.5932 100.853C53.2881 101.435 53.116 102.078 53.0892 102.735C53.0606 102.99 53.0989 103.249 53.2005 103.485C53.302 103.721 53.4633 103.927 53.6683 104.082C53.7881 104.154 53.9258 104.191 54.0657 104.189C54.2492 104.184 54.428 104.131 54.5842 104.034C54.9159 103.781 55.1833 103.454 55.3646 103.078C55.546 102.703 55.6362 102.29 55.6281 101.873C55.6477 101.694 55.62 101.514 55.5479 101.35C55.4758 101.185 55.3618 101.043 55.2173 100.937C55.1164 100.873 54.9997 100.84 54.8806 100.84C54.7614 100.84 54.6447 100.873 54.5438 100.937C54.3197 101.106 54.1389 101.326 54.016 101.579C53.8931 101.832 53.8317 102.11 53.8367 102.391C53.8238 102.519 53.8444 102.649 53.8963 102.767C53.9482 102.885 54.0298 102.987 54.133 103.065C54.2093 103.11 54.2966 103.134 54.3856 103.134C54.4745 103.134 54.5618 103.11 54.6381 103.065C54.6625 103.05 54.6837 103.031 54.7007 103.008C54.7176 102.985 54.7298 102.959 54.7367 102.932C54.7436 102.904 54.745 102.876 54.7408 102.848C54.7366 102.82 54.7268 102.793 54.7122 102.768C54.6983 102.744 54.6797 102.723 54.6575 102.706C54.6353 102.689 54.61 102.677 54.583 102.67C54.556 102.663 54.5279 102.662 54.5004 102.666C54.4728 102.67 54.4464 102.68 54.4226 102.694H54.3485C54.3485 102.694 54.2677 102.58 54.2677 102.398C54.2655 102.193 54.3077 101.99 54.3914 101.803C54.4751 101.616 54.5983 101.449 54.7526 101.314C54.7884 101.293 54.8291 101.282 54.8705 101.282C54.9118 101.282 54.9525 101.293 54.9883 101.314C55.0759 101.368 55.1836 101.543 55.1836 101.879C55.1888 102.221 55.1171 102.559 54.9737 102.87C54.8303 103.18 54.6189 103.453 54.3553 103.671C54.2861 103.721 54.2046 103.752 54.1193 103.761C54.034 103.769 53.948 103.754 53.8704 103.718C53.7354 103.595 53.6319 103.442 53.5686 103.271C53.5053 103.1 53.4841 102.916 53.5067 102.735C53.5299 102.148 53.6805 101.574 53.9479 101.052C54.2154 100.53 54.5934 100.072 55.0557 99.7109C55.1827 99.6236 55.3306 99.5713 55.4843 99.5595C55.6381 99.5477 55.7922 99.5767 55.9311 99.6435C56.1627 99.8462 56.3409 100.103 56.4501 100.39C56.5593 100.678 56.5961 100.988 56.5575 101.293V106.008C56.5569 106.049 56.5688 106.09 56.5916 106.125C56.6144 106.16 56.647 106.187 56.6854 106.203C56.7785 106.249 56.8811 106.273 56.9851 106.273C57.0891 106.273 57.1917 106.249 57.2848 106.203C57.3188 106.187 57.3481 106.163 57.3694 106.132C57.3907 106.101 57.4034 106.065 57.406 106.028V101.105C57.406 99.6233 58.1737 97.933 59.1233 97.3875C59.2452 97.3049 59.3873 97.2569 59.5343 97.2486C59.6814 97.2403 59.8279 97.272 59.9584 97.3403C60.1344 97.4739 60.2728 97.6509 60.3601 97.8538C60.4475 98.0568 60.4808 98.279 60.4567 98.4987C60.4642 98.936 60.3724 99.3693 60.1881 99.7659C60.0038 100.163 59.7318 100.512 59.3927 100.788C59.3405 100.819 59.2812 100.834 59.2209 100.834C59.1607 100.834 59.1014 100.819 59.0492 100.788C58.9213 100.714 58.7798 100.479 58.7798 100.041C58.7756 99.7745 58.8308 99.5106 58.9415 99.2682C59.0522 99.0259 59.2155 98.8113 59.4196 98.6401C59.4423 98.6277 59.4678 98.6212 59.4937 98.6212C59.5196 98.6212 59.545 98.6277 59.5678 98.6401C59.6351 98.6738 59.6957 98.8152 59.6957 99.0509C59.6993 99.2078 59.668 99.3635 59.6039 99.5068C59.5398 99.6501 59.4447 99.7773 59.3253 99.8792C59.301 99.8938 59.2797 99.913 59.2628 99.9358C59.2459 99.9586 59.2336 99.9845 59.2267 100.012C59.2198 100.04 59.2185 100.068 59.2227 100.096C59.2269 100.124 59.2366 100.151 59.2513 100.176C59.2652 100.2 59.2837 100.221 59.3059 100.238C59.3281 100.254 59.3534 100.267 59.3804 100.274C59.4074 100.281 59.4355 100.282 59.4631 100.278C59.4906 100.274 59.517 100.264 59.5408 100.25C59.7279 100.112 59.8788 99.9309 59.9809 99.7222C60.0829 99.5134 60.1329 99.2831 60.1267 99.0509C60.1414 98.9012 60.1176 98.7502 60.0575 98.6123C59.9973 98.4744 59.903 98.3541 59.7833 98.263C59.6965 98.212 59.5977 98.1852 59.4971 98.1852C59.3964 98.1852 59.2976 98.212 59.2108 98.263C58.9375 98.4692 58.717 98.7372 58.5671 99.045C58.4173 99.3529 58.3425 99.6918 58.3488 100.034C58.326 100.247 58.3586 100.463 58.4435 100.66C58.5285 100.857 58.6629 101.029 58.8337 101.159C58.9364 101.217 59.0525 101.247 59.1704 101.246C59.3252 101.244 59.4765 101.2 59.6082 101.118C60.0157 100.807 60.344 100.404 60.5663 99.9415C60.7887 99.4792 60.8988 98.9711 60.8877 98.4583C60.9044 98.1686 60.8463 97.8796 60.7189 97.6189C60.5915 97.3582 60.3992 97.1347 60.1604 96.9699Z" fill="#FF80B6"/>
<path opacity="0.6" d="M60.1604 96.9699C59.9647 96.8631 59.7437 96.8112 59.5209 96.8195C59.2981 96.8278 59.0816 96.896 58.8943 97.0171C57.8572 97.6165 57.0423 99.2731 56.975 100.862C56.9706 100.556 56.8946 100.254 56.7531 99.9815C56.6117 99.7091 56.4086 99.4735 56.1601 99.2933C55.9558 99.187 55.7266 99.1377 55.4967 99.1507C55.2667 99.1638 55.0446 99.2386 54.8536 99.3674C54.3288 99.7633 53.8984 100.271 53.5932 100.853C53.2881 101.435 53.116 102.078 53.0892 102.735C53.0606 102.99 53.0989 103.249 53.2005 103.485C53.302 103.721 53.4633 103.927 53.6683 104.082C53.7881 104.154 53.9258 104.191 54.0657 104.189C54.2492 104.184 54.428 104.131 54.5842 104.034C54.9159 103.781 55.1833 103.454 55.3646 103.078C55.546 102.703 55.6362 102.29 55.6281 101.873C55.6477 101.694 55.62 101.514 55.5479 101.35C55.4758 101.185 55.3618 101.043 55.2173 100.937C55.1164 100.873 54.9997 100.84 54.8806 100.84C54.7614 100.84 54.6447 100.873 54.5438 100.937C54.3197 101.106 54.1389 101.326 54.016 101.579C53.8931 101.832 53.8317 102.11 53.8367 102.391C53.8238 102.519 53.8444 102.649 53.8963 102.767C53.9482 102.885 54.0298 102.987 54.133 103.065C54.2093 103.11 54.2966 103.134 54.3856 103.134C54.4745 103.134 54.5618 103.11 54.6381 103.065C54.6625 103.05 54.6837 103.031 54.7007 103.008C54.7176 102.985 54.7298 102.959 54.7367 102.932C54.7436 102.904 54.745 102.876 54.7408 102.848C54.7366 102.82 54.7268 102.793 54.7122 102.768C54.6983 102.744 54.6797 102.723 54.6575 102.706C54.6353 102.689 54.61 102.677 54.583 102.67C54.556 102.663 54.5279 102.662 54.5004 102.666C54.4728 102.67 54.4464 102.68 54.4226 102.694H54.3485C54.3485 102.694 54.2677 102.58 54.2677 102.398C54.2655 102.193 54.3077 101.99 54.3914 101.803C54.4751 101.616 54.5983 101.449 54.7526 101.314C54.7884 101.293 54.8291 101.282 54.8705 101.282C54.9118 101.282 54.9525 101.293 54.9883 101.314C55.0759 101.368 55.1836 101.543 55.1836 101.879C55.1888 102.221 55.1171 102.559 54.9737 102.87C54.8303 103.18 54.6189 103.453 54.3553 103.671C54.2861 103.721 54.2046 103.752 54.1193 103.761C54.034 103.769 53.948 103.754 53.8704 103.718C53.7354 103.595 53.6319 103.442 53.5686 103.271C53.5053 103.1 53.4841 102.916 53.5067 102.735C53.5299 102.148 53.6805 101.574 53.9479 101.052C54.2154 100.53 54.5934 100.072 55.0557 99.7109C55.1827 99.6236 55.3306 99.5713 55.4843 99.5595C55.6381 99.5477 55.7922 99.5767 55.9311 99.6435C56.1627 99.8462 56.3409 100.103 56.4501 100.39C56.5593 100.678 56.5961 100.988 56.5575 101.293V106.008C56.5569 106.049 56.5688 106.09 56.5916 106.125C56.6144 106.16 56.647 106.187 56.6854 106.203C56.7785 106.249 56.8811 106.273 56.9851 106.273C57.0891 106.273 57.1917 106.249 57.2848 106.203C57.3188 106.187 57.3481 106.163 57.3694 106.132C57.3907 106.101 57.4034 106.065 57.406 106.028V101.105C57.406 99.6233 58.1737 97.933 59.1233 97.3875C59.2452 97.3049 59.3873 97.2569 59.5343 97.2486C59.6814 97.2403 59.8279 97.272 59.9584 97.3403C60.1344 97.4739 60.2728 97.6509 60.3601 97.8538C60.4475 98.0568 60.4808 98.279 60.4567 98.4987C60.4642 98.936 60.3724 99.3693 60.1881 99.7659C60.0038 100.163 59.7318 100.512 59.3927 100.788C59.3405 100.819 59.2812 100.834 59.2209 100.834C59.1607 100.834 59.1014 100.819 59.0492 100.788C58.9213 100.714 58.7798 100.479 58.7798 100.041C58.7756 99.7745 58.8308 99.5106 58.9415 99.2682C59.0522 99.0259 59.2155 98.8113 59.4196 98.6401C59.4423 98.6277 59.4678 98.6212 59.4937 98.6212C59.5196 98.6212 59.545 98.6277 59.5678 98.6401C59.6351 98.6738 59.6957 98.8152 59.6957 99.0509C59.6993 99.2078 59.668 99.3635 59.6039 99.5068C59.5398 99.6501 59.4447 99.7773 59.3253 99.8792C59.301 99.8938 59.2797 99.913 59.2628 99.9358C59.2459 99.9586 59.2336 99.9845 59.2267 100.012C59.2198 100.04 59.2185 100.068 59.2227 100.096C59.2269 100.124 59.2366 100.151 59.2513 100.176C59.2652 100.2 59.2837 100.221 59.3059 100.238C59.3281 100.254 59.3534 100.267 59.3804 100.274C59.4074 100.281 59.4355 100.282 59.4631 100.278C59.4906 100.274 59.517 100.264 59.5408 100.25C59.7279 100.112 59.8788 99.9309 59.9809 99.7222C60.0829 99.5134 60.1329 99.2831 60.1267 99.0509C60.1414 98.9012 60.1176 98.7502 60.0575 98.6123C59.9973 98.4744 59.903 98.3541 59.7833 98.263C59.6965 98.212 59.5977 98.1852 59.4971 98.1852C59.3964 98.1852 59.2976 98.212 59.2108 98.263C58.9375 98.4692 58.717 98.7372 58.5671 99.045C58.4173 99.3529 58.3425 99.6918 58.3488 100.034C58.326 100.247 58.3586 100.463 58.4435 100.66C58.5285 100.857 58.6629 101.029 58.8337 101.159C58.9364 101.217 59.0525 101.247 59.1704 101.246C59.3252 101.244 59.4765 101.2 59.6082 101.118C60.0157 100.807 60.344 100.404 60.5663 99.9415C60.7887 99.4792 60.8988 98.9711 60.8877 98.4583C60.9044 98.1686 60.8463 97.8796 60.7189 97.6189C60.5915 97.3582 60.3992 97.1347 60.1604 96.9699Z" fill="black"/>
<path d="M68.8277 131.693L69.5011 124.534C73.0502 121.659 71.5215 117.706 70.5113 116.17C70.5113 116.17 67.1979 114.823 65.5278 120.015C65.5278 120.015 61.3928 117.692 57.7629 120.521C54.133 123.349 53.5 127.383 50.8062 128.461C50.9543 128.757 51.1025 129.067 51.2574 129.417C52.0588 131.242 53.2306 133.518 53.0824 134.185C53.0824 134.185 43.149 141.229 37.3439 160.025C37.3439 160.025 40.2936 171.386 60.1537 171.386C80.0137 171.386 84.1419 160.025 84.1419 160.025C78.8958 140.569 68.8277 131.693 68.8277 131.693Z" fill="#FF80B6"/>
<path opacity="0.3" d="M68.8277 131.693L69.5011 124.534C73.0502 121.659 71.5215 117.706 70.5113 116.17C70.5113 116.17 67.1979 114.823 65.5278 120.015C65.5278 120.015 61.3928 117.692 57.7629 120.521C54.133 123.349 53.5 127.383 50.8062 128.461C50.9543 128.757 51.1025 129.067 51.2574 129.417C52.0588 131.242 53.2306 133.518 53.0824 134.185C53.0824 134.185 43.149 141.229 37.3439 160.025C37.3439 160.025 40.2936 171.386 60.1537 171.386C80.0137 171.386 84.1419 160.025 84.1419 160.025C78.8958 140.569 68.8277 131.693 68.8277 131.693Z" fill="black"/>
<path opacity="0.2" d="M68.8278 131.693L69.0904 128.777C69.0904 128.777 68.1341 131.862 61.5343 132.387C58.4374 132.58 55.3286 132.365 52.2878 131.747C52.7727 132.851 53.1566 133.821 53.069 134.219C53.069 134.219 54.4833 135.33 60.7329 135.229C67.225 135.121 68.8278 131.693 68.8278 131.693Z" fill="black"/>
<path opacity="0.1" d="M55.022 134.858C51.7385 138.878 49.5218 143.661 48.5771 148.765C48.5771 148.765 51.4325 139.478 55.9446 135.007L55.022 134.858Z" fill="black"/>
<path opacity="0.1" d="M66.639 133.794C71.1444 138.266 73.8045 147.587 73.8045 147.587C72.5183 139.566 67.3731 133.303 67.3731 133.303L66.639 133.794Z" fill="black"/>
<path opacity="0.1" d="M60.7329 135.229C59.9141 141.244 59.8756 147.34 60.6184 153.365C60.6184 153.365 60.2143 141.634 61.5208 135.256L60.7329 135.229Z" fill="black"/>
<path d="M102.278 187.563C97.7794 184.97 90.432 185.003 85.866 187.637C83.5628 188.984 82.418 190.708 82.418 192.438C82.418 192.728 82.418 195.132 82.418 195.422C82.418 197.126 83.5022 198.829 85.7448 200.136C90.2435 202.729 97.5908 202.695 102.157 200.055C104.473 198.708 105.618 196.971 105.612 195.233C105.612 194.95 105.612 192.539 105.612 192.216C105.591 190.512 104.494 188.835 102.278 187.563Z" fill="#FF80B6"/>
<path opacity="0.5" d="M102.278 187.563C97.7794 184.97 90.432 185.003 85.866 187.637C83.5628 188.984 82.418 190.708 82.418 192.438C82.418 192.728 82.418 195.132 82.418 195.422C82.418 197.126 83.5022 198.829 85.7448 200.136C90.2435 202.729 97.5908 202.695 102.157 200.055C104.473 198.708 105.618 196.971 105.612 195.233C105.612 194.95 105.612 192.539 105.612 192.216C105.591 190.512 104.494 188.835 102.278 187.563Z" fill="black"/>
<path d="M85.738 197.139C90.2367 199.732 97.584 199.698 102.15 197.058C106.716 194.418 106.777 190.182 102.278 187.589C97.7793 184.997 90.432 185.03 85.866 187.663C81.3 190.297 81.2394 194.519 85.738 197.139Z" fill="#FF80B6"/>
<path opacity="0.3" d="M85.738 197.139C90.2367 199.732 97.584 199.698 102.15 197.058C106.716 194.418 106.777 190.182 102.278 187.589C97.7793 184.997 90.432 185.03 85.866 187.663C81.3 190.297 81.2394 194.519 85.738 197.139Z" fill="black"/>
<path d="M101.12 170.874C97.254 168.645 90.9371 168.679 87.0109 170.942C85.0309 172.087 84.041 173.582 84.041 175.063V191.805C84.041 193.273 84.9703 194.735 86.9031 195.846C90.7687 198.075 97.079 198.048 101.005 195.779C103.026 194.634 103.982 193.132 103.975 191.637V174.915C103.968 173.434 103.046 171.992 101.12 170.874Z" fill="#FF80B6"/>
<path opacity="0.5" d="M101.12 170.874C97.254 168.645 90.9371 168.679 87.0109 170.942C85.0309 172.087 84.041 173.582 84.041 175.063V191.805C84.041 193.273 84.9703 194.735 86.9031 195.846C90.7687 198.075 97.079 198.048 101.005 195.779C103.026 194.634 103.982 193.132 103.975 191.637V174.915C103.968 173.434 103.046 171.992 101.12 170.874Z" fill="black"/>
<path d="M86.8829 179.104C90.7485 181.333 97.0588 181.306 100.985 179.036C104.911 176.767 104.965 173.124 101.099 170.894C97.2339 168.665 90.9169 168.699 86.9907 170.962C83.0645 173.225 83.0375 176.875 86.8829 179.104Z" fill="#FF80B6"/>
<path opacity="0.05" d="M86.8829 179.104C90.7485 181.333 97.0588 181.306 100.985 179.036C104.911 176.767 104.965 173.124 101.099 170.894C97.2339 168.665 90.9169 168.699 86.9907 170.962C83.0645 173.225 83.0375 176.875 86.8829 179.104Z" fill="black"/>
<g opacity="0.15">
<path opacity="0.15" d="M95.3684 186.363V195.59C95.3673 195.784 95.2933 195.97 95.1611 196.113C95.0289 196.255 94.8481 196.342 94.6546 196.357C94.2235 196.357 93.7925 196.357 93.3615 196.357C93.1686 196.347 92.9869 196.263 92.8541 196.123C92.7213 195.982 92.6474 195.796 92.6477 195.603V186.404C92.6475 186.312 92.6662 186.221 92.7025 186.136C92.7389 186.052 92.7921 185.976 92.859 185.913C92.9259 185.85 93.005 185.801 93.0914 185.769C93.1778 185.738 93.2698 185.725 93.3615 185.73C93.7925 185.73 94.2235 185.73 94.6546 185.73C94.743 185.725 94.8317 185.737 94.9155 185.766C94.9993 185.795 95.0766 185.84 95.1429 185.899C95.2093 185.957 95.2633 186.029 95.302 186.108C95.3407 186.188 95.3633 186.275 95.3684 186.363Z" fill="black"/>
<path opacity="0.15" d="M99.3215 185.636V194.727C99.3149 194.934 99.2475 195.133 99.1276 195.301C99.0077 195.469 98.8409 195.597 98.6481 195.67C98.2103 195.812 97.7591 195.926 97.3012 196.027C97.2145 196.048 97.1241 196.049 97.0371 196.029C96.9502 196.009 96.8692 195.969 96.8005 195.912C96.7318 195.855 96.6773 195.783 96.6415 195.701C96.6057 195.619 96.5894 195.53 96.594 195.441V186.242C96.5998 186.044 96.6731 185.854 96.8017 185.703C96.9303 185.553 97.1065 185.45 97.3012 185.414C97.7524 185.333 98.1968 185.232 98.6481 185.117C98.7276 185.092 98.8121 185.087 98.8942 185.102C98.9764 185.116 99.0538 185.15 99.1199 185.201C99.186 185.252 99.2388 185.318 99.2739 185.394C99.309 185.47 99.3253 185.553 99.3215 185.636Z" fill="black"/>
<path opacity="0.15" d="M101.207 184.208C101.016 184.299 100.852 184.439 100.734 184.614C100.615 184.79 100.546 184.994 100.534 185.205V194.189C100.534 194.579 100.83 194.775 101.167 194.573C101.777 194.203 102.332 193.75 102.817 193.226C103.099 192.858 103.257 192.41 103.268 191.946V183.67C103.268 183.272 103.026 183.144 102.716 183.346C102.527 183.474 102.339 183.589 102.137 183.71C101.935 183.831 101.53 184.053 101.207 184.208Z" fill="black"/>
<path opacity="0.15" d="M91.422 186.289V195.489C91.4263 195.578 91.4099 195.667 91.3741 195.749C91.3382 195.831 91.284 195.903 91.2155 195.96C91.147 196.018 91.0662 196.059 90.9793 196.08C90.8925 196.1 90.802 196.101 90.7148 196.081C90.2569 195.994 89.8124 195.886 89.3679 195.758C89.1751 195.687 89.008 195.56 88.888 195.393C88.768 195.226 88.7006 195.027 88.6945 194.822V185.744C88.69 185.66 88.7057 185.576 88.7403 185.499C88.7749 185.423 88.8274 185.355 88.8934 185.303C88.9594 185.251 89.0369 185.216 89.1195 185.2C89.2021 185.184 89.2873 185.188 89.3679 185.212C89.7989 185.313 90.2434 185.4 90.7148 185.474C90.9084 185.508 91.0843 185.608 91.2131 185.756C91.3419 185.905 91.4156 186.093 91.422 186.289Z" fill="black"/>
<path opacity="0.15" d="M85.2329 183.481C84.9568 183.299 84.7413 183.481 84.7413 183.852V192.121C84.7548 192.582 84.9153 193.025 85.1993 193.388C85.6794 193.898 86.2278 194.34 86.829 194.701C87.1725 194.903 87.5025 194.701 87.5025 194.31V185.333C87.4882 185.123 87.4183 184.921 87.2999 184.747C87.1816 184.573 87.019 184.434 86.829 184.343C86.4609 184.177 86.1039 183.995 85.7582 183.798C85.536 183.67 85.3946 183.589 85.2329 183.481Z" fill="black"/>
</g>
<path opacity="0.15" d="M85.866 172.417C85.2193 172.793 84.6201 173.245 84.0814 173.764C84.0579 173.927 84.0444 174.091 84.041 174.255V183.67C84.5539 184.159 85.1236 184.584 85.7381 184.936C90.2367 187.529 97.584 187.495 102.15 184.855C102.814 184.487 103.427 184.034 103.975 183.509V174.08C103.972 173.922 103.958 173.765 103.935 173.609C103.434 173.135 102.877 172.724 102.278 172.383C97.7793 169.75 90.432 169.784 85.866 172.417Z" fill="black"/>
<path d="M102.278 170.086C97.7794 167.494 90.432 167.527 85.866 170.167C83.5628 171.514 82.418 173.231 82.418 174.962C82.418 175.259 82.418 177.656 82.418 177.946C82.418 179.656 83.5022 181.353 85.7448 182.66C90.2435 185.259 97.5908 185.219 102.157 182.586C104.473 181.239 105.618 179.501 105.612 177.764C105.612 177.474 105.612 175.07 105.612 174.74C105.591 173.043 104.494 171.366 102.278 170.086Z" fill="#FF80B6"/>
<path opacity="0.5" d="M102.278 170.086C97.7794 167.494 90.432 167.527 85.866 170.167C83.5628 171.514 82.418 173.231 82.418 174.962C82.418 175.259 82.418 177.656 82.418 177.946C82.418 179.656 83.5022 181.353 85.7448 182.66C90.2435 185.259 97.5908 185.219 102.157 182.586C104.473 181.239 105.618 179.501 105.612 177.764C105.612 177.474 105.612 175.07 105.612 174.74C105.591 173.043 104.494 171.366 102.278 170.086Z" fill="black"/>
<path d="M85.738 179.629C90.2367 182.229 97.584 182.189 102.15 179.555C106.716 176.922 106.777 172.679 102.278 170.08C97.7793 167.48 90.432 167.521 85.866 170.161C81.3 172.801 81.2394 177.043 85.738 179.629Z" fill="#FF80B6"/>
<path opacity="0.3" d="M85.738 179.629C90.2367 182.229 97.584 182.189 102.15 179.555C106.716 176.922 106.777 172.679 102.278 170.08C97.7793 167.48 90.432 167.521 85.866 170.161C81.3 172.801 81.2394 177.043 85.738 179.629Z" fill="black"/>
<path d="M84.8625 169.164C84.5932 170.026 84.9299 171.09 85.1387 171.905C85.2808 172.897 85.3394 173.9 85.3138 174.902C85.3177 174.955 85.336 175.007 85.3668 175.05C85.3977 175.094 85.4398 175.129 85.4889 175.151C85.6127 175.219 85.7517 175.254 85.8929 175.254C86.0341 175.254 86.1731 175.219 86.297 175.151C86.345 175.131 86.3867 175.099 86.4175 175.057C86.4484 175.016 86.4673 174.967 86.4721 174.915C86.4721 174.841 86.3441 172.343 87.2466 172.619C87.0984 171.588 85.9939 170.376 84.8625 169.164Z" fill="#FF80B6"/>
<path opacity="0.5" d="M84.8625 169.164C84.5932 170.026 84.9299 171.09 85.1387 171.905C85.2808 172.897 85.3394 173.9 85.3138 174.902C85.3177 174.955 85.336 175.007 85.3668 175.05C85.3977 175.094 85.4398 175.129 85.4889 175.151C85.6127 175.219 85.7517 175.254 85.8929 175.254C86.0341 175.254 86.1731 175.219 86.297 175.151C86.345 175.131 86.3867 175.099 86.4175 175.057C86.4484 175.016 86.4673 174.967 86.4721 174.915C86.4721 174.841 86.3441 172.343 87.2466 172.619C87.0984 171.588 85.9939 170.376 84.8625 169.164Z" fill="black"/>
<path d="M95.3886 176.067C95.86 176.74 94.2235 177.589 92.3244 176.632C90.6475 175.791 90.1222 174.195 89.1255 172.181C88.4049 170.726 87.287 167.851 86.8358 167.137C86.1152 165.992 86.0478 165.325 86.8358 165.083C87.0176 165.332 91.4961 171.373 90.5869 169.171C89.6777 166.968 89.038 165.635 88.5059 165.177C88.1468 164.874 87.6892 164.714 87.2196 164.726H87.1321C86.781 164.692 86.4287 164.776 86.131 164.965C85.8333 165.154 85.6073 165.438 85.4889 165.77C85.2748 166.666 85.0095 167.55 84.6942 168.416C84.526 168.889 84.5088 169.402 84.6452 169.885C84.7815 170.367 85.0646 170.796 85.4552 171.11C86.5282 171.719 87.3689 172.666 87.8459 173.804C88.2972 175.232 88.8427 177.952 90.0818 178.767C92.0011 180.027 95.1664 180.7 96.9712 179.441C98.1699 178.592 97.2945 177.609 95.3886 176.067Z" fill="#FF80B6"/>
<path opacity="0.1" d="M95.3886 176.067C95.86 176.74 94.2235 177.589 92.3244 176.632C90.6475 175.791 90.1222 174.195 89.1255 172.181C88.4049 170.726 87.287 167.851 86.8358 167.137C86.1152 165.992 86.0478 165.325 86.8358 165.083C87.0176 165.332 91.4961 171.373 90.5869 169.171C89.6777 166.968 89.038 165.635 88.5059 165.177C88.1468 164.874 87.6892 164.714 87.2196 164.726H87.1321C86.781 164.692 86.4287 164.776 86.131 164.965C85.8333 165.154 85.6073 165.438 85.4889 165.77C85.2748 166.666 85.0095 167.55 84.6942 168.416C84.526 168.889 84.5088 169.402 84.6452 169.885C84.7815 170.367 85.0646 170.796 85.4552 171.11C86.5282 171.719 87.3689 172.666 87.8459 173.804C88.2972 175.232 88.8427 177.952 90.0818 178.767C92.0011 180.027 95.1664 180.7 96.9712 179.441C98.1699 178.592 97.2945 177.609 95.3886 176.067Z" fill="black"/>
<path d="M92.3244 176.632C90.6542 175.791 90.1154 174.195 89.1255 172.181C88.4049 170.726 87.2869 167.851 86.8357 167.137C86.0949 165.952 86.0343 165.271 86.9435 165.056C87.6169 164.948 88.4655 164.84 89.4353 166.773C90.405 168.706 91.597 171.009 92.3917 172.423C93.2125 173.774 94.2216 175.001 95.3886 176.067C95.86 176.713 94.2235 177.609 92.3244 176.632Z" fill="#FF80B6"/>
<path opacity="0.4" d="M92.3244 176.632C90.6542 175.791 90.1154 174.195 89.1255 172.181C88.4049 170.726 87.2869 167.851 86.8357 167.137C86.0949 165.952 86.0343 165.271 86.9435 165.056C87.6169 164.948 88.4655 164.84 89.4353 166.773C90.405 168.706 91.597 171.009 92.3917 172.423C93.2125 173.774 94.2216 175.001 95.3886 176.067C95.86 176.713 94.2235 177.609 92.3244 176.632Z" fill="black"/>
<path opacity="0.3" d="M92.587 176.107C91.2064 174.855 89.8326 171.393 89.3006 170.343C89.1424 169.991 88.9138 169.676 88.6288 169.416C88.3438 169.157 88.0086 168.959 87.6439 168.834C88.1288 169.952 88.7012 171.312 89.1255 172.201C90.1155 174.222 90.6542 175.811 92.3244 176.653C92.8103 176.906 93.3461 177.048 93.8935 177.07C93.4276 176.793 92.99 176.47 92.587 176.107Z" fill="black"/>
<path d="M91.8193 165.393C91.5432 166.262 91.8799 167.319 92.0954 168.141C92.2362 169.131 92.2926 170.131 92.2638 171.131C92.2669 171.184 92.285 171.236 92.3159 171.28C92.3468 171.324 92.3894 171.359 92.4389 171.38C92.56 171.452 92.697 171.494 92.8379 171.501C92.9788 171.508 93.1193 171.48 93.247 171.42C93.2948 171.398 93.3364 171.364 93.3681 171.322C93.3998 171.279 93.4206 171.23 93.4288 171.178C93.4288 171.11 93.3009 168.612 94.1966 168.881C94.0753 167.817 92.9439 166.612 91.8193 165.393Z" fill="#FF80B6"/>
<path opacity="0.5" d="M91.8193 165.393C91.5432 166.262 91.8799 167.319 92.0954 168.141C92.2362 169.131 92.2926 170.131 92.2638 171.131C92.2669 171.184 92.285 171.236 92.3159 171.28C92.3468 171.324 92.3894 171.359 92.4389 171.38C92.56 171.452 92.697 171.494 92.8379 171.501C92.9788 171.508 93.1193 171.48 93.247 171.42C93.2948 171.398 93.3364 171.364 93.3681 171.322C93.3998 171.279 93.4206 171.23 93.4288 171.178C93.4288 171.11 93.3009 168.612 94.1966 168.881C94.0753 167.817 92.9439 166.612 91.8193 165.393Z" fill="black"/>
<path d="M102.372 172.296C102.837 172.969 101.2 173.824 99.3014 172.861C97.6312 172.019 97.0992 170.423 96.1025 168.416C95.3819 166.955 94.2639 164.086 93.8127 163.366C93.0989 162.221 93.0315 161.561 93.8127 161.345C93.9946 161.588 98.4663 167.635 97.5571 165.426C96.648 163.217 96.0082 161.891 95.4829 161.433C95.1193 161.133 94.6608 160.973 94.1899 160.982H94.1091C93.7584 160.95 93.4071 161.035 93.1099 161.224C92.8127 161.413 92.5862 161.695 92.4658 162.025C92.2512 162.923 91.9836 163.806 91.6644 164.672C91.498 165.145 91.4824 165.659 91.6199 166.141C91.7574 166.624 92.0412 167.051 92.4322 167.366C93.501 167.978 94.3388 168.924 94.8162 170.06C95.2674 171.494 95.8129 174.215 97.052 175.023C98.9714 176.289 102.143 176.956 103.941 175.696C105.147 174.828 104.271 173.818 102.372 172.296Z" fill="#FF80B6"/>
<path opacity="0.1" d="M102.372 172.296C102.837 172.969 101.2 173.824 99.3014 172.861C97.6312 172.019 97.0992 170.423 96.1025 168.416C95.3819 166.955 94.2639 164.086 93.8127 163.366C93.0989 162.221 93.0315 161.561 93.8127 161.345C93.9946 161.588 98.4663 167.635 97.5571 165.426C96.648 163.217 96.0082 161.891 95.4829 161.433C95.1193 161.133 94.6608 160.973 94.1899 160.982H94.1091C93.7584 160.95 93.4071 161.035 93.1099 161.224C92.8127 161.413 92.5862 161.695 92.4658 162.025C92.2512 162.923 91.9836 163.806 91.6644 164.672C91.498 165.145 91.4824 165.659 91.6199 166.141C91.7574 166.624 92.0412 167.051 92.4322 167.366C93.501 167.978 94.3388 168.924 94.8162 170.06C95.2674 171.494 95.8129 174.215 97.052 175.023C98.9714 176.289 102.143 176.956 103.941 175.696C105.147 174.828 104.271 173.818 102.372 172.296Z" fill="black"/>
<path d="M99.3013 172.895C97.6311 172.06 97.0991 170.457 96.1024 168.45C95.3818 166.989 94.2639 164.12 93.8127 163.406C93.0719 162.221 93.0113 161.54 93.9204 161.318C94.5939 161.21 95.4424 161.109 96.4122 163.036C97.3819 164.962 98.574 167.272 99.3754 168.693C100.192 170.042 101.199 171.267 102.365 172.329C102.837 172.942 101.2 173.824 99.3013 172.895Z" fill="#FF80B6"/>
<path opacity="0.4" d="M99.3013 172.895C97.6311 172.06 97.0991 170.457 96.1024 168.45C95.3818 166.989 94.2639 164.12 93.8127 163.406C93.0719 162.221 93.0113 161.54 93.9204 161.318C94.5939 161.21 95.4424 161.109 96.4122 163.036C97.3819 164.962 98.574 167.272 99.3754 168.693C100.192 170.042 101.199 171.267 102.365 172.329C102.837 172.942 101.2 173.824 99.3013 172.895Z" fill="black"/>
<path opacity="0.3" d="M99.5639 172.336C98.217 171.083 96.8095 167.622 96.2775 166.571C96.1193 166.22 95.8905 165.906 95.6055 165.648C95.3205 165.389 94.9853 165.192 94.6208 165.069C95.1057 166.181 95.6781 167.548 96.1024 168.437C97.0991 170.457 97.6311 172.046 99.3013 172.881C99.7872 173.135 100.323 173.28 100.87 173.306C100.408 173.02 99.9711 172.696 99.5639 172.336Z" fill="black"/>
<path d="M112.151 163.844C113.262 165.985 120.818 173.898 131.755 155.21C140.449 140.347 140.281 133.963 140.281 128.11C140.281 125.976 139.607 115.436 126.812 117.955C111.801 120.911 106.561 153.122 112.151 163.844Z" fill="#FF80B6"/>
<path opacity="0.4" d="M112.151 163.844C113.262 165.985 120.818 173.898 131.755 155.21C140.449 140.347 140.281 133.963 140.281 128.11C140.281 125.976 139.607 115.436 126.812 117.955C111.801 120.911 106.561 153.122 112.151 163.844Z" fill="black"/>
<path d="M132.617 171.346C128.125 168.746 120.771 168.787 116.205 171.42C113.902 172.767 112.757 174.491 112.757 176.215V177.946C112.757 179.656 113.841 181.353 116.077 182.66C120.576 185.259 127.923 185.219 132.496 182.586C134.806 181.239 135.957 179.501 135.944 177.764V175.993C135.937 174.296 134.833 172.619 132.617 171.346Z" fill="#FF80B6"/>
<path opacity="0.5" d="M132.617 171.346C128.125 168.746 120.771 168.787 116.205 171.42C113.902 172.767 112.757 174.491 112.757 176.215V177.946C112.757 179.656 113.841 181.353 116.077 182.66C120.576 185.259 127.923 185.219 132.496 182.586C134.806 181.239 135.957 179.501 135.944 177.764V175.993C135.937 174.296 134.833 172.619 132.617 171.346Z" fill="black"/>
<path d="M116.077 180.889C120.576 183.488 127.923 183.448 132.496 180.815C137.068 178.182 137.116 173.939 132.617 171.346C128.118 168.753 120.771 168.787 116.205 171.42C111.639 174.053 111.585 178.283 116.077 180.889Z" fill="#FF80B6"/>
<path opacity="0.3" d="M116.077 180.889C120.576 183.488 127.923 183.448 132.496 180.815C137.068 178.182 137.116 173.939 132.617 171.346C128.118 168.753 120.771 168.787 116.205 171.42C111.639 174.053 111.585 178.283 116.077 180.889Z" fill="black"/>
<path d="M126.28 175.858C126.274 176.029 126.219 176.196 126.123 176.337C126.026 176.479 125.891 176.591 125.734 176.659C125.317 176.87 124.855 176.98 124.387 176.98C123.919 176.98 123.458 176.87 123.04 176.659C122.878 176.59 122.737 176.481 122.628 176.342C122.52 176.203 122.449 176.039 122.421 175.865V117.073L126.226 117.126L126.28 175.858Z" fill="#FF80B6"/>
<path opacity="0.5" d="M126.28 175.858C126.274 176.029 126.219 176.196 126.123 176.337C126.026 176.479 125.891 176.591 125.734 176.659C125.317 176.87 124.855 176.98 124.387 176.98C123.919 176.98 123.458 176.87 123.04 176.659C122.878 176.59 122.737 176.481 122.628 176.342C122.52 176.203 122.449 176.039 122.421 175.865V117.073L126.226 117.126L126.28 175.858Z" fill="black"/>
<path opacity="0.3" d="M124.131 176.935C123.748 176.916 123.375 176.807 123.04 176.619C122.878 176.55 122.737 176.44 122.628 176.301C122.52 176.162 122.449 175.998 122.421 175.824V117.073H124.131V176.935Z" fill="black"/>
<path d="M125.68 117.887C125.263 118.1 124.802 118.21 124.333 118.21C123.865 118.21 123.404 118.1 122.987 117.887C122.239 117.456 122.232 116.763 122.987 116.338C123.403 116.125 123.865 116.013 124.333 116.013C124.802 116.013 125.264 116.125 125.68 116.338C126.414 116.769 126.421 117.463 125.68 117.887Z" fill="#263238"/>
<path opacity="0.1" d="M112.737 87.4677C110.905 86.4104 109.423 83.2654 109.423 80.4436C109.423 78.8543 109.895 77.7094 110.629 77.1976C110.947 76.995 111.318 76.8919 111.694 76.9015C112.071 76.9111 112.436 77.033 112.743 77.2515C114.575 78.3088 116.057 81.4538 116.057 84.2756C116.13 85.3259 115.824 86.3678 115.195 87.2118C114.892 87.555 114.471 87.7717 114.016 87.8191C113.56 87.8665 113.104 87.7411 112.737 87.4677Z" fill="black"/>
<path opacity="0.05" d="M131.883 70.1196L130.361 71.0961C130.361 71.0961 131.708 72.6518 132.509 73.7024V72.7932C132.484 71.8688 132.271 70.9592 131.883 70.1196Z" fill="black"/>
<path d="M135.021 120.541C129.33 123.814 120.138 123.814 114.461 120.541C111.269 118.696 109.868 117.928 110.272 115.524C110.792 112.419 111.632 109.377 112.777 106.446C112.774 106.439 112.772 106.432 112.772 106.425C112.772 106.418 112.774 106.411 112.777 106.405L113.026 105.799C114.811 101.556 118.185 97.2327 118.333 96.5593C118.325 96.0652 118.206 95.5793 117.983 95.1383C117.915 94.9565 117.841 94.7679 117.754 94.5726C117.383 93.6971 116.899 92.6937 116.501 91.798C116.136 90.8732 115.642 90.0049 115.033 89.2187C114.474 88.5505 113.787 88.0009 113.013 87.6024L112.743 87.4677C110.912 86.4104 109.43 83.2654 109.43 80.4436C109.43 78.9822 109.834 77.898 110.467 77.339C111.543 76.3671 112.681 75.4672 113.875 74.6452C114.171 74.4297 114.488 74.2209 114.831 73.9718L114.999 73.864L115.154 73.7697L115.545 73.5408L115.686 73.46C116.259 73.1367 116.946 72.7865 117.154 72.6316L124.118 68.5909C124.453 68.3951 124.799 68.2197 125.155 68.0656H125.202C126.96 67.3046 129.869 66.6716 131.627 69.6415C132.323 70.8681 132.628 72.2776 132.502 73.6822C133.647 75.3119 134.718 76.9552 135.762 78.4906C136.806 80.0261 138.308 83.9792 134.758 86.8549L134.085 94.0136C134.422 94.8757 134.758 95.7713 135.048 96.7074V96.7478C135.149 97.0509 135.257 97.3472 135.344 97.6503C136.442 101.082 137.342 104.574 138.038 108.109C138.038 108.17 138.038 108.223 138.072 108.277C138.57 110.884 138.947 113.456 139.217 115.921C139.412 118.197 138.065 118.803 135.021 120.541Z" fill="#FF80B6"/>
<path opacity="0.05" d="M139.264 115.921C138.487 108.435 136.754 101.079 134.105 94.0337L134.779 86.8749C138.328 83.9993 136.799 80.0461 135.789 78.5106C134.779 76.9752 133.667 75.332 132.529 73.7022C132.652 72.2978 132.346 70.8893 131.654 69.6615C129.431 65.9373 125.418 67.8836 124.138 68.6177L117.175 72.6584C116.818 72.8604 115.154 73.7898 114.851 74.0053C113.31 75.0136 111.849 76.1394 110.481 77.3725C109.807 77.9315 109.437 79.0157 109.437 80.4771C109.437 83.2989 110.925 86.4439 112.757 87.5012C112.844 87.5514 112.934 87.5964 113.026 87.6359C114.777 88.5989 115.558 89.5889 116.542 91.8315C117.343 93.6498 118.508 95.9261 118.367 96.5928C118.225 97.2595 114.845 101.583 113.067 105.826C111.782 108.954 110.852 112.216 110.292 115.55C109.895 117.955 111.289 118.729 114.481 120.574C120.158 123.847 129.357 123.847 135.041 120.574C138.065 118.796 139.452 118.197 139.264 115.921Z" fill="black"/>
<path opacity="0.1" d="M112.743 87.4677C110.912 86.4104 109.423 83.2654 109.423 80.4436C109.423 78.8543 109.895 77.7094 110.629 77.1976C110.947 76.995 111.318 76.8919 111.694 76.9015C112.071 76.9111 112.436 77.033 112.743 77.2515C114.575 78.3088 116.063 81.4538 116.063 84.2756C116.133 85.3256 115.828 86.3662 115.201 87.2118C114.896 87.5509 114.476 87.7648 114.022 87.8121C113.568 87.8593 113.112 87.7366 112.743 87.4677Z" fill="black"/>
<path opacity="0.05" d="M131.883 70.1196L130.368 71.0961C130.368 71.0961 131.714 72.6518 132.509 73.7024V72.7932C132.484 71.8688 132.271 70.9592 131.883 70.1196Z" fill="black"/>
<path d="M139.264 115.921C139.048 113.726 138.665 111.086 138.106 108.277C138.106 108.223 138.106 108.17 138.072 108.109C137.398 104.569 136.498 101.076 135.378 97.6503C135.291 97.3472 135.183 97.0509 135.082 96.7479V96.7074C134.779 95.7983 134.455 94.9161 134.112 94.0136L134.785 86.8549C138.335 83.9792 136.839 80.0261 135.796 78.4906C133.883 75.6352 125.505 68.2946 125.243 68.0454H125.202L123.411 69.2105C123.411 69.2105 127.351 71.9043 130.408 78.1876C131.458 80.6015 131.729 83.283 131.182 85.8582C128.878 83.062 126.199 80.5965 123.222 78.531C120.246 76.4366 116.885 73.6014 115.592 73.5071L115.202 73.7361L115.047 73.8303L114.878 73.9381C114.535 74.1738 114.205 74.3826 113.922 74.6115C117.033 75.1301 119.559 83.1374 120.017 86.7741C120.475 90.4107 119 95.7309 117.828 94.5524C117.916 94.7544 117.996 94.943 118.07 95.1316C118.249 95.5362 118.367 95.9651 118.421 96.4044V96.465C118.421 96.465 118.421 96.5256 118.421 96.5526C118.272 97.226 114.892 101.55 113.114 105.792C113.026 105.994 112.945 106.19 112.871 106.398C112.868 106.405 112.867 106.412 112.867 106.419C112.867 106.426 112.868 106.432 112.871 106.439C111.426 109.882 110.299 113.451 109.504 117.1C108.393 122.016 107.585 134.306 108.696 149.001C109.147 154.995 110.043 160.146 112.232 163.817C109.72 156.813 110.817 146.011 113.956 138.832C117.094 131.653 122.104 124.811 129.943 122.669C137.351 120.649 140.254 127.215 140.355 128.057C140.234 127.174 139.789 121.49 139.264 115.921Z" fill="#FF80B6"/>
<path opacity="0.3" d="M139.264 115.921C139.048 113.726 138.665 111.086 138.106 108.277C138.106 108.223 138.106 108.17 138.072 108.109C137.398 104.569 136.498 101.076 135.378 97.6503C135.291 97.3472 135.183 97.0509 135.082 96.7479V96.7074C134.779 95.7983 134.455 94.9161 134.112 94.0136L134.785 86.8549C138.335 83.9792 136.839 80.0261 135.796 78.4906C133.883 75.6352 125.505 68.2946 125.243 68.0454H125.202L123.411 69.2105C123.411 69.2105 127.351 71.9043 130.408 78.1876C131.458 80.6015 131.729 83.283 131.182 85.8582C128.878 83.062 126.199 80.5965 123.222 78.531C120.246 76.4366 116.885 73.6014 115.592 73.5071L115.202 73.7361L115.047 73.8303L114.878 73.9381C114.535 74.1738 114.205 74.3826 113.922 74.6115C117.033 75.1301 119.559 83.1374 120.017 86.7741C120.475 90.4107 119 95.7309 117.828 94.5524C117.916 94.7544 117.996 94.943 118.07 95.1316C118.249 95.5362 118.367 95.9651 118.421 96.4044V96.465C118.421 96.465 118.421 96.5256 118.421 96.5526C118.272 97.226 114.892 101.55 113.114 105.792C113.026 105.994 112.945 106.19 112.871 106.398C112.868 106.405 112.867 106.412 112.867 106.419C112.867 106.426 112.868 106.432 112.871 106.439C111.426 109.882 110.299 113.451 109.504 117.1C108.393 122.016 107.585 134.306 108.696 149.001C109.147 154.995 110.043 160.146 112.232 163.817C109.72 156.813 110.817 146.011 113.956 138.832C117.094 131.653 122.104 124.811 129.943 122.669C137.351 120.649 140.254 127.215 140.355 128.057C140.234 127.174 139.789 121.49 139.264 115.921Z" fill="black"/>
<path opacity="0.3" d="M118.347 96.5591C118.347 96.5591 118.892 98.263 122.583 98.6401C127.418 99.1452 132.381 97.5558 134.099 94.0337L134.509 95.1247C134.577 95.6904 131.816 99.8388 125.081 99.9937C118.98 100.162 117.956 98.1013 117.713 97.6434C117.961 97.3046 118.173 96.9413 118.347 96.5591Z" fill="black"/>
<path d="M118.367 67.9714V72.0121C118.368 73.1087 118.765 74.1679 119.485 74.9955C120.986 76.4367 124.967 78.2348 126.489 77.3526C127.25 76.9149 126.489 74.1066 126.293 72.194C126.098 70.2814 126.145 67.9714 126.145 67.9714H118.367Z" fill="#FF80B6"/>
<path opacity="0.1" d="M118.367 67.9714V72.0121C118.368 73.1087 118.765 74.1679 119.485 74.9955C120.986 76.4367 124.967 78.2348 126.489 77.3526C127.25 76.9149 126.489 74.1066 126.293 72.194C126.098 70.2814 126.145 67.9714 126.145 67.9714H118.367Z" fill="black"/>
<path opacity="0.05" d="M119.485 74.9955C120.308 75.7182 121.24 76.3068 122.246 76.7397V67.9849H118.367V72.0256C118.372 73.1175 118.768 74.1713 119.485 74.9955Z" fill="black"/>
<path d="M125.007 69.5673C124.152 69.9989 123.207 70.2237 122.249 70.2237C121.291 70.2237 120.347 69.9989 119.491 69.5673C118.636 69.069 118.259 68.4023 118.367 67.7558C118.443 67.4621 118.583 67.189 118.778 66.9562C118.972 66.7233 119.216 66.5364 119.491 66.4089C120.345 65.9726 121.29 65.7451 122.249 65.7451C123.208 65.7451 124.153 65.9726 125.007 66.4089C125.302 66.546 125.559 66.7522 125.757 67.0102C125.956 67.2681 126.089 67.5701 126.145 67.8904C126.135 68.2493 126.022 68.5977 125.82 68.8948C125.619 69.1918 125.337 69.4252 125.007 69.5673Z" fill="#FF80B6"/>
<path d="M125.438 58.6778C125.243 58.573 125.023 58.5221 124.802 58.5304C124.581 58.5387 124.365 58.6059 124.179 58.725C123.135 59.3243 122.32 60.9877 122.253 62.5704C122.249 62.264 122.174 61.9627 122.034 61.6904C121.893 61.418 121.692 61.1821 121.444 61.0012C121.24 60.8933 121.01 60.8425 120.779 60.8544C120.547 60.8662 120.324 60.9402 120.131 61.0686C119.609 61.4664 119.181 61.9743 118.877 62.5563C118.573 63.1382 118.401 63.7799 118.373 64.4358C118.347 64.6904 118.385 64.9477 118.485 65.1833C118.586 65.419 118.744 65.6252 118.946 65.7827C119.067 65.85 119.204 65.8848 119.343 65.8837C119.526 65.8813 119.705 65.8301 119.862 65.7356C120.192 65.4798 120.458 65.1507 120.639 64.7744C120.82 64.398 120.912 63.9847 120.906 63.5671C120.925 63.3894 120.897 63.2099 120.827 63.0459C120.756 62.8819 120.644 62.739 120.502 62.631C120.399 62.5719 120.283 62.5407 120.165 62.5407C120.047 62.5407 119.93 62.5719 119.828 62.631C119.61 62.8041 119.436 63.0258 119.319 63.2784C119.202 63.531 119.146 63.8074 119.155 64.0856C119.14 64.2148 119.16 64.3456 119.213 64.4641C119.267 64.5827 119.351 64.6846 119.458 64.7591C119.533 64.8049 119.619 64.8291 119.707 64.8291C119.795 64.8291 119.881 64.8049 119.956 64.7591C119.981 64.7457 120.003 64.7276 120.02 64.7056C120.038 64.6837 120.05 64.6585 120.058 64.6314C120.066 64.6044 120.068 64.5761 120.064 64.5483C120.06 64.5205 120.051 64.4937 120.037 64.4695C120.023 64.4446 120.004 64.4227 119.982 64.4051C119.959 64.3875 119.933 64.3745 119.906 64.367C119.878 64.3595 119.849 64.3575 119.821 64.3613C119.793 64.365 119.765 64.3743 119.741 64.3887C119.741 64.3887 119.68 64.3887 119.666 64.3887C119.653 64.3887 119.586 64.2742 119.586 64.0924C119.58 63.8872 119.621 63.6834 119.707 63.4967C119.792 63.3099 119.919 63.1451 120.077 63.0148C120.113 62.9948 120.154 62.9843 120.195 62.9843C120.236 62.9843 120.277 62.9948 120.313 63.0148C120.401 63.0687 120.502 63.2438 120.502 63.5805C120.507 63.9232 120.436 64.2628 120.292 64.574C120.149 64.8853 119.937 65.1603 119.673 65.3786C119.604 65.4303 119.522 65.4614 119.437 65.4686C119.351 65.4757 119.265 65.4586 119.188 65.4191C119.053 65.2963 118.95 65.1429 118.887 64.9718C118.823 64.8007 118.802 64.6168 118.825 64.4358C118.849 63.8507 119 63.2779 119.267 62.7569C119.535 62.236 119.912 61.7794 120.374 61.4188C120.501 61.3285 120.649 61.2739 120.805 61.2609C120.96 61.2479 121.116 61.2768 121.256 61.3447C121.487 61.5477 121.665 61.8043 121.774 62.0919C121.883 62.3794 121.92 62.6894 121.882 62.9946V67.7088C121.877 67.7503 121.886 67.7924 121.908 67.828C121.93 67.8636 121.964 67.8905 122.003 67.9041C122.095 67.9536 122.198 67.9795 122.303 67.9795C122.408 67.9795 122.511 67.9536 122.603 67.9041C122.684 67.8569 122.731 67.7963 122.724 67.7357V62.7993C122.724 61.311 123.492 59.6274 124.441 59.0819C124.561 58.9978 124.702 58.9488 124.849 58.9405C124.995 58.9321 125.141 58.9648 125.27 59.0347C125.446 59.1668 125.584 59.3425 125.671 59.5445C125.759 59.7464 125.792 59.9676 125.768 60.1863C125.775 60.623 125.684 61.0556 125.501 61.452C125.318 61.8485 125.048 62.1985 124.711 62.4761C124.661 62.5138 124.603 62.5375 124.541 62.5446C124.479 62.5517 124.417 62.542 124.36 62.5165C124.232 62.4424 124.098 62.2067 124.098 61.7622C124.091 61.4965 124.145 61.2327 124.256 60.9911C124.367 60.7495 124.532 60.5364 124.738 60.3682C124.798 60.3278 124.845 60.321 124.879 60.3682C124.913 60.4153 125.014 60.55 125.014 60.7857C125.016 60.9415 124.984 61.0959 124.92 61.238C124.856 61.38 124.762 61.5061 124.643 61.6073C124.618 61.6213 124.596 61.6401 124.579 61.6626C124.561 61.6852 124.548 61.711 124.541 61.7386C124.533 61.7661 124.531 61.7949 124.535 61.8233C124.539 61.8516 124.548 61.8789 124.562 61.9036C124.576 61.9286 124.595 61.9505 124.618 61.968C124.64 61.9856 124.666 61.9986 124.694 62.0061C124.721 62.0136 124.75 62.0156 124.778 62.0119C124.807 62.0081 124.834 61.9988 124.859 61.9845C125.044 61.8447 125.193 61.6634 125.295 61.4551C125.397 61.2469 125.448 61.0175 125.445 60.7857C125.461 60.6352 125.437 60.4831 125.375 60.3448C125.314 60.2065 125.217 60.0868 125.094 59.9978C125.008 59.9455 124.909 59.9178 124.808 59.9178C124.707 59.9178 124.608 59.9455 124.522 59.9978C124.251 60.2054 124.032 60.4739 123.884 60.7815C123.735 61.0892 123.661 61.4274 123.667 61.7689C123.643 61.9817 123.675 62.1969 123.758 62.3939C123.842 62.5909 123.975 62.763 124.145 62.8936C124.25 62.9529 124.368 62.9832 124.488 62.9812C124.642 62.9781 124.793 62.9365 124.926 62.8599C125.335 62.5429 125.664 62.1337 125.885 61.6656C126.107 61.1974 126.214 60.6837 126.199 60.1661C126.213 59.8732 126.151 59.5816 126.017 59.3204C125.884 59.0592 125.684 58.8377 125.438 58.6778Z" fill="#FF80B6"/>
<path opacity="0.6" d="M125.438 58.6778C125.243 58.573 125.023 58.5221 124.802 58.5304C124.581 58.5387 124.365 58.6059 124.179 58.725C123.135 59.3243 122.32 60.9877 122.253 62.5704C122.249 62.264 122.174 61.9627 122.034 61.6904C121.893 61.418 121.692 61.1821 121.444 61.0012C121.24 60.8933 121.01 60.8425 120.779 60.8544C120.547 60.8662 120.324 60.9402 120.131 61.0686C119.609 61.4664 119.181 61.9743 118.877 62.5563C118.573 63.1382 118.401 63.7799 118.373 64.4358C118.347 64.6904 118.385 64.9477 118.485 65.1833C118.586 65.419 118.744 65.6252 118.946 65.7827C119.067 65.85 119.204 65.8848 119.343 65.8837C119.526 65.8813 119.705 65.8301 119.862 65.7356C120.192 65.4798 120.458 65.1507 120.639 64.7744C120.82 64.398 120.912 63.9847 120.906 63.5671C120.925 63.3894 120.897 63.2099 120.827 63.0459C120.756 62.8819 120.644 62.739 120.502 62.631C120.399 62.5719 120.283 62.5407 120.165 62.5407C120.047 62.5407 119.93 62.5719 119.828 62.631C119.61 62.8041 119.436 63.0258 119.319 63.2784C119.202 63.531 119.146 63.8074 119.155 64.0856C119.14 64.2148 119.16 64.3456 119.213 64.4641C119.267 64.5827 119.351 64.6846 119.458 64.7591C119.533 64.8049 119.619 64.8291 119.707 64.8291C119.795 64.8291 119.881 64.8049 119.956 64.7591C119.981 64.7457 120.003 64.7276 120.02 64.7056C120.038 64.6837 120.05 64.6585 120.058 64.6314C120.066 64.6044 120.068 64.5761 120.064 64.5483C120.06 64.5205 120.051 64.4937 120.037 64.4695C120.023 64.4446 120.004 64.4227 119.982 64.4051C119.959 64.3875 119.933 64.3745 119.906 64.367C119.878 64.3595 119.849 64.3575 119.821 64.3613C119.793 64.365 119.765 64.3743 119.741 64.3887C119.741 64.3887 119.68 64.3887 119.666 64.3887C119.653 64.3887 119.586 64.2742 119.586 64.0924C119.58 63.8872 119.621 63.6834 119.707 63.4967C119.792 63.3099 119.919 63.1451 120.077 63.0148C120.113 62.9948 120.154 62.9843 120.195 62.9843C120.236 62.9843 120.277 62.9948 120.313 63.0148C120.401 63.0687 120.502 63.2438 120.502 63.5805C120.507 63.9232 120.436 64.2628 120.292 64.574C120.149 64.8853 119.937 65.1603 119.673 65.3786C119.604 65.4303 119.522 65.4614 119.437 65.4686C119.351 65.4757 119.265 65.4586 119.188 65.4191C119.053 65.2963 118.95 65.1429 118.887 64.9718C118.823 64.8007 118.802 64.6168 118.825 64.4358C118.849 63.8507 119 63.2779 119.267 62.7569C119.535 62.236 119.912 61.7794 120.374 61.4188C120.501 61.3285 120.649 61.2739 120.805 61.2609C120.96 61.2479 121.116 61.2768 121.256 61.3447C121.487 61.5477 121.665 61.8043 121.774 62.0919C121.883 62.3794 121.92 62.6894 121.882 62.9946V67.7088C121.877 67.7503 121.886 67.7924 121.908 67.828C121.93 67.8636 121.964 67.8905 122.003 67.9041C122.095 67.9536 122.198 67.9795 122.303 67.9795C122.408 67.9795 122.511 67.9536 122.603 67.9041C122.684 67.8569 122.731 67.7963 122.724 67.7357V62.7993C122.724 61.311 123.492 59.6274 124.441 59.0819C124.561 58.9978 124.702 58.9488 124.849 58.9405C124.995 58.9321 125.141 58.9648 125.27 59.0347C125.446 59.1668 125.584 59.3425 125.671 59.5445C125.759 59.7464 125.792 59.9676 125.768 60.1863C125.775 60.623 125.684 61.0556 125.501 61.452C125.318 61.8485 125.048 62.1985 124.711 62.4761C124.661 62.5138 124.603 62.5375 124.541 62.5446C124.479 62.5517 124.417 62.542 124.36 62.5165C124.232 62.4424 124.098 62.2067 124.098 61.7622C124.091 61.4965 124.145 61.2327 124.256 60.9911C124.367 60.7495 124.532 60.5364 124.738 60.3682C124.798 60.3278 124.845 60.321 124.879 60.3682C124.913 60.4153 125.014 60.55 125.014 60.7857C125.016 60.9415 124.984 61.0959 124.92 61.238C124.856 61.38 124.762 61.5061 124.643 61.6073C124.618 61.6213 124.596 61.6401 124.579 61.6626C124.561 61.6852 124.548 61.711 124.541 61.7386C124.533 61.7661 124.531 61.7949 124.535 61.8233C124.539 61.8516 124.548 61.8789 124.562 61.9036C124.576 61.9286 124.595 61.9505 124.618 61.968C124.64 61.9856 124.666 61.9986 124.694 62.0061C124.721 62.0136 124.75 62.0156 124.778 62.0119C124.807 62.0081 124.834 61.9988 124.859 61.9845C125.044 61.8447 125.193 61.6634 125.295 61.4551C125.397 61.2469 125.448 61.0175 125.445 60.7857C125.461 60.6352 125.437 60.4831 125.375 60.3448C125.314 60.2065 125.217 60.0868 125.094 59.9978C125.008 59.9455 124.909 59.9178 124.808 59.9178C124.707 59.9178 124.608 59.9455 124.522 59.9978C124.251 60.2054 124.032 60.4739 123.884 60.7815C123.735 61.0892 123.661 61.4274 123.667 61.7689C123.643 61.9817 123.675 62.1969 123.758 62.3939C123.842 62.5909 123.975 62.763 124.145 62.8936C124.25 62.9529 124.368 62.9832 124.488 62.9812C124.642 62.9781 124.793 62.9365 124.926 62.8599C125.335 62.5429 125.664 62.1337 125.885 61.6656C126.107 61.1974 126.214 60.6837 126.199 60.1661C126.213 59.8732 126.151 59.5816 126.017 59.3204C125.884 59.0592 125.684 58.8377 125.438 58.6778Z" fill="black"/>
<path d="M176.533 17.5228L34.6838 99.4211C34.6845 96.2038 33.8525 93.0412 32.2688 90.2408C30.685 87.4404 28.4035 85.0975 25.6461 83.4401L25.3498 83.265L23.0196 81.9181L164.868 0.00634766L167.199 1.35325C170.036 2.99245 172.393 5.34958 174.031 8.18784C175.67 11.0261 176.532 14.2456 176.533 17.5228Z" fill="#FF80B6"/>
<path d="M129.862 22.9109L127.526 21.564L120.064 25.874L122.394 27.2209C125.232 28.858 127.589 31.2137 129.228 34.0511C130.866 36.8884 131.729 40.1073 131.728 43.3838L139.19 39.0737C139.19 35.7981 138.328 32.5802 136.691 29.7432C135.053 26.9061 132.699 24.5498 129.862 22.9109Z" fill="#F0F0F0"/>
<path d="M114.932 31.531L112.595 30.1841L105.133 34.4942L107.464 35.8411C110.302 37.4781 112.659 39.8338 114.297 42.6712C115.936 45.5085 116.798 48.7274 116.798 52.0039L124.266 47.6938C124.263 44.418 123.4 41.2005 121.761 38.3637C120.123 35.527 117.768 33.1707 114.932 31.531Z" fill="#F0F0F0"/>
<path d="M100.002 40.1511L97.6716 38.8042L90.203 43.1143L92.5331 44.4612C95.3709 46.0988 97.7275 48.4546 99.366 51.2918C101.004 54.129 101.867 57.3476 101.867 60.624L109.336 56.3072C109.333 53.0322 108.469 49.8156 106.831 46.9799C105.193 44.1442 102.838 41.7892 100.002 40.1511Z" fill="#F0F0F0"/>
<path d="M85.0713 48.7781L82.7412 47.4312L75.2726 51.7412L77.6095 53.0881C80.4455 54.7271 82.8004 57.0834 84.4376 59.9205C86.0748 62.7575 86.9368 65.9754 86.9368 69.2509L94.4054 64.9409C94.4039 61.6648 93.5407 58.4467 91.9024 55.6097C90.264 52.7728 87.9082 50.4167 85.0713 48.7781Z" fill="#F0F0F0"/>
<path d="M70.141 57.3982L67.8108 56.0513L60.3423 60.3614L62.6791 61.7083C65.5152 63.3472 67.87 65.7035 69.5072 68.5406C71.1445 71.3776 72.0064 74.5955 72.0064 77.8711L79.475 73.561C79.4756 70.2845 78.6133 67.0656 76.9747 64.2283C75.3361 61.391 72.9792 59.0352 70.141 57.3982Z" fill="#F0F0F0"/>
<path d="M55.2307 66.0183L52.9006 64.6714L45.432 68.9815L47.7689 70.3284C50.6049 71.9673 52.9598 74.3237 54.597 77.1607C56.2342 79.9977 57.0961 83.2156 57.0962 86.4912L64.5647 82.1811C64.5654 78.9046 63.703 75.6857 62.0644 72.8484C60.4259 70.0111 58.0689 67.6553 55.2307 66.0183Z" fill="#F0F0F0"/>
<path d="M40.2802 74.6386L37.95 73.2917L30.4815 77.6018L32.8183 78.9487C35.6544 80.5877 38.0093 82.944 39.6465 85.781C41.2837 88.6181 42.1456 91.836 42.1456 95.1115L49.6142 90.8015C49.6148 87.525 48.7525 84.3061 47.1139 81.4688C45.4753 78.6314 43.1184 76.2757 40.2802 74.6386Z" fill="#F0F0F0"/>
<path d="M144.8 14.2839L142.469 12.937L135.001 17.2471L137.338 18.594C140.174 20.233 142.529 22.5893 144.166 25.4263C145.803 28.2634 146.665 31.4812 146.665 34.7568L154.134 30.44C154.133 27.1646 153.27 23.9472 151.632 21.1111C149.993 18.2751 147.637 15.9204 144.8 14.2839Z" fill="#F0F0F0"/>
<path d="M159.737 5.66355L157.4 4.31665L149.938 8.63347L152.268 9.98037C155.105 11.6185 157.462 13.9744 159.1 16.8115C160.739 19.6486 161.601 22.867 161.602 26.1432L169.044 21.8331C169.047 18.5584 168.189 15.3404 166.555 12.5023C164.921 9.66412 162.57 7.30564 159.737 5.66355Z" fill="#F0F0F0"/>
<path d="M42.1456 95.1314C42.1456 97.3605 43.8225 98.2023 45.8833 97.017C47.944 95.8318 49.6142 93.0504 49.6142 90.8213L42.1456 95.1314Z" fill="#E0E0E0"/>
<path d="M57.076 86.5181C57.076 88.7472 58.7462 89.589 60.8137 88.397C62.8812 87.205 64.5446 84.4371 64.5446 82.208L57.076 86.5181Z" fill="#E0E0E0"/>
<path d="M72.0064 77.8643C72.0064 80.0934 73.6766 80.9419 75.7373 79.7499C77.7981 78.5579 79.475 75.7833 79.475 73.5542L72.0064 77.8643Z" fill="#E0E0E0"/>
<path d="M86.9368 69.2577C86.9368 71.4869 88.607 72.3287 90.6677 71.1367C92.7285 69.9447 94.4054 67.1768 94.4054 64.9409L86.9368 69.2577Z" fill="#E0E0E0"/>
<path d="M101.86 60.6306C101.86 62.8598 103.531 63.7016 105.591 62.5096C107.652 61.3176 109.329 58.5497 109.329 56.3206L101.86 60.6306Z" fill="#E0E0E0"/>
<path d="M116.798 52.0039C116.798 54.2331 118.468 55.0749 120.528 53.8829C122.589 52.6909 124.266 49.923 124.266 47.6938L116.798 52.0039Z" fill="#E0E0E0"/>
<path d="M131.728 43.397C131.728 45.6261 133.398 46.4679 135.459 45.2827C137.52 44.0974 139.19 41.316 139.19 39.0869L131.728 43.397Z" fill="#E0E0E0"/>
<path d="M146.665 34.7566C146.665 36.9857 148.335 37.8275 150.403 36.6355C152.47 35.4435 154.134 32.6757 154.134 30.4465L146.665 34.7566Z" fill="#E0E0E0"/>
<path d="M161.596 26.1367C161.596 28.3659 163.266 29.2077 165.326 28.0224C167.387 26.8371 169.044 24.0625 169.044 21.8267L161.596 26.1367Z" fill="#E0E0E0"/>
<path d="M34.6837 99.4214C34.6837 101.651 36.3539 102.499 38.4147 101.307C40.4754 100.115 42.1456 97.3404 42.1456 95.1113L34.6837 99.4214Z" fill="#FF80B6"/>
<path d="M49.6142 90.8013C49.6142 93.0304 51.2844 93.8722 53.3451 92.687C55.4059 91.5017 57.0828 88.7203 57.0828 86.4912L49.6142 90.8013Z" fill="#FF80B6"/>
<path d="M64.5446 82.1812C64.5446 84.4103 66.2148 85.2521 68.2755 84.0601C70.3363 82.8681 72.0064 80.1002 72.0064 77.8711L64.5446 82.1812Z" fill="#FF80B6"/>
<path d="M79.475 73.5608C79.475 75.7899 81.1452 76.6317 83.2059 75.4397C85.2667 74.2477 86.9368 71.4799 86.9368 69.2507L79.475 73.5608Z" fill="#FF80B6"/>
<path d="M94.4054 64.9407C94.4054 67.1698 96.0756 68.0116 98.1363 66.8196C100.197 65.6276 101.867 62.8597 101.867 60.6306L94.4054 64.9407Z" fill="#FF80B6"/>
<path d="M109.336 56.314C109.336 58.5431 111.006 59.3917 113.067 58.1997C115.127 57.0076 116.798 54.233 116.798 52.0039L109.336 56.314Z" fill="#FF80B6"/>
<path d="M124.266 47.6936C124.266 49.9227 125.936 50.7646 127.997 49.5793C130.058 48.394 131.728 45.6127 131.728 43.3835L124.266 47.6936Z" fill="#FF80B6"/>
<path d="M139.19 39.0735C139.19 41.3026 140.867 42.1444 142.927 40.9524C144.988 39.7604 146.658 36.9925 146.658 34.7634L139.19 39.0735Z" fill="#FF80B6"/>
<path d="M154.134 30.4331C154.134 32.6622 155.804 33.5108 157.865 32.3188C159.925 31.1268 161.596 28.3522 161.596 26.123L154.134 30.4331Z" fill="#FF80B6"/>
<path d="M169.044 21.8133C169.044 24.0424 170.714 24.8842 172.775 23.6989C174.836 22.5136 176.506 19.7323 176.506 17.5032L169.044 21.8133Z" fill="#FF80B6"/>
<g opacity="0.1">
<path opacity="0.1" d="M34.6838 99.4214C34.6838 101.651 36.3539 102.499 38.4147 101.307C40.4754 100.115 42.1456 97.3404 42.1456 95.1113L34.6838 99.4214Z" fill="black"/>
<path opacity="0.1" d="M49.6143 90.8013C49.6143 93.0304 51.2844 93.8722 53.3452 92.687C55.4059 91.5017 57.0828 88.7203 57.0828 86.4912L49.6143 90.8013Z" fill="black"/>
<path opacity="0.1" d="M64.5446 82.1812C64.5446 84.4103 66.2148 85.2521 68.2756 84.0601C70.3363 82.8681 72.0065 80.1002 72.0065 77.8711L64.5446 82.1812Z" fill="black"/>
<path opacity="0.1" d="M79.475 73.5608C79.475 75.7899 81.1452 76.6317 83.2059 75.4397C85.2667 74.2477 86.9369 71.4799 86.9369 69.2507L79.475 73.5608Z" fill="black"/>
<path opacity="0.1" d="M94.4054 64.9407C94.4054 67.1698 96.0756 68.0116 98.1363 66.8196C100.197 65.6276 101.867 62.8597 101.867 60.6306L94.4054 64.9407Z" fill="black"/>
<path opacity="0.1" d="M109.336 56.314C109.336 58.5431 111.006 59.3917 113.067 58.1997C115.127 57.0076 116.798 54.233 116.798 52.0039L109.336 56.314Z" fill="black"/>
<path opacity="0.1" d="M124.266 47.6936C124.266 49.9227 125.936 50.7646 127.997 49.5793C130.058 48.394 131.728 45.6127 131.728 43.3835L124.266 47.6936Z" fill="black"/>
<path opacity="0.1" d="M139.19 39.0735C139.19 41.3026 140.867 42.1444 142.927 40.9524C144.988 39.7604 146.658 36.9925 146.658 34.7634L139.19 39.0735Z" fill="black"/>
<path opacity="0.1" d="M154.134 30.4331C154.134 32.6622 155.804 33.5108 157.865 32.3188C159.925 31.1268 161.596 28.3522 161.596 26.123L154.134 30.4331Z" fill="black"/>
<path opacity="0.1" d="M169.044 21.8133C169.044 24.0424 170.714 24.8842 172.775 23.6989C174.836 22.5136 176.506 19.7323 176.506 17.5032L169.044 21.8133Z" fill="black"/>
</g>
<path d="M34.6837 99.3472V99.4213L23.0196 92.6532V81.9116L25.3497 83.2585L25.646 83.4336C28.3027 85.0255 30.5197 87.2558 32.0956 89.922C33.6716 92.5881 34.5566 95.6057 34.6703 98.7007C34.6838 98.9095 34.6837 99.1452 34.6837 99.3472Z" fill="#E0E0E0"/>
<path d="M214.084 244.799C214.084 244.799 214.522 245.567 216.886 244.57C219.25 243.573 219.916 242.395 219.916 242.395C219.916 242.395 219.297 237.681 217.835 238.846C216.374 240.011 214.084 244.799 214.084 244.799Z" fill="#FF80B6"/>
<path opacity="0.3" d="M214.084 244.799C214.084 244.799 214.522 245.567 216.886 244.57C219.25 243.573 219.916 242.395 219.916 242.395C219.916 242.395 219.297 237.681 217.835 238.846C216.374 240.011 214.084 244.799 214.084 244.799Z" fill="black"/>
<path d="M220.024 228.198C219.984 230.684 219.916 232.589 220.866 233.923C221.383 234.577 221.734 235.346 221.889 236.165C221.889 236.165 219.081 236.556 217.653 238.496C216.226 240.435 216.306 242.361 214.96 242.678C213.613 242.994 211.424 241.479 211.424 241.479C211.896 241.415 212.336 241.207 212.685 240.882C213.033 240.558 213.273 240.133 213.37 239.667C213.922 237.91 215.33 234.152 215.391 233.162C215.451 232.172 215.391 228.353 215.391 228.353L220.024 228.198Z" fill="#FFA8A7"/>
<path d="M220.051 234.57C218.832 234.644 216.953 236.011 216.327 237.425C215.7 238.839 214.67 240.833 213.875 241.277C213.081 241.722 211.673 241.075 210.468 241.068C209.262 241.062 208.447 241.621 208.353 242.496L213.35 244.86C214.508 245.405 215.478 245.426 216.387 243.028C217.296 240.631 217.633 239.284 218.354 240.913C219.074 242.543 219.371 246.207 219.371 246.207C219.645 246.306 219.947 246.299 220.216 246.187C220.485 246.075 220.703 245.865 220.825 245.601C220.815 244.532 220.873 243.463 221 242.402C221.209 240.927 222.543 239.075 222.442 237.304C222.341 235.533 221.378 234.482 220.051 234.57Z" fill="#263238"/>
<path d="M199.699 254.133C199.699 254.133 200.15 254.928 202.595 253.904C205.04 252.881 205.727 251.655 205.727 251.655C205.727 251.655 205.094 246.746 203.578 247.985C202.063 249.224 199.699 254.133 199.699 254.133Z" fill="#FF80B6"/>
<path opacity="0.3" d="M199.699 254.133C199.699 254.133 200.15 254.928 202.595 253.904C205.04 252.881 205.727 251.655 205.727 251.655C205.727 251.655 205.094 246.746 203.578 247.985C202.063 249.224 199.699 254.133 199.699 254.133Z" fill="black"/>
<path d="M205.841 236.967C205.794 239.54 205.733 241.513 206.71 242.887C207.245 243.563 207.61 244.357 207.774 245.204C207.774 245.204 204.865 245.628 203.39 247.648C201.915 249.669 201.996 251.648 200.622 251.978C199.248 252.308 196.965 250.739 196.965 250.739C197.454 250.672 197.911 250.456 198.273 250.12C198.634 249.783 198.883 249.344 198.985 248.86C199.551 247.042 201.006 243.156 201.06 242.126C201.114 241.096 201.302 236.994 201.302 236.994L205.841 236.967Z" fill="#FFA8A7"/>
<path d="M205.868 243.553C204.609 243.634 202.663 245.048 202.023 246.51C201.383 247.971 200.305 250.039 199.484 250.497C198.662 250.955 197.201 250.288 195.962 250.281C194.723 250.274 193.84 250.847 193.766 251.749L198.945 254.201C200.137 254.766 201.141 254.786 202.077 252.308C203.013 249.83 203.37 248.436 204.097 250.119C204.824 251.803 205.148 255.595 205.148 255.595C205.431 255.698 205.743 255.691 206.021 255.575C206.299 255.459 206.524 255.242 206.649 254.968C206.639 253.863 206.7 252.759 206.831 251.662C207.047 250.133 208.427 248.22 208.326 246.382C208.225 244.543 207.242 243.473 205.868 243.553Z" fill="#263238"/>
<path d="M217.108 132.185C220.334 132.811 221.822 133.909 223.64 138.387C225.459 142.866 228.745 153.762 229.506 156.752C229.85 158.099 221.371 170.08 221.735 169.898C221.842 169.844 218.421 164.12 218.421 164.12L222.583 156.16L219.62 148.913L217.108 132.185Z" fill="#FFA8A7"/>
<path d="M223.014 205.429C222.859 199.503 221.667 196.903 221.667 196.903C221.667 196.903 222.401 189.987 223.546 181.05C225.371 166.814 223.068 162.719 218.94 157.143C218.94 157.143 201.827 153.264 199.753 160.16C195.201 175.259 196.595 201.476 196.911 205.672C197.228 209.867 197.221 205.988 198.258 214.48C199.066 221.215 201.228 239.398 201.228 239.398C204.279 241.048 206.117 239.284 206.117 239.284C206.117 239.284 208.542 217.06 208.346 212.197C208.104 206.285 207.767 204.789 207.767 204.789C207.767 204.789 210.178 187.657 210.596 184.586C210.596 184.586 210.892 189.671 211.209 193.866C211.525 198.062 211.848 199.873 212.731 208.554C213.404 215.356 215.424 230.179 215.424 230.179C216.176 230.517 217.004 230.65 217.824 230.564C218.644 230.478 219.427 230.175 220.091 229.687C220.091 229.687 223.135 210.217 223.014 205.429Z" fill="#455A64"/>
<path d="M205.35 129.101L206.427 137.963L214.226 137.263L213.337 127.417L205.35 129.101Z" fill="#FFA8A7"/>
<path d="M221.829 136.475C221.25 134.057 219.014 131.7 216.01 132.259C215.229 132.401 214.549 132.515 213.808 132.663C213.741 134.684 209.895 135.761 206.057 134.522C204.907 134.85 203.85 135.186 202.885 135.532C200.144 136.515 196.446 141.97 198.379 149.345C199.197 152.894 199.649 156.518 199.726 160.16C199.726 160.16 214.226 163.601 218.913 157.143C219.317 154.847 223.977 145.358 221.829 136.475Z" fill="#FF80B6"/>
<g opacity="0.3">
<path opacity="0.3" d="M221.829 136.475C221.25 134.057 219.014 131.7 216.01 132.259C215.229 132.401 214.549 132.515 213.808 132.663C213.741 134.684 209.895 135.761 206.057 134.522C204.907 134.85 203.85 135.186 202.885 135.532C200.144 136.515 196.446 141.97 198.379 149.345C199.197 152.894 199.649 156.518 199.726 160.16C199.726 160.16 214.226 163.601 218.913 157.143C219.317 154.847 223.977 145.358 221.829 136.475Z" fill="black"/>
</g>
<path d="M199.558 117.834C199.089 116.775 198.897 115.615 198.999 114.461C199.102 113.308 199.496 112.2 200.144 111.241C202.763 107.132 207.956 105.637 213.936 107.24C216.899 108.035 220.899 111.954 221.27 117.665C221.553 122.049 209.323 125.282 209.606 128.286L199.558 117.834Z" fill="#263238"/>
<path d="M199.295 119.497C199.295 119.497 197.638 122.157 197.867 122.433C198.282 122.688 198.738 122.868 199.214 122.965L199.295 119.497Z" fill="#F28F8F"/>
<path d="M204.36 111.072C202.696 111.988 199.834 113.665 199.255 119.881C198.662 126.258 200.137 128.434 201.026 129.242C201.625 129.787 204.649 129.915 206.211 129.377C208.165 128.703 212.374 126.487 214.293 123.154C216.549 119.228 216.892 114.069 214.125 112.13C210.212 109.389 205.76 110.298 204.36 111.072Z" fill="#FFA8A7"/>
<path d="M204.44 118.574C203.368 118.173 202.425 117.487 201.713 116.59C201.001 115.693 200.547 114.619 200.4 113.483C199.773 109.442 204.824 107.718 204.824 107.718L204.44 118.574Z" fill="#263238"/>
<path d="M203.868 111.348C203.868 111.348 202.561 117.187 204.413 120.777C204.413 120.777 205.376 118.48 207.343 119.079C209.309 119.679 209.208 122.299 207.707 123.672C207.322 124.065 206.834 124.342 206.299 124.47C205.764 124.599 205.204 124.575 204.683 124.4C204.844 127.343 204.339 128.669 202.898 131.289C202.898 131.289 213.633 132.811 218.664 127.134C223.23 121.982 222.166 111.57 215.168 109.449C208.171 107.328 203.868 111.348 203.868 111.348Z" fill="#263238"/>
<path d="M183.186 149.58C182.055 148.287 181.839 145.432 180.358 143.465C178.876 141.499 179.125 139.525 178.183 140.401C177.24 141.276 177.94 144.509 177.94 144.509C177.94 144.509 176.189 147.762 176.034 149.432C175.879 151.102 180.297 155.284 180.297 155.284L183.186 149.58Z" fill="#FFA8A7"/>
<path d="M178.149 144.287C177.3 145.512 174.519 143.505 173.778 142.94C173.328 142.548 172.813 142.238 172.256 142.024C171.975 141.923 171.671 141.902 171.378 141.964C171.085 142.025 170.816 142.168 170.599 142.374C170.385 142.655 170.248 142.987 170.202 143.337C170.004 144.441 170.049 145.575 170.333 146.659C170.616 147.744 171.133 148.755 171.845 149.62C173.556 151.715 176.344 152.004 178.519 153.486C178.445 153.016 178.429 152.539 178.472 152.065C178.432 151.021 178.385 149.977 178.344 148.933C178.277 147.385 178.196 145.829 178.149 144.287Z" fill="#FFA8A7"/>
<path d="M203.572 135.296C201.275 136.098 199.268 137.02 197.133 141.041C194.379 146.206 189.382 156.328 189.382 156.328L183.153 149.594C183.153 149.594 182.25 148.314 180.56 151.102C178.869 153.89 179.617 154.658 179.617 154.658C179.617 154.658 186.87 164.369 188.197 165.602C189.523 166.834 191.712 165.878 193.14 163.938C194.568 161.999 201.942 148.651 201.942 148.651C201.942 148.651 206.811 140.186 203.572 135.296Z" fill="#FFA8A7"/>
<path d="M210.522 184.781L211.262 177.905C213.761 177.539 216.15 176.636 218.266 175.259C218.266 175.259 216.771 177.643 212.683 178.734L211.128 184.93V193.59L210.522 184.781Z" fill="#37474F"/>
<path d="M196.069 166.686L194.271 165.649C194.254 164.643 194.15 163.64 193.961 162.652C194.318 162.066 194.749 161.345 195.221 160.537C195.781 162.539 196.066 164.607 196.069 166.686Z" fill="#FF80B6"/>
<path opacity="0.5" d="M196.069 166.686L194.271 165.649C194.254 164.643 194.15 163.64 193.961 162.652C194.318 162.066 194.749 161.345 195.221 160.537C195.781 162.539 196.066 164.607 196.069 166.686Z" fill="black"/>
<path d="M196.137 167.258L196.063 166.686L196.009 166.726V166.686L194.217 165.649C193.982 166.322 193.706 167.225 193.416 168.235C189.725 170.37 183.516 173.939 183.516 173.939L185.409 188.384L197.861 181.158C198.108 181.018 198.294 180.79 198.379 180.518C198.905 179.003 196.716 169.676 196.137 167.258Z" fill="#FF80B6"/>
<path opacity="0.2" d="M196.137 167.258L196.063 166.686L196.009 166.726V166.686L194.217 165.649C193.982 166.322 193.706 167.225 193.416 168.235C189.725 170.37 183.516 173.939 183.516 173.939L185.409 188.384L197.861 181.158C198.108 181.018 198.294 180.79 198.379 180.518C198.905 179.003 196.716 169.676 196.137 167.258Z" fill="black"/>
<path d="M196.063 166.686L183.496 173.939L181.705 172.902L194.271 165.649L196.063 166.686Z" fill="#FF80B6"/>
<path opacity="0.2" d="M184.23 177.05C184.23 177.05 184.156 177.38 185.375 177.643C186.594 177.906 191.672 177.845 192.345 177.448C193.019 177.05 194.81 174.841 195.625 173.36C196.122 172.452 196.548 171.506 196.898 170.531L184.23 177.05Z" fill="black"/>
<path d="M181.705 172.895C180.661 175.919 178.667 183.67 178.97 184.842C179.273 186.014 180.802 186.862 181.705 187.408C182.607 187.953 185.274 189.468 185.88 187.744C186.486 186.02 183.503 173.932 183.503 173.932L181.705 172.895Z" fill="#FF80B6"/>
<path opacity="0.3" d="M181.705 172.895C180.661 175.919 178.667 183.67 178.97 184.842C179.273 186.014 180.802 186.862 181.705 187.408C182.607 187.953 185.274 189.468 185.88 187.744C186.486 186.02 183.503 173.932 183.503 173.932L181.705 172.895Z" fill="black"/>
<path d="M183.503 173.939C183.503 174.121 183.772 176.33 184.23 177.05C184.688 177.771 190.864 177.347 191.914 177.05C192.965 176.754 196.763 171.366 196.898 170.531C197.032 169.696 196.063 166.686 196.063 166.686L183.503 173.939Z" fill="#FF80B6"/>
<path opacity="0.1" d="M183.503 173.939C183.503 174.121 183.772 176.33 184.23 177.05C184.688 177.771 190.864 177.347 191.914 177.05C192.965 176.754 196.763 171.366 196.898 170.531C197.032 169.696 196.063 166.686 196.063 166.686L183.503 173.939Z" fill="black"/>
<path d="M191.678 175.932C191.712 176.202 191.914 176.289 192.13 176.127C192.244 176.033 192.335 175.914 192.395 175.778C192.454 175.642 192.481 175.494 192.473 175.346C192.439 175.077 192.237 174.989 192.022 175.151C191.908 175.246 191.818 175.366 191.759 175.501C191.699 175.637 191.672 175.784 191.678 175.932Z" fill="#FF80B6"/>
<path d="M189.981 155.123C183.382 156.267 181.705 172.902 181.705 172.902L183.503 173.939C183.826 164.106 187.961 157.177 189.422 156.321L189.981 155.123Z" fill="#FF80B6"/>
<path opacity="0.3" d="M189.981 155.123C183.382 156.267 181.705 172.902 181.705 172.902L183.503 173.939C183.826 164.106 187.961 157.177 189.422 156.321L189.981 155.123Z" fill="black"/>
</svg>
