<?xml version="1.0" encoding="utf-8"?>
<!-- Generator: Adobe Illustrator 22.1.0, SVG Export Plug-In . SVG Version: 6.00 Build 0)  -->
<svg version="1.1" id="Слой_1" xmlns="http://www.w3.org/2000/svg" xmlns:xlink="http://www.w3.org/1999/xlink" x="0px" y="0px"
	 viewBox="0 0 108 19" style="enable-background:new 0 0 108 19;" xml:space="preserve">
<style type="text/css">
	.st0{fill:#FFFFFF;}
</style>
<polygon class="st0" points="25.9,19 38.3,19 32.1,15.3 "/>
<polygon class="st0" points="47.9,19 60.3,19 54.1,15.3 "/>
<polygon class="st0" points="3.9,19 16.3,19 10.1,15.3 "/>
<polygon class="st0" points="91.9,19 104.3,19 98.1,15.3 "/>
<polygon class="st0" points="69.9,19 82.3,19 76.1,15.3 "/>
<polygon class="st0" points="44,7.2 51.2,6.6 54,0 32,0 34.8,6.6 42,7.2 36.7,12 38.3,19 47.9,19 49.5,12 "/>
<polygon class="st0" points="29.2,6.6 22,7.2 27.5,12 25.9,19 16.3,19 14.7,12 20,7.2 12.8,6.6 10,0 32,0 "/>
<polygon class="st0" points="0,0 10,0 7.2,6.6 0,7.2 "/>
<polygon class="st0" points="0,7.2 0,19 3.9,19 5.5,12 "/>
<polygon class="st0" points="104.3,19 108,19 108,7.2 102.7,12 "/>
<polygon class="st0" points="88,7.2 95.2,6.6 98,0 76,0 78.8,6.6 86,7.2 80.7,12 82.3,19 91.9,19 93.5,12 "/>
<polygon class="st0" points="98,0 100.8,6.6 108,7.2 108,0 "/>
<polygon class="st0" points="66,7.2 73.2,6.6 76,0 54,0 56.8,6.6 64,7.2 58.7,12 60.3,19 69.9,19 71.5,12 "/>
<path fill="#FF006D" d="M20,7.2l-7.2-0.6L10,0L7.2,6.6L0,7.2L5.5,12l-1.6,7l6.2-3.7l6.2,3.7l-1.6-7L20,7.2z M10,13.4l-3.8,2.3l1-4.3L3.9,8.5
	l4.4-0.4l1.7-4l1.7,4l4.4,0.4l-3.3,2.9l1,4.3L10,13.4z"/>
<path fill="#FF006D" d="M42,7.2l-7.2-0.6L32,0l-2.8,6.6L22,7.2l5.5,4.8l-1.6,7l6.2-3.7l6.2,3.7l-1.6-7L42,7.2z M32,13.4l-3.8,2.3l1-4.3l-3.3-2.9
	l4.4-0.4l1.7-4l1.7,4l4.4,0.4l-3.3,2.9l1,4.3L32,13.4z"/>
<path fill="#FF006D" d="M64,7.2l-7.2-0.6L54,0l-2.8,6.6L44,7.2l5.5,4.8l-1.6,7l6.2-3.7l6.2,3.7l-1.6-7L64,7.2z M54,13.4l-3.8,2.3l1-4.3l-3.3-2.9
	l4.4-0.4l1.7-4l1.7,4l4.4,0.4l-3.3,2.9l1,4.3L54,13.4z"/>
<path fill="#FF006D" d="M86,7.2l-7.2-0.6L76,0l-2.8,6.6L66,7.2l5.5,4.8l-1.6,7l6.2-3.7l6.2,3.7l-1.6-7L86,7.2z M76,13.4l-3.8,2.3l1-4.3l-3.3-2.9
	l4.4-0.4l1.7-4l1.7,4l4.4,0.4l-3.3,2.9l1,4.3L76,13.4z"/>
<path fill="#FF006D" d="M98,0l-2.8,6.6L88,7.2l5.5,4.8l-1.6,7l6.2-3.7l6.2,3.7l-1.6-7l5.3-4.8l-7.2-0.6L98,0z M100.8,11.4l1,4.3L98,13.4l-3.8,2.3
	l1-4.3l-3.3-2.9l4.4-0.4l1.7-4l1.7,4l4.4,0.4L100.8,11.4z"/>
</svg>
