<svg width="50" height="50" viewBox="0 0 50 50" fill="none" xmlns="http://www.w3.org/2000/svg">
<path d="M21.9727 26.5625C22.7816 26.5625 23.4375 25.9066 23.4375 25.0977V19.2383C23.4375 18.4293 22.7816 17.7734 21.9727 17.7734H16.1133C15.3043 17.7734 14.6484 18.4293 14.6484 19.2383C14.6484 20.0473 15.3043 20.7031 16.1133 20.7031H20.5078V23.6328H16.1133C15.3043 23.6328 14.6484 24.2887 14.6484 25.0977V30.957C14.6484 31.766 15.3043 32.4219 16.1133 32.4219H21.9727C22.7816 32.4219 23.4375 31.766 23.4375 30.957C23.4375 30.148 22.7816 29.4922 21.9727 29.4922H17.5781V26.5625H21.9727Z" fill="#6392CA"/>
<path d="M36.8164 23.6328H35.3516V19.2383C35.3516 18.4293 34.6957 17.7734 33.8867 17.7734C33.0777 17.7734 32.4219 18.4293 32.4219 19.2383V23.6328H29.4922V19.2383C29.4922 18.4293 28.8363 17.7734 28.0273 17.7734C27.2184 17.7734 26.5625 18.4293 26.5625 19.2383V25.0977C26.5625 25.9066 27.2184 26.5625 28.0273 26.5625H32.4219V30.957C32.4219 31.766 33.0777 32.4219 33.8867 32.4219C34.6957 32.4219 35.3516 31.766 35.3516 30.957V26.5625H36.8164C37.6254 26.5625 38.2812 25.9066 38.2812 25.0977C38.2812 24.2887 37.6254 23.6328 36.8164 23.6328Z" fill="#6392CA"/>
<path d="M48.5352 23.6328H42.6758C41.8668 23.6328 41.2109 24.2887 41.2109 25.0977C41.2109 25.9066 41.8668 26.543 42.6758 26.543H47.0216C46.2902 37.4979 37.4214 46.303 26.3672 47.0215V42.6758C26.3672 41.8668 25.7113 41.2109 24.9023 41.2109C24.0934 41.2109 23.4375 41.8668 23.4375 42.6758V47.0203C12.4866 46.2959 3.7041 37.5134 2.97969 26.5625H7.32422C8.1332 26.5625 8.78906 25.9066 8.78906 25.0977C8.78906 24.2887 8.1332 23.6328 7.32422 23.6328H2.97891C3.69727 12.5785 12.4823 3.71133 23.4375 2.98018V7.32422C23.4375 8.1332 24.0934 8.78906 24.9023 8.78906C25.7113 8.78906 26.3672 8.1332 26.3672 7.32422V2.979C30.5176 3.25723 34.5969 4.70615 37.9211 7.07764L35.7806 9.21816C35.0111 9.98769 35.322 11.3 36.3531 11.6437L45.1422 14.5733C45.6678 14.7485 46.2483 14.6123 46.6412 14.2194C47.0336 13.8271 47.1706 13.2468 46.9951 12.7204L44.0654 3.93135C43.7218 2.90078 42.41 2.58896 41.6399 3.35879L40.0188 4.97988C35.7157 1.76055 30.4001 0 24.9023 0C18.2695 0 12.0167 2.62988 7.2957 7.40518C2.59092 12.164 0 18.4473 0 25.0977C0 38.8288 11.1712 50 24.9023 50C31.5527 50 37.8359 47.409 42.5948 42.7043C47.3701 37.9833 50 31.7305 50 25.0977C50 24.2887 49.3441 23.6328 48.5352 23.6328ZM42.0355 7.10635L43.2894 10.8675L39.5281 9.61377L42.0355 7.10635Z" fill="#6392CA"/>
</svg>
